<svg width="13" height="13" viewBox="0 0 13 13" fill="none" xmlns="http://www.w3.org/2000/svg">
<path d="M11.6429 7.77121H7.35714V12.0569C7.35714 12.5283 6.97143 12.9141 6.5 12.9141C6.02857 12.9141 5.64286 12.5283 5.64286 12.0569V7.77121H1.35714C0.885714 7.77121 0.5 7.38549 0.5 6.91406C0.5 6.44263 0.885714 6.05692 1.35714 6.05692H5.64286V1.77121C5.64286 1.29978 6.02857 0.914062 6.5 0.914062C6.97143 0.914062 7.35714 1.29978 7.35714 1.77121V6.05692H11.6429C12.1143 6.05692 12.5 6.44263 12.5 6.91406C12.5 7.38549 12.1143 7.77121 11.6429 7.77121Z" fill="#3572EF"/>
</svg>
