<svg width="32" height="33" viewBox="0 0 32 33" fill="none" xmlns="http://www.w3.org/2000/svg">
<g clip-path="url(#clip0_1068_3590)">
<path d="M15.9843 0.890625C16.1057 0.887966 16.1057 0.887966 16.2295 0.885254C16.8869 0.925344 17.4725 1.30479 18.0312 1.62109C18.1109 1.66569 18.1906 1.71024 18.2703 1.75475C18.4339 1.84614 18.5973 1.93779 18.7606 2.02966C19.0544 2.1948 19.349 2.35815 19.6437 2.52151C20.0614 2.75305 20.4785 2.98535 20.8958 3.21747C21.6903 3.6593 22.4851 4.10025 23.2812 4.53906C24.0771 4.97778 24.8718 5.41864 25.666 5.86038C26.0169 6.05547 26.3678 6.25039 26.7187 6.44531C27.1392 6.67887 27.5596 6.91246 27.9799 7.14624C28.1194 7.2238 28.2589 7.30136 28.3984 7.37891C28.467 7.41705 28.5356 7.4552 28.6063 7.49451C28.9813 7.70288 29.3567 7.91058 29.7326 8.11743C29.773 8.13966 29.8134 8.16189 29.855 8.18479C30.0492 8.29173 30.2435 8.39857 30.4379 8.50523C30.7863 8.6969 31.1337 8.89027 31.4787 9.08789C31.5385 9.12209 31.5983 9.15629 31.6599 9.19153C31.9199 9.35771 31.9198 9.35771 32 9.47656C32.0202 9.63985 32.0292 9.78796 32.0293 9.95142C32.0297 9.99822 32.0302 10.045 32.0307 10.0933C32.0314 10.1925 32.0316 10.2917 32.0313 10.391C32.0312 10.541 32.0338 10.6907 32.0366 10.8407C32.0417 11.4829 31.971 11.935 31.5581 12.4507C31.1522 12.8041 30.7348 13.0274 30.1889 13.0488C29.9761 13.0737 29.8859 13.1269 29.7487 13.2913C29.689 13.3741 29.6309 13.4581 29.5742 13.543C29.5428 13.5873 29.5115 13.6316 29.4792 13.6772C29.3804 13.8176 29.2839 13.9595 29.1875 14.1016C29.1228 14.195 29.058 14.2883 28.9931 14.3816C28.8515 14.5859 28.7113 14.7911 28.5725 14.9973C28.5 15.1016 28.5 15.1016 28.4034 15.2046C28.2806 15.403 28.2845 15.5814 28.2844 15.8078C28.2833 15.877 28.2833 15.877 28.2822 15.9475C28.28 16.102 28.2791 16.2565 28.2783 16.411C28.277 16.5218 28.2757 16.6326 28.2742 16.7434C28.27 17.1077 28.2677 17.4719 28.2656 17.8362C28.2647 17.9619 28.2639 18.0876 28.263 18.2134C28.2596 18.737 28.2566 19.2607 28.255 19.7844C28.2526 20.5326 28.2475 21.2808 28.2384 22.029C28.2322 22.5562 28.2291 23.0833 28.2284 23.6104C28.2279 23.9247 28.226 24.2388 28.2208 24.553C28.1411 26.2776 28.1411 26.2776 28.9121 27.7563C28.9472 27.7918 28.9824 27.8274 29.0186 27.864C29.2065 28.0628 29.3578 28.2889 29.5156 28.5117C29.5717 28.5874 29.628 28.6631 29.6845 28.7385C29.8125 28.9141 29.8125 28.9141 29.875 29.0391C29.9496 29.0414 30.0243 29.0437 30.1013 29.0461C31.3503 29.0937 31.3503 29.0937 31.6767 29.3943C31.9652 29.7185 32.0109 29.9387 32.0149 30.3701C32.0154 30.4218 32.0159 30.4734 32.0164 30.5266C32.0173 30.6361 32.0179 30.7456 32.0184 30.8551C32.0195 31.0219 32.0222 31.1887 32.025 31.3555C32.0256 31.4619 32.0261 31.5684 32.0266 31.6748C32.0277 31.7244 32.0288 31.774 32.0299 31.8252C32.0286 32.1553 31.9664 32.3385 31.75 32.6016C31.4241 32.8956 31.1769 32.9232 30.7516 32.9223C30.6742 32.9225 30.6742 32.9225 30.5952 32.9227C30.4208 32.923 30.2464 32.9229 30.072 32.9228C29.9463 32.923 29.8206 32.9232 29.6949 32.9234C29.3483 32.9239 29.0017 32.924 28.6551 32.9241C28.2818 32.9242 27.9084 32.9247 27.5351 32.9251C26.6756 32.926 25.8161 32.9263 24.9566 32.9266C24.532 32.9268 24.1074 32.927 23.6829 32.9272C22.2299 32.928 20.7769 32.9287 19.3239 32.9289C19.2326 32.9289 19.1414 32.9289 19.0502 32.929C18.9587 32.929 18.8673 32.929 18.7758 32.929C18.5924 32.929 18.4089 32.9291 18.2254 32.9291C18.1799 32.9291 18.1344 32.9291 18.0876 32.9291C16.6121 32.9293 15.1367 32.9303 13.6613 32.9318C12.1019 32.9333 10.5425 32.9342 8.98313 32.9342C8.81201 32.9343 8.6409 32.9343 8.46979 32.9343C8.42766 32.9343 8.38553 32.9343 8.34212 32.9343C7.66348 32.9344 6.98484 32.9351 6.30621 32.936C5.62437 32.9369 4.94253 32.9371 4.26069 32.9366C3.89116 32.9363 3.52163 32.9364 3.15209 32.9373C2.81403 32.938 2.47597 32.938 2.13791 32.9372C2.01539 32.9371 1.89287 32.9373 1.77035 32.9378C1.60419 32.9385 1.43807 32.9381 1.27191 32.9373C1.22402 32.9378 1.17612 32.9383 1.12678 32.9387C0.786375 32.9354 0.524555 32.8662 0.272181 32.6306C0.0218533 32.3033 -0.0111964 32.1133 -0.0149288 31.708C-0.0156855 31.6305 -0.0156865 31.6305 -0.0164585 31.5515C-0.0173237 31.442 -0.0179928 31.3325 -0.0184841 31.223C-0.0195577 31.0562 -0.0223002 30.8895 -0.0250607 30.7227C-0.0256938 30.6162 -0.026226 30.5098 -0.0266476 30.4033C-0.0277418 30.3537 -0.028837 30.3041 -0.0299644 30.2529C-0.0286824 29.9226 0.0341905 29.7403 0.249964 29.4766C0.500335 29.233 0.773061 29.1009 1.1298 29.1019C1.17429 29.1049 1.21878 29.1078 1.26461 29.1108C1.77532 29.1503 1.77532 29.1503 2.23071 28.9566C2.43393 28.7256 2.57718 28.4574 2.72491 28.1889C2.88245 27.9193 3.07183 27.6724 3.25778 27.4219C3.32711 27.3271 3.39629 27.2322 3.4653 27.1372C3.49463 27.0971 3.52397 27.057 3.55419 27.0157C3.70663 26.7968 3.69823 26.6057 3.70045 26.3474C3.70107 26.3014 3.7017 26.2554 3.70235 26.2079C3.70436 26.0529 3.70591 25.8978 3.70745 25.7428C3.70876 25.6319 3.71009 25.521 3.71144 25.4102C3.7232 24.3946 3.72961 23.3789 3.73469 22.3633C3.73853 21.6133 3.74499 20.8633 3.75486 20.1134C3.76158 19.5854 3.76514 19.0574 3.76645 18.5294C3.76733 18.2145 3.76957 17.8997 3.77528 17.5849C3.86676 15.9461 3.86676 15.9461 3.18105 14.5234C3.11196 14.4533 3.04148 14.3846 2.96936 14.3176C2.83549 14.1885 2.73591 14.0411 2.63375 13.8865C2.60282 13.8424 2.57188 13.7984 2.54 13.7531C2.49698 13.6916 2.49698 13.6916 2.45309 13.6289C2.27217 13.3531 2.27217 13.3531 2.06246 13.1016C1.93641 13.0829 1.81004 13.0663 1.68356 13.0508C1.08399 12.9604 0.697717 12.7607 0.312464 12.2891C-0.0446915 11.7918 -0.0506108 11.288 -0.0442104 10.6995C-0.0429978 10.5499 -0.0454875 10.4007 -0.048254 10.2511C-0.0482721 10.1553 -0.0480763 10.0594 -0.0476437 9.96362C-0.0490764 9.89721 -0.0490754 9.89721 -0.0505371 9.82946C-0.0446061 9.57684 -0.0094585 9.48631 0.168131 9.30251C0.353088 9.17871 0.535036 9.0655 0.731897 8.96191C0.798843 8.92635 0.865789 8.89078 0.934763 8.85414C1.00526 8.8172 1.07576 8.78025 1.1484 8.74219C1.25947 8.68331 1.37046 8.62426 1.48143 8.56519C1.58977 8.50752 1.69817 8.44997 1.80657 8.39243C2.03822 8.26862 2.26773 8.14152 2.49606 8.01172C2.92959 7.76576 3.36492 7.52314 3.80075 7.28125C3.87228 7.24154 3.94382 7.20183 4.01753 7.16092C4.12798 7.09961 4.23843 7.03831 4.34888 6.97702C4.61506 6.8293 4.88114 6.68141 5.14718 6.53345C5.25981 6.47082 5.37244 6.40819 5.48508 6.34557C5.59013 6.28715 5.69517 6.2287 5.80021 6.17026C5.92956 6.09835 6.05905 6.02669 6.18868 5.95529C6.31431 5.88534 6.43914 5.81395 6.5632 5.74124C6.6229 5.70683 6.6826 5.67242 6.7441 5.63696C6.82272 5.59062 6.82272 5.59062 6.90292 5.54335C7.09503 5.46293 9.46928 3.98666 9.67575 4.00781C9.88342 4.16131 10.0038 4.69067 10.0568 4.94531C10.0059 5.18976 7.62828 6.3276 7.43746 6.47656C7.19336 6.62942 6.94087 6.76562 6.68746 6.90234C6.61255 6.94329 6.53767 6.98429 6.46282 7.02534C6.30557 7.1115 6.14816 7.19738 5.99063 7.28302C5.63715 7.47529 5.28479 7.66961 4.93246 7.86397C4.82564 7.92283 4.71871 7.98148 4.61178 8.04012C3.9447 8.40692 3.2863 8.78616 2.62496 9.16406C11.4525 9.16406 20.28 9.16406 29.375 9.16406C28.2174 8.50894 28.2174 8.50894 27.0547 7.86328C26.9787 7.82147 26.9027 7.77964 26.8268 7.73781C26.6706 7.65179 26.5144 7.56581 26.3581 7.47986C25.9756 7.26939 25.5932 7.05855 25.2109 6.84766C25.1734 6.82697 25.1359 6.80628 25.0972 6.78497C24.3419 6.36831 23.5878 5.94954 22.8339 5.53024C22.4831 5.33515 22.1321 5.14024 21.7812 4.94531C21.3608 4.71176 20.9403 4.47817 20.52 4.24438C20.3805 4.16683 20.241 4.08927 20.1015 4.01172C20.0329 3.97357 19.9643 3.93542 19.8936 3.89612C19.5186 3.68775 19.1432 3.48004 18.7673 3.27319C18.7067 3.23985 18.7067 3.23985 18.645 3.20583C18.4507 3.0989 18.2564 2.99205 18.062 2.88539C17.6546 2.66123 17.2513 2.43189 16.8522 2.19299C16.4411 1.96486 16.0915 1.90882 15.625 1.97656C15.3141 2.08833 15.0353 2.24993 14.75 2.41406C14.6462 2.47242 14.5423 2.53068 14.4384 2.58887C14.1968 2.72462 13.9558 2.86136 13.7151 2.99854C13.2886 3.24091 12.8594 3.4783 12.4297 3.71484C12.3922 3.73548 12.3547 3.75612 12.3161 3.77738C12.1627 3.8618 12.0093 3.94621 11.8559 4.03058C11.5687 4.18861 11.2817 4.34714 10.9948 4.50586C10.8711 4.57427 10.7474 4.64268 10.6237 4.71108C10.5447 4.75478 10.4657 4.7985 10.3867 4.84225C10.2768 4.90312 10.1668 4.96389 10.0568 5.02466C9.99441 5.05921 9.93198 5.09375 9.86765 5.12935C9.33894 5.41459 9.33894 5.41459 9.11715 5.41016C8.9057 5.34121 8.8154 5.28363 8.68746 5.10156C8.64775 4.86826 8.65994 4.76696 8.79383 4.57043C8.94409 4.40685 9.07047 4.32241 9.26681 4.2207C9.33189 4.18643 9.39697 4.15216 9.46403 4.11685C9.56883 4.06288 9.56883 4.06288 9.67575 4.00781C9.82425 3.92965 9.97269 3.85137 10.1211 3.77295C10.1585 3.75324 10.196 3.73354 10.2345 3.71323C10.5835 3.52922 10.9269 3.33624 11.2695 3.14062C12.0059 2.72142 12.7476 2.31217 13.4903 1.90421C13.7243 1.77555 13.9574 1.64554 14.1901 1.51465C14.247 1.48283 14.3039 1.45102 14.3625 1.41824C14.4658 1.3604 14.5689 1.30222 14.6718 1.24362C15.1031 1.00301 15.4855 0.895554 15.9843 0.890625ZM0.937464 10.2266C0.887006 11.0488 0.887006 11.0488 1.21652 11.7654C1.51121 12.0197 1.71368 12.0482 2.0883 12.0475C2.13687 12.0476 2.18544 12.0477 2.23549 12.0479C2.39997 12.0483 2.56445 12.0483 2.72893 12.0483C2.84736 12.0485 2.96579 12.0487 3.08422 12.049C3.41101 12.0496 3.7378 12.0498 4.06459 12.05C4.4165 12.0502 4.76842 12.0508 5.12034 12.0514C5.97087 12.0526 6.8214 12.0532 7.67193 12.0538C8.07211 12.0541 8.47228 12.0544 8.87245 12.0547C10.2021 12.0558 11.5318 12.0567 12.8614 12.0571C12.9474 12.0572 13.0334 12.0572 13.1195 12.0572C13.1834 12.0573 13.1834 12.0573 13.2487 12.0573C13.4649 12.0574 13.681 12.0574 13.8971 12.0575C13.94 12.0575 13.9829 12.0575 14.0271 12.0576C15.4181 12.058 16.809 12.0595 18.2 12.0615C19.67 12.0637 21.14 12.0649 22.6101 12.0651C23.4116 12.0653 24.2132 12.0658 25.0148 12.0674C25.6972 12.0688 26.3797 12.0693 27.0622 12.0687C27.4106 12.0684 27.759 12.0685 28.1074 12.0697C28.4262 12.0708 28.7449 12.0707 29.0637 12.0698C29.1791 12.0696 29.2946 12.0699 29.4101 12.0706C29.5668 12.0716 29.7235 12.071 29.8802 12.07C29.9478 12.071 29.9478 12.071 30.0168 12.0719C30.3311 12.0676 30.5049 11.9809 30.75 11.7891C30.7861 11.7633 30.8222 11.7375 30.8593 11.7109C31.1589 11.2915 31.0625 10.6987 31.0625 10.2266C21.1212 10.2266 11.18 10.2266 0.937464 10.2266ZM3.31246 13.0391C3.43621 13.2247 3.55996 13.4103 3.68746 13.6016C3.75805 13.7414 3.75805 13.7414 3.83006 13.8841C4.0187 14.2413 4.21309 14.5799 4.60676 14.7275C5.02419 14.8164 5.43955 14.8181 5.86466 14.806C6.08984 14.8008 6.31262 14.8072 6.53768 14.8148C7.25531 14.8315 7.25531 14.8315 7.89604 14.5546C8.14094 14.2993 8.32088 14.0125 8.47875 13.6969C8.59868 13.4708 8.73929 13.2561 8.87496 13.0391C7.03934 13.0391 5.20371 13.0391 3.31246 13.0391ZM9.44667 13.9184C9.34862 14.0834 9.23787 14.2384 9.12618 14.3943C9.05913 14.4932 8.9923 14.5922 8.92575 14.6914C8.85719 14.7929 8.78859 14.8944 8.71993 14.9958C8.691 15.0389 8.66206 15.082 8.63224 15.1263C8.56246 15.2266 8.56246 15.2266 8.49996 15.2891C8.49206 15.4358 8.48822 15.5807 8.48698 15.7275C8.48635 15.774 8.48573 15.8204 8.48508 15.8682C8.48306 16.0251 8.48151 16.1819 8.47997 16.3387C8.47866 16.4507 8.47733 16.5627 8.47599 16.6747C8.46421 17.7016 8.45782 18.7285 8.45273 19.7554C8.4489 20.5138 8.44245 21.272 8.43256 22.0304C8.42585 22.5641 8.42229 23.0979 8.42097 23.6317C8.4201 23.9501 8.41786 24.2683 8.41215 24.5866C8.3199 26.2986 8.3199 26.2986 9.06435 27.7685C9.1026 27.8063 9.14085 27.8442 9.18026 27.8832C9.29653 28.0203 9.37805 28.146 9.46692 28.3009C9.78414 28.871 9.78414 28.871 10.3173 29.201C10.619 29.2532 10.9197 29.2469 11.2248 29.241C11.3406 29.2427 11.4564 29.2448 11.5722 29.2473C11.8848 29.2526 12.197 29.2513 12.5097 29.2484C12.7714 29.2466 13.033 29.2482 13.2948 29.2498C13.9126 29.2536 14.5302 29.2521 15.148 29.2469C15.7837 29.2418 16.419 29.2447 17.0546 29.2519C17.602 29.2578 18.1493 29.259 18.6968 29.2565C19.023 29.255 19.349 29.2551 19.6753 29.2596C21.0598 29.3562 21.0598 29.3562 22.2667 28.8439C22.4554 28.6011 22.5742 28.348 22.6824 28.0618C22.797 27.8113 22.9845 27.6294 23.1716 27.4309C23.7016 26.7514 23.5911 25.8428 23.5695 25.0258C23.5622 24.7199 23.5606 24.4139 23.5588 24.1078C23.5575 23.9457 23.555 23.7835 23.5509 23.6214C23.5497 23.5485 23.5486 23.4756 23.5473 23.4006C23.5458 23.3366 23.5442 23.2726 23.5426 23.2067C23.5656 23.0124 23.6154 22.9289 23.75 22.7891C23.8711 22.7581 23.8711 22.7581 24 22.7617C24.0638 22.7618 24.0638 22.7618 24.1289 22.762C24.2885 22.7977 24.3375 22.8474 24.4375 22.9766C24.4624 23.132 24.4624 23.132 24.4645 23.3191C24.4657 23.3892 24.467 23.4593 24.4682 23.5314C24.4688 23.6448 24.4688 23.6448 24.4694 23.7605C24.4706 23.8379 24.4717 23.9153 24.4728 23.9951C24.4757 24.2007 24.4777 24.4063 24.4793 24.6119C24.4812 24.8218 24.4841 25.0317 24.4869 25.2416C24.4924 25.6532 24.4961 26.0649 24.5 26.4766C25.4281 26.4766 26.3562 26.4766 27.3125 26.4766C27.3125 22.9084 27.3125 19.3403 27.3125 15.6641C26.3843 15.6641 25.4562 15.6641 24.5 15.6641C24.4954 16.2631 24.4954 16.2631 24.4907 16.8743C24.4885 17.1269 24.4862 17.3796 24.4839 17.6322C24.4801 18.0334 24.4764 18.4346 24.4736 18.8359C24.4713 19.1593 24.4684 19.4826 24.4651 19.806C24.4639 19.9295 24.463 20.0531 24.4623 20.1766C24.4612 20.3493 24.4594 20.522 24.4574 20.6947C24.4572 20.7717 24.4572 20.7717 24.457 20.8502C24.4534 21.0911 24.4492 26.3896 24.3125 26.5947C24.1054 26.6572 24.1679 22.7602 23.9375 22.7602C23.7673 22.6378 23.583 23.7431 23.5359 23.5314C23.5272 23.3846 23.529 20.7541 23.5341 20.6071C23.5348 20.5516 23.5354 20.4961 23.5361 20.4388C23.5376 20.3183 23.5399 20.1978 23.5427 20.0774C23.5469 19.8856 23.5487 19.694 23.5498 19.5022C23.5532 18.957 23.5594 18.4119 23.5708 17.8668C23.5776 17.5329 23.5803 17.1992 23.5806 16.8652C23.5815 16.7389 23.5839 16.6127 23.5879 16.4865C23.6173 15.5359 23.4058 14.9942 22.7819 14.2748C22.6596 14.1314 22.5523 13.9795 22.4463 13.824C22.4153 13.7799 22.3844 13.7359 22.3525 13.6906C22.3238 13.6496 22.2951 13.6086 22.2656 13.5664C22.0847 13.2906 22.0847 13.2906 21.875 13.0391C21.7249 13.0307 21.5766 13.0265 21.4264 13.0248C21.3789 13.0241 21.3314 13.0233 21.2825 13.0225C21.122 13.0201 20.9616 13.0181 20.8012 13.0161C20.6866 13.0145 20.572 13.0128 20.4575 13.0112C19.4093 12.9967 18.361 12.9886 17.3127 12.9821C16.6078 12.9777 15.903 12.9713 15.1983 12.9602C14.5835 12.9505 13.9689 12.9443 13.3541 12.9424C13.0288 12.9413 12.7037 12.9385 12.3784 12.9314C12.0718 12.9248 11.7655 12.923 11.4589 12.9248C11.3468 12.9246 11.2347 12.9228 11.1227 12.919C10.2358 12.8908 9.89302 13.1598 9.44667 13.9184ZM23.125 13.0391C23.2693 13.2659 23.4137 13.4928 23.5625 13.7266C23.6293 13.8591 23.6293 13.8591 23.6975 13.9944C23.8713 14.3213 24.052 14.5977 24.416 14.7197C24.8345 14.8004 25.251 14.803 25.6759 14.7932C25.9022 14.7891 26.1265 14.7957 26.3526 14.8032C27.0628 14.8246 27.0628 14.8246 27.7014 14.5624C27.9732 14.2786 28.1372 13.9501 28.3125 13.6016C28.4362 13.4159 28.56 13.2303 28.6875 13.0391C26.8518 13.0391 25.0162 13.0391 23.125 13.0391ZM4.68746 15.6641C4.68746 19.2322 4.68746 22.8003 4.68746 26.4766C5.61559 26.4766 6.54371 26.4766 7.49996 26.4766C7.49996 22.9084 7.49996 19.3403 7.49996 15.6641C6.57184 15.6641 5.64371 15.6641 4.68746 15.6641ZM3.99996 28.1016C3.93834 28.1897 3.87653 28.2777 3.81442 28.3655C3.76138 28.4453 3.70864 28.5253 3.65621 28.6055C3.62866 28.6468 3.60111 28.6882 3.57272 28.7308C3.43618 28.903 3.43618 28.903 3.37496 29.1016C5.16934 29.1016 6.96371 29.1016 8.81246 29.1016C8.72266 28.877 8.67027 28.748 8.53366 28.5667C8.50417 28.5271 8.47468 28.4875 8.4443 28.4467C8.41368 28.4063 8.38307 28.3658 8.35153 28.3242C8.29106 28.2436 8.23068 28.163 8.17037 28.0823C8.14368 28.047 8.11698 28.0116 8.08947 27.9752C7.99996 27.8516 7.99996 27.8516 7.90917 27.6533C7.72752 27.4517 7.68967 27.4472 7.43118 27.4241C7.29823 27.4199 7.1652 27.418 7.03219 27.418C6.96159 27.417 6.891 27.4161 6.81826 27.4151C6.66885 27.4137 6.51943 27.4134 6.37002 27.4139C6.14214 27.4141 5.91478 27.4089 5.68698 27.4033C5.54163 27.4027 5.39629 27.4023 5.25094 27.4023C5.14935 27.3993 5.14935 27.3993 5.04571 27.3961C4.48469 27.4063 4.2899 27.643 3.99996 28.1016ZM23.45 28.5848C23.375 28.7266 23.375 28.7266 23.2718 28.8622C23.1751 28.9696 23.1751 28.9696 23.1875 29.1016C24.9818 29.1016 26.7762 29.1016 28.625 29.1016C28.4183 28.7382 28.4183 28.7382 28.1909 28.3933C28.1584 28.3473 28.1259 28.3014 28.0925 28.254C28.0594 28.2076 28.0263 28.1611 27.9922 28.1133C27.9418 28.0418 27.9418 28.0418 27.8903 27.9689C27.6862 27.6331 27.6862 27.6331 27.3674 27.4531C27.2852 27.4479 27.2852 27.4479 27.2013 27.4425C27.1391 27.4385 27.0769 27.4345 27.0127 27.4303C26.7252 27.4164 26.4378 27.4062 26.15 27.3985C25.9991 27.3933 25.8483 27.3856 25.6977 27.3754C24.5173 27.2966 23.9869 27.5015 23.45 28.5848ZM1.06246 30.1016C0.921859 30.3125 0.922022 30.3844 0.923059 30.6311C0.92318 30.6976 0.923301 30.7641 0.923426 30.8326C0.924191 30.9021 0.924956 30.9715 0.925745 31.043C0.925785 31.1126 0.925826 31.1823 0.925867 31.254C0.911679 31.5947 0.911679 31.5947 0.999964 31.9141C10.9 31.9141 20.8 31.9141 31 31.9141C31.1282 31.6575 31.074 31.3249 31.0742 31.043C31.0749 30.9736 31.0757 30.9042 31.0765 30.8326C31.0766 30.7661 31.0767 30.6996 31.0769 30.6311C31.0771 30.57 31.0774 30.509 31.0776 30.4461C31.0734 30.2736 31.0734 30.2736 30.9375 30.1016C30.7721 30.0828 30.6214 30.0764 30.4559 30.078C30.4053 30.0777 30.3548 30.0774 30.3027 30.0771C30.1315 30.0765 29.9603 30.0771 29.7891 30.0778C29.6659 30.0775 29.5426 30.0772 29.4194 30.0769C29.0793 30.0761 28.7392 30.0765 28.3991 30.0771C28.0328 30.0775 27.6666 30.0768 27.3004 30.0763C26.5824 30.0755 25.8644 30.0757 25.1464 30.0762C24.5631 30.0766 23.9798 30.0767 23.3965 30.0765C23.3551 30.0765 23.3138 30.0764 23.2711 30.0764C23.1031 30.0764 22.9351 30.0763 22.7671 30.0762C21.19 30.0757 19.6129 30.0762 18.0358 30.0772C16.6335 30.0781 15.2313 30.078 13.829 30.0771C12.2548 30.0761 10.6807 30.0757 9.1065 30.0763C8.9388 30.0764 8.7711 30.0764 8.60339 30.0765C8.5621 30.0765 8.5208 30.0765 8.47826 30.0765C7.8537 30.0767 7.22914 30.0765 6.60459 30.076C5.89469 30.0755 5.18479 30.0756 4.47489 30.0766C4.11235 30.0771 3.74981 30.0773 3.38727 30.0767C3.05589 30.0761 2.72451 30.0764 2.39313 30.0774C2.27276 30.0776 2.15239 30.0775 2.03201 30.0771C1.86935 30.0765 1.70673 30.0771 1.54406 30.078C1.4965 30.0775 1.44893 30.0771 1.39993 30.0766C1.25631 30.076 1.25631 30.076 1.06246 30.1016Z" fill="#8B8B8B"/>
<path d="M15.7862 15.6542C17.1836 15.6084 18.5698 16.0763 19.6056 17.0233C20.565 17.9343 21.3009 19.1091 21.3861 20.4648C21.4231 22.2129 21.063 23.638 19.8455 24.9467C18.754 26.0163 17.3532 26.4926 15.8458 26.492C14.4031 26.4755 13.0814 25.8644 12.0626 24.8515C10.9154 23.6291 10.5675 22.1203 10.6139 20.4869C10.6378 20.0643 10.7336 19.6879 10.8751 19.289C10.9009 19.215 10.9266 19.141 10.9532 19.0648C11.5057 17.6427 12.6235 16.6461 13.9951 16.03C14.5688 15.7936 15.1705 15.6915 15.7862 15.6542ZM12.6871 18.1405C11.782 19.2195 11.5386 20.4173 11.6251 21.789C11.7396 22.8016 12.3646 23.7866 13.1178 24.4469C14.1321 25.2428 15.281 25.6061 16.5626 25.4765C17.728 25.3135 18.758 24.731 19.4884 23.8046C20.2711 22.6965 20.567 21.4949 20.3363 20.1498C20.0469 18.928 19.3146 17.9489 18.2501 17.289C16.3869 16.2141 14.1614 16.5852 12.6871 18.1405Z" fill="#3572EF"/>
<path d="M17.1251 3.97651C17.6759 4.37111 18.0617 4.86408 18.1876 5.53901C18.2519 6.22718 18.1093 6.82361 17.6688 7.36518C17.2123 7.84363 16.6797 8.09349 16.0196 8.11714C15.3818 8.10767 14.8558 7.86944 14.3904 7.4372C13.9399 6.95054 13.7915 6.38463 13.7994 5.73676C13.8435 5.07531 14.1387 4.63023 14.6055 4.17964C15.3065 3.6006 16.3346 3.53497 17.1251 3.97651ZM15.0704 5.1601C14.8443 5.48586 14.7536 5.76441 14.8126 6.16401C14.9515 6.59185 15.1944 6.84214 15.586 7.05854C15.9825 7.1624 16.2823 7.12752 16.636 6.93086C16.9073 6.74206 17.1032 6.48593 17.1876 6.16401C17.2265 5.76779 17.1666 5.49308 16.9376 5.16401C16.67 4.87445 16.4011 4.74136 16.0118 4.70307C15.6322 4.71453 15.3202 4.87656 15.0704 5.1601Z" fill="#3572EF"/>
<path d="M14.63 21.554V21.038H15.65C16.058 21.038 16.354 20.954 16.538 20.786C16.722 20.618 16.814 20.404 16.814 20.144C16.814 19.832 16.714 19.586 16.514 19.406C16.314 19.226 16.01 19.138 15.602 19.142H14.174V18.8H18.02V19.142H16.448L16.634 18.974C16.918 19.082 17.118 19.242 17.234 19.454C17.354 19.662 17.414 19.896 17.414 20.156C17.414 20.448 17.344 20.7 17.204 20.912C17.064 21.12 16.864 21.28 16.604 21.392C16.348 21.5 16.036 21.554 15.668 21.554H14.63ZM16.838 23L15.74 21.332H16.388L17.492 23H16.838ZM14.174 19.976V19.634H18.02V19.976H14.174Z" fill="#3572EF"/>
</g>
<defs>
<clipPath id="clip0_1068_3590">
<rect width="32" height="32" fill="white" transform="translate(0 0.914062)"/>
</clipPath>
</defs>
</svg>
