<svg width="26" height="23" viewBox="0 0 26 23" fill="none" xmlns="http://www.w3.org/2000/svg">
<mask id="path-1-inside-1_1029_7546" fill="white">
<path d="M13.4801 0.0601767C14.0105 0.297372 14.5039 0.591438 15.0007 0.890933C15.1478 0.977565 15.2951 1.06401 15.4424 1.15028C15.8231 1.37382 16.2023 1.59975 16.5811 1.82642C16.9284 2.0339 17.2768 2.23956 17.6251 2.44536C18.0227 2.6805 18.4201 2.91589 18.8171 3.15216C19.7486 3.70658 20.6849 4.25197 21.6245 4.79252C21.752 4.866 21.8796 4.93948 22.011 5.01519C22.7148 5.42067 22.7148 5.42067 23.4194 5.82482C23.7067 5.98933 23.9934 6.1548 24.2799 6.32052C24.3623 6.36731 24.4447 6.41411 24.5296 6.46232C24.8997 6.67738 25.1065 6.81855 25.3481 7.18094C25.4032 7.65139 25.392 8.12435 25.3926 8.59768C25.3955 8.72795 25.3984 8.85821 25.4014 8.99243C25.4018 9.1178 25.4023 9.24317 25.4028 9.37234C25.4037 9.48692 25.4047 9.60149 25.4057 9.71954C25.3481 10.0292 25.3481 10.0292 24.8733 10.504C24.0901 10.504 23.3068 10.504 22.4998 10.504C22.4998 13.0105 22.4998 15.517 22.4998 18.0995C23.283 18.0995 24.0663 18.0995 24.8733 18.0995C25.4137 18.6398 25.4086 18.7128 25.4111 19.4346C25.4116 19.5171 25.412 19.5996 25.4125 19.6846C25.4128 19.8586 25.4119 20.0325 25.4099 20.2065C25.4074 20.4722 25.4099 20.7376 25.413 21.0034C25.4126 21.1728 25.412 21.3421 25.4111 21.5115C25.4106 21.6651 25.41 21.8187 25.4095 21.9769C25.3353 22.4538 25.258 22.5627 24.8733 22.8466C24.5395 22.8933 24.2521 22.9108 23.9183 22.9069C23.8213 22.9077 23.7243 22.9084 23.6244 22.9092C23.2989 22.9111 22.9736 22.9095 22.6481 22.9081C22.415 22.9087 22.1818 22.9095 21.9487 22.9106C21.3151 22.9127 20.6815 22.9119 20.0479 22.9104C19.3854 22.9092 18.7229 22.9103 18.0604 22.9111C16.9478 22.9119 15.8352 22.9108 14.7225 22.9085C13.4355 22.9059 12.1484 22.9068 10.8613 22.9094C9.75706 22.9115 8.65281 22.9118 7.54855 22.9106C6.88867 22.9099 6.2288 22.9098 5.56893 22.9113C4.9486 22.9127 4.32832 22.9118 3.708 22.909C3.48007 22.9084 3.25215 22.9086 3.02423 22.9096C2.71358 22.9109 2.40309 22.9093 2.09245 22.9069C2.0018 22.908 1.91116 22.909 1.81776 22.9101C1.40817 22.904 1.1779 22.8765 0.844247 22.6302C0.58114 22.2558 0.60127 21.9656 0.599688 21.5115C0.599233 21.429 0.598779 21.3465 0.598311 21.2615C0.597989 21.0875 0.598859 20.9136 0.600846 20.7396C0.603389 20.4738 0.600869 20.2085 0.597833 19.9427C0.598147 19.7733 0.598755 19.604 0.599688 19.4346C0.600223 19.281 0.600758 19.1274 0.60131 18.9692C0.662736 18.5742 0.662736 18.5742 1.13745 18.0995C1.92074 18.0995 2.70402 18.0995 3.51104 18.0995C3.51104 15.5929 3.51104 13.0864 3.51104 10.504C2.72776 10.504 1.94447 10.504 1.13745 10.504C0.564129 9.93064 0.599046 9.76318 0.592038 9.00402C0.593339 8.87482 0.594639 8.74562 0.595979 8.61251C0.593149 8.48378 0.590318 8.35504 0.587402 8.2224C0.589116 7.29281 0.589116 7.29281 0.888505 6.83789C1.39603 6.49229 1.91837 6.19065 2.45776 5.89772C3.50403 5.31829 4.53866 4.72302 5.56568 4.11011C6.7643 3.39613 7.96734 2.69066 9.1783 1.99779C9.76874 1.6598 10.3563 1.31893 10.9369 0.96418C11.0388 0.902651 11.1408 0.841123 11.2458 0.77773C11.4325 0.664761 11.6182 0.550208 11.8026 0.433687C12.3501 0.104797 12.8372 -0.106333 13.4801 0.0601767ZM12.3406 2.50145C12.2276 2.56785 12.1145 2.63424 11.998 2.70265C11.8752 2.77547 11.7523 2.84829 11.6257 2.92332C11.3646 3.07694 11.1034 3.23054 10.8423 3.38413C10.6414 3.5026 10.6414 3.5026 10.4365 3.62346C9.83025 3.98051 9.22223 4.33454 8.61426 4.68867C8.37828 4.82635 8.14231 4.96404 7.90635 5.10174C7.4179 5.38668 6.92925 5.67128 6.44048 5.95567C5.84635 6.30137 5.25294 6.64829 4.65976 6.99562C4.3631 7.16853 4.06544 7.33956 3.76741 7.51009C3.60281 7.60556 3.43823 7.70105 3.27368 7.79659C3.19971 7.83818 3.12573 7.87976 3.04951 7.9226C2.83054 8.04664 2.83054 8.04664 2.56161 8.24906C2.56161 8.36655 2.56161 8.48404 2.56161 8.6051C9.45451 8.6051 16.3474 8.6051 23.4492 8.6051C23.384 8.13674 23.384 8.13674 23.1173 7.96499C23.024 7.91493 22.9306 7.86486 22.8345 7.81328C22.6751 7.72588 22.6751 7.72588 22.5126 7.63671C22.3958 7.57443 22.2789 7.51214 22.1586 7.44797C21.9073 7.31015 21.6562 7.17199 21.4052 7.03352C21.2732 6.96089 21.1411 6.88826 21.0051 6.81343C20.336 6.43953 19.6788 6.04615 19.021 5.65295C17.8031 4.92707 16.5793 4.21285 15.3494 3.5075C15.1711 3.40513 15.1711 3.40513 14.9891 3.30068C14.8757 3.23562 14.7623 3.17057 14.6455 3.10354C14.2116 2.85064 13.7838 2.58834 13.3571 2.32349C12.929 2.09001 12.735 2.26852 12.3406 2.50145ZM5.40991 10.504C5.40991 13.0105 5.40991 15.517 5.40991 18.0995C6.03654 18.0995 6.66317 18.0995 7.30878 18.0995C7.30878 15.5929 7.30878 13.0864 7.30878 10.504C6.68216 10.504 6.05553 10.504 5.40991 10.504ZM9.20766 10.504C9.20766 13.0105 9.20766 15.517 9.20766 18.0995C9.52097 18.0995 9.83428 18.0995 10.1571 18.0995C10.1571 15.5929 10.1571 13.0864 10.1571 10.504C9.84378 10.504 9.53046 10.504 9.20766 10.504ZM12.056 10.504C12.056 13.0105 12.056 15.517 12.056 18.0995C12.6826 18.0995 13.3092 18.0995 13.9548 18.0995C13.9548 15.5929 13.9548 13.0864 13.9548 10.504C13.3282 10.504 12.7016 10.504 12.056 10.504ZM15.8537 10.504C15.8537 13.0105 15.8537 15.517 15.8537 18.0995C16.167 18.0995 16.4803 18.0995 16.8031 18.0995C16.8031 15.5929 16.8031 13.0864 16.8031 10.504C16.4898 10.504 16.1765 10.504 15.8537 10.504ZM18.702 10.504C18.702 13.0105 18.702 15.517 18.702 18.0995C19.3286 18.0995 19.9553 18.0995 20.6009 18.0995C20.6009 15.5929 20.6009 13.0864 20.6009 10.504C19.9743 10.504 19.3476 10.504 18.702 10.504ZM2.56161 19.9983C2.56161 20.3116 2.56161 20.625 2.56161 20.9478C9.45451 20.9478 16.3474 20.9478 23.4492 20.9478C23.4492 20.6344 23.4492 20.3211 23.4492 19.9983C16.5563 19.9983 9.66338 19.9983 2.56161 19.9983Z"/>
</mask>
<path d="M13.4801 0.0601767C14.0105 0.297372 14.5039 0.591438 15.0007 0.890933C15.1478 0.977565 15.2951 1.06401 15.4424 1.15028C15.8231 1.37382 16.2023 1.59975 16.5811 1.82642C16.9284 2.0339 17.2768 2.23956 17.6251 2.44536C18.0227 2.6805 18.4201 2.91589 18.8171 3.15216C19.7486 3.70658 20.6849 4.25197 21.6245 4.79252C21.752 4.866 21.8796 4.93948 22.011 5.01519C22.7148 5.42067 22.7148 5.42067 23.4194 5.82482C23.7067 5.98933 23.9934 6.1548 24.2799 6.32052C24.3623 6.36731 24.4447 6.41411 24.5296 6.46232C24.8997 6.67738 25.1065 6.81855 25.3481 7.18094C25.4032 7.65139 25.392 8.12435 25.3926 8.59768C25.3955 8.72795 25.3984 8.85821 25.4014 8.99243C25.4018 9.1178 25.4023 9.24317 25.4028 9.37234C25.4037 9.48692 25.4047 9.60149 25.4057 9.71954C25.3481 10.0292 25.3481 10.0292 24.8733 10.504C24.0901 10.504 23.3068 10.504 22.4998 10.504C22.4998 13.0105 22.4998 15.517 22.4998 18.0995C23.283 18.0995 24.0663 18.0995 24.8733 18.0995C25.4137 18.6398 25.4086 18.7128 25.4111 19.4346C25.4116 19.5171 25.412 19.5996 25.4125 19.6846C25.4128 19.8586 25.4119 20.0325 25.4099 20.2065C25.4074 20.4722 25.4099 20.7376 25.413 21.0034C25.4126 21.1728 25.412 21.3421 25.4111 21.5115C25.4106 21.6651 25.41 21.8187 25.4095 21.9769C25.3353 22.4538 25.258 22.5627 24.8733 22.8466C24.5395 22.8933 24.2521 22.9108 23.9183 22.9069C23.8213 22.9077 23.7243 22.9084 23.6244 22.9092C23.2989 22.9111 22.9736 22.9095 22.6481 22.9081C22.415 22.9087 22.1818 22.9095 21.9487 22.9106C21.3151 22.9127 20.6815 22.9119 20.0479 22.9104C19.3854 22.9092 18.7229 22.9103 18.0604 22.9111C16.9478 22.9119 15.8352 22.9108 14.7225 22.9085C13.4355 22.9059 12.1484 22.9068 10.8613 22.9094C9.75706 22.9115 8.65281 22.9118 7.54855 22.9106C6.88867 22.9099 6.2288 22.9098 5.56893 22.9113C4.9486 22.9127 4.32832 22.9118 3.708 22.909C3.48007 22.9084 3.25215 22.9086 3.02423 22.9096C2.71358 22.9109 2.40309 22.9093 2.09245 22.9069C2.0018 22.908 1.91116 22.909 1.81776 22.9101C1.40817 22.904 1.1779 22.8765 0.844247 22.6302C0.58114 22.2558 0.60127 21.9656 0.599688 21.5115C0.599233 21.429 0.598779 21.3465 0.598311 21.2615C0.597989 21.0875 0.598859 20.9136 0.600846 20.7396C0.603389 20.4738 0.600869 20.2085 0.597833 19.9427C0.598147 19.7733 0.598755 19.604 0.599688 19.4346C0.600223 19.281 0.600758 19.1274 0.60131 18.9692C0.662736 18.5742 0.662736 18.5742 1.13745 18.0995C1.92074 18.0995 2.70402 18.0995 3.51104 18.0995C3.51104 15.5929 3.51104 13.0864 3.51104 10.504C2.72776 10.504 1.94447 10.504 1.13745 10.504C0.564129 9.93064 0.599046 9.76318 0.592038 9.00402C0.593339 8.87482 0.594639 8.74562 0.595979 8.61251C0.593149 8.48378 0.590318 8.35504 0.587402 8.2224C0.589116 7.29281 0.589116 7.29281 0.888505 6.83789C1.39603 6.49229 1.91837 6.19065 2.45776 5.89772C3.50403 5.31829 4.53866 4.72302 5.56568 4.11011C6.7643 3.39613 7.96734 2.69066 9.1783 1.99779C9.76874 1.6598 10.3563 1.31893 10.9369 0.96418C11.0388 0.902651 11.1408 0.841123 11.2458 0.77773C11.4325 0.664761 11.6182 0.550208 11.8026 0.433687C12.3501 0.104797 12.8372 -0.106333 13.4801 0.0601767ZM12.3406 2.50145C12.2276 2.56785 12.1145 2.63424 11.998 2.70265C11.8752 2.77547 11.7523 2.84829 11.6257 2.92332C11.3646 3.07694 11.1034 3.23054 10.8423 3.38413C10.6414 3.5026 10.6414 3.5026 10.4365 3.62346C9.83025 3.98051 9.22223 4.33454 8.61426 4.68867C8.37828 4.82635 8.14231 4.96404 7.90635 5.10174C7.4179 5.38668 6.92925 5.67128 6.44048 5.95567C5.84635 6.30137 5.25294 6.64829 4.65976 6.99562C4.3631 7.16853 4.06544 7.33956 3.76741 7.51009C3.60281 7.60556 3.43823 7.70105 3.27368 7.79659C3.19971 7.83818 3.12573 7.87976 3.04951 7.9226C2.83054 8.04664 2.83054 8.04664 2.56161 8.24906C2.56161 8.36655 2.56161 8.48404 2.56161 8.6051C9.45451 8.6051 16.3474 8.6051 23.4492 8.6051C23.384 8.13674 23.384 8.13674 23.1173 7.96499C23.024 7.91493 22.9306 7.86486 22.8345 7.81328C22.6751 7.72588 22.6751 7.72588 22.5126 7.63671C22.3958 7.57443 22.2789 7.51214 22.1586 7.44797C21.9073 7.31015 21.6562 7.17199 21.4052 7.03352C21.2732 6.96089 21.1411 6.88826 21.0051 6.81343C20.336 6.43953 19.6788 6.04615 19.021 5.65295C17.8031 4.92707 16.5793 4.21285 15.3494 3.5075C15.1711 3.40513 15.1711 3.40513 14.9891 3.30068C14.8757 3.23562 14.7623 3.17057 14.6455 3.10354C14.2116 2.85064 13.7838 2.58834 13.3571 2.32349C12.929 2.09001 12.735 2.26852 12.3406 2.50145ZM5.40991 10.504C5.40991 13.0105 5.40991 15.517 5.40991 18.0995C6.03654 18.0995 6.66317 18.0995 7.30878 18.0995C7.30878 15.5929 7.30878 13.0864 7.30878 10.504C6.68216 10.504 6.05553 10.504 5.40991 10.504ZM9.20766 10.504C9.20766 13.0105 9.20766 15.517 9.20766 18.0995C9.52097 18.0995 9.83428 18.0995 10.1571 18.0995C10.1571 15.5929 10.1571 13.0864 10.1571 10.504C9.84378 10.504 9.53046 10.504 9.20766 10.504ZM12.056 10.504C12.056 13.0105 12.056 15.517 12.056 18.0995C12.6826 18.0995 13.3092 18.0995 13.9548 18.0995C13.9548 15.5929 13.9548 13.0864 13.9548 10.504C13.3282 10.504 12.7016 10.504 12.056 10.504ZM15.8537 10.504C15.8537 13.0105 15.8537 15.517 15.8537 18.0995C16.167 18.0995 16.4803 18.0995 16.8031 18.0995C16.8031 15.5929 16.8031 13.0864 16.8031 10.504C16.4898 10.504 16.1765 10.504 15.8537 10.504ZM18.702 10.504C18.702 13.0105 18.702 15.517 18.702 18.0995C19.3286 18.0995 19.9553 18.0995 20.6009 18.0995C20.6009 15.5929 20.6009 13.0864 20.6009 10.504C19.9743 10.504 19.3476 10.504 18.702 10.504ZM2.56161 19.9983C2.56161 20.3116 2.56161 20.625 2.56161 20.9478C9.45451 20.9478 16.3474 20.9478 23.4492 20.9478C23.4492 20.6344 23.4492 20.3211 23.4492 19.9983C16.5563 19.9983 9.66338 19.9983 2.56161 19.9983Z" fill="#FAF9F6" stroke="#3572EF" stroke-width="0.6" mask="url(#path-1-inside-1_1029_7546)"/>
</svg>
