<svg width="36" height="23" viewBox="0 0 36 23" fill="none" xmlns="http://www.w3.org/2000/svg">
<path d="M36 3.82351C36 1.71538 34.2846 0 32.1765 0H3.82351C1.71538 0 0 1.71538 0 3.82351V19.0906C0 21.1988 1.71538 22.9141 3.82351 22.9141H32.1765C34.2846 22.9141 36 21.1988 36 19.0906V3.82351ZM34.4706 19.0906C34.4706 20.3557 33.4415 21.3847 32.1765 21.3847H3.82351C2.55846 21.3847 1.5294 20.3557 1.5294 19.0906V3.82351C1.5294 2.55846 2.55846 1.5294 3.82351 1.5294H32.1765C33.4415 1.5294 34.4706 2.55846 34.4706 3.82351V19.0906Z" fill="#3572EF"/>
<path d="M12.2254 3.32836C11.4981 3.32836 10.8105 3.4946 10.1913 3.78374C9.5564 3.48933 8.86442 3.3269 8.16059 3.3269C5.50057 3.3269 3.33716 5.49552 3.33716 8.16081C3.33716 10.8208 5.50057 12.9842 8.16059 12.9842C8.86388 12.9842 9.55426 12.8226 10.1876 12.5293C10.8077 12.8195 11.4966 12.9865 12.2254 12.9865C14.8876 12.9865 17.054 10.8201 17.054 8.15783C17.054 5.49476 14.8876 3.32836 12.2254 3.32836ZM4.86656 8.16081C4.86656 6.3386 6.34442 4.85631 8.16059 4.85631C8.33425 4.85631 8.50386 4.87328 8.67141 4.89905C7.88216 5.75911 7.39589 6.90127 7.39589 8.15783C7.39589 9.4124 7.88109 10.5532 8.66858 11.4127C8.50203 11.4382 8.33326 11.4548 8.16059 11.4548C6.34442 11.4548 4.86656 9.97698 4.86656 8.16081ZM12.2254 11.4571C10.4054 11.4571 8.92529 9.97698 8.92529 8.15783C8.92529 6.33792 10.4054 4.85776 12.2254 4.85776C14.0445 4.85776 15.5246 6.33792 15.5246 8.15783C15.5246 9.97698 14.0445 11.4571 12.2254 11.4571ZM16.2893 16.574H4.47526C4.05261 16.574 3.71056 16.916 3.71056 17.3387C3.71056 17.7613 4.05261 18.1034 4.47526 18.1034H16.2893C16.7119 18.1034 17.054 17.7613 17.054 17.3387C17.054 16.916 16.7119 16.574 16.2893 16.574ZM30.3474 12.8139H22.8281C22.4054 12.8139 22.0634 13.156 22.0634 13.5786C22.0634 14.0014 22.4054 14.3433 22.8281 14.3433H30.3474C30.7701 14.3433 31.1121 14.0014 31.1121 13.5786C31.1121 13.156 30.7701 12.8139 30.3474 12.8139ZM30.3474 16.574H22.8281C22.4054 16.574 22.0634 16.916 22.0634 17.3387C22.0634 17.7613 22.4054 18.1034 22.8281 18.1034H30.3474C30.7701 18.1034 31.1121 17.7613 31.1121 17.3387C31.1121 16.916 30.7701 16.574 30.3474 16.574Z" fill="#3572EF"/>
</svg>
