<svg width="238" height="198" viewBox="0 0 238 198" fill="none" xmlns="http://www.w3.org/2000/svg">
<path d="M183.544 138.267C182.831 141.013 181.901 143.697 180.765 146.295C179.736 148.746 180.226 149.581 182.848 149.618C186.763 149.67 190.678 149.511 194.576 149.143C198.741 148.752 202.972 149.056 207.172 149.048C208.981 149.048 210.794 149.032 212.543 148.467C215.136 147.635 216.058 144.01 214.118 142.057C213.593 141.53 213.7 141.283 214.016 140.748C220.626 129.518 226.832 118.068 231.368 105.832C234.178 98.2507 236.145 90.4288 236.368 82.2329C236.464 78.7063 236.736 75.1971 236.307 71.685C235.005 61.0615 230.692 52.4334 220.704 47.274C217.514 45.6296 214.324 45.0293 210.843 45.0468C210.087 45.0376 209.337 45.1828 208.639 45.4735C207.941 45.7642 207.309 46.1943 206.783 46.7375C206.307 47.216 205.93 47.8686 205.2 47.9962C202.65 48.437 201.856 50.2903 201.577 52.5118C201.506 53.3455 201.138 54.1263 200.542 54.713C194.997 60.0116 190.101 65.9107 185.069 71.6676C184.399 72.4331 183.663 73.1408 182.668 74.1791C183.123 70.87 183.474 68.0016 183.938 65.1508C184.101 64.1502 184.808 63.4803 185.762 63.0046C187.601 62.0882 189.13 60.8209 189.771 58.7529C190.478 56.4792 189.515 54.7942 187.218 54.1765C186.261 53.9214 185.284 53.9271 184.251 53.8402C184.643 52.3523 184.974 50.9022 185.412 49.4899C186.818 44.9162 185.522 41.0445 182.149 37.9094C178.767 34.7015 174.718 32.2793 170.293 30.8155C168.263 30.1571 166.467 30.5545 165.232 32.3439C160.302 39.4725 155.737 46.8158 152.877 55.0466C150.824 60.9601 151.871 63.9211 156.679 67.9118C157.925 69.0108 159.31 69.9393 160.801 70.6728C161.537 71.0121 161.497 71.3427 161.091 71.8619C161.062 71.8996 161.033 71.9401 161.006 71.9807C159.177 75.0463 158.472 75.3421 155.061 74.3356C151.65 73.3293 148.57 71.6733 145.43 70.1014C144.687 69.7302 143.98 69.2952 143.147 69.1241C142.981 69.1066 142.821 69.0519 142.679 68.9641C142.537 68.8762 142.416 68.7575 142.326 68.6166C138.632 62.6828 138.904 55.5077 142.75 50.1829C143.127 49.6609 143.417 49.4724 144.162 49.7248C146.511 50.5164 148.802 48.9591 149.092 46.4707C149.1 46.2641 149.161 46.0629 149.27 45.8866C149.378 45.7102 149.53 45.5649 149.71 45.4643C152.004 43.9185 151.851 41.291 149.397 39.9801C148.855 39.6901 148.42 39.4146 148.214 38.7968C148.125 38.5095 147.945 38.259 147.701 38.0828C147.457 37.9065 147.163 37.8141 146.862 37.8194C145.308 38.008 143.745 37.8194 142.222 38.0196C141.514 38.1094 140.888 38.5185 140.061 38.4661C139.647 38.4544 139.235 38.5288 138.851 38.6846C138.467 38.8403 138.12 39.0741 137.831 39.3711C132.564 44.4232 128.62 50.2148 127.292 57.5552C126.01 64.6375 126.642 71.3891 130.682 77.5433C131.216 78.3553 131.262 78.8426 130.505 79.4574C130.067 79.8483 129.678 80.2903 129.345 80.7741C128.362 82.0791 128.246 83.3639 129.232 84.7995C132.158 89.0571 135.528 92.9433 139.067 96.6904C139.748 97.4124 139.913 97.9346 139.536 98.9206C137.527 104.187 135.514 109.463 134.281 114.985C134.101 115.794 133.991 116.617 133.872 117.438C133.722 118.476 134.328 119.106 135.131 119.564C146.169 125.857 157.428 131.644 169.794 134.967C173.645 136.002 177.488 137.061 181.369 137.98C182.018 138.122 182.703 138.154 183.544 138.267Z" fill="white"/>
<path d="M98.0845 122.247C93.9623 122.247 90.1428 122.229 86.3233 122.247C85.5756 122.247 85.3873 121.927 85.4333 121.272C85.4654 120.782 85.45 120.292 85.4626 119.799C85.5198 117.279 85.0218 116.769 82.4061 116.637C80.6917 116.554 78.9828 116.403 77.2697 116.347C75.5553 116.293 73.8464 116.347 72.0106 116.347C72.118 115.933 72.2199 115.535 72.3301 115.143C73.2229 112.027 70.9671 109.445 67.7712 110.025C66.7361 110.214 66.2688 110.229 66.2925 108.95C66.3302 106.919 64.7608 105.37 62.7129 105.228C62.1912 105.19 61.6639 105.228 61.0138 105.228C61.5244 104.091 61.9568 103.12 62.3949 102.155C63.575 99.5446 61.0598 95.7157 58.0759 95.7737C57.0897 95.794 55.7184 96.2726 55.2106 95.4837C54.834 94.8862 55.5552 93.6565 55.6361 92.6937C55.7728 91.1044 56.0253 89.5209 55.7156 87.9084C55.3473 86.003 53.7919 84.8284 51.7761 85.0459C50.7675 85.1561 49.7464 85.2518 48.5174 85.3765C49.2763 84.2629 49.9668 83.2885 50.6197 82.2879C51.2349 81.3425 51.7789 80.3534 51.8807 79.2049C52.0663 77.1226 51.4483 76.4584 49.2707 76.4643C50.5178 74.5328 51.7357 72.665 52.9396 70.7857C53.5729 69.8585 54.0528 68.8352 54.3611 67.755C54.9414 65.5509 53.8072 64.3009 51.5529 64.6809C51.0647 64.8077 50.5541 64.8226 50.0603 64.7244C52.6703 61.1078 55.0795 57.4478 57.8904 54.0603C57.9602 54.1154 58.055 54.1503 58.0732 54.2083C58.6186 55.9773 58.8795 56.0585 60.2215 54.6027C61.8173 52.8626 63.3281 51.0732 64.9352 49.2344C65.5155 49.6115 65.5406 50.4816 66.312 50.4671C67.0835 50.4526 67.5159 49.887 68.0321 49.4462C71.1959 46.7025 73.7543 43.4717 76.2653 40.1163C78.9549 36.5229 82.2234 33.3531 85.337 30.0903C88.3879 26.9001 91.5434 23.7998 94.6933 20.6994C96.1441 19.2784 96.8779 17.4831 97.6256 15.6763C99.2117 11.8568 100.816 8.04303 102.373 4.20901C103.069 2.50084 102.915 2.19923 101.163 2.37905C94.438 3.0693 88.1856 5.18063 82.8205 9.35391C75.805 14.8121 70.55 21.8422 65.7387 29.2232C65.5029 29.5857 65.1584 30.0439 65.2128 30.3833C65.5029 32.1234 64.3018 33.0862 63.4118 34.2086C61.1589 37.0624 59.4221 40.241 57.5793 43.3558C57.2892 43.8488 56.7381 44.5304 57.9044 44.7739C58.7107 44.9451 58.3131 45.3916 58.062 45.7311C53.9077 51.3109 51.3269 57.729 48.3514 63.9355C48.0612 64.5474 47.7976 65.1797 47.4809 65.78C47.0262 66.6269 46.8057 67.3838 45.3326 67.3316C43.5917 67.2678 42.4324 68.7817 41.9274 70.5015C41.7475 71.1337 41.6373 71.2382 40.9705 71.0496C38.1135 70.2405 36.2553 71.1047 34.6539 73.9035C32.659 71.5079 30.6279 69.2226 27.0316 70.0838C23.7813 70.8611 21.8841 73.0942 20.5044 76.0756C19.4191 75.0519 18.3631 73.9527 16.7658 74.0223C15.9288 74.0583 15.1253 74.3634 14.4738 74.8924C12.7022 76.3193 12.4622 78.567 13.8196 81.8355C11.4606 81.9747 9.13237 81.8355 6.83202 82.1776C5.77042 82.34 4.6893 82.3604 3.62771 82.5228C1.62309 82.8128 1.30781 83.4566 2.21874 85.2808C3.58166 87.981 4.98224 90.6636 6.3884 93.3434C10.5608 101.299 14.7389 109.252 18.9211 117.204C19.1582 117.656 19.3521 118.073 19.1694 118.584C18.8681 119.474 18.8095 120.428 18.9992 121.347C19.2894 122.859 18.6714 122.835 17.4159 122.798C14.245 122.682 11.0672 122.815 7.89082 122.849C7.69273 122.847 7.50022 122.914 7.34816 123.042C7.19611 123.169 7.09568 123.347 7.06499 123.543C6.99384 123.777 6.93803 124.016 6.89618 124.257C6.19729 128.735 6.69671 129.326 11.1802 129.321C29.0502 129.303 46.9243 129.445 64.7929 129.204C75.4855 129.059 86.1838 129.169 96.8751 128.913C103.447 128.752 110.015 128.598 116.596 128.625C118 128.625 118.652 128.044 118.715 126.698C118.767 126.012 118.767 125.323 118.715 124.636C118.574 123.218 117.846 122.607 116.379 122.562C112.805 122.481 109.228 122.4 105.648 122.319C105.276 122.319 104.905 122.261 104.197 122.201C106.498 120.359 108.239 117.913 109.224 115.135C109.784 113.725 110.026 112.207 109.931 110.692C109.821 109.324 109.13 108.474 107.73 108.436C103.179 108.361 98.6286 108.549 94.099 108.998C93.1337 109.085 93.096 109.794 93.1504 110.512C93.4699 114.573 94.3459 118.441 97.4052 121.446C97.5614 121.615 97.7065 121.809 98.0845 122.247Z" fill="white"/>
<path d="M157.056 185.832C156.966 187.53 157.509 187.968 158.637 187.573C159.145 187.399 159.62 187.141 160.041 186.807C164.588 183.093 169.597 179.975 173.99 176.059C175.675 174.559 175.745 174.102 174.411 172.269C172.688 169.826 170.639 167.63 168.321 165.743C167.221 164.874 166.221 164.702 165.029 165.608C162.694 167.379 160.267 169.027 157.952 170.828C157.187 171.408 156.169 172.037 157.746 173.231C159.249 174.368 159.797 176.056 159.06 178.163C158.124 180.789 157.622 183.582 157.056 185.832Z" fill="white"/>
<path d="M89.3867 195.346C91.0746 194.852 92.7584 195.366 94.4463 195.346C96.9378 195.304 99.4404 195.468 101.926 195.491C109.116 195.56 108.223 195.949 112.901 190.345C113.244 189.931 113.548 189.486 113.809 189.014C114.36 188.046 114.32 187.121 113.39 186.404C110.914 184.485 108.385 182.634 105.587 181.184C104.504 180.625 103.713 180.921 103.112 181.921C102.783 182.405 102.479 182.906 102.203 183.423C100.27 187.643 96.663 189.955 92.6928 191.898C91.4248 192.519 90.253 193.347 89.0379 194.07C88.6934 194.275 88.3418 194.505 88.5022 194.984C88.6613 195.462 89.07 195.256 89.3867 195.346Z" fill="white"/>
<path d="M186.096 195.307C187.031 195.306 187.929 194.943 188.602 194.295C189.275 193.646 189.671 192.762 189.707 191.828C189.744 189.508 188.016 187.423 186.076 187.423C184.045 187.423 181.978 189.348 182.23 191.251C182.52 193.412 183.422 195.459 186.096 195.307Z" fill="white"/>
<path d="M162.366 191.88C162.366 193.678 163.976 195.233 165.879 195.255C167.781 195.279 169.707 193.428 169.678 191.543C169.649 189.713 167.822 187.773 166.07 187.727C164.223 187.672 162.378 189.745 162.366 191.88Z" fill="white"/>
<path d="M209.828 194.717C211.893 194.717 213.598 193.064 213.549 191.156C213.5 189.248 211.638 187.371 209.75 187.356C207.862 187.342 206.113 188.98 206.29 190.758C206.516 193.057 207.366 194.825 209.828 194.717Z" fill="white"/>
<path d="M62.7631 122.572C44.9964 122.488 27.2297 122.569 9.46295 122.815C7.16817 122.844 6.67016 123.374 6.85291 125.62C7.14307 129.222 7.28536 129.389 10.9124 129.354C28.972 129.23 47.0345 129.152 65.0942 128.932C82.1215 128.723 99.1447 128.351 116.172 128.099C117.655 128.079 118.252 127.583 118.284 126.193C118.284 125.755 118.359 125.324 118.33 124.877C118.188 122.804 118.179 122.847 116.07 122.798C98.2952 122.403 80.5284 122.629 62.7631 122.572Z" fill="#2D2D2D"/>
<path d="M102.263 177.324C102.263 178.09 102.675 178.519 103.084 178.948C104.453 180.399 106.152 181.387 107.794 182.448C110.334 184.093 112.793 185.872 115.465 187.318C116.857 188.073 117.723 187.684 118.591 186.448C121.561 182.257 124.635 178.139 127.611 173.954C130.702 169.605 133.991 165.396 137.231 161.168C137.811 160.404 138.101 160.587 138.681 161.124C142.451 164.641 146.587 167.702 150.833 170.616C151.317 170.947 151.853 171.196 152.332 171.538C154.017 172.731 155.522 172.669 157.262 171.401C160.31 169.172 163.3 166.872 166.209 164.468C168.176 162.843 168.118 161.926 166.253 160.208C165.209 159.244 164.223 158.203 163.248 157.179C163.028 156.948 162.61 156.747 162.761 156.356C162.912 155.964 163.355 156.179 163.666 156.109C170.046 154.642 176.212 152.675 180.89 147.739C182.897 145.622 184.318 143.14 184.782 140.181C185 138.783 184.434 138.151 183.085 137.818C172.854 135.373 162.961 131.861 153.144 128.14C147.448 125.981 142.167 122.919 136.613 120.411C134.156 119.304 134.183 119.251 132.883 121.591C124.397 136.819 115.911 152.048 107.425 167.28C105.813 170.181 104.281 173.131 102.724 176.062C102.496 176.5 102.173 176.906 102.263 177.324Z" fill="#E7E7E7"/>
<path d="M204.782 48.5938C206.33 48.8838 206.861 48.2139 207.305 47.4164C207.914 46.3259 208.372 45.2731 207.464 44.0376C205.509 41.3975 203.414 38.8639 201.188 36.4478C197.38 32.2832 193.462 28.2374 188.906 24.8471C185.382 22.2167 181.366 20.5751 177.439 18.719C176.569 18.3072 175.806 18.5161 175.272 19.3338C173.051 22.7444 170.362 25.7984 167.909 29.0292C166.54 30.836 166.563 30.7693 168.75 31.2449C174.188 32.4165 178.921 34.8759 182.743 38.9739C185.559 42.0046 186.006 45.5051 184.866 49.3246C184.492 50.5833 184.042 51.816 183.613 53.0572C183.132 54.4406 183.857 55.3484 185.281 54.9597C186.861 54.5276 188.181 54.9366 189.051 56.1575C189.988 57.4597 189.472 58.8576 188.677 60.1191C187.613 61.81 185.829 62.4799 184.135 63.2078C183.161 63.6284 182.647 64.1853 182.537 65.2207C182.212 68.3209 181.85 71.4154 181.516 74.5157C181.473 74.8985 181.453 75.3191 181.908 75.5279C182.363 75.7367 182.662 75.4844 182.923 75.1769C187.206 70.0465 192.282 65.6701 196.719 60.676C198.381 58.8083 200.089 56.9812 201.803 55.1656C202.04 54.9201 202.219 54.6248 202.328 54.3012C202.436 53.9775 202.471 53.6338 202.43 53.2951C202.313 52.2209 202.453 51.1345 202.839 50.1251C203.288 49.0695 204.059 48.53 204.782 48.5938Z" fill="#2D2D2D"/>
<path d="M114.444 188.006C113.438 187.773 113.04 188.562 112.608 189.165C112.129 189.844 111.584 190.149 110.755 189.971C107.565 189.284 104.391 188.597 101.201 187.942C100.332 187.765 100.477 187.42 100.824 186.84C101.625 185.499 102.617 184.276 103.24 182.826C103.397 182.458 103.66 182.063 103.208 181.808C102.851 181.607 102.474 181.773 102.179 182.123C100.982 183.485 99.9216 184.959 99.012 186.526C98.5252 187.371 97.7872 188.044 96.9 188.449C94.0347 189.925 91.0298 191.259 88.5886 193.339C86.7848 194.873 84.9546 195.021 82.8314 195.032C77.1468 195.065 71.4719 194.47 65.7873 194.742C53.9228 195.302 42.0486 194.798 30.1813 195.105C29.6247 195.105 29.0221 195.282 28.3344 194.873C30.4394 192.487 32.4761 190.128 34.5644 187.813C42.9749 178.493 51.3533 169.132 59.9785 160.001C61.5912 158.292 61.5995 158.308 63.1829 159.964C71.5291 168.688 79.8768 177.411 88.2231 186.135C89.3419 187.294 90.4244 188.509 91.5181 189.705C91.8892 190.108 92.2895 190.635 92.8545 190.149C93.5185 189.568 92.7931 189.194 92.4806 188.84C86.3259 181.91 80.1642 174.982 73.9941 168.06C70.8051 164.465 67.6469 160.834 64.4244 157.27C63.7074 156.477 63.713 156.051 64.4621 155.268C71.3548 148.074 78.0452 140.692 84.5347 133.122C85.076 132.488 85.694 131.889 86.0832 131.165C86.7849 129.819 87.799 129.578 89.2498 129.526C96.4996 129.26 103.751 129.402 111.001 129.175C113.353 129.102 115.702 129.024 118.051 129.029C118.887 129.029 119.029 128.755 119.133 127.932C119.29 126.672 119.365 125.405 119.359 124.137C119.359 122.497 118.822 121.96 117.155 121.951C113.866 121.951 110.578 121.951 107.294 121.951H105.969C107.181 120.894 108.198 119.633 108.974 118.224C109.336 117.543 109.861 117.844 110.366 117.963C111.799 118.299 113.188 118.253 114.444 117.383C115.624 116.582 116.042 115.42 115.749 114.054C115.603 113.38 115.234 112.776 114.702 112.338C114.17 111.9 113.506 111.655 112.817 111.641C112.193 111.625 111.554 111.531 110.952 111.815C110.43 107.911 111.323 107.943 106.466 107.83C103.385 107.754 100.297 107.943 97.2278 107.539C95.943 107.365 94.7112 107.806 93.4404 107.848C92.4053 107.881 92.2798 108.743 92.2798 109.564C92.2979 114.111 93.2228 118.349 96.7033 121.951C93.2228 121.951 89.9752 121.951 86.7151 121.951C86.1752 121.951 86.019 121.696 86.1055 121.223C86.1585 120.933 86.2854 120.664 86.3259 120.376C86.7904 117.122 86.2366 116.449 83.2694 116.342C72.7219 115.962 62.1673 116.141 51.6169 116.122C50.1382 116.122 49.3612 115.663 48.7167 114.381C44.229 105.564 39.7064 96.7674 35.1461 87.9895C34.4096 86.5598 33.613 85.1589 32.7886 83.7784C32.4761 83.2507 32.3045 82.1254 31.4745 82.6039C30.8509 82.9635 31.4522 83.8655 31.7451 84.46C33.3229 87.6503 34.8909 90.8405 36.5272 93.9784C40.1235 100.898 43.7435 107.806 47.3859 114.703C47.8727 115.635 47.9885 116.101 46.5823 116.087C39.7608 116.025 32.9337 116.052 26.1093 116.087C24.2568 116.087 22.4056 116.255 20.553 116.356C19.9881 116.385 19.5612 116.331 19.2473 115.716C13.9268 105.295 8.25891 95.0544 3.07369 84.5644C2.94814 84.2666 2.83934 83.9615 2.74866 83.6509C3.38618 83.6509 3.90931 83.6509 4.44499 83.6509C12.9308 83.8308 21.3886 82.7954 29.8744 83.0564C30.3125 83.0709 30.8984 83.1172 30.8886 82.5256C30.8802 81.934 30.3446 82.0761 29.8856 82.0877C23.8592 82.2299 17.8412 81.9426 11.8204 81.6671C8.55187 81.5163 5.25687 81.3771 1.99536 81.8963C0.434353 82.1399 0.114909 82.7982 0.907269 84.2165C6.91693 94.9094 12.3742 105.93 18.1369 116.772C18.8512 118.116 18.236 119.804 18.2499 121.333C18.2499 121.796 17.8007 121.432 17.5636 121.423C14.1974 121.319 10.8285 121.491 7.49027 121.936C6.3659 122.073 5.90695 122.731 5.92787 123.836C5.95298 125.358 5.96275 126.881 5.92787 128.4C5.90416 129.303 6.34219 129.714 7.15129 129.959C8.0706 130.249 8.99827 130.193 9.92315 130.193C18.3699 130.204 26.8138 130.204 35.2564 130.193C36.0571 130.193 36.5007 130.429 36.9973 131.121C40.2602 135.746 44.2471 139.761 48.0764 143.906C51.7397 147.873 55.4322 151.811 59.1541 155.72C59.8474 156.448 59.8446 156.849 59.1918 157.614C51.0952 167.084 42.7629 176.344 34.4068 185.584C31.7103 188.565 28.9844 191.527 26.3451 194.557C25.8262 195.151 25.3002 195.169 24.6683 195.175L7.88227 195.317C7.68557 195.317 7.49027 195.317 7.30194 195.317C6.89879 195.317 6.36869 195.317 6.35613 195.777C6.35613 196.328 6.9225 196.181 7.2852 196.193C10.4226 196.294 13.5613 196.43 16.6987 196.468C27.429 196.593 38.1886 196.587 48.9287 196.81C68.555 197.218 88.1798 197.273 107.802 196.976C129.003 196.686 150.203 196.863 171.4 196.817C188.674 196.779 205.95 196.984 223.224 197.083H224.253C224.793 197.083 225.445 197.15 225.399 196.341C225.358 195.597 224.732 195.586 224.184 195.618C220.556 195.815 216.933 195.752 213.285 195.664C213.178 195.062 213.705 194.911 213.952 194.603C216.229 191.724 214.851 187.767 211.264 187.011C210.91 186.954 210.573 186.82 210.277 186.621C209.98 186.42 209.731 186.157 209.547 185.851C208.209 183.807 206.811 181.801 205.353 179.833C202.163 175.532 197.714 173.217 192.592 172.078C191.389 171.809 191.029 171.666 191.415 170.245C193.155 163.783 195.106 157.365 196.232 150.747C196.351 150.048 196.765 149.943 197.374 149.922C200.405 149.833 203.445 149.763 206.458 149.549C208.63 149.395 210.831 149.549 213.006 149.11C214.149 148.882 214.781 148.371 215.089 147.371C215.367 146.545 215.554 145.693 215.649 144.828C215.881 141.956 215.434 141.678 212.592 141.347C209.016 140.936 205.446 141.092 201.881 141.141C197.041 141.208 192.203 141.498 187.38 141.753C186.69 141.788 185.408 141.591 185.472 142.479C185.542 143.452 186.797 143.162 187.578 143.137C190.414 143.046 193.253 142.67 196.09 142.879C201.179 143.258 206.275 143.125 211.368 143.169C212.087 143.169 213.05 143.2 213.256 143.842C213.399 144.312 213.446 144.807 213.397 145.295C213.347 145.785 213.2 146.26 212.966 146.692C212.76 147.075 212.386 146.982 212.052 146.982C211.365 146.982 210.678 147.003 209.99 146.982C205.286 146.869 200.588 147.202 195.895 147.368C191.157 147.533 186.351 147.476 181.429 148.852C182.987 146.707 184.286 144.729 184.837 142.38C185.025 141.579 185.194 140.773 185.324 139.961C185.388 139.552 185.284 139.125 184.785 139.09C184.364 139.053 184.274 139.412 184.164 139.767C181.928 146.909 176.728 151.008 169.976 153.456C167.975 154.18 165.884 154.656 163.872 155.352C163.141 155.607 162.711 155.43 162.16 154.999C159.669 153.021 157.146 151.075 154.62 149.129C154.316 148.884 153.984 148.678 153.631 148.513C153.318 148.374 152.915 148.301 152.7 148.647C152.635 148.781 152.617 148.933 152.647 149.078C152.678 149.225 152.755 149.356 152.868 149.454C153.306 149.914 153.683 150.436 154.147 150.868C158.167 154.618 162.198 158.355 166.241 162.081C166.821 162.608 167.05 162.855 166.261 163.461C162.726 166.17 159.243 168.954 155.754 171.721C155.31 172.072 155.02 172.344 154.385 171.892C149.339 168.278 144.086 164.952 139.252 161.045C135.099 157.687 131.468 153.887 129.061 149.045C126.178 143.245 127.529 138.023 132.86 134.378C135.58 132.516 138.605 131.313 141.676 130.201C143.279 129.622 144.841 128.937 146.354 128.155C146.671 127.989 147.053 127.841 146.894 127.438C146.778 127.148 146.351 127.191 146.102 127.282C139.867 129.515 133.46 131.464 128.64 136.364C125.041 140.028 124.441 144.314 126.546 148.995C128.37 153.056 131.447 156.088 134.71 158.896C140.571 163.934 146.482 168.928 153.089 173.005C154.104 173.632 154.977 174.548 156.296 173.406C156.844 172.93 158.413 174.932 158.219 175.949C157.587 179.233 156.926 182.51 156.288 185.792C156.226 186.227 156.186 186.665 156.169 187.103C156.102 187.843 155.69 188.73 156.592 189.18C157.387 189.574 158.083 188.991 158.692 188.547C162.288 185.923 165.864 183.27 169.524 180.679C168.202 182.709 166.647 184.598 165.519 186.756C165.391 186.999 165.133 186.999 164.895 187.066C160.881 188.191 159.727 191.587 162.201 194.957C162.308 195.102 162.427 195.247 162.552 195.392H109.618C110.955 193.745 112.086 192.492 113.057 191.108C113.713 190.181 114.882 189.401 114.389 187.961L114.444 188.006ZM83.9363 129.633C83.854 129.806 83.7577 129.972 83.6461 130.129C76.5037 137.568 69.6877 145.301 62.9917 153.136C62.1561 154.114 61.753 154.297 60.7639 153.209C53.8963 145.669 47.2785 137.87 39.9435 130.749C39.8138 130.62 39.6534 130.489 39.8361 130.201C54.4585 130.182 69.1367 130.321 83.9363 129.633ZM163.982 156.454C170.438 155.755 176.032 153.746 180.672 149.494C180.872 149.311 181.017 149.064 181.328 149.47C181.763 150.03 182.456 149.946 183.094 149.943C186.235 149.943 189.376 149.943 192.517 149.927C193.358 149.927 193.775 149.989 193.497 151.04C191.793 157.476 190.353 163.97 189.176 170.524C189.048 171.237 188.688 171.443 187.978 171.477C184.402 171.648 180.939 172.347 177.76 174.088C177.18 174.412 177.021 174.226 176.586 173.748C174.199 171.138 171.717 168.638 169.234 166.127C168.831 165.721 168.364 164.966 167.671 165.528C166.978 166.092 167.755 166.555 168.039 167.003C168.294 167.403 168.535 167.686 167.941 168.046C165.063 169.769 162.694 172.127 160.13 174.395C159.773 173.344 158.741 172.823 158.321 171.839C159.704 170.831 161.021 169.9 162.302 168.919C164.623 167.135 167.12 165.549 169.277 163.539C170.081 162.791 170.362 162.232 169.26 161.345C167.474 159.897 165.878 158.232 163.979 156.454H163.982ZM109.119 123.424C111.9 123.424 114.304 123.424 116.712 123.424C117.086 123.424 117.626 123.274 117.768 123.714C118.147 124.924 117.768 126.161 117.547 127.328C117.425 127.962 116.419 127.632 115.806 127.634C88.6207 127.731 61.4335 127.235 34.2478 127.792C26.4176 127.951 18.5638 128.096 10.7183 128.131C9.69437 128.131 8.39841 128.792 7.69952 128.059C6.91971 127.258 7.53072 125.892 7.38006 124.787C7.2294 123.682 7.5921 123.366 8.72623 123.387C13.9784 123.482 19.2334 123.583 24.4828 123.618C44.4006 123.752 64.3253 123.908 84.2446 123.381C86.2743 123.328 88.2259 123.702 90.2333 123.74C96.6684 123.865 103.074 123.299 109.119 123.424ZM189.01 195.595C189.326 195.247 189.489 195.091 189.625 194.914C191.945 191.85 190.985 188.371 187.351 187.084C186.481 186.794 187.038 186.416 187.111 186.132C187.981 182.756 188.941 179.403 189.744 176.013C190.054 174.707 190.643 174.293 191.873 174.688C192.058 174.749 192.235 174.836 192.424 174.884C196.745 175.989 200.254 178.551 203.769 181.138C205.808 182.677 207.49 184.638 208.7 186.888C206.67 187.437 205.44 188.681 205.103 190.621C204.779 192.481 205.304 194.168 206.922 195.584L189.01 195.595ZM166.789 187.211C167.675 185.417 168.79 183.746 170.107 182.24C174.628 177.121 180.359 174.497 187.151 174.081C188.181 174.021 188.442 174.371 188.227 175.346C187.45 178.846 186.679 182.351 185.98 185.865C185.855 186.503 185.69 186.676 185.049 186.824C181.403 187.657 180.057 191.662 182.354 194.621C182.572 194.911 183.027 195.056 182.96 195.491H169.304C171.946 191.898 170.844 188.318 166.789 187.211ZM20.1876 118.03C20.9967 118.497 21.7862 118.398 22.5632 118.398C30.9904 118.398 39.4162 118.422 47.8406 118.148C54.99 117.917 62.145 117.909 69.3027 117.801C69.4506 117.801 69.5929 117.801 69.7435 117.801C74.7349 117.818 79.7192 117.325 84.6128 117.597C84.6128 118.688 84.4929 119.769 84.6477 120.809C84.8012 121.847 84.4385 122.061 83.5136 121.968C78.2433 121.435 72.9423 121.576 67.6664 121.492C53.5866 121.269 39.4999 121.414 25.4202 121.417C24.7855 121.414 24.1521 121.474 23.5286 121.594C20.3787 122.212 20.002 121.884 20.0955 118.74C20.0829 118.584 20.1178 118.441 20.1876 118.03ZM101.257 109.558V109.579C103.466 109.579 105.676 109.614 107.887 109.561C108.799 109.541 109.18 109.711 109.084 110.765C108.718 114.807 107.054 118.114 103.948 120.761C101.749 122.632 99.3692 122.502 97.5473 120.248C95.1493 117.296 94.2439 113.816 93.7766 110.155C93.6748 109.356 94.2551 109.576 94.6471 109.576C96.84 109.55 99.0497 109.558 101.257 109.558ZM159.687 179.34C160.209 178.954 160.71 179.166 161.171 179.104C161.633 179.044 162.242 179.295 162.363 178.583C162.485 177.87 161.969 177.741 161.389 177.602C160.934 177.492 160.159 177.559 160.142 176.964C160.124 176.37 160.47 175.868 161.084 175.465C163.867 173.644 166.503 171.608 168.967 169.374C169.547 168.858 169.791 169.021 170.22 169.473C171.429 170.755 172.639 172.043 173.935 173.244C174.695 173.946 174.472 174.212 173.75 174.739C170.353 177.228 167.009 179.784 163.651 182.318C161.911 183.623 160.2 184.928 158.268 186.407C158.596 184.786 158.877 183.467 159.118 182.141C159.182 181.779 159.185 181.5 159.672 181.462C160.4 181.405 161.537 181.752 161.615 180.714C161.688 179.763 160.426 179.983 159.823 179.572C159.773 179.537 159.759 179.481 159.687 179.34ZM111.114 190.979C110.14 192.184 109.288 193.243 108.428 194.296C108.138 194.638 107.88 194.899 107.335 194.876C101.894 194.551 96.4452 194.812 90.9991 194.716C90.6044 194.716 90.1287 194.936 89.7548 194.449C90.7871 193.847 91.8431 193.321 92.7875 192.646C93.658 192.036 94.2383 192.065 94.8187 192.971C95.0739 193.379 95.4938 193.826 96.0239 193.431C96.462 193.107 96.1202 192.622 96.0239 192.21C95.9291 191.799 95.2679 191.34 95.8356 190.979C96.4048 190.616 96.6168 191.369 96.9963 191.616C97.1176 191.694 97.2055 191.828 97.3241 191.906C97.4552 192.019 97.6198 192.086 97.7928 192.099C97.9658 192.11 98.1388 192.065 98.2838 191.97C98.6437 191.68 98.2978 191.39 98.2434 191.068C98.1597 190.587 97.2627 190.197 97.8807 189.711C98.4317 189.273 98.9883 188.84 99.9578 189.049C103.53 189.824 107.141 190.648 111.102 190.979H111.114ZM163.26 191.189C163.289 189.716 164.895 188.176 166.334 188.243C167.595 188.304 169.153 190.132 169.153 191.549C169.153 192.968 167.621 194.476 166.221 194.423C164.637 194.366 163.219 192.817 163.248 191.196L163.26 191.189ZM212.76 191.047C212.76 192.498 211.461 193.834 210.074 193.777C208.83 193.724 207.464 192.205 207.464 190.877C207.464 189.699 208.914 188.028 209.955 187.996C211.24 187.953 212.745 189.586 212.76 191.047ZM183.57 191.106C183.57 189.589 184.75 188.246 186.093 188.235C187.105 188.235 188.297 189.764 188.308 191.092C188.323 192.692 187.34 193.834 185.951 193.837C184.561 193.841 183.558 192.715 183.558 191.106H183.57ZM109.766 116.557C110.014 115.802 110.366 115.089 110.465 114.343C110.57 113.523 111.116 113.285 111.718 113.152C111.984 113.097 112.26 113.135 112.503 113.258C112.746 113.38 112.94 113.581 113.054 113.827C113.195 114.116 113.248 114.438 113.209 114.756C113.168 115.072 113.037 115.372 112.831 115.617C112.037 116.586 111.006 116.818 109.766 116.557Z" fill="#2D2D2D"/>
<path d="M212.931 49.8611C212.807 48.2747 211.884 47.8309 210.414 48.0021C209.277 48.1384 208.796 47.5003 209.193 46.4883C209.538 45.6182 209.173 44.8815 208.752 44.1681C207.14 41.538 205.302 39.0528 203.259 36.7407C198.23 30.8677 192.781 25.4561 186.061 21.4886C183.544 20.0008 180.986 18.6058 178.161 17.7387C177.073 17.4052 176.308 17.556 175.591 18.4174C171.957 22.7675 168.341 27.1324 164.927 31.6915C159.791 38.5822 155.841 46.1083 152.471 53.962C151.056 57.2595 150.409 60.676 152.21 64.1127C153.617 66.8011 156.004 68.3905 158.547 69.7912C160.798 71.0295 160.832 71.0151 159.388 73.0887C158.492 74.3764 157.109 74.2807 155.89 73.9181C152.381 72.8741 149.2 71.0412 145.879 69.536C144.951 69.1154 144.046 68.5993 142.979 68.6166C142.75 68.6166 142.515 68.6485 142.367 68.3614C139.726 63.2048 139.524 57.9566 141.761 52.6164C142.051 51.8971 142.892 50.8935 142.001 50.4992C141.282 50.1801 140.841 51.4273 140.531 52.1726C138.843 56.1343 138.188 60.1916 139.371 64.4317C139.788 66.0905 140.684 67.59 141.946 68.7442C137.689 71.5574 134.447 75.49 130.621 78.7644C129.8 79.4662 129.046 80.2435 128.249 80.9714C127.051 82.0648 126.891 82.8566 127.938 84.1269C129.774 86.3571 131.709 88.5004 133.611 90.687C134.829 92.0907 136.027 93.5147 137.26 94.9097C137.567 95.2548 137.84 95.6928 138.591 95.803C138.04 94.3529 137.141 93.3059 136.305 92.256C134.068 89.5398 132.025 86.6693 130.192 83.6657C129.963 83.28 129.389 82.9406 130.143 82.3635C133.4 79.878 136.076 76.798 138.794 73.7615C140.035 72.3782 141.198 70.4814 142.773 69.9623C144.348 69.4431 145.632 71.6241 147.141 72.471C149.438 73.7616 151.752 74.9361 154.44 75.4784C152.285 79.2256 149.4 82.2243 146.61 85.3101C146.227 85.7335 145.569 86.0671 145.934 86.7602C146.3 87.4534 146.99 87.2387 147.538 87.1546C150.827 86.65 154.116 86.1802 157.459 86.2555C157.863 86.2555 158.498 86.2961 158.422 85.6959C158.364 85.2144 157.767 85.4406 157.413 85.4261C154.217 85.2946 151.016 85.4266 147.842 85.8206C149.469 83.9122 150.879 82.2621 152.285 80.6002C152.612 80.2362 152.92 79.8558 153.208 79.4605C154.62 77.4303 156.027 75.4263 159.078 76.0643C159.426 77.1403 158.912 78.4685 159.043 79.8113C159.191 81.4048 159.489 82.9809 159.933 84.5183C160.052 84.9244 159.962 85.5769 160.513 85.5711C161.108 85.5711 160.922 84.9011 160.983 84.5067C161.433 81.621 161.059 78.7528 160.714 75.8961C160.621 75.1247 160.655 74.939 161.456 75.0435C163.579 75.319 165.699 75.4437 167.813 74.8404C168.48 74.649 168.973 74.385 169.327 73.7383C165.722 71.9547 161.894 70.6177 158.562 68.3208C156.749 67.0737 154.96 65.815 153.782 63.8545C151.824 60.5889 152.584 57.3204 153.907 54.1969C155.803 49.7162 158.153 45.447 160.647 41.262C161.198 40.3341 161.987 40.682 162.694 40.5776C163.402 40.4732 163.721 41.0475 163.82 41.6623C163.889 42.1148 164.034 42.4366 164.536 42.3874C165.241 42.3148 165.006 41.7319 164.997 41.352C164.965 39.9366 163.985 39.1595 162.146 39.0811C162.422 38.1589 163.092 37.486 163.55 36.6942C163.629 36.5425 163.749 36.4161 163.897 36.3295C164.045 36.2428 164.214 36.1993 164.385 36.2042C165.36 36.2042 166.334 36.1056 167.309 36.1085C167.72 36.1085 168.257 36.4362 168.434 35.8851C168.558 35.4965 168.06 35.2355 167.749 35.0296C167.103 34.6033 166.534 33.9999 165.563 34.1392C165.887 33.1038 166.592 32.4686 167.056 31.6915C167.346 31.2129 167.726 31.1578 168.303 31.3811C173.593 33.3677 178.356 36.5429 182.224 40.6618C184.544 43.1384 184.834 46.0822 183.753 49.2259C183.251 50.6964 182.761 52.1726 182.334 53.6662C181.969 54.9509 182.465 55.5745 183.822 55.6325C184.982 55.6819 186.165 55.5193 187.302 56.0066C188.993 56.7404 189.353 58.0368 188.172 59.4869C187.527 60.2863 186.715 60.936 185.794 61.3906C184.873 61.8454 183.863 62.0943 182.836 62.1202C182.01 62.1637 181.177 62.0651 180.377 62.4102C179.918 62.6075 179.605 62.9091 179.646 63.3818C179.655 63.5815 179.736 63.7712 179.873 63.9164C180.01 64.0618 180.195 64.153 180.394 64.1735C181.676 64.2953 181.554 65.1422 181.49 66.0732C181.247 69.5533 180.368 72.9669 180.85 76.4877C180.907 76.9286 180.934 77.6478 180.035 77.758C175.223 78.4077 170.754 80.0984 166.456 82.3084C165.075 83.0161 163.741 83.8224 162.396 84.6111C162.071 84.7997 161.601 85.0897 161.882 85.5131C162.164 85.9365 162.575 85.6292 162.941 85.458C166.372 83.8512 169.814 82.2678 173.457 81.1918C175.681 80.5306 177.917 79.907 180.127 79.1878C180.589 79.037 180.707 79.1878 180.907 79.4778C182.714 82.1809 185.217 82.436 188.228 81.9691C191.418 81.4761 194.541 80.9279 197.528 79.7417C198.349 79.414 198.465 79.9737 198.735 80.3594C200.495 82.8913 202.148 85.5045 203.996 87.9666C206.026 90.6668 208.224 93.2364 210.446 95.9829C207 97.6765 203.607 99.3468 200.211 101.012C199.341 101.438 198.486 101.902 197.586 102.262C194.686 103.422 193.497 105.808 192.729 108.598C190.507 116.641 188.834 124.808 187.189 132.977C186.887 134.265 186.757 135.587 186.804 136.91C186.853 137.67 186.58 138.071 185.643 137.754C172.303 133.415 159.051 128.827 145.888 123.989C142.239 122.62 138.707 120.958 135.325 119.022C134.647 118.637 134.371 118.395 134.609 117.482C136.349 110.759 138.875 104.303 140.989 97.7142C141.569 95.9131 142.103 94.0977 142.669 92.2938C142.796 91.8877 143.185 91.3657 142.669 91.1337C141.999 90.8204 141.909 91.5629 141.746 91.9602C139.789 96.7659 137.915 101.604 136.43 106.583C135.462 109.832 134.435 113.062 133.672 116.369C133.144 118.648 133.191 118.926 135.244 120.138C140.737 123.398 146.592 125.938 152.335 128.709C162.268 133.482 172.796 136.348 183.55 138.471C187.099 139.173 187.125 139.141 187.717 136.044C189.53 126.565 192.154 117.302 195.017 108.096C195.678 105.967 196.757 104.399 198.758 103.349C202.511 101.376 206.177 99.2477 209.918 97.2589C212.708 95.7711 213.108 94.8053 211.554 92.0704C211.095 91.2584 211.473 90.8233 211.89 90.2636C214.425 86.8675 217.186 83.6193 218.485 79.4605C219.524 76.1259 220.192 72.6866 220.475 69.2054C220.819 65.0416 220.396 60.8502 219.228 56.839C218.811 55.4313 218.196 54.0904 217.4 52.857C217.166 52.4829 216.754 52.1116 217.137 51.6969C217.519 51.2822 217.949 51.7404 218.326 51.8971C224.895 54.6667 227.859 59.9944 228.972 66.7199C229.57 70.4411 229.745 74.2179 229.494 77.9784C229.088 84.5328 227.954 90.9974 226.478 97.4097C223.212 111.563 217.899 124.921 211.037 137.69C210.771 138.184 210.275 138.85 210.927 139.248C211.681 139.697 211.992 138.958 212.288 138.361C217.859 127.34 222.827 116.03 226.756 104.321C228.876 98.1274 230.42 91.752 231.371 85.2753C231.819 82.3905 232.054 79.4767 232.075 76.5573C232.02 69.7796 231.406 63.0077 227.235 57.2218C224.944 54.0316 221.803 51.9493 218.163 50.5804C217.435 50.3078 216.69 50.0613 215.959 50.5804C215.501 50.9139 215.266 50.4209 214.999 50.2556C214.341 49.8466 213.694 49.6001 212.926 49.8554C212.18 49.8785 211.908 50.4817 211.557 50.9776C210.855 51.9667 210.687 53.118 210.542 54.2839C210.489 54.7567 210.359 55.1221 209.738 55.0611C209.118 55.0003 209.205 54.5826 209.199 54.2114C209.14 53.4298 209.153 52.6445 209.237 51.8651C209.396 50.908 209.721 49.9366 210.53 49.3246C211.339 48.7126 211.821 49.7509 212.505 49.8495C212.647 49.865 212.789 49.8689 212.931 49.8611ZM204.657 54.6581C205.574 55.2381 206.296 56.0008 207.685 55.7746C208.43 55.6529 209.332 56.8418 210.431 56.1604C210.721 55.9892 210.626 56.3778 210.681 56.5112C211.032 57.364 211.551 57.9613 212.572 57.6713C213.442 57.4161 214.196 55.8848 213.981 55.0205C213.894 54.6581 213.738 54.3302 213.366 54.2926C212.995 54.2549 212.786 54.5624 212.743 54.9452C212.676 55.4585 212.56 55.9515 211.957 56.2125C211.635 54.745 211.667 53.4051 212.386 52.1522C213.068 50.9922 213.738 50.911 214.706 51.8622C215.427 52.5939 215.98 53.4737 216.327 54.4405C218.964 61.166 219.32 68.0569 217.754 75.0608C216.336 81.4065 213.253 86.911 209.025 91.882C207.254 89.6533 205.7 87.2605 204.384 84.7358C203.268 82.5637 202.125 80.3856 200.295 78.6832C199.341 77.79 198.265 77.497 197.067 77.9263C194.131 78.9258 191.106 79.6406 188.033 80.0607C186.125 80.3508 184.066 81.1918 182.459 78.9558C181.688 77.8798 181.862 77.1896 182.59 76.5052C189.495 70.0087 195.783 62.9207 202.224 55.9835C202.728 55.4411 203.042 54.6377 204.051 55.2787C204.361 55.473 204.817 55.2265 204.663 54.6522C203.625 53.9765 202.694 53.2021 203.05 51.784C203.34 50.6239 203.741 49.4638 205.408 49.1941C204.431 51.0155 204.782 52.857 204.657 54.6581ZM184.782 54.1273C185.319 52.654 185.809 51.288 186.319 49.9278C187.836 45.8937 187.149 42.225 184.333 39.026C180.293 34.4321 175.081 31.7756 169.214 30.3632C168.387 30.1631 168.152 30.1341 168.756 29.3568C171.235 26.1464 173.686 22.9038 176.122 19.6702C176.493 19.18 176.876 18.9306 177.462 19.3802C178.593 20.2503 179.93 20.7548 181.203 21.3698C188.668 24.9746 194.695 30.3748 200.139 36.5029C202.459 39.113 204.579 41.8595 206.809 44.5334C207.931 45.8821 206.971 46.7783 206.496 47.7933C206.127 48.5851 205.574 48.8606 204.686 48.208C204.138 47.8078 203.445 48.2631 202.972 48.6982C202.015 49.5827 201.522 50.7776 201.798 51.9985C202.088 53.2747 201.673 53.9243 200.782 54.832C196.415 59.2751 192.189 63.8574 187.926 68.402C186.035 70.4177 184.173 72.4623 182.3 74.4925C183.215 71.5522 183.641 68.4815 183.561 65.4032C183.535 64.5331 184.016 64.3621 184.684 64.2025C186.847 63.6892 188.689 62.6655 189.849 60.6875C191.395 58.0774 190.139 55.2438 187.21 54.4434C186.453 54.2375 185.681 54.2463 184.782 54.1273ZM207.485 54.7914C205.869 54.3651 205.837 53.1354 206 51.9928C206.188 50.6819 206.354 49.2492 207.801 48.5735C207.963 48.5088 208.14 48.4941 208.31 48.5314C208.48 48.5686 208.635 48.656 208.755 48.7822C209.045 49.0491 208.813 49.3101 208.674 49.5654C207.823 51.1717 207.412 52.9749 207.485 54.7914Z" fill="#2D2D2D"/>
<path d="M237.499 79.2802C237.606 70.5796 236.13 63.0131 231.698 56.3021C227.861 50.5016 222.551 46.6067 215.655 45.1769C214.294 44.8869 212.856 44.5679 211.432 44.8492C211.072 44.9189 210.402 44.8956 210.475 45.5075C210.527 45.9687 211.055 45.9164 211.446 45.9484C217.705 46.4472 223.117 48.8486 227.58 53.2713C231.15 56.8125 233.053 61.2585 234.195 66.0553C235.355 70.9509 235.434 75.9653 235.083 80.9304C234.543 88.5115 232.763 95.8867 230.631 103.172C227.145 115.032 222.088 126.372 215.597 136.893C215.214 137.517 214.787 138.114 214.373 138.716C214.123 139.079 213.729 139.479 214.283 139.828C214.787 140.146 215.193 139.88 215.478 139.369C216.217 138.052 216.983 136.759 217.725 135.437C223.18 125.773 228.436 116.006 232.304 105.564C234.552 99.56 236.109 93.3195 236.945 86.9627C237.299 84.1555 237.571 81.351 237.499 79.2802Z" fill="#2D2D2D"/>
<path d="M75.2915 41.8129C76.7409 42.0507 77.7425 41.1487 78.6144 40.1453C83.0965 35.009 87.5354 29.838 92.005 24.6902C93.3219 23.1705 94.6876 21.6971 96.0226 20.1948C96.2653 19.9222 96.8164 19.6438 96.5206 19.2697C96.2249 18.8955 95.7171 19.1683 95.3614 19.435C93.2187 20.989 91.2057 22.7145 89.3434 24.5944C85.1974 28.7739 81.2984 33.1916 77.6672 37.8251C76.0309 39.9104 75.5259 39.9828 73.3623 38.3819C70.7899 36.4766 68.6039 34.1419 66.3063 31.9349C65.6535 31.3084 65.6339 30.6471 65.9646 29.8118C66.9425 27.3409 68.7894 25.4848 70.4104 23.4894C74.5299 18.3693 79.0385 13.5737 83.8931 9.14518C84.207 8.85515 84.8124 8.48966 84.4874 8.11552C84.0619 7.6196 83.522 8.08944 83.084 8.42298C77.73 12.4833 73.192 17.315 69.2302 22.718C67.6441 24.8844 66.019 27.0248 64.3868 29.1565C63.1481 30.7776 62.936 32.251 64.1929 33.8519C66.6802 37.0874 69.8678 39.718 73.5171 41.546C74.0765 41.7833 74.6875 41.8751 75.2915 41.8129Z" fill="#0067FF"/>
<path d="M114.389 187.958C114.666 188.035 114.936 188.133 115.198 188.249C115.807 188.568 116.46 188.786 116.874 188.081C117.29 187.377 116.773 186.863 116.222 186.501C113.769 184.894 111.291 183.324 108.834 181.712C107.119 180.587 105.468 179.351 103.713 178.287C102.789 177.725 102.861 177.246 103.327 176.437C107.705 168.896 112.072 161.338 116.118 153.606C121.448 143.427 126.914 133.319 132.515 123.285C132.953 122.497 134.052 121.209 133.26 120.771C132.39 120.298 131.926 121.884 131.506 122.675C122.127 140.202 111.68 157.133 102.579 174.812C100.663 178.537 100.582 178.679 104.03 181.193C107.364 183.658 110.838 185.933 114.43 188.006L114.389 187.958Z" fill="#2D2D2D"/>
<path d="M146.529 140.805C151.378 140.805 156.05 141.995 160.74 143.027C164.333 143.818 167.949 144.285 171.618 144.027C174.443 143.823 176.777 142.417 178.921 140.672C179.266 140.382 179.669 139.987 179.382 139.552C179.057 139.052 178.497 139.262 178.071 139.517C176.731 140.309 175.38 141.075 173.834 141.385C170.826 141.99 167.825 141.75 164.826 141.269C160.319 140.549 155.867 139.573 151.276 139.283C148.948 139.131 146.611 139.142 144.284 139.315C139.736 139.654 137.851 142.371 139.296 146.704C140.74 151.037 143.811 154.074 147.019 157.049C150.368 160.146 154.226 162.56 157.929 165.199C158.219 165.398 158.556 166.173 159.104 165.453C159.652 164.734 158.84 164.662 158.556 164.412C154.319 160.718 149.516 157.687 145.717 153.473C143.721 151.257 141.749 149.016 140.853 146.092C139.797 142.656 141.169 140.834 144.765 140.805H146.529Z" fill="#2D2D2D"/>
<path d="M141.03 43.7562C140.595 43.1414 140.624 42.4425 140.467 41.787C140.431 41.676 140.368 41.5752 140.285 41.4931C140.202 41.4109 140.1 41.3497 139.989 41.3142C139.655 41.2709 139.681 41.6043 139.667 41.8392C139.649 42.1289 139.649 42.4195 139.667 42.7092C139.731 43.675 139.667 44.8727 140.888 45.0498C142.318 45.2527 142.628 43.9158 142.834 42.9269C143.087 41.9705 143.047 40.9603 142.721 40.0267C141.816 37.7848 139.563 37.2279 137.625 38.9913C135.885 40.5863 133.948 41.9813 132.405 43.8258C129.215 47.6251 126.605 51.7056 125.952 56.723C125.62 59.6438 125.698 62.5968 126.184 65.496C126.726 69.0488 127.495 72.5522 129.064 75.8265C129.169 76.1478 129.302 76.4592 129.461 76.7574C129.751 77.1519 129.862 77.9987 130.549 77.6681C131.164 77.3781 130.587 76.7488 130.43 76.4211C128.211 71.8155 127.53 66.923 127.924 61.9056C128.527 54.3361 130.967 47.4627 136.277 41.8219C136.938 41.1199 137.46 40.2992 138.307 39.7511C139.003 39.3015 139.647 38.6607 140.523 39.0435C141.497 39.4698 141.717 40.4559 141.709 41.3868C141.751 42.2299 141.512 43.0632 141.03 43.7562Z" fill="#2D2D2D"/>
<path d="M71.9296 115.251C72.9745 113.969 73.1224 112.641 72.3649 111.307C71.6088 109.972 70.483 109.19 68.9025 109.297C68.032 109.356 67.6065 109.211 67.322 108.198C66.6858 105.932 65.0913 105.139 61.6917 105.112C62.5162 103.424 63.296 101.789 63.116 99.8627C62.8956 97.5223 61.1672 95.6459 58.8417 95.4372C58.6967 95.4227 58.5516 95.4227 58.4009 95.4023C56.1703 95.0833 56.5219 95.5821 56.9501 93.3722C57.3477 91.5544 57.3254 89.6696 56.8846 87.8618C56.1843 85.2227 52.8432 83.7436 50.5038 84.9965C50.2137 85.1502 49.7812 85.3329 49.9235 85.7332C50.0658 86.1334 50.4508 85.9187 50.7787 85.8462C53.6789 85.2227 55.5649 86.1189 54.9985 90.0225C54.7753 91.8041 54.4587 93.5726 54.0499 95.3211C53.7598 96.4493 54.7112 97.1744 55.9234 96.983C56.9738 96.8177 57.9224 96.1332 59.0412 96.3739C61.2956 96.8583 62.7184 99.3256 62.1186 101.719C61.8382 102.749 61.4086 103.734 60.8422 104.639C60.2633 105.617 60.2828 106.19 61.661 106.034C62.6878 105.914 63.7256 106.14 64.6101 106.679C65.4805 107.203 65.9353 107.94 65.5935 109.015C65.5098 109.398 65.4568 109.785 65.4303 110.176C65.1695 111.823 65.793 112.348 67.3736 111.759C68.0418 111.458 68.77 111.31 69.5023 111.327C71.1498 111.45 71.945 112.281 71.945 113.937L71.9296 115.251Z" fill="#0067FF"/>
<path d="M85.9088 7.26298C91.2977 5.43302 96.5471 3.68997 102.313 3.5188C100.92 6.41901 99.5631 9.15098 98.2867 11.9294C97.7063 13.1591 97.3269 14.47 96.8191 15.7287C96.6071 16.2593 96.6043 16.7523 97.1358 16.9872C97.6659 17.2222 97.9268 16.7668 98.1472 16.3695C100.439 12.2484 102.632 8.07209 104.528 3.75958C105.447 1.6802 104.221 0.488167 101.808 0.926057C98.0439 1.62914 94.3653 2.73663 90.8388 4.22942C89.5861 4.7485 88.3543 5.32282 87.135 5.91723C86.6859 6.13485 86.1055 6.27407 85.9088 7.26298Z" fill="#0067FF"/>
<path d="M160.641 86.7251C159.684 87.1921 159.681 87.9055 159.446 88.4478C156.447 95.3271 154.461 102.511 152.921 109.843C152.016 114.155 150.339 118.253 149.188 122.514C149.043 123.053 148.184 124.086 149.298 124.379C150.119 124.596 150.096 123.471 150.302 122.879C151.845 118.442 152.709 113.795 154.403 109.405C156.32 104.425 158.211 99.4361 159.263 94.1874C159.748 91.7802 160.423 89.3992 160.641 86.7251Z" fill="#2D2D2D"/>
<path d="M59.051 54.8174C58.8473 54.0372 59.1723 53.1149 58.14 52.9583C57.1077 52.8018 56.8022 53.5383 56.3795 54.2113C54.0415 57.8655 51.8207 61.5893 49.7519 65.4031C49.5789 65.7221 49.2623 66.0121 49.4883 66.8938C51.8081 63.2366 53.757 59.6868 56.4744 56.6967C57.5514 58.0249 57.8206 58.0047 58.9603 56.6271C60.6078 54.6376 62.1772 52.5813 64.0618 50.7079C64.451 52.7176 65.341 53.2396 66.7849 52.1405C69.7116 49.9131 72.5071 47.5147 73.9259 43.9591C74.096 43.5327 74.668 42.9034 73.9259 42.5496C73.3218 42.2596 73.1516 43.034 72.9075 43.3617C71.281 45.5628 69.1173 47.1812 67.0373 48.8923C66.8407 49.0547 66.6049 49.6405 66.2575 49.1446C65.3871 47.8975 64.7872 48.756 64.1832 49.3825C62.5301 51.1399 60.8575 52.9177 59.051 54.8174Z" fill="#0067FF"/>
<path d="M168.524 94.4364C167.167 91.8216 165.353 89.4711 163.167 87.4963L162.419 86.7974C162.325 86.6823 162.191 86.6077 162.043 86.5887C161.896 86.5699 161.747 86.6082 161.627 86.6958C161.357 86.9163 161.439 87.2441 161.627 87.4818C163.907 90.208 165.107 93.5722 166.891 96.5681C167.262 97.1974 167.761 97.5802 168.559 97.5107C169.356 97.4411 169.481 96.8176 169.719 96.2259C171.566 91.6581 173.953 87.45 177.946 84.3728C179.156 83.4419 180.615 83.0156 182.036 82.5283C182.3 82.4384 182.659 82.4703 182.648 82.0527C182.648 81.5306 182.221 81.6002 181.899 81.5974C178.999 81.58 176.766 83.0068 174.826 84.921C172.187 87.5457 170.203 90.6663 168.524 94.4364Z" fill="#2D2D2D"/>
<path d="M82.9014 26.2073C85.9732 26.2073 88.1745 23.5971 88.0894 20.0502C88.035 17.5966 85.8309 15.99 83.8333 15.9145C80.9903 15.8275 78.1738 18.6814 78.1682 21.5293C78.1626 24.2467 80.1491 26.2102 82.9014 26.2073ZM81.332 20.7202C81.332 18.6436 82.8554 16.9499 84.6619 17.0021C85.5645 17.0254 86.3554 18.3449 86.3582 19.824C86.3582 21.7903 85.0567 23.3043 83.3799 23.281C81.9207 23.2753 81.3292 22.5183 81.332 20.7202Z" fill="#0067FF"/>
<path d="M46.2896 67.3199C43.9697 66.8383 43.0001 68.0565 42.0669 69.3499C41.8925 69.5877 41.9832 70.1562 41.3066 69.8575C39.0537 68.8598 37.3281 69.9097 35.8843 71.5163C35.1156 72.3864 34.778 72.5691 33.9257 71.4961C31.2863 68.1782 26.4582 68.1609 23.5524 71.3394C22.4532 72.5832 21.6162 74.0363 21.0931 75.6115C20.9131 76.1161 20.6718 76.8296 21.3037 77.0094C21.937 77.1891 21.9217 76.3394 22.0179 75.9623C22.4295 74.2369 23.4464 72.716 24.8833 71.6759C27.5519 69.7503 31.1189 70.4955 32.9045 73.2827C33.2798 73.9039 33.6146 74.5481 33.9089 75.2113C33.987 75.4188 34.1265 75.5971 34.3093 75.7218C34.4934 75.8464 34.711 75.9113 34.9329 75.9072C35.1323 75.9011 35.3235 75.8266 35.4741 75.6962C35.6248 75.5657 35.7266 75.3873 35.7615 75.1909C36.0516 73.709 37.1886 72.9288 38.2558 72.0848C39.2657 71.2873 40.2101 70.8551 41.322 72.0442C42.032 72.8041 43.0615 72.485 42.9862 71.5744C42.7825 69.292 44.1496 68.2624 46.2896 67.3199Z" fill="#0067FF"/>
<path d="M82.9794 46.9724C82.1647 45.2903 81.4769 43.8461 80.7697 42.4133C80.5869 42.045 80.3846 41.5201 79.8504 41.7781C79.3956 42.0015 79.6467 42.4162 79.7862 42.7962C80.6358 45.0062 81.3737 47.2577 81.9959 49.542C82.1828 50.2844 82.7045 50.8905 83.5248 50.9021C84.3451 50.9138 84.8738 50.3772 85.1346 49.6232C85.9437 47.274 86.2953 44.8234 86.637 42.3727C87.0541 39.2956 87.3848 36.2098 87.7502 33.124C87.7795 32.8833 87.8061 32.6398 87.8256 32.3961C87.8521 32.077 87.774 31.758 87.4252 31.7203C87.1853 31.6913 87.0221 31.9146 86.9412 32.1844C86.704 32.9732 86.4334 33.7505 86.1781 34.5307C84.8626 38.5416 83.9921 42.6656 82.9794 46.9724Z" fill="#0067FF"/>
<path d="M58.154 43.0456C59.8475 39.7887 61.9819 37.1524 63.8679 34.3595C63.2876 33.9767 63.0993 34.3855 62.8579 34.6814C60.5032 37.5583 58.6102 40.7544 56.5595 43.8431C56.1508 44.4579 55.9066 45.1279 56.8176 45.6673C57.476 46.0588 56.7743 46.3894 56.6083 46.6649C54.52 50.0785 52.4317 53.492 50.5443 57.0215C49.4673 58.9859 48.6485 61.0819 48.1114 63.2569C47.9803 63.8138 47.7361 64.7679 48.329 64.9738C49.0712 65.2348 49.279 64.2604 49.4883 63.7355C51.3729 59.0401 53.4556 54.4548 56.0224 50.0785C57.0031 48.3809 58.1526 46.7856 59.4499 45.3163C59.9605 44.7363 60.7905 44.2723 60.3386 43.3501C59.9438 42.5496 59.1166 42.857 58.154 43.0456Z" fill="#0067FF"/>
<path d="M117.467 188.006C119.421 186.735 120.607 184.861 121.883 183.112C126.14 177.281 130.328 171.398 134.525 165.523C134.974 164.893 135.308 164.181 135.711 163.519C135.879 163.243 136.001 162.939 135.734 162.727C135.424 162.493 135.215 162.837 135.009 163.017C133.788 164.093 132.875 165.433 131.906 166.724C127.077 173.162 122.231 179.588 117.846 186.35C117.542 186.807 117.091 187.24 117.467 188.006Z" fill="#2D2D2D"/>
<path d="M19.4833 98.4072C19.4833 101.719 21.6846 104.982 24.3811 105.786C26.1416 106.308 27.5952 105.316 27.725 103.465C27.8617 101.461 26.9828 99.7874 25.8724 98.2274C25.5502 97.775 25.1498 97.3921 24.8513 96.8875C24.0743 95.5708 22.3723 94.7675 21.2577 95.1995C19.7707 95.7796 19.3522 97.0296 19.4833 98.4072ZM25.9882 101.491C25.9561 102.421 26.15 103.163 25.5529 103.564C24.9559 103.964 24.5318 103.389 24.1705 103.056C22.6095 101.607 21.8297 99.7386 21.5591 97.6705C21.4349 96.6642 22.0724 96.38 23.0936 96.8469C25.2349 97.8097 25.7538 99.7205 25.9882 101.491Z" fill="#2D2D2D"/>
<path d="M49.0069 84.2689C51.0366 82.7086 52.0731 80.5914 52.4693 78.1263C52.5767 77.4621 52.3856 76.6907 51.8081 76.4587C50.5958 75.9656 51.3477 75.4522 51.6867 74.9767C53.3342 72.6565 54.9761 70.3538 55.2216 67.3985C55.3095 66.3486 55.1212 65.3307 54.1726 64.6781C53.4988 64.2198 52.765 63.9994 51.9796 64.5041C51.6546 64.7157 51.1887 64.8377 51.3993 65.3481C51.5946 65.7976 51.9336 65.5336 52.2698 65.4554C53.4848 65.1654 54.0094 65.7077 53.9633 66.9257C53.9103 67.8566 53.5644 68.7466 52.9743 69.4692C51.49 71.4733 49.9611 73.4483 48.4531 75.4379C48.1629 75.8264 47.8728 76.2179 47.6007 76.6327C47.2701 77.1605 47.1306 77.7406 47.6231 78.2306C48.029 78.6338 48.4935 78.6948 49.0976 78.454C49.749 78.1959 50.5735 77.3896 51.0868 77.8914C51.7648 78.5583 51.0868 79.5531 50.8581 80.3681C50.4549 81.7544 49.3961 82.8333 49.0069 84.2689Z" fill="#0067FF"/>
<path d="M56.2666 25.6473C59.5406 24.1247 62.7128 22.6687 65.8683 21.1752C67.234 20.5285 68.5691 19.8092 69.911 19.1131C70.2012 18.9565 70.5793 18.7274 70.3756 18.3417C70.2166 18.0517 69.7953 18.1822 69.5693 18.2982C64.4971 20.7605 59.0384 22.2657 53.909 24.6177C53.2938 24.9077 52.7623 25.2847 52.8 26.0127C52.8404 26.7841 53.404 27.2076 54.1001 27.4251C55.7058 27.9326 57.3909 27.689 59.03 27.9152C60.1112 28.0632 61.223 28.4952 62.6961 28.0834C60.672 26.6392 58.1624 27.2018 56.2666 25.6473Z" fill="#0067FF"/>
<path d="M49.346 103.848C51.7482 103.018 52.98 99.62 51.6198 97.7574C51.1065 97.0526 50.4606 96.5016 49.5371 96.6349C48.29 96.8206 48.0319 96.3073 47.9594 95.1327C47.8994 94.1089 47.8352 93.0156 47.2465 92.0411C46.9633 91.5252 46.5379 91.1017 46.0203 90.8214C45.5028 90.5412 44.9155 90.4158 44.3296 90.4605C43.6404 90.4703 42.9653 90.6419 42.3557 90.9613C41.7461 91.2806 41.2201 91.739 40.8198 92.2991C40.7403 92.3946 40.6956 92.5136 40.6914 92.6374C40.6872 92.7613 40.7235 92.8831 40.796 92.9837C41.022 93.2737 41.3066 93.1635 41.5772 92.9837C42.1771 92.5747 42.7365 92.1136 43.4507 91.8671C44.3784 91.5481 45.1903 91.5567 45.8808 92.2558C46.2198 92.5788 46.4542 92.9957 46.5546 93.4528C46.6551 93.91 46.6174 94.3868 46.4458 94.8224C46.2114 95.5097 45.9617 96.1912 45.7302 96.8786C45.4972 97.566 45.228 98.1837 45.8111 98.7984C46.4891 99.5153 47.2326 99.228 47.9719 98.9233C48.7113 98.6188 49.4046 98.3984 50.0017 99.0363C50.5987 99.6744 50.9503 100.486 50.5262 101.446C50.3839 101.856 50.1886 102.247 49.9472 102.607C49.671 102.94 49.2511 103.276 49.346 103.848Z" fill="#0067FF"/>
<path d="M170.304 53.7267C168.973 54.8868 169.588 57.4652 167.114 57.4246C165.623 57.4042 165.241 55.9455 164.257 54.8607C165.55 54.8397 166.832 54.6176 168.057 54.2024C168.616 54.0227 169.131 53.7262 169.568 53.3324C169.927 52.9843 170.339 52.526 170.017 52.0766C169.611 51.4965 169.22 52.0446 168.814 52.3028C167.166 53.3382 165.319 53.4629 163.457 53.2859C162.381 53.1786 162.007 53.5614 162.076 54.5736C162.184 56.3863 162.906 57.9031 164.397 58.9239C166.665 60.5045 169.907 58.7355 170.316 55.7337C170.357 55.0652 170.353 54.3948 170.304 53.7267Z" fill="#2D2D2D"/>
<path d="M38.2502 61.9547C38.6115 61.8499 38.9477 61.6712 39.2378 61.4299C39.5266 61.1887 39.7623 60.8901 39.9311 60.553C40.0999 60.2159 40.1962 59.8476 40.2143 59.4714C40.2324 59.0952 40.1739 58.7192 40.0399 58.3671C39.6424 57.1896 37.8958 56.3862 36.5971 57.0041C35.7266 57.4188 35.2802 57.239 34.6162 56.6502C33.0998 55.3045 30.3991 55.3045 29.1059 56.5197C28.5605 57.0243 28.1727 57.587 28.2801 58.4252C31.5277 56.656 31.5193 56.6619 33.9549 59.7969C34.5897 60.6148 35.3611 60.6959 36.0196 59.8375C36.678 58.9791 37.3308 57.9379 38.4189 58.6252C39.7065 59.4402 38.9267 60.5712 38.3115 61.5254C38.253 61.5979 38.2739 61.7111 38.2502 61.9547Z" fill="#0067FF"/>
<path d="M68.0849 40.8818C66.8601 41.8766 65.6228 42.8598 64.4133 43.8749C63.9544 44.2577 63.6349 44.6609 62.9625 44.0982C62.3389 43.5849 61.6582 43.9126 61.1588 44.4897C59.2713 46.6852 57.9684 49.2663 56.4492 51.6996C56.3181 51.9113 56.2344 52.1838 56.4786 52.3579C56.8426 52.6219 57.1161 52.3579 57.3476 52.1027C58.578 50.7106 59.7987 49.3099 61.0318 47.9206C61.4727 47.4247 61.8284 46.8301 62.7128 47.097C63.3308 47.2797 63.8176 46.807 64.2473 46.4038C65.8739 44.8609 66.7471 42.7322 68.47 41.2589L68.0849 40.8818Z" fill="#0067FF"/>
<path d="M48.9233 66.0322C47.9915 66.4934 47.8004 67.4417 47.34 68.219C44.4049 73.1494 42.5454 78.4973 41.1964 84.0396C41.0918 84.4688 40.7877 84.9647 41.4141 85.13C41.8577 85.2432 42.0376 84.782 42.166 84.3934C43.7367 79.6603 46.3105 75.3013 47.3247 70.3507C47.6288 68.8628 48.3779 67.4678 48.9233 66.0322Z" fill="#0067FF"/>
<path d="M95.2037 18.8377C95.2707 18.8565 95.339 18.8603 95.4074 18.8484C95.4757 18.8366 95.5399 18.8095 95.5957 18.7693C95.6515 18.7292 95.6975 18.6769 95.7296 18.6165C95.7617 18.5559 95.7812 18.4888 95.784 18.42C95.8356 18.2274 95.8189 18.0227 95.738 17.8407C95.6571 17.6585 95.5148 17.5098 95.3376 17.4195C91.6953 15.3894 89.3865 11.9439 86.5352 9.0727C86.3008 8.83778 86.0776 8.43756 85.6996 8.61737C85.3229 8.79719 85.4819 9.1829 85.6131 9.51073C87.0974 13.2142 89.6209 16.0477 92.9354 18.2112C93.5939 18.6806 94.3974 18.9024 95.2037 18.8377Z" fill="#0067FF"/>
<path d="M162.903 45.3511C165.513 45.4092 167.042 44.2403 167.57 41.9173C167.657 41.5344 167.825 41.0675 167.381 40.8702C166.801 40.6151 166.842 41.2357 166.694 41.5258C165.717 43.4108 164.939 43.7414 162.634 43.2137C160.279 42.6743 159.217 43.7589 159.791 46.1138C160.311 48.2368 161.74 49.6926 163.417 49.7768C163.768 49.7942 164.287 50.0233 164.385 49.4867C164.446 49.1214 164.003 49.0053 163.669 48.9067C162.625 48.579 161.952 47.9758 161.714 46.8069C161.479 45.557 161.54 44.8609 162.903 45.3511Z" fill="#2D2D2D"/>
<path d="M183.289 108.952C182.439 107.772 183.521 107.848 184.22 107.644C184.919 107.442 185.69 107.265 185.583 106.4C185.467 105.478 184.649 105.385 183.875 105.461C183.155 105.533 182.688 105.402 182.552 104.553C182.48 104.101 182.137 103.682 181.853 103.285C181.624 102.972 181.296 102.706 180.85 102.859C180.403 103.013 180.302 103.378 180.339 103.805C180.435 104.907 180.432 105.913 178.97 106.154C178.553 106.222 178.477 106.733 178.556 107.142C178.634 107.552 178.883 107.842 179.246 107.775C180.644 107.523 181.064 108.354 181.369 109.474C181.505 109.985 181.847 110.533 182.509 110.345C183.086 110.162 183.219 109.587 183.289 108.952Z" fill="#2D2D2D"/>
<path d="M185.058 85.2139C185.058 85.3443 185.058 85.4198 185.078 85.4372C186.479 86.4291 186.012 87.5862 185.449 88.8101C185.301 89.1291 185.559 89.6105 185.925 89.7701C186.126 89.8728 186.357 89.9 186.576 89.8467C186.795 89.7935 186.988 89.6634 187.12 89.4801C187.819 88.4649 188.544 88.6303 189.411 89.2654C189.939 89.6511 190.667 89.8309 191.105 89.1929C191.505 88.613 191.229 87.9023 190.713 87.4935C189.886 86.835 189.57 86.1854 190.2 85.211C190.522 84.7064 190.168 84.2772 189.776 83.9697C189.196 83.5114 188.602 83.8044 188.225 84.2366C187.645 84.8949 187.195 85.2196 186.319 84.6397C185.826 84.3207 185.159 84.4454 185.058 85.2139Z" fill="#2D2D2D"/>
<path d="M179.765 127.494C179.847 127.791 179.973 128.075 180.139 128.336C180.8 129.158 181.009 129.897 180.069 130.69C179.808 130.913 179.57 131.338 179.947 131.73C180.076 131.885 180.26 131.983 180.459 132.004C180.659 132.025 180.86 131.968 181.017 131.843C181.902 131.075 182.482 131.51 183.094 132.201C183.264 132.418 183.509 132.565 183.781 132.613C184.053 132.661 184.333 132.606 184.567 132.461C185.147 132.088 184.915 131.443 184.625 131.011C184.013 130.141 184.26 129.54 185.026 128.922C185.588 128.467 185.925 127.83 185.379 127.121C184.773 126.333 183.999 126.565 183.454 127.081C182.717 127.771 182.207 127.661 181.571 127.008C181.395 126.835 181.173 126.717 180.932 126.665C180.691 126.614 180.44 126.633 180.208 126.718C179.895 126.812 179.753 127.07 179.765 127.494Z" fill="#2D2D2D"/>
<path d="M167.34 120.747C167.253 120.376 167.384 119.909 168.031 119.587C168.611 119.296 168.857 118.664 168.495 118.102C168.358 117.867 168.139 117.691 167.88 117.608C167.622 117.525 167.342 117.541 167.094 117.653C166.305 118.024 165.766 117.901 165.304 117.113C164.936 116.481 164.295 116.081 163.564 116.481C162.767 116.922 163.042 117.726 163.37 118.277C163.86 119.102 163.785 119.683 163.039 120.253C162.717 120.5 162.523 120.855 162.749 121.277C163.019 121.768 163.512 121.756 163.909 121.629C164.53 121.428 165.069 121.17 165.591 121.844C165.908 122.244 166.334 122.731 166.949 122.446C167.564 122.162 167.427 121.541 167.34 120.747Z" fill="#2D2D2D"/>
<path d="M145.322 38.6807C146.532 38.443 147.567 38.5009 147.956 39.983C148.344 41.465 147.825 43.092 146.72 43.6024C146.494 43.7068 146.201 43.7299 146.233 44.0287C146.265 44.3274 146.581 44.4376 146.888 44.4841C147.686 44.6088 148.15 44.2317 148.536 43.5675C149.002 42.7614 149.034 41.8274 149.342 40.8299C150.308 41.5317 150.806 42.2596 150.476 43.3616C150.165 44.4029 149.44 44.8117 148.382 44.7827C147.953 44.7827 147.222 44.4927 147.198 45.1917C147.198 45.7544 147.822 45.9312 148.428 45.9602C149.736 46.0211 150.763 45.5512 151.314 44.3739C151.894 43.1383 151.993 41.8797 151.224 40.6036C150.316 39.0925 149.011 38.7736 148.054 37.8977C147.433 37.3177 146.697 37.2886 145.864 37.6077C145.229 37.86 145.171 38.1877 145.366 38.7185L145.322 38.6807Z" fill="#2D2D2D"/>
<path d="M66.5044 88.9585C67.4488 88.7467 68.1853 89.1992 68.6959 90.0954C69.2358 91.0379 69.0349 91.8673 68.2927 92.6097C68.1309 92.7723 67.8464 92.9549 68.05 93.1898C68.2955 93.4798 68.5508 93.2739 68.8005 93.0941C70.6475 91.7514 69.9835 88.2624 67.6176 87.1458C67.3204 87.042 67.0596 86.8545 66.8671 86.6059C66.6746 86.3575 66.5574 86.0585 66.5295 85.7451C66.1417 83.6773 63.6823 82.7608 61.9246 83.8889C61.6344 84.0687 61.248 84.2369 61.3987 84.6517C61.573 85.1331 61.9971 84.875 62.2691 84.7793C62.7365 84.6197 63.2038 84.4081 63.6879 84.5473C64.7313 84.8374 64.9727 85.5131 64.6937 86.5775C64.2068 88.4741 64.6644 89.0483 66.5044 88.9585Z" fill="#0067FF"/>
<path d="M145.363 73.3441C144.603 73.5673 143.683 73.8081 143.246 72.5029C143.112 72.1085 142.596 72.0621 142.216 72.2564C142.03 72.3362 141.882 72.4838 141.801 72.6692C141.72 72.8544 141.713 73.0637 141.781 73.2541C142.251 74.2257 141.706 74.7797 141.091 75.3625C140.847 75.5945 140.566 75.8702 140.696 76.2326C140.827 76.5951 141.236 76.6416 141.566 76.5691C142.584 76.3486 142.932 77.0505 143.321 77.7494C143.553 78.17 143.802 78.6543 144.423 78.4716C145.044 78.2888 145.105 77.7203 144.957 77.2738C144.559 76.0702 145.485 75.8498 146.183 75.4147C146.697 75.0958 147.178 74.6811 146.998 73.9995C146.804 73.2716 146.14 73.3441 145.363 73.3441Z" fill="#2D2D2D"/>
<path d="M204.06 91.2725C203.944 91.2609 203.826 91.2722 203.715 91.3059C203.603 91.3396 203.499 91.3948 203.409 91.4686C203.319 91.5424 203.244 91.6332 203.189 91.736C203.134 91.8387 203.1 91.9513 203.088 92.0672C203.01 93.0069 202.508 93.1606 201.705 93.1171C201.055 93.0822 200.292 93.1808 200.188 93.9377C200.083 94.6948 200.785 94.8078 201.386 94.9268C202.099 95.066 202.612 95.356 202.522 96.2638C202.485 96.6379 202.598 97.1656 203.201 97.2295C203.311 97.2442 203.424 97.2355 203.531 97.2043C203.638 97.173 203.737 97.1197 203.822 97.048C203.907 96.9762 203.976 96.8875 204.025 96.7873C204.074 96.6873 204.102 96.5781 204.106 96.4667C204.263 95.3298 205.107 95.7969 205.689 95.7504C206.272 95.704 206.826 95.7504 206.971 95.0833C207.125 94.3525 206.577 93.9611 206.008 93.8536C204.985 93.6593 204.622 93.1402 204.764 92.1368C204.788 92.032 204.787 91.9234 204.762 91.819C204.737 91.7145 204.689 91.6172 204.621 91.5339C204.553 91.4507 204.468 91.3841 204.37 91.3387C204.273 91.2935 204.167 91.2709 204.06 91.2725Z" fill="#2D2D2D"/>
<path d="M163.883 97.2702C163.86 96.7685 164.368 96.609 164.605 96.2639C164.988 95.7129 165.536 95.1734 164.93 94.4657C164.382 93.8277 163.77 94.0975 163.248 94.4918C162.726 94.8863 162.459 94.7442 162.088 94.2773C162.008 94.1671 161.906 94.0739 161.79 94.003C161.673 93.9323 161.544 93.8853 161.409 93.8648C161.274 93.8443 161.136 93.8507 161.004 93.8836C160.872 93.9167 160.747 93.9755 160.638 94.0569C160.093 94.4251 160.203 95.011 160.461 95.507C160.829 96.2 161.041 96.7975 160.345 97.4471C160.274 97.516 160.217 97.5986 160.179 97.6897C160.14 97.781 160.12 97.8789 160.12 97.9779C160.12 98.0768 160.14 98.1749 160.179 98.266C160.217 98.3572 160.274 98.4397 160.345 98.5086C160.465 98.6352 160.63 98.7095 160.804 98.7149C160.979 98.7202 161.148 98.6566 161.276 98.5376C161.929 97.9779 162.285 98.3868 162.68 98.8625C163.074 99.3382 163.48 99.9087 164.13 99.5056C164.858 99.048 164.385 98.3954 164.147 97.8299C164.069 97.6444 163.979 97.4732 163.883 97.2702Z" fill="#2D2D2D"/>
<path d="M141.169 102.273C141.543 103.004 141.343 103.679 140.479 104.187C140.399 104.222 140.328 104.272 140.269 104.335C140.209 104.399 140.164 104.473 140.135 104.555C140.106 104.636 140.094 104.723 140.099 104.809C140.105 104.896 140.129 104.981 140.168 105.058C140.207 105.15 140.264 105.232 140.337 105.3C140.41 105.369 140.496 105.42 140.591 105.452C140.685 105.485 140.785 105.496 140.884 105.486C140.983 105.478 141.08 105.447 141.166 105.397C141.874 105.02 142.254 105.307 142.584 105.883C142.682 106.086 142.851 106.243 143.059 106.328C143.267 106.412 143.499 106.416 143.709 106.34C144.246 106.189 144.316 105.805 144.168 105.31C143.968 104.652 144.504 104.654 144.91 104.497C145.679 104.208 146.439 103.735 146.102 102.784C145.792 101.913 145.026 101.765 144.165 102.152C143.504 102.441 143.222 101.972 142.944 101.481C142.833 101.258 142.64 101.086 142.406 101.001C142.171 100.916 141.913 100.926 141.685 101.026C141.152 101.209 141.126 101.652 141.169 102.273Z" fill="#2D2D2D"/>
<path d="M19.2196 76.8414C19.8376 75.4697 19.341 74.7504 18.6532 74.0629C17.8246 73.2393 16.8063 73.1552 15.7907 73.4452C13.5517 74.0862 12.1051 76.4499 12.419 78.7817C12.4845 79.2671 12.7022 79.7197 13.0384 80.0751C13.1625 80.2288 13.3327 80.3383 13.5238 80.3876C13.7163 80.4367 13.9172 80.4227 14.1 80.3477C14.5157 80.1998 14.4836 79.817 14.4655 79.4776C14.4487 79.184 14.4041 78.8927 14.3329 78.6076C13.973 77.0647 14.6231 75.7973 16.1311 75.0432C17.5456 74.3357 18.1608 75.4173 18.8764 76.2468C19.0048 76.4368 19.1192 76.6355 19.2196 76.8414Z" fill="#0067FF"/>
<path d="M145.696 50.3598C146.726 50.1654 148.016 49.9074 148.747 48.5965C148.976 48.1875 149.394 47.7496 148.834 47.3058C148.275 46.8621 148.06 47.4741 147.776 47.7321C146.906 48.5239 145.943 49.0257 144.736 48.8777C144.549 48.8606 144.376 48.7724 144.252 48.6312C144.075 48.3412 144.345 48.1557 144.542 48.0512C145.105 47.7612 145.702 47.5553 146.282 47.2856C146.642 47.1144 147.004 46.8737 146.842 46.3922C146.679 45.9108 146.262 45.9602 145.856 46.0559C145.47 46.1158 145.09 46.208 144.719 46.3314C143.666 46.7897 142.613 47.3146 142.668 48.6979C142.686 49.6666 143.942 50.3713 145.696 50.3598Z" fill="#2D2D2D"/>
<path d="M145.366 38.727C144.786 37.8948 144.098 37.2393 142.956 37.4046C142.544 37.4626 142.141 37.5612 142.086 38.0252C142.01 38.6372 142.512 38.5211 142.886 38.585C144.032 38.7821 144.916 40.615 144.655 42.2567C144.559 42.8367 144.409 43.3964 144.281 43.9735C143.808 44.1504 143.51 43.1324 143.046 43.7009C142.709 44.1127 143.176 44.5071 143.44 44.8378C143.855 45.3598 144.383 45.5715 144.977 45.1626C145.239 44.9805 145.454 44.7395 145.605 44.4588C145.756 44.1781 145.839 43.8658 145.847 43.5472C145.925 41.8998 146.059 40.2352 145.316 38.6778L145.366 38.727Z" fill="#2D2D2D"/>
<path d="M179.777 45.0609C179.716 43.3933 179.083 42.1956 177.836 41.3487C177.375 41.0384 176.755 40.9079 176.372 41.3487C175.943 41.8505 176.325 42.3725 176.731 42.7466C177.648 43.5877 178.005 44.6433 178.077 45.8557C178.106 46.3312 177.958 47.0534 178.75 47.0766C179.397 47.0997 179.417 46.4791 179.547 46.0296C179.652 45.67 179.722 45.2929 179.777 45.0609Z" fill="#2D2D2D"/>
<path d="M174.147 47.3143C174.14 46.8914 174.024 46.4777 173.809 46.1132C173.595 45.7488 173.29 45.4459 172.924 45.2343C172.557 45.0227 172.143 44.9093 171.72 44.9054C171.297 44.9013 170.881 45.0069 170.51 45.2117C170.11 45.4321 169.893 45.7482 169.986 46.1397C170.139 46.7662 170.658 46.537 171.067 46.4558C172.451 46.1832 173.002 46.6095 172.961 47.9233C172.961 48.4018 172.544 49.1385 173.425 49.1269C174.043 49.1269 174.133 48.4483 174.147 47.8972C174.15 47.7029 174.147 47.5086 174.147 47.3143Z" fill="#2D2D2D"/>
<path d="M74.4937 109.023C73.792 108.956 73.453 109.098 73.2926 109.526C73.2633 109.609 73.2521 109.695 73.2591 109.783C73.2674 109.869 73.294 109.953 73.3372 110.028C73.3804 110.104 73.439 110.169 73.5102 110.218C73.5813 110.268 73.6622 110.303 73.7487 110.319C75.0363 110.646 75.1493 111.34 74.4937 112.348C74.3667 112.546 74.2035 112.778 74.4211 112.996C74.5313 113.097 74.6764 113.153 74.8257 113.153C74.9763 113.153 75.12 113.097 75.2302 112.996C75.8998 112.392 76.3671 111.695 76.1411 110.704C76.0686 110.291 75.8719 109.907 75.579 109.607C75.2846 109.307 74.9066 109.104 74.4937 109.023Z" fill="#0067FF"/>
<path d="M154.113 90.678C154.13 91.4989 154.617 92.0934 155.403 92.1281C156.189 92.163 156.708 91.4612 156.726 90.678C156.73 90.5059 156.699 90.3347 156.634 90.175C156.57 90.0153 156.473 89.8703 156.351 89.7492C156.228 89.6282 156.082 89.5333 155.922 89.4707C155.761 89.4079 155.59 89.3786 155.418 89.3846C154.69 89.3556 154.177 89.8197 154.113 90.678Z" fill="#2D2D2D"/>
<path d="M152.654 103.65C152.695 103.493 152.699 103.327 152.665 103.166C152.63 103.007 152.559 102.858 152.456 102.73C152.354 102.603 152.222 102.501 152.073 102.434C151.924 102.367 151.762 102.336 151.598 102.343C150.864 102.311 150.339 102.838 150.305 103.628C150.276 104.344 150.595 104.819 151.404 104.865C152.303 104.918 152.555 104.362 152.654 103.65Z" fill="#2D2D2D"/>
<path d="M148.521 117.673C148.521 116.944 148.173 116.388 147.445 116.409C146.717 116.428 146.126 116.783 146.088 117.632C146.07 117.791 146.086 117.952 146.135 118.104C146.184 118.256 146.265 118.395 146.372 118.514C146.478 118.631 146.609 118.726 146.755 118.79C146.901 118.854 147.059 118.886 147.219 118.885C147.929 118.923 148.512 118.538 148.521 117.673Z" fill="#2D2D2D"/>
<path d="M208.036 61.8618C207.409 61.9111 207.502 62.3752 207.404 62.7319C206.534 65.9511 205.878 69.2428 204.213 72.1981C203.343 73.7294 202.351 75.1736 201.345 76.6151C201.165 76.8703 200.788 77.1196 201.154 77.4851C201.566 77.9057 201.876 77.5344 202.154 77.2967C203.323 76.2531 204.286 74.9999 204.993 73.6017C206.554 70.7364 207.998 67.8333 208.793 64.6344C209.016 63.7324 208.488 63.0248 208.549 62.2011C208.558 61.9546 208.239 61.8647 208.036 61.8618Z" fill="#2D2D2D"/>
<path d="M203.094 57.0332C201.934 56.6214 201.679 57.0912 201.951 58.1526C202.456 60.1132 204.692 61.2935 206.554 60.5338C207.589 60.1102 208.32 59.2866 208.198 58.1817C208.042 56.7635 206.838 56.0617 205.588 56.0442C204.75 56.0442 203.149 55.003 203.039 57.0796C203.79 57.7989 204.834 57.1724 205.669 57.6597C206.038 57.8771 206.606 57.8946 206.493 58.4572C206.38 59.0198 205.826 58.9444 205.4 58.9212C204.184 58.8603 203.297 58.3672 203.094 57.0332Z" fill="#2D2D2D"/>
</svg>
