<svg width="36" height="23" viewBox="0 0 36 23" fill="none" xmlns="http://www.w3.org/2000/svg">
<path d="M36 3.82351C36 1.71538 34.2846 0 32.1765 0H3.82351C1.71538 0 0 1.71538 0 3.82351V19.0906C0 21.1988 1.71538 22.9141 3.82351 22.9141H32.1765C34.2846 22.9141 36 21.1988 36 19.0906V3.82351ZM34.4706 19.0906C34.4706 20.3557 33.4415 21.3847 32.1765 21.3847H3.82351C2.55846 21.3847 1.5294 20.3557 1.5294 19.0906V3.82351C1.5294 2.55846 2.55846 1.5294 3.82351 1.5294H32.1765C33.4415 1.5294 34.4706 2.55846 34.4706 3.82351V19.0906Z" fill="#FAF9F6"/>
<path d="M12.2256 3.32836C11.4984 3.32836 10.8108 3.4946 10.1916 3.78374C9.55664 3.48933 8.86466 3.3269 8.16083 3.3269C5.50082 3.3269 3.3374 5.49552 3.3374 8.16081C3.3374 10.8208 5.50082 12.9842 8.16083 12.9842C8.86413 12.9842 9.5545 12.8226 10.1878 12.5293C10.8079 12.8195 11.4968 12.9865 12.2256 12.9865C14.8878 12.9865 17.0542 10.8201 17.0542 8.15783C17.0542 5.49476 14.8878 3.32836 12.2256 3.32836ZM4.86681 8.16081C4.86681 6.3386 6.34467 4.85631 8.16083 4.85631C8.3345 4.85631 8.50411 4.87328 8.67165 4.89905C7.88241 5.75911 7.39613 6.90127 7.39613 8.15783C7.39613 9.4124 7.88133 10.5532 8.66882 11.4127C8.50227 11.4382 8.3335 11.4548 8.16083 11.4548C6.34467 11.4548 4.86681 9.97698 4.86681 8.16081ZM12.2256 11.4571C10.4057 11.4571 8.92553 9.97698 8.92553 8.15783C8.92553 6.33792 10.4057 4.85776 12.2256 4.85776C14.0448 4.85776 15.5248 6.33792 15.5248 8.15783C15.5248 9.97698 14.0448 11.4571 12.2256 11.4571ZM16.2895 16.574H4.47551C4.05286 16.574 3.71081 16.916 3.71081 17.3387C3.71081 17.7613 4.05286 18.1034 4.47551 18.1034H16.2895C16.7122 18.1034 17.0542 17.7613 17.0542 17.3387C17.0542 16.916 16.7122 16.574 16.2895 16.574ZM30.3476 12.8139H22.8283C22.4057 12.8139 22.0636 13.156 22.0636 13.5786C22.0636 14.0014 22.4057 14.3433 22.8283 14.3433H30.3476C30.7703 14.3433 31.1124 14.0014 31.1124 13.5786C31.1124 13.156 30.7703 12.8139 30.3476 12.8139ZM30.3476 16.574H22.8283C22.4057 16.574 22.0636 16.916 22.0636 17.3387C22.0636 17.7613 22.4057 18.1034 22.8283 18.1034H30.3476C30.7703 18.1034 31.1124 17.7613 31.1124 17.3387C31.1124 16.916 30.7703 16.574 30.3476 16.574Z" fill="#FAF9F6"/>
</svg>
