<svg width="17" height="20" viewBox="0 0 17 20" fill="none" xmlns="http://www.w3.org/2000/svg">
<path d="M3.20027 5.45217C3.65398 5.90588 3.58005 6.14371 3.58428 6.77846C3.58653 6.98641 3.58878 7.19437 3.5911 7.40863C3.59175 7.57589 3.59175 7.57589 3.59241 7.74653C3.5938 8.09603 3.59724 8.44546 3.60123 8.79494C3.60934 9.53809 3.61485 10.2813 3.62002 11.0244C3.62603 11.8829 3.6331 12.7414 3.64285 13.5999C3.6462 13.9427 3.64761 14.2856 3.64894 14.6285C3.65996 15.6582 3.67516 16.5722 4.03978 17.5412C5.05298 17.8347 5.95759 17.9266 7.00956 17.9216C7.161 17.9219 7.31243 17.9222 7.46846 17.9225C7.78679 17.9228 8.10512 17.9221 8.42345 17.9207C8.90757 17.9189 9.39159 17.9207 9.87571 17.9229C10.1866 17.9226 10.4975 17.9222 10.8084 17.9216C11.023 17.9226 11.023 17.9226 11.242 17.9236C12.141 17.9167 12.9139 17.7915 13.7781 17.5412C14.1806 16.4717 14.1659 15.4263 14.1703 14.2929C14.1717 13.9435 14.1751 13.5943 14.1791 13.2449C14.1885 12.3786 14.1945 11.5123 14.2005 10.646C14.2058 9.91119 14.2123 9.17641 14.2207 8.44161C14.2241 8.09728 14.2255 7.75298 14.2268 7.40863C14.2302 7.09669 14.2302 7.09669 14.2336 6.77846C14.2349 6.59483 14.2361 6.41121 14.2373 6.22202C14.2818 5.78797 14.2818 5.78797 14.6176 5.45217C15.4876 5.35962 15.4876 5.35962 15.9048 5.64051C16.2323 6.10163 16.194 6.46245 16.1966 7.02441C16.1987 7.24526 16.2009 7.46611 16.2031 7.69365C16.2027 7.93532 16.2022 8.17699 16.2016 8.41866C16.2023 8.66694 16.2032 8.91522 16.2042 9.1635C16.2057 9.68447 16.2053 10.2054 16.2037 10.7264C16.2017 11.3913 16.2051 12.056 16.21 12.7209C16.2131 13.2341 16.2131 13.7473 16.2121 14.2606C16.2121 14.5055 16.2131 14.7505 16.2152 14.9954C16.227 16.6154 16.1311 17.729 15.0689 19.0208C13.9161 19.9591 12.8399 19.9702 11.4032 19.9705C11.2076 19.9718 11.012 19.9731 10.8105 19.9744C10.3977 19.9762 9.98494 19.9767 9.57216 19.9759C8.94421 19.9757 8.31661 19.9827 7.68871 19.9902C7.28634 19.991 6.88396 19.9915 6.48158 19.9915C6.29561 19.9942 6.10964 19.997 5.91803 19.9998C4.69138 19.989 3.70659 19.7809 2.69656 19.0523C1.93698 18.1315 1.66902 17.3148 1.66209 16.1235C1.66126 16.0145 1.66042 15.9055 1.65956 15.7932C1.65711 15.4332 1.65597 15.0731 1.65504 14.713C1.65407 14.4628 1.65311 14.2125 1.65214 13.9622C1.65038 13.4377 1.64939 12.9132 1.64881 12.3887C1.64789 11.7163 1.64385 11.0438 1.63907 10.3714C1.63595 9.85458 1.63507 9.33778 1.63482 8.82096C1.63431 8.573 1.63296 8.32504 1.63076 8.07709C1.6279 7.73059 1.6282 7.38423 1.6293 7.03773C1.62868 6.84052 1.62807 6.64331 1.62744 6.44013C1.68914 5.95587 1.68914 5.95587 1.9126 5.63968C2.34425 5.35087 2.69585 5.3985 3.20027 5.45217Z" fill="#E53935"/>
<path d="M7.14619 0.0124719C7.2859 0.01199 7.42561 0.0115081 7.56955 0.0110116C7.8648 0.010669 8.16006 0.0115974 8.4553 0.0137017C8.9075 0.0163973 9.35945 0.0137272 9.81164 0.0105043C10.0985 0.0108372 10.3853 0.0114826 10.6721 0.0124719C10.8752 0.0109425 10.8752 0.0109425 11.0824 0.00938219C12.0241 0.0212423 12.0241 0.0212423 12.3878 0.302382C12.7287 0.746985 12.6508 1.15839 12.6345 1.70593C12.6277 2.00299 12.6277 2.00299 12.6207 2.30605C12.6149 2.45777 12.609 2.60949 12.603 2.76581C12.7233 2.76405 12.8436 2.7623 12.9676 2.76048C13.5107 2.75352 14.0538 2.74914 14.5969 2.74482C14.7862 2.74201 14.9756 2.7392 15.1708 2.7363C15.3515 2.73522 15.5322 2.73413 15.7184 2.73302C15.8855 2.73126 16.0525 2.7295 16.2247 2.72769C16.6327 2.76581 16.6327 2.76581 16.9685 3.10162C17.0105 3.68928 17.0105 3.68928 16.9685 4.27694C16.528 4.71741 16.2141 4.65388 15.6143 4.65825C15.4003 4.65723 15.4003 4.65723 15.1819 4.65619C15.0317 4.65678 14.8816 4.65737 14.7268 4.65798C14.2288 4.65946 13.7307 4.65847 13.2327 4.65734C12.8876 4.65757 12.5426 4.65789 12.1975 4.65831C11.4737 4.65881 10.7499 4.65809 10.0261 4.65652C9.09672 4.65461 8.16735 4.65571 7.23796 4.65772C6.52527 4.65893 5.81259 4.65855 5.0999 4.65768C4.75714 4.65745 4.41437 4.65773 4.07162 4.65851C3.5932 4.65936 3.11484 4.65807 2.63643 4.65619C2.49372 4.65687 2.35102 4.65755 2.20399 4.65825C1.22402 4.65111 1.22402 4.65111 0.849841 4.27694C0.807865 3.68928 0.807865 3.68928 0.849841 3.10162C1.18565 2.76581 1.18565 2.76581 1.59368 2.72769C1.84427 2.73033 1.84427 2.73033 2.09993 2.73302C2.37102 2.73464 2.37102 2.73464 2.64758 2.7363C2.83696 2.73911 3.02634 2.74193 3.22147 2.74482C3.50749 2.7471 3.50749 2.7471 3.79929 2.74942C4.27133 2.75338 4.7433 2.75891 5.21531 2.76581C5.20654 2.53823 5.20654 2.53823 5.1976 2.30605C5.19305 2.10801 5.18851 1.90997 5.18383 1.70593C5.17798 1.50919 5.17214 1.31244 5.16612 1.10974C5.21531 0.583078 5.21531 0.583078 5.43056 0.302382C5.92885 -0.0828532 6.54136 0.00791671 7.14619 0.0124719ZM7.23014 1.9263C7.23014 2.20334 7.23014 2.48038 7.23014 2.76581C8.3383 2.76581 9.44645 2.76581 10.5882 2.76581C10.5882 2.48877 10.5882 2.21173 10.5882 1.9263C9.48003 1.9263 8.37188 1.9263 7.23014 1.9263Z" fill="#E53935"/>
<path d="M10.6723 7.25732C11.2599 7.2993 11.2599 7.2993 11.5957 7.63511C11.6384 7.95369 11.6384 7.95369 11.6392 8.34607C11.6402 8.49287 11.6413 8.63966 11.6424 8.79091C11.6417 8.94972 11.641 9.10853 11.6403 9.27216C11.6407 9.43486 11.641 9.59757 11.6413 9.76521C11.6415 10.1096 11.6409 10.454 11.6395 10.7984C11.6377 11.3268 11.6395 11.8552 11.6416 12.3836C11.6414 12.7177 11.641 13.0517 11.6403 13.3858C11.641 13.5446 11.6417 13.7034 11.6424 13.867C11.6413 14.0138 11.6403 14.1606 11.6392 14.3119C11.6388 14.5061 11.6388 14.5061 11.6384 14.7042C11.5957 15.0228 11.5957 15.0228 11.2599 15.3586C10.6723 15.4006 10.6723 15.4006 10.0846 15.3586C9.68059 14.9546 9.70649 14.8631 9.70536 14.3119C9.7043 14.1651 9.70324 14.0183 9.70215 13.867C9.70283 13.7082 9.70351 13.5494 9.70421 13.3858C9.70389 13.2231 9.70357 13.0604 9.70323 12.8927C9.70301 12.5483 9.70363 12.2039 9.70503 11.8596C9.70682 11.3311 9.70505 10.8028 9.7029 10.2743C9.70312 9.94027 9.70355 9.60621 9.70421 9.27216C9.70353 9.11334 9.70285 8.95453 9.70215 8.79091C9.70321 8.64411 9.70427 8.49731 9.70536 8.34607C9.70562 8.21658 9.70589 8.0871 9.70617 7.95369C9.79106 7.31943 10.0776 7.2998 10.6723 7.25732Z" fill="#E53935"/>
<path d="M7.14639 7.25732C7.73405 7.2993 7.73405 7.2993 8.06986 7.63511C8.1125 7.95369 8.1125 7.95369 8.11331 8.34607C8.11437 8.49287 8.11543 8.63966 8.11652 8.79091C8.11584 8.94972 8.11516 9.10853 8.11446 9.27216C8.11478 9.43486 8.1151 9.59757 8.11543 9.76521C8.11566 10.1096 8.11504 10.454 8.11364 10.7984C8.11184 11.3268 8.11362 11.8552 8.11577 12.3836C8.11555 12.7177 8.11512 13.0517 8.11446 13.3858C8.11514 13.5446 8.11582 13.7034 8.11652 13.867C8.11546 14.0138 8.1144 14.1606 8.11331 14.3119C8.11291 14.5061 8.11291 14.5061 8.1125 14.7042C8.06986 15.0228 8.06986 15.0228 7.73405 15.3586C7.14639 15.4006 7.14639 15.4006 6.55873 15.3586C6.15472 14.9546 6.18061 14.8631 6.17948 14.3119C6.17842 14.1651 6.17736 14.0183 6.17627 13.867C6.17695 13.7082 6.17763 13.5494 6.17833 13.3858C6.17801 13.2231 6.17769 13.0604 6.17736 12.8927C6.17713 12.5483 6.17775 12.2039 6.17915 11.8596C6.18095 11.3311 6.17917 10.8028 6.17702 10.2743C6.17724 9.94027 6.17767 9.60621 6.17833 9.27216C6.17765 9.11334 6.17697 8.95453 6.17627 8.79091C6.17733 8.64411 6.17839 8.49731 6.17948 8.34607C6.17974 8.21658 6.18001 8.0871 6.18029 7.95369C6.26518 7.31943 6.55175 7.2998 7.14639 7.25732Z" fill="#E53935"/>
</svg>
