<svg width="28" height="25" viewBox="0 0 28 25" fill="none" xmlns="http://www.w3.org/2000/svg">
<path d="M6.84547 0.185586C7.00697 0.184821 7.16839 0.182376 7.32988 0.179893C7.43148 0.179487 7.53308 0.17908 7.63775 0.178662C7.77796 0.177558 7.77796 0.177558 7.92099 0.176431C8.15503 0.204511 8.15503 0.204511 8.39136 0.44084C8.39136 0.960766 8.39136 1.48069 8.39136 2.01637C12.0828 2.01637 15.7743 2.01637 19.5776 2.01637C19.5776 1.49645 19.5776 0.976521 19.5776 0.44084C19.814 0.204511 19.814 0.204511 20.0468 0.175181C20.1397 0.175416 20.2327 0.175651 20.3285 0.175892C20.4297 0.175943 20.531 0.175994 20.6353 0.176046C20.6879 0.1767 20.7406 0.177354 20.7949 0.178027C20.9557 0.179886 21.1164 0.179647 21.2772 0.179124C22.0669 0.18348 22.0669 0.18348 22.3348 0.362064C22.4074 0.579933 22.4229 0.707329 22.4213 0.931656C22.421 0.994869 22.4208 1.05808 22.4205 1.12321C22.4199 1.18886 22.4192 1.25451 22.4185 1.32215C22.4182 1.38872 22.4178 1.45528 22.4174 1.52386C22.4165 1.68804 22.4151 1.85221 22.4136 2.01637C22.4959 2.01506 22.4959 2.01506 22.5798 2.01372C23.099 2.0058 23.6181 1.99982 24.1373 1.99596C24.4042 1.99392 24.671 1.99114 24.9379 1.98666C25.2453 1.98186 25.5526 1.97964 25.8601 1.97791C25.955 1.97587 26.05 1.97384 26.1479 1.97175C26.7077 1.97156 27.1096 2.02491 27.5341 2.41026C27.8843 2.85932 27.9398 3.20231 27.9411 3.75651C27.9416 3.82221 27.9421 3.88792 27.9425 3.95561C27.944 4.17658 27.9448 4.39755 27.9457 4.61852C27.9465 4.77664 27.9474 4.93475 27.9484 5.09287C27.9513 5.61285 27.9532 6.13282 27.955 6.65281C27.9554 6.74125 27.9557 6.82969 27.956 6.92082C27.9589 7.75481 27.9613 8.58879 27.963 9.42279C27.9652 10.4898 27.9692 11.5568 27.9756 12.6238C27.98 13.3739 27.9823 14.124 27.983 14.8741C27.9835 15.3222 27.985 15.7702 27.9887 16.2183C27.9921 16.6399 27.9929 17.0615 27.9918 17.4832C27.9918 17.6378 27.9928 17.7924 27.9948 17.947C28.0108 19.2607 28.0108 19.2607 27.6787 19.6494C27.5805 19.7354 27.4798 19.8187 27.3765 19.8987C27.2948 19.9815 27.2142 20.0654 27.1348 20.1504C27.0533 20.2323 26.9716 20.3141 26.8898 20.3956C26.822 20.4636 26.822 20.4636 26.7529 20.5329C26.606 20.6802 26.4588 20.8272 26.3115 20.9741C26.2085 21.0773 26.1054 21.1804 26.0024 21.2835C25.7877 21.4983 25.5728 21.713 25.3578 21.9276C25.082 22.203 24.8065 22.4788 24.5311 22.7547C24.319 22.9671 24.1066 23.1793 23.8943 23.3915C23.7926 23.4931 23.6909 23.5949 23.5893 23.6967C23.4479 23.8383 23.3062 23.9796 23.1645 24.1209C23.1225 24.1631 23.0804 24.2053 23.0371 24.2487C22.7546 24.5296 22.6209 24.635 22.225 24.6356C22.1518 24.6359 22.0787 24.6362 22.0032 24.6365C21.9223 24.6365 21.8413 24.6364 21.7579 24.6363C21.6724 24.6366 21.5868 24.6368 21.4986 24.637C21.2099 24.6377 20.9212 24.6378 20.6325 24.638C20.4262 24.6383 20.22 24.6387 20.0138 24.6391C19.4521 24.6402 18.8904 24.6407 18.3287 24.641C17.978 24.6412 17.6272 24.6416 17.2765 24.6419C16.3056 24.6429 15.3346 24.6437 14.3636 24.644C14.2704 24.644 14.2704 24.644 14.1752 24.644C14.1129 24.644 14.0506 24.6441 13.9864 24.6441C13.8601 24.6441 13.7338 24.6441 13.6075 24.6442C13.5135 24.6442 13.5135 24.6442 13.4176 24.6442C12.4031 24.6445 11.3885 24.6459 10.3739 24.6478C9.3324 24.6496 8.29088 24.6506 7.24935 24.6507C6.66453 24.6508 6.07972 24.6512 5.49491 24.6527C4.94466 24.654 4.39442 24.6541 3.84418 24.6534C3.64221 24.6534 3.44024 24.6537 3.23827 24.6545C2.96251 24.6555 2.68679 24.655 2.41103 24.6542C2.33113 24.6548 2.25124 24.6555 2.16892 24.6561C1.46938 24.6513 0.945799 24.5059 0.434925 23.995C0.161168 23.6058 0.0315723 23.2518 0.030468 22.779C0.0301168 22.7091 0.029766 22.6391 0.0294042 22.5671C0.0294187 22.4906 0.0294331 22.414 0.0294481 22.3352C0.0291584 22.2537 0.028869 22.1722 0.0285706 22.0882C0.0277008 21.8141 0.0273981 21.54 0.0270981 21.2659C0.0266046 21.0698 0.026081 20.8736 0.0255294 20.6775C0.0240147 20.0883 0.0231798 19.4991 0.0224787 18.9099C0.0221332 18.6323 0.0217103 18.3547 0.0212977 18.0772C0.0199577 17.1543 0.0188158 16.2315 0.0182451 15.3086C0.0180946 15.0692 0.0179436 14.8299 0.0177895 14.5905C0.0177324 14.5012 0.0177324 14.5012 0.0176741 14.4102C0.0170202 13.4463 0.015024 12.4824 0.0124657 11.5186C0.00985983 10.5287 0.00844174 9.53878 0.00819007 8.54888C0.00801959 7.99321 0.00733154 7.43755 0.00531781 6.88188C0.00342787 6.35917 0.00314901 5.83649 0.00395951 5.31378C0.0039986 5.12197 0.00349878 4.93016 0.0024191 4.73835C0.00102704 4.47639 0.00158127 4.2145 0.00261863 3.95254C0.00175452 3.87674 0.000890305 3.80093 0 3.72283C0.00454401 3.24716 0.084587 2.88579 0.356148 2.48903C0.720069 2.14331 1.01188 1.99627 1.5131 1.99849C1.60298 1.9985 1.69285 1.99851 1.78545 1.99852C1.93034 1.99974 1.93034 1.99974 2.07816 2.00099C2.17738 2.00121 2.2766 2.00143 2.37882 2.00166C2.64199 2.00239 2.90513 2.00381 3.16829 2.00555C3.43707 2.00717 3.70586 2.00789 3.97464 2.00868C4.50157 2.01042 5.02849 2.01305 5.5554 2.01637C5.55358 1.91767 5.55175 1.81896 5.54987 1.71727C5.54839 1.5872 5.54695 1.45714 5.54556 1.32708C5.54424 1.26209 5.54292 1.1971 5.54156 1.13014C5.54105 1.06718 5.54054 1.00422 5.54002 0.939349C5.53919 0.881593 5.53837 0.823838 5.53752 0.764332C5.55829 0.571615 5.61101 0.447454 5.71296 0.283287C6.04555 0.116993 6.47961 0.186637 6.84547 0.185586ZM6.42195 1.07105C6.42195 1.95493 6.42195 2.8388 6.42195 3.74946C6.7859 3.74946 7.14984 3.74946 7.52482 3.74946C7.52482 2.86558 7.52482 1.98171 7.52482 1.07105C7.16087 1.07105 6.79692 1.07105 6.42195 1.07105ZM20.4442 1.07105C20.4442 1.95493 20.4442 2.8388 20.4442 3.74946C20.8081 3.74946 21.1721 3.74946 21.5471 3.74946C21.5471 2.86558 21.5471 1.98171 21.5471 1.07105C21.1831 1.07105 20.8192 1.07105 20.4442 1.07105ZM0.907584 3.2768C0.907584 4.55062 0.907584 5.82443 0.907584 7.13685C9.53835 7.13685 18.1691 7.13685 27.0614 7.13685C27.0614 5.86303 27.0614 4.58922 27.0614 3.2768C26.7328 2.87821 26.7328 2.87821 26.4587 2.83555C26.384 2.83642 26.3093 2.8373 26.2323 2.8382C26.1472 2.83823 26.062 2.83826 25.9743 2.83829C25.8833 2.84032 25.7923 2.84236 25.6985 2.84445C25.6047 2.84501 25.5108 2.84557 25.4141 2.84614C25.1147 2.84834 24.8153 2.85328 24.516 2.8583C24.3128 2.86027 24.1097 2.86207 23.9065 2.86368C23.4088 2.86802 22.9112 2.87461 22.4136 2.88292C22.4097 2.97593 22.4059 3.06895 22.4019 3.16479C22.396 3.28747 22.39 3.41015 22.3841 3.53282C22.3816 3.59406 22.3792 3.65529 22.3767 3.71838C22.3736 3.77778 22.3706 3.83719 22.3674 3.8984C22.365 3.95285 22.3625 4.00731 22.3599 4.06341C22.3348 4.22212 22.3348 4.22212 22.1773 4.53722C21.3454 4.53722 20.5135 4.53722 19.6564 4.53722C19.6304 3.9913 19.6044 3.44538 19.5776 2.88292C15.8862 2.88292 12.1947 2.88292 8.39136 2.88292C8.36537 3.42884 8.33937 3.97476 8.31259 4.53722C7.95642 4.54264 7.60039 4.54735 7.24422 4.55021C7.12302 4.5514 7.00183 4.55301 6.88064 4.55505C6.70661 4.55791 6.53261 4.55926 6.35856 4.5603C6.27707 4.56213 6.27707 4.56213 6.19393 4.564C6.04103 4.56405 6.04103 4.56405 5.79173 4.53722C5.63307 4.29923 5.61304 4.23735 5.60156 3.96763C5.59699 3.87281 5.59699 3.87281 5.59233 3.77608C5.58989 3.71043 5.58746 3.64477 5.58495 3.57713C5.58038 3.47729 5.58038 3.47729 5.57571 3.37542C5.5683 3.21128 5.56176 3.0471 5.5554 2.88292C4.95681 2.87293 4.35823 2.86603 3.75956 2.86128C3.55592 2.8593 3.35228 2.85661 3.14866 2.8532C2.85592 2.84842 2.56325 2.84619 2.27048 2.84445C2.17946 2.84242 2.08845 2.84038 1.99467 2.83829C1.86697 2.83825 1.86697 2.83825 1.73668 2.8382C1.66199 2.83733 1.58729 2.83645 1.51033 2.83555C1.23617 2.87821 1.23617 2.87821 0.907584 3.2768ZM0.907584 8.0034C0.901085 10.4617 0.894586 12.9199 0.88789 15.4527C0.885022 16.2291 0.882153 17.0055 0.879197 17.8054C0.878143 18.501 0.878143 18.501 0.87751 19.1965C0.877216 19.5065 0.876034 19.8165 0.874317 20.1264C0.872155 20.5219 0.871508 20.9173 0.871955 21.3127C0.871861 21.4578 0.871237 21.6029 0.870019 21.748C0.868449 21.9442 0.86883 22.1402 0.869691 22.3364C0.868315 22.4213 0.868315 22.4213 0.866911 22.508C0.872005 22.9405 0.971257 23.181 1.22269 23.5224C1.62486 23.8191 2.04113 23.7914 2.52079 23.7871C2.60387 23.7873 2.68695 23.7875 2.77254 23.7877C3.05087 23.7881 3.32917 23.7868 3.60749 23.7855C3.80702 23.7855 4.00655 23.7855 4.20608 23.7857C4.63564 23.7857 5.06518 23.785 5.49473 23.7837C6.11578 23.7818 6.73682 23.7812 7.35787 23.7809C8.36554 23.7804 9.3732 23.7788 10.3809 23.7765C11.3596 23.7744 12.3383 23.7727 13.3171 23.7717C13.4076 23.7716 13.4076 23.7716 13.4999 23.7715C13.8027 23.7712 14.1055 23.7709 14.4082 23.7706C16.9191 23.7682 19.43 23.764 21.9409 23.7587C21.9416 23.6915 21.9416 23.6915 21.9423 23.6229C21.9474 23.1539 21.9541 22.6848 21.9616 22.2158C21.9642 22.0411 21.9664 21.8663 21.9682 21.6916C21.9709 21.4395 21.975 21.1874 21.9794 20.9354C21.9799 20.858 21.9804 20.7807 21.9809 20.701C21.9932 20.1176 22.0704 19.5984 22.4234 19.1207C23.6286 18.23 26.0822 18.6591 27.0614 18.6382C27.0614 15.1287 27.0614 11.6192 27.0614 8.0034C18.4307 8.0034 9.79989 8.0034 0.907584 8.0034ZM22.965 19.7411C22.7532 20.0733 22.7872 20.4471 22.7921 20.8283C22.7923 20.8942 22.7925 20.9601 22.7928 21.0279C22.7937 21.2374 22.7956 21.4469 22.7976 21.6564C22.7984 21.7988 22.7991 21.9412 22.7998 22.0836C22.8015 22.4319 22.8042 22.7802 22.8075 23.1285C23.2571 22.7545 23.672 22.3543 24.0848 21.9404C24.1522 21.8731 24.2197 21.8057 24.2891 21.7363C24.4306 21.595 24.5719 21.4535 24.7131 21.3119C24.9305 21.0941 25.1482 20.8768 25.366 20.6595C25.5036 20.5219 25.6411 20.3843 25.7785 20.2467C25.844 20.1814 25.9095 20.1161 25.9769 20.0488C26.0367 19.9888 26.0964 19.9288 26.1579 19.867C26.2108 19.814 26.2638 19.7611 26.3183 19.7065C26.4401 19.6017 26.4401 19.6017 26.4312 19.5048C26.0135 19.4989 25.5959 19.4946 25.1782 19.4918C25.0362 19.4906 24.8943 19.489 24.7523 19.487C24.5478 19.4841 24.3433 19.4827 24.1387 19.4817C24.0756 19.4805 24.0126 19.4793 23.9477 19.478C23.5649 19.4779 23.2891 19.5148 22.965 19.7411Z" fill="#8B8B8B"/>
<path d="M17.1355 11.9423C17.6406 12.2412 17.6406 12.2412 17.7657 12.4149C17.733 12.697 17.6147 12.8315 17.4172 13.0281C17.3595 13.0862 17.3017 13.1443 17.2422 13.2042C17.1784 13.2671 17.1146 13.3301 17.0488 13.3949C16.982 13.4618 16.9151 13.5287 16.8462 13.5976C16.6629 13.7808 16.4791 13.9635 16.295 14.1459C16.1027 14.3367 15.9111 14.5282 15.7194 14.7196C15.3563 15.082 14.9926 15.4437 14.6288 15.8052C14.2145 16.2168 13.8009 16.6291 13.3874 17.0414C12.5368 17.8896 11.6853 18.7368 10.8333 19.5836C10.5717 19.4591 10.3859 19.341 10.2031 19.1109C10.23 18.8291 10.3555 18.693 10.5516 18.4977C10.6093 18.4396 10.6671 18.3815 10.7266 18.3217C10.7904 18.2587 10.8542 18.1958 10.92 18.1309C11.0203 18.0306 11.0203 18.0306 11.1226 17.9282C11.3059 17.745 11.4897 17.5624 11.6738 17.3799C11.8661 17.1891 12.0577 16.9976 12.2494 16.8062C12.6125 16.4439 12.9762 16.0822 13.34 15.7207C13.7543 15.3091 14.1679 14.8968 14.5814 14.4844C15.432 13.6363 16.2835 12.789 17.1355 11.9423Z" fill="#3572EF"/>
<path d="M17.5926 16.7713C17.9523 17.0492 18.1749 17.4234 18.3173 17.8505C18.3733 18.5273 18.2893 19.0223 17.8594 19.5638C17.4659 19.9919 17.0591 20.1028 16.4906 20.1399C15.9171 20.1272 15.4831 19.9096 15.0874 19.5048C14.7504 19.024 14.637 18.5924 14.6936 18.008C14.8036 17.4872 15.0915 17.1016 15.4813 16.7476C16.1321 16.3393 16.9385 16.4037 17.5926 16.7713ZM15.6044 17.9145C15.533 18.1923 15.5555 18.4464 15.6389 18.717C15.8617 19.0018 16.0728 19.1821 16.4266 19.2684C16.8111 19.2524 17.0188 19.1413 17.2932 18.8745C17.4921 18.5999 17.485 18.3391 17.4507 18.008C17.3237 17.7675 17.212 17.5953 16.9978 17.427C16.3453 17.2458 16.0143 17.3977 15.6044 17.9145Z" fill="#3572EF"/>
<path d="M12.6452 11.7847C13.0463 12.2027 13.2533 12.6123 13.3001 13.1928C13.2797 13.7872 13.0393 14.2166 12.6351 14.6444C12.2211 15.0203 11.7706 15.0631 11.2325 15.0463C10.7533 14.9834 10.37 14.8147 10.0521 14.445C9.67859 13.9011 9.60212 13.463 9.65173 12.8088C9.81306 12.2711 10.1239 11.8509 10.602 11.5582C11.2807 11.2983 12.0482 11.3375 12.6452 11.7847ZM10.8334 12.4937C10.6136 12.7481 10.5265 12.9086 10.4789 13.2421C10.5324 13.617 10.6717 13.8634 10.9712 14.0988C11.2977 14.1895 11.6157 14.2378 11.919 14.0708C12.1418 13.8933 12.3374 13.717 12.4089 13.439C12.4028 13.0538 12.3915 12.8872 12.1529 12.5823C11.6783 12.2156 11.3501 12.1773 10.8334 12.4937Z" fill="#3572EF"/>
</svg>
