<svg width="800" height="318" viewBox="0 0 800 318" fill="none" xmlns="http://www.w3.org/2000/svg">
<path d="M378.369 155.229V248.322H348.812V18.3715H427.16C446.06 17.9694 464.324 25.1407 477.896 38.2768C491.635 50.6423 499.376 68.3359 499.074 86.8003C499.476 105.399 491.735 123.226 477.896 135.625C464.19 148.694 447.267 155.229 427.16 155.196L378.369 155.229ZM378.369 46.688V126.98H427.898C438.889 127.315 449.479 122.992 457.119 115.083C472.634 100.003 473.003 75.1721 457.89 59.6566C457.622 59.3886 457.387 59.1205 457.119 58.8859C449.579 50.8098 438.923 46.3864 427.898 46.688H378.369ZM567.168 85.862C589.017 85.862 606.241 91.6928 618.875 103.355C631.508 115.016 637.808 131.034 637.808 151.342V248.322H609.559V226.473H608.286C596.054 244.468 579.768 253.449 559.461 253.449C542.135 253.449 527.625 248.322 515.964 238.034C504.637 228.483 498.203 214.342 498.471 199.497C498.471 183.21 504.637 170.275 516.935 160.658C529.234 151.04 545.654 146.215 566.23 146.215C583.756 146.215 598.232 149.432 609.559 155.832V149.063C609.626 138.943 605.136 129.359 597.361 122.925C589.553 115.888 579.366 112.034 568.843 112.168C552.356 112.168 539.287 119.138 529.67 133.045L503.665 116.658C517.941 96.1162 539.12 85.862 567.168 85.862ZM528.932 200.167C528.899 207.807 532.551 214.979 538.717 219.435C545.252 224.563 553.362 227.31 561.672 227.143C574.138 227.109 586.101 222.15 594.915 213.337C604.7 204.121 609.592 193.331 609.592 180.898C600.377 173.559 587.542 169.873 571.055 169.873C559.058 169.873 549.039 172.755 541.03 178.552C532.954 184.45 528.932 191.588 528.932 200.167ZM800 90.9891L701.378 317.689H670.883L707.477 238.369L642.6 90.9891H674.704L721.585 204.021H722.222L767.83 90.9891H800Z" fill="#5F6368"/>
<path d="M258.97 135.122C258.97 126.107 258.233 117.126 256.692 108.246H132.099V159.115H203.443C200.494 175.535 190.977 190.046 177.07 199.261V232.303H219.662C244.594 209.348 258.97 175.334 258.97 135.122Z" fill="#4285F4"/>
<path d="M132.099 264.238C167.755 264.238 197.78 252.543 219.663 232.336L177.071 199.295C165.208 207.337 149.96 211.928 132.099 211.928C97.6503 211.928 68.3955 188.705 57.9402 157.406H14.0747V191.453C36.4933 236.089 82.1684 264.238 132.099 264.238Z" fill="#34A853"/>
<path d="M57.9399 157.407C52.4107 141.021 52.4107 123.227 57.9399 106.84V72.793H14.0745C-4.69149 110.124 -4.69149 154.123 14.0745 191.454L57.9399 157.407Z" fill="#FBBC04"/>
<path d="M132.099 52.3182C150.932 52.0166 169.129 59.1208 182.767 72.123L220.5 34.4235C196.574 11.9713 164.906 -0.360585 132.099 0.0080319C82.1684 0.0080319 36.4933 28.1905 14.0747 72.7932L57.9402 106.84C68.3955 75.5411 97.6503 52.3182 132.099 52.3182Z" fill="#EA4335"/>
</svg>
