<svg width="20" height="16" viewBox="0 0 20 16" fill="none" xmlns="http://www.w3.org/2000/svg">
<path d="M0 12.914C0 13.5034 0.234126 14.0686 0.650874 14.4854C1.06762 14.9021 1.63285 15.1362 2.22222 15.1362H17.7778C18.3671 15.1362 18.9324 14.9021 19.3491 14.4854C19.7659 14.0686 20 13.5034 20 12.914V10.1362H0V12.914Z" fill="#138808"/>
<path d="M20 5.69189V2.91412C20 2.32475 19.7659 1.75952 19.3491 1.34277C18.9324 0.926021 18.3671 0.691895 17.7778 0.691895H2.22222C1.63285 0.691895 1.06762 0.926021 0.650874 1.34277C0.234126 1.75952 0 2.32475 0 2.91412L0 5.69189H20Z" fill="#FF9933"/>
<path d="M0 5.50684H20V10.3218H0V5.50684Z" fill="#F7F7F7"/>
<path d="M10.0001 10.1363C11.2274 10.1363 12.2223 9.14142 12.2223 7.91412C12.2223 6.68682 11.2274 5.69189 10.0001 5.69189C8.77275 5.69189 7.77783 6.68682 7.77783 7.91412C7.77783 9.14142 8.77275 10.1363 10.0001 10.1363Z" fill="#000080"/>
<path d="M10 9.78906C11.0355 9.78906 11.875 8.9496 11.875 7.91406C11.875 6.87853 11.0355 6.03906 10 6.03906C8.96447 6.03906 8.125 6.87853 8.125 7.91406C8.125 8.9496 8.96447 9.78906 10 9.78906Z" fill="#F7F7F7"/>
<path d="M10.056 7.21956L10.0004 7.58067L9.94488 7.21956L10.0004 6.13623L10.056 7.21956ZM9.54043 6.19679L9.7671 7.25734L9.91432 7.59179L9.87432 7.22901L9.54043 6.19679ZM9.11154 6.37456L9.60488 7.34012L9.83377 7.62512L9.70154 7.28456L9.11154 6.37456ZM8.74321 6.65679L9.46988 7.46234L9.76488 7.67845L9.54877 7.38345L8.74321 6.65679ZM8.46099 7.02512L9.37099 7.61512L9.71154 7.74734L9.42654 7.51845L8.46099 7.02512ZM8.28321 7.45401L9.31543 7.7879L9.67821 7.8279L9.34377 7.68067L8.28321 7.45401ZM8.22266 7.91401L9.30599 7.96956L9.6671 7.91401L9.30599 7.85845L8.22266 7.91401ZM8.28321 8.37401L9.34377 8.14734L9.67821 8.00012L9.31543 8.04012L8.28321 8.37401ZM8.46099 8.8029L9.42654 8.30956L9.71154 8.08067L9.37099 8.2129L8.46099 8.8029ZM8.74321 9.17123L9.54877 8.44456L9.76488 8.14956L9.46988 8.36567L8.74321 9.17123ZM9.11154 9.45345L9.70154 8.54345L9.83377 8.2029L9.60488 8.4879L9.11154 9.45345ZM9.54043 9.63123L9.87432 8.59901L9.91432 8.23623L9.7671 8.57067L9.54043 9.63123ZM10.0004 9.69179L10.056 8.60845L10.0004 8.24734L9.94488 8.60845L10.0004 9.69179ZM10.4604 9.63123L10.2338 8.57067L10.0865 8.23623L10.1265 8.59901L10.4604 9.63123ZM10.8893 9.45345L10.396 8.4879L10.1671 8.2029L10.2993 8.54345L10.8893 9.45345ZM11.2577 9.17123L10.531 8.36567L10.236 8.14956L10.4521 8.44456L11.2577 9.17123ZM11.5399 8.8029L10.6299 8.2129L10.2893 8.08067L10.5743 8.30956L11.5399 8.8029ZM11.7177 8.37401L10.6854 8.04012L10.3227 8.00012L10.6571 8.14734L11.7177 8.37401ZM11.7782 7.91401L10.6949 7.85845L10.3338 7.91401L10.6949 7.96956L11.7782 7.91401ZM11.7177 7.45401L10.6571 7.68067L10.3227 7.8279L10.6854 7.7879L11.7177 7.45401ZM11.5399 7.02512L10.5743 7.51845L10.2893 7.74734L10.6299 7.61512L11.5399 7.02512ZM11.2577 6.65679L10.4521 7.38345L10.236 7.67845L10.531 7.46234L11.2577 6.65679ZM10.8893 6.37456L10.2993 7.28456L10.1671 7.62512L10.396 7.34012L10.8893 6.37456ZM10.4604 6.19679L10.1265 7.22901L10.0865 7.59179L10.2338 7.25734L10.4604 6.19679Z" fill="#6666B3"/>
<path d="M9.79287 6.43559C9.84485 6.43559 9.887 6.39344 9.887 6.34145C9.887 6.28946 9.84485 6.24731 9.79287 6.24731C9.74088 6.24731 9.69873 6.28946 9.69873 6.34145C9.69873 6.39344 9.74088 6.43559 9.79287 6.43559Z" fill="#000080"/>
<path d="M9.39247 6.54301C9.44446 6.54301 9.48661 6.50086 9.48661 6.44887C9.48661 6.39688 9.44446 6.35474 9.39247 6.35474C9.34049 6.35474 9.29834 6.39688 9.29834 6.44887C9.29834 6.50086 9.34049 6.54301 9.39247 6.54301Z" fill="#000080"/>
<path d="M9.03408 6.74955C9.08607 6.74955 9.12821 6.7074 9.12821 6.65541C9.12821 6.60343 9.08607 6.56128 9.03408 6.56128C8.98209 6.56128 8.93994 6.60343 8.93994 6.65541C8.93994 6.7074 8.98209 6.74955 9.03408 6.74955Z" fill="#000080"/>
<path d="M8.74111 7.04227C8.7931 7.04227 8.83524 7.00013 8.83524 6.94814C8.83524 6.89615 8.7931 6.854 8.74111 6.854C8.68912 6.854 8.64697 6.89615 8.64697 6.94814C8.64697 7.00013 8.68912 7.04227 8.74111 7.04227Z" fill="#000080"/>
<path d="M8.53456 7.40116C8.58655 7.40116 8.6287 7.35901 8.6287 7.30703C8.6287 7.25504 8.58655 7.21289 8.53456 7.21289C8.48258 7.21289 8.44043 7.25504 8.44043 7.30703C8.44043 7.35901 8.48258 7.40116 8.53456 7.40116Z" fill="#000080"/>
<path d="M8.42714 7.80106C8.47913 7.80106 8.52128 7.75892 8.52128 7.70693C8.52128 7.65494 8.47913 7.61279 8.42714 7.61279C8.37515 7.61279 8.33301 7.65494 8.33301 7.70693C8.33301 7.75892 8.37515 7.80106 8.42714 7.80106Z" fill="#000080"/>
<path d="M8.42714 8.21537C8.47913 8.21537 8.52128 8.17322 8.52128 8.12124C8.52128 8.06925 8.47913 8.0271 8.42714 8.0271C8.37515 8.0271 8.33301 8.06925 8.33301 8.12124C8.33301 8.17322 8.37515 8.21537 8.42714 8.21537Z" fill="#000080"/>
<path d="M8.53456 8.61552C8.58655 8.61552 8.6287 8.57337 8.6287 8.52138C8.6287 8.46939 8.58655 8.42725 8.53456 8.42725C8.48258 8.42725 8.44043 8.46939 8.44043 8.52138C8.44043 8.57337 8.48258 8.61552 8.53456 8.61552Z" fill="#000080"/>
<path d="M8.74111 8.97416C8.7931 8.97416 8.83524 8.93201 8.83524 8.88002C8.83524 8.82803 8.7931 8.78589 8.74111 8.78589C8.68912 8.78589 8.64697 8.82803 8.64697 8.88002C8.64697 8.93201 8.68912 8.97416 8.74111 8.97416Z" fill="#000080"/>
<path d="M9.03408 9.26688C9.08607 9.26688 9.12821 9.22474 9.12821 9.17275C9.12821 9.12076 9.08607 9.07861 9.03408 9.07861C8.98209 9.07861 8.93994 9.12076 8.93994 9.17275C8.93994 9.22474 8.98209 9.26688 9.03408 9.26688Z" fill="#000080"/>
<path d="M9.39247 9.47343C9.44446 9.47343 9.48661 9.43128 9.48661 9.37929C9.48661 9.3273 9.44446 9.28516 9.39247 9.28516C9.34049 9.28516 9.29834 9.3273 9.29834 9.37929C9.29834 9.43128 9.34049 9.47343 9.39247 9.47343Z" fill="#000080"/>
<path d="M9.79287 9.5806C9.84485 9.5806 9.887 9.53846 9.887 9.48647C9.887 9.43448 9.84485 9.39233 9.79287 9.39233C9.74088 9.39233 9.69873 9.43448 9.69873 9.48647C9.69873 9.53846 9.74088 9.5806 9.79287 9.5806Z" fill="#000080"/>
<path d="M10.2069 9.5806C10.2589 9.5806 10.3011 9.53846 10.3011 9.48647C10.3011 9.43448 10.2589 9.39233 10.2069 9.39233C10.1549 9.39233 10.1128 9.43448 10.1128 9.48647C10.1128 9.53846 10.1549 9.5806 10.2069 9.5806Z" fill="#000080"/>
<path d="M10.6073 9.47343C10.6593 9.47343 10.7015 9.43128 10.7015 9.37929C10.7015 9.3273 10.6593 9.28516 10.6073 9.28516C10.5553 9.28516 10.5132 9.3273 10.5132 9.37929C10.5132 9.43128 10.5553 9.47343 10.6073 9.47343Z" fill="#000080"/>
<path d="M10.9657 9.26688C11.0177 9.26688 11.0599 9.22474 11.0599 9.17275C11.0599 9.12076 11.0177 9.07861 10.9657 9.07861C10.9137 9.07861 10.8716 9.12076 10.8716 9.17275C10.8716 9.22474 10.9137 9.26688 10.9657 9.26688Z" fill="#000080"/>
<path d="M11.2582 8.97416C11.3102 8.97416 11.3523 8.93201 11.3523 8.88002C11.3523 8.82803 11.3102 8.78589 11.2582 8.78589C11.2062 8.78589 11.1641 8.82803 11.1641 8.88002C11.1641 8.93201 11.2062 8.97416 11.2582 8.97416Z" fill="#000080"/>
<path d="M11.4652 8.61552C11.5172 8.61552 11.5594 8.57337 11.5594 8.52138C11.5594 8.46939 11.5172 8.42725 11.4652 8.42725C11.4132 8.42725 11.3711 8.46939 11.3711 8.52138C11.3711 8.57337 11.4132 8.61552 11.4652 8.61552Z" fill="#000080"/>
<path d="M11.5727 8.21537C11.6246 8.21537 11.6668 8.17322 11.6668 8.12124C11.6668 8.06925 11.6246 8.0271 11.5727 8.0271C11.5207 8.0271 11.4785 8.06925 11.4785 8.12124C11.4785 8.17322 11.5207 8.21537 11.5727 8.21537Z" fill="#000080"/>
<path d="M11.5727 7.80106C11.6246 7.80106 11.6668 7.75892 11.6668 7.70693C11.6668 7.65494 11.6246 7.61279 11.5727 7.61279C11.5207 7.61279 11.4785 7.65494 11.4785 7.70693C11.4785 7.75892 11.5207 7.80106 11.5727 7.80106Z" fill="#000080"/>
<path d="M11.4652 7.40116C11.5172 7.40116 11.5594 7.35901 11.5594 7.30703C11.5594 7.25504 11.5172 7.21289 11.4652 7.21289C11.4132 7.21289 11.3711 7.25504 11.3711 7.30703C11.3711 7.35901 11.4132 7.40116 11.4652 7.40116Z" fill="#000080"/>
<path d="M11.2582 7.04227C11.3102 7.04227 11.3523 7.00013 11.3523 6.94814C11.3523 6.89615 11.3102 6.854 11.2582 6.854C11.2062 6.854 11.1641 6.89615 11.1641 6.94814C11.1641 7.00013 11.2062 7.04227 11.2582 7.04227Z" fill="#000080"/>
<path d="M10.9657 6.74955C11.0177 6.74955 11.0599 6.7074 11.0599 6.65541C11.0599 6.60343 11.0177 6.56128 10.9657 6.56128C10.9137 6.56128 10.8716 6.60343 10.8716 6.65541C10.8716 6.7074 10.9137 6.74955 10.9657 6.74955Z" fill="#000080"/>
<path d="M10.6073 6.54301C10.6593 6.54301 10.7015 6.50086 10.7015 6.44887C10.7015 6.39688 10.6593 6.35474 10.6073 6.35474C10.5553 6.35474 10.5132 6.39688 10.5132 6.44887C10.5132 6.50086 10.5553 6.54301 10.6073 6.54301Z" fill="#000080"/>
<path d="M10.2069 6.43559C10.2589 6.43559 10.3011 6.39344 10.3011 6.34145C10.3011 6.28946 10.2589 6.24731 10.2069 6.24731C10.1549 6.24731 10.1128 6.28946 10.1128 6.34145C10.1128 6.39344 10.1549 6.43559 10.2069 6.43559Z" fill="#000080"/>
<path d="M9.99978 8.3377C10.2337 8.3377 10.4234 8.14804 10.4234 7.91409C10.4234 7.68013 10.2337 7.49048 9.99978 7.49048C9.76583 7.49048 9.57617 7.68013 9.57617 7.91409C9.57617 8.14804 9.76583 8.3377 9.99978 8.3377Z" fill="#000080"/>
</svg>
