<svg width="16" height="16" viewBox="0 0 16 16" fill="none" xmlns="http://www.w3.org/2000/svg">
<path d="M8 1C4.1344 1 1 4.1344 1 8C1 11.8656 4.1344 15 8 15C11.8656 15 15 11.8656 15 8C15 4.1344 11.8656 1 8 1Z" stroke="#8B8B8B" stroke-miterlimit="10"/>
<path d="M6.93506 6.93457H8.15245V11.3476" stroke="#8B8B8B" stroke-linecap="round" stroke-linejoin="round"/>
<path d="M6.47705 11.5H9.82488" stroke="#8B8B8B" stroke-miterlimit="10" stroke-linecap="round"/>
<path d="M7.45853 3.69239C7.61863 3.58542 7.80684 3.52832 7.99938 3.52832C8.25757 3.52832 8.50519 3.63089 8.68776 3.81345C8.87032 3.99602 8.97289 4.24364 8.97289 4.50183C8.97289 4.69437 8.9158 4.88258 8.80883 5.04268C8.70186 5.20277 8.54981 5.32755 8.37193 5.40123C8.19404 5.47491 7.9983 5.49419 7.80946 5.45663C7.62062 5.41906 7.44716 5.32635 7.31101 5.1902C7.17487 5.05405 7.08215 4.88059 7.04459 4.69175C7.00702 4.50291 7.0263 4.30717 7.09998 4.12928C7.17367 3.9514 7.29844 3.79936 7.45853 3.69239Z" fill="#8B8B8B" stroke="#8B8B8B" stroke-width="0.03125"/>
</svg>
