<svg width="26" height="23" viewBox="0 0 26 23" fill="none" xmlns="http://www.w3.org/2000/svg">
<mask id="path-1-inside-1_1013_6898" fill="white">
<path d="M13.4799 0.0601767C14.0102 0.297372 14.5036 0.591438 15.0005 0.890933C15.1476 0.977565 15.2948 1.06401 15.4422 1.15028C15.8229 1.37382 16.2021 1.59975 16.5809 1.82642C16.9282 2.0339 17.2765 2.23956 17.6248 2.44536C18.0224 2.6805 18.4199 2.91589 18.8168 3.15216C19.7483 3.70658 20.6846 4.25197 21.6242 4.79252C21.7518 4.866 21.8793 4.93948 22.0107 5.01519C22.7146 5.42067 22.7146 5.42067 23.4192 5.82482C23.7064 5.98933 23.9931 6.1548 24.2797 6.32052C24.3621 6.36731 24.4445 6.41411 24.5294 6.46232C24.8994 6.67738 25.1062 6.81855 25.3478 7.18094C25.4029 7.65139 25.3918 8.12435 25.3923 8.59768C25.3952 8.72795 25.3981 8.85821 25.4011 8.99243C25.4016 9.1178 25.402 9.24317 25.4025 9.37234C25.4035 9.48692 25.4045 9.60149 25.4055 9.71954C25.3478 10.0292 25.3478 10.0292 24.8731 10.504C24.0898 10.504 23.3065 10.504 22.4995 10.504C22.4995 13.0105 22.4995 15.517 22.4995 18.0995C23.2828 18.0995 24.0661 18.0995 24.8731 18.0995C25.4134 18.6398 25.4083 18.7128 25.4109 19.4346C25.4113 19.5171 25.4118 19.5996 25.4122 19.6846C25.4126 19.8586 25.4117 20.0325 25.4097 20.2065C25.4072 20.4722 25.4097 20.7376 25.4127 21.0034C25.4124 21.1728 25.4118 21.3421 25.4109 21.5115C25.4103 21.6651 25.4098 21.8187 25.4092 21.9769C25.3351 22.4538 25.2578 22.5627 24.8731 22.8466C24.5392 22.8933 24.2518 22.9108 23.9181 22.9069C23.8211 22.9077 23.7241 22.9084 23.6242 22.9092C23.2987 22.9111 22.9733 22.9095 22.6479 22.9081C22.4147 22.9087 22.1816 22.9095 21.9484 22.9106C21.3148 22.9127 20.6812 22.9119 20.0476 22.9104C19.3851 22.9092 18.7226 22.9103 18.0602 22.9111C16.9475 22.9119 15.8349 22.9108 14.7223 22.9085C13.4352 22.9059 12.1482 22.9068 10.8611 22.9094C9.75681 22.9115 8.65257 22.9118 7.5483 22.9106C6.88842 22.9099 6.22856 22.9098 5.56868 22.9113C4.94835 22.9127 4.32807 22.9118 3.70775 22.909C3.47983 22.9084 3.2519 22.9086 3.02398 22.9096C2.71334 22.9109 2.40284 22.9093 2.09221 22.9069C2.00156 22.908 1.91091 22.909 1.81752 22.9101C1.40793 22.904 1.17766 22.8765 0.844002 22.6302C0.580896 22.2558 0.601026 21.9656 0.599443 21.5115C0.598989 21.429 0.598535 21.3465 0.598067 21.2615C0.597745 21.0875 0.598615 20.9136 0.600602 20.7396C0.603144 20.4738 0.600625 20.2085 0.597589 19.9427C0.597903 19.7733 0.598511 19.604 0.599443 19.4346C0.599979 19.281 0.600514 19.1274 0.601066 18.9692C0.662492 18.5742 0.662492 18.5742 1.13721 18.0995C1.92049 18.0995 2.70378 18.0995 3.5108 18.0995C3.5108 15.5929 3.5108 13.0864 3.5108 10.504C2.72751 10.504 1.94423 10.504 1.13721 10.504C0.563885 9.93064 0.598802 9.76318 0.591794 9.00402C0.593094 8.87482 0.594395 8.74562 0.595735 8.61251C0.592904 8.48378 0.590074 8.35504 0.587158 8.2224C0.588872 7.29281 0.588872 7.29281 0.888261 6.83789C1.39578 6.49229 1.91813 6.19065 2.45752 5.89772C3.50379 5.31829 4.53841 4.72302 5.56544 4.11011C6.76405 3.39613 7.9671 2.69066 9.17806 1.99779C9.7685 1.6598 10.3561 1.31893 10.9366 0.96418C11.0386 0.902651 11.1405 0.841123 11.2456 0.77773C11.4322 0.664761 11.6179 0.550208 11.8024 0.433687C12.3499 0.104797 12.837 -0.106333 13.4799 0.0601767ZM12.3404 2.50145C12.2273 2.56785 12.1143 2.63424 11.9978 2.70265C11.8749 2.77547 11.7521 2.84829 11.6255 2.92332C11.3644 3.07694 11.1032 3.23054 10.842 3.38413C10.6412 3.5026 10.6412 3.5026 10.4363 3.62346C9.83001 3.98051 9.22199 4.33454 8.61401 4.68867C8.37804 4.82635 8.14207 4.96404 7.90611 5.10174C7.41766 5.38668 6.92901 5.67128 6.44023 5.95567C5.8461 6.30137 5.2527 6.64829 4.65952 6.99562C4.36286 7.16853 4.0652 7.33956 3.76716 7.51009C3.60257 7.60556 3.43799 7.70105 3.27344 7.79659C3.19946 7.83818 3.12548 7.87976 3.04926 7.9226C2.8303 8.04664 2.8303 8.04664 2.56136 8.24906C2.56136 8.36655 2.56136 8.48404 2.56136 8.6051C9.45426 8.6051 16.3472 8.6051 23.4489 8.6051C23.3838 8.13674 23.3838 8.13674 23.1171 7.96499C23.0237 7.91493 22.9304 7.86486 22.8342 7.81328C22.6749 7.72588 22.6749 7.72588 22.5123 7.63671C22.3955 7.57443 22.2787 7.51214 22.1583 7.44797C21.907 7.31015 21.6559 7.17199 21.405 7.03352C21.2729 6.96089 21.1409 6.88826 21.0048 6.81343C20.3358 6.43953 19.6786 6.04615 19.0207 5.65295C17.8028 4.92707 16.579 4.21285 15.3492 3.5075C15.1708 3.40513 15.1708 3.40513 14.9889 3.30068C14.8755 3.23562 14.7621 3.17057 14.6453 3.10354C14.2114 2.85064 13.7835 2.58834 13.3568 2.32349C12.9288 2.09001 12.7348 2.26852 12.3404 2.50145ZM5.40967 10.504C5.40967 13.0105 5.40967 15.517 5.40967 18.0995C6.0363 18.0995 6.66292 18.0995 7.30854 18.0995C7.30854 15.5929 7.30854 13.0864 7.30854 10.504C6.68191 10.504 6.05529 10.504 5.40967 10.504ZM9.20741 10.504C9.20741 13.0105 9.20741 15.517 9.20741 18.0995C9.52073 18.0995 9.83404 18.0995 10.1568 18.0995C10.1568 15.5929 10.1568 13.0864 10.1568 10.504C9.84353 10.504 9.53022 10.504 9.20741 10.504ZM12.0557 10.504C12.0557 13.0105 12.0557 15.517 12.0557 18.0995C12.6823 18.0995 13.309 18.0995 13.9546 18.0995C13.9546 15.5929 13.9546 13.0864 13.9546 10.504C13.328 10.504 12.7013 10.504 12.0557 10.504ZM15.8535 10.504C15.8535 13.0105 15.8535 15.517 15.8535 18.0995C16.1668 18.0995 16.4801 18.0995 16.8029 18.0995C16.8029 15.5929 16.8029 13.0864 16.8029 10.504C16.4896 10.504 16.1763 10.504 15.8535 10.504ZM18.7018 10.504C18.7018 13.0105 18.7018 15.517 18.7018 18.0995C19.3284 18.0995 19.955 18.0995 20.6006 18.0995C20.6006 15.5929 20.6006 13.0864 20.6006 10.504C19.974 10.504 19.3474 10.504 18.7018 10.504ZM2.56136 19.9983C2.56136 20.3116 2.56136 20.625 2.56136 20.9478C9.45426 20.9478 16.3472 20.9478 23.4489 20.9478C23.4489 20.6344 23.4489 20.3211 23.4489 19.9983C16.556 19.9983 9.66314 19.9983 2.56136 19.9983Z"/>
</mask>
<path d="M13.4799 0.0601767C14.0102 0.297372 14.5036 0.591438 15.0005 0.890933C15.1476 0.977565 15.2948 1.06401 15.4422 1.15028C15.8229 1.37382 16.2021 1.59975 16.5809 1.82642C16.9282 2.0339 17.2765 2.23956 17.6248 2.44536C18.0224 2.6805 18.4199 2.91589 18.8168 3.15216C19.7483 3.70658 20.6846 4.25197 21.6242 4.79252C21.7518 4.866 21.8793 4.93948 22.0107 5.01519C22.7146 5.42067 22.7146 5.42067 23.4192 5.82482C23.7064 5.98933 23.9931 6.1548 24.2797 6.32052C24.3621 6.36731 24.4445 6.41411 24.5294 6.46232C24.8994 6.67738 25.1062 6.81855 25.3478 7.18094C25.4029 7.65139 25.3918 8.12435 25.3923 8.59768C25.3952 8.72795 25.3981 8.85821 25.4011 8.99243C25.4016 9.1178 25.402 9.24317 25.4025 9.37234C25.4035 9.48692 25.4045 9.60149 25.4055 9.71954C25.3478 10.0292 25.3478 10.0292 24.8731 10.504C24.0898 10.504 23.3065 10.504 22.4995 10.504C22.4995 13.0105 22.4995 15.517 22.4995 18.0995C23.2828 18.0995 24.0661 18.0995 24.8731 18.0995C25.4134 18.6398 25.4083 18.7128 25.4109 19.4346C25.4113 19.5171 25.4118 19.5996 25.4122 19.6846C25.4126 19.8586 25.4117 20.0325 25.4097 20.2065C25.4072 20.4722 25.4097 20.7376 25.4127 21.0034C25.4124 21.1728 25.4118 21.3421 25.4109 21.5115C25.4103 21.6651 25.4098 21.8187 25.4092 21.9769C25.3351 22.4538 25.2578 22.5627 24.8731 22.8466C24.5392 22.8933 24.2518 22.9108 23.9181 22.9069C23.8211 22.9077 23.7241 22.9084 23.6242 22.9092C23.2987 22.9111 22.9733 22.9095 22.6479 22.9081C22.4147 22.9087 22.1816 22.9095 21.9484 22.9106C21.3148 22.9127 20.6812 22.9119 20.0476 22.9104C19.3851 22.9092 18.7226 22.9103 18.0602 22.9111C16.9475 22.9119 15.8349 22.9108 14.7223 22.9085C13.4352 22.9059 12.1482 22.9068 10.8611 22.9094C9.75681 22.9115 8.65257 22.9118 7.5483 22.9106C6.88842 22.9099 6.22856 22.9098 5.56868 22.9113C4.94835 22.9127 4.32807 22.9118 3.70775 22.909C3.47983 22.9084 3.2519 22.9086 3.02398 22.9096C2.71334 22.9109 2.40284 22.9093 2.09221 22.9069C2.00156 22.908 1.91091 22.909 1.81752 22.9101C1.40793 22.904 1.17766 22.8765 0.844002 22.6302C0.580896 22.2558 0.601026 21.9656 0.599443 21.5115C0.598989 21.429 0.598535 21.3465 0.598067 21.2615C0.597745 21.0875 0.598615 20.9136 0.600602 20.7396C0.603144 20.4738 0.600625 20.2085 0.597589 19.9427C0.597903 19.7733 0.598511 19.604 0.599443 19.4346C0.599979 19.281 0.600514 19.1274 0.601066 18.9692C0.662492 18.5742 0.662492 18.5742 1.13721 18.0995C1.92049 18.0995 2.70378 18.0995 3.5108 18.0995C3.5108 15.5929 3.5108 13.0864 3.5108 10.504C2.72751 10.504 1.94423 10.504 1.13721 10.504C0.563885 9.93064 0.598802 9.76318 0.591794 9.00402C0.593094 8.87482 0.594395 8.74562 0.595735 8.61251C0.592904 8.48378 0.590074 8.35504 0.587158 8.2224C0.588872 7.29281 0.588872 7.29281 0.888261 6.83789C1.39578 6.49229 1.91813 6.19065 2.45752 5.89772C3.50379 5.31829 4.53841 4.72302 5.56544 4.11011C6.76405 3.39613 7.9671 2.69066 9.17806 1.99779C9.7685 1.6598 10.3561 1.31893 10.9366 0.96418C11.0386 0.902651 11.1405 0.841123 11.2456 0.77773C11.4322 0.664761 11.6179 0.550208 11.8024 0.433687C12.3499 0.104797 12.837 -0.106333 13.4799 0.0601767ZM12.3404 2.50145C12.2273 2.56785 12.1143 2.63424 11.9978 2.70265C11.8749 2.77547 11.7521 2.84829 11.6255 2.92332C11.3644 3.07694 11.1032 3.23054 10.842 3.38413C10.6412 3.5026 10.6412 3.5026 10.4363 3.62346C9.83001 3.98051 9.22199 4.33454 8.61401 4.68867C8.37804 4.82635 8.14207 4.96404 7.90611 5.10174C7.41766 5.38668 6.92901 5.67128 6.44023 5.95567C5.8461 6.30137 5.2527 6.64829 4.65952 6.99562C4.36286 7.16853 4.0652 7.33956 3.76716 7.51009C3.60257 7.60556 3.43799 7.70105 3.27344 7.79659C3.19946 7.83818 3.12548 7.87976 3.04926 7.9226C2.8303 8.04664 2.8303 8.04664 2.56136 8.24906C2.56136 8.36655 2.56136 8.48404 2.56136 8.6051C9.45426 8.6051 16.3472 8.6051 23.4489 8.6051C23.3838 8.13674 23.3838 8.13674 23.1171 7.96499C23.0237 7.91493 22.9304 7.86486 22.8342 7.81328C22.6749 7.72588 22.6749 7.72588 22.5123 7.63671C22.3955 7.57443 22.2787 7.51214 22.1583 7.44797C21.907 7.31015 21.6559 7.17199 21.405 7.03352C21.2729 6.96089 21.1409 6.88826 21.0048 6.81343C20.3358 6.43953 19.6786 6.04615 19.0207 5.65295C17.8028 4.92707 16.579 4.21285 15.3492 3.5075C15.1708 3.40513 15.1708 3.40513 14.9889 3.30068C14.8755 3.23562 14.7621 3.17057 14.6453 3.10354C14.2114 2.85064 13.7835 2.58834 13.3568 2.32349C12.9288 2.09001 12.7348 2.26852 12.3404 2.50145ZM5.40967 10.504C5.40967 13.0105 5.40967 15.517 5.40967 18.0995C6.0363 18.0995 6.66292 18.0995 7.30854 18.0995C7.30854 15.5929 7.30854 13.0864 7.30854 10.504C6.68191 10.504 6.05529 10.504 5.40967 10.504ZM9.20741 10.504C9.20741 13.0105 9.20741 15.517 9.20741 18.0995C9.52073 18.0995 9.83404 18.0995 10.1568 18.0995C10.1568 15.5929 10.1568 13.0864 10.1568 10.504C9.84353 10.504 9.53022 10.504 9.20741 10.504ZM12.0557 10.504C12.0557 13.0105 12.0557 15.517 12.0557 18.0995C12.6823 18.0995 13.309 18.0995 13.9546 18.0995C13.9546 15.5929 13.9546 13.0864 13.9546 10.504C13.328 10.504 12.7013 10.504 12.0557 10.504ZM15.8535 10.504C15.8535 13.0105 15.8535 15.517 15.8535 18.0995C16.1668 18.0995 16.4801 18.0995 16.8029 18.0995C16.8029 15.5929 16.8029 13.0864 16.8029 10.504C16.4896 10.504 16.1763 10.504 15.8535 10.504ZM18.7018 10.504C18.7018 13.0105 18.7018 15.517 18.7018 18.0995C19.3284 18.0995 19.955 18.0995 20.6006 18.0995C20.6006 15.5929 20.6006 13.0864 20.6006 10.504C19.974 10.504 19.3474 10.504 18.7018 10.504ZM2.56136 19.9983C2.56136 20.3116 2.56136 20.625 2.56136 20.9478C9.45426 20.9478 16.3472 20.9478 23.4489 20.9478C23.4489 20.6344 23.4489 20.3211 23.4489 19.9983C16.556 19.9983 9.66314 19.9983 2.56136 19.9983Z" fill="#3572EF" stroke="#FAF9F6" stroke-width="0.6" mask="url(#path-1-inside-1_1013_6898)"/>
</svg>
