<svg width="90" height="49" viewBox="0 0 90 49" fill="none" xmlns="http://www.w3.org/2000/svg">
<rect width="90" height="48.6693" rx="10.9091" fill="white"/>
<path d="M62.6075 30.8971H58.6244L64.159 10.9091H68.1421L62.6075 30.8971ZM60.5388 11.5351C60.2666 11.1541 59.8402 10.9635 59.2595 10.9635H37.3752L36.2955 14.8831H56.2019L55.0405 19.0658H39.1172V19.0567H35.1342L31.8316 30.9878H35.8146L38.0285 22.9854H55.9297C56.4922 22.9854 57.0185 22.7948 57.5084 22.4138C57.9983 22.0327 58.325 21.5609 58.4792 20.9984L60.693 12.9959C60.8654 12.3971 60.811 11.9162 60.5388 11.5351ZM29.5088 29.645C29.2911 30.4344 28.5652 30.9878 27.7487 30.9878H7.21627C6.65374 30.9878 6.23638 30.7973 5.96419 30.4162C5.692 30.0352 5.62848 29.5634 5.7918 29.0008L10.8001 10.9635H14.7832L10.3102 27.0773H26.2425L30.7156 10.9635H34.6987L29.5088 29.645Z" fill="#70706E"/>
<path d="M78.5423 10.9091L84.2972 22.3567L72.1963 33.8044L78.5423 10.9091Z" fill="#098041"/>
<path d="M74.4984 10.9091L80.2533 22.3567L68.1421 33.8044L74.4984 10.9091Z" fill="#E97626"/>
<path d="M9.44489 33.9496H10.0165L9.48118 36.1725C9.39952 36.4991 9.41767 36.7531 9.52654 36.9165C9.63542 37.0798 9.83503 37.1614 10.1344 37.1614C10.4248 37.1614 10.6698 37.0798 10.8603 36.9165C11.0508 36.7531 11.1778 36.4991 11.2595 36.1725L11.7948 33.9496H12.3755L11.8311 36.2269C11.7132 36.7168 11.5045 37.0888 11.196 37.3338C10.8966 37.5788 10.4974 37.7058 10.0074 37.7058C9.51747 37.7058 9.18177 37.5879 9.0003 37.3429C8.81884 37.0979 8.78255 36.7259 8.9005 36.236L9.44489 33.9496ZM12.2938 37.606L13.2011 33.8044L14.925 36.0364C14.9704 36.0999 15.0158 36.1634 15.0611 36.236C15.1065 36.3086 15.1519 36.3902 15.2063 36.4809L15.8142 33.9496H16.3495L15.4422 37.7421L13.682 35.4648L13.5459 35.2742C13.5006 35.2016 13.4643 35.1381 13.437 35.0565L12.8291 37.5969H12.2938V37.606ZM16.3041 37.606L17.1752 33.9496H17.7558L16.8848 37.606H16.3041ZM17.7105 37.606L18.5815 33.9496H20.5685L20.4505 34.4576H19.0442L18.8265 35.365H20.2328L20.1058 35.8821H18.6994L18.2911 37.5969H17.7105V37.606ZM20.3417 37.606L21.2127 33.9496H21.7934L20.9223 37.606H20.3417ZM21.748 37.606L22.619 33.9496H24.606L24.4881 34.4576H23.0817L22.864 35.374H24.2703L24.1433 35.8912H22.737L22.4557 37.0707H23.862L23.735 37.606H21.748ZM24.4064 37.606L25.2774 33.9496H26.0577C26.5658 33.9496 26.9196 33.9768 27.1102 34.0312C27.3007 34.0856 27.464 34.1673 27.5911 34.2943C27.7544 34.4576 27.8633 34.6663 27.9086 34.9113C27.954 35.1653 27.9358 35.4557 27.8633 35.7732C27.7816 36.0999 27.6636 36.3811 27.5003 36.6352C27.337 36.8892 27.1283 37.0888 26.8834 37.2522C26.7019 37.3792 26.5023 37.4608 26.2845 37.5153C26.0759 37.5697 25.7583 37.5969 25.3409 37.5969H24.4064V37.606ZM25.1141 37.0616H25.6041C25.8672 37.0616 26.0759 37.0435 26.221 37.0072C26.3662 36.9709 26.4932 36.9074 26.6112 36.8257C26.7745 36.7078 26.9106 36.5626 27.0195 36.3811C27.1283 36.2087 27.21 36.0001 27.2644 35.7642C27.3189 35.5283 27.337 35.3287 27.3098 35.1563C27.2826 34.9839 27.2191 34.8296 27.1102 34.7117C27.0285 34.621 26.9287 34.5665 26.7926 34.5302C26.6565 34.4939 26.4478 34.4758 26.1484 34.4758H25.7311L25.1141 37.0616ZM30.5307 35.9638L30.1406 37.606H29.5962L30.4672 33.9496H31.3473C31.6104 33.9496 31.7919 33.9677 31.9098 33.9949C32.0278 34.0221 32.1185 34.0675 32.1911 34.1401C32.2818 34.2217 32.3454 34.3397 32.3726 34.4849C32.3998 34.63 32.3907 34.7843 32.3544 34.9567C32.3091 35.1291 32.2455 35.2924 32.1457 35.4375C32.0459 35.5827 31.928 35.7007 31.801 35.7823C31.6921 35.8458 31.5741 35.9003 31.4471 35.9275C31.3201 35.9547 31.1205 35.9728 30.8664 35.9728H30.5307V35.9638ZM30.685 35.4738H30.8301C31.1477 35.4738 31.3745 35.4375 31.5016 35.365C31.6286 35.2924 31.7102 35.1653 31.7556 34.9839C31.801 34.7933 31.7738 34.6482 31.683 34.5756C31.5832 34.4939 31.3836 34.4576 31.0842 34.4576H30.939L30.685 35.4738ZM34.3233 37.606L34.1418 36.6624H32.7264L32.0913 37.606H31.4834L34.1146 33.8044L34.9312 37.606H34.3233ZM33.0712 36.1634H34.0602L33.8969 35.3287C33.8878 35.2742 33.8787 35.2107 33.8787 35.1472C33.8696 35.0746 33.8696 35.002 33.8696 34.9204C33.8333 35.002 33.797 35.0746 33.7517 35.1472C33.7154 35.2198 33.6791 35.2833 33.6428 35.3377L33.0712 36.1634ZM35.7659 37.606L36.1651 35.9366L35.4393 33.9586H36.0472L36.5008 35.2016C36.5099 35.2379 36.519 35.2742 36.5371 35.3287C36.5553 35.3831 36.5643 35.4375 36.5825 35.492L36.6914 35.3287C36.7277 35.2742 36.7639 35.2289 36.8002 35.1835L37.8618 33.9586H38.4425L36.7458 35.9275L36.3466 37.5969H35.7659V37.606ZM41.2914 35.8005C41.2914 35.7732 41.3005 35.6916 41.3186 35.5646C41.3277 35.4557 41.3368 35.374 41.3459 35.3014C41.3096 35.3831 41.2733 35.4648 41.2279 35.5555C41.1825 35.6371 41.1281 35.7279 41.0646 35.8095L39.6673 37.7602L39.2137 35.7732C39.1955 35.6916 39.1774 35.6099 39.1683 35.5373C39.1592 35.4648 39.1502 35.3831 39.1502 35.3105C39.132 35.3831 39.1048 35.4648 39.0776 35.5555C39.0504 35.6371 39.0141 35.7279 38.9687 35.8186L38.1521 37.6151H37.6168L39.3679 33.8044L39.8669 36.1089C39.876 36.1452 39.8851 36.2087 39.8942 36.2904C39.9032 36.3721 39.9214 36.4809 39.9395 36.608C40.003 36.4991 40.0847 36.3721 40.1936 36.2088C40.2208 36.1634 40.248 36.1362 40.2571 36.1089L41.8358 33.8044L41.7814 37.6151H41.2461L41.2914 35.8005ZM42.2532 37.606L43.1242 33.9496H45.1112L44.9932 34.4576H43.5869L43.3692 35.374H44.7755L44.6485 35.8912H43.2421L42.9609 37.0707H44.3672L44.2402 37.606H42.2532ZM44.9025 37.606L45.8098 33.8044L47.5337 36.0364C47.5791 36.0999 47.6244 36.1634 47.6698 36.236C47.7152 36.3086 47.7605 36.3902 47.815 36.4809L48.4229 33.9496H48.9582L48.0509 37.7421L46.2907 35.4648L46.1546 35.2742C46.1092 35.2016 46.0729 35.1381 46.0457 35.0565L45.4378 37.5969H44.9025V37.606ZM50.8091 34.4486L50.056 37.5969H49.4753L50.2284 34.4486H49.2848L49.4028 33.9405H51.8706L51.7527 34.4486H50.8091ZM51.417 36.8711L51.9341 36.6533C51.9432 36.8166 51.9886 36.9437 52.0884 37.0253C52.1882 37.107 52.3243 37.1524 52.5058 37.1524C52.6781 37.1524 52.8233 37.107 52.9503 37.0072C53.0774 36.9074 53.159 36.7804 53.1953 36.617C53.2497 36.3993 53.1227 36.2087 52.8142 36.0454C52.7689 36.0182 52.7417 36.0001 52.7144 35.991C52.3697 35.7914 52.1519 35.619 52.0612 35.4557C51.9704 35.2924 51.9523 35.1018 52.0067 34.875C52.0793 34.5756 52.2336 34.3397 52.4785 34.1492C52.7235 33.9677 52.9957 33.8679 53.3223 33.8679C53.5855 33.8679 53.7941 33.9223 53.9484 34.0221C54.1026 34.1219 54.1843 34.2762 54.2115 34.4667L53.7034 34.7026C53.658 34.5847 53.6036 34.503 53.531 34.4486C53.4584 34.3941 53.3677 34.3669 53.2588 34.3669C53.1046 34.3669 52.9685 34.4123 52.8596 34.4939C52.7507 34.5756 52.6781 34.6845 52.6418 34.8296C52.5874 35.0474 52.7417 35.2561 53.0955 35.4466C53.1227 35.4648 53.1409 35.4738 53.159 35.4829C53.4675 35.6462 53.6762 35.8095 53.7669 35.9728C53.8576 36.1362 53.8758 36.3267 53.8214 36.5717C53.7397 36.9165 53.5673 37.1886 53.3042 37.3973C53.0411 37.5969 52.7326 37.7058 52.3697 37.7058C52.0702 37.7058 51.8343 37.6332 51.671 37.4881C51.4896 37.3429 51.4079 37.1342 51.417 36.8711ZM55.6904 37.606L56.5614 33.9496H57.1421L56.2711 37.606H55.6904ZM57.1058 37.606L58.0131 33.8044L59.737 36.0364C59.7824 36.0999 59.8277 36.1634 59.8731 36.236C59.9185 36.3086 59.9638 36.3902 60.0183 36.4809L60.6262 33.9496H61.1615L60.2542 37.7421L58.494 35.4648L58.3579 35.2742C58.3125 35.2016 58.2762 35.1381 58.249 35.0565L57.6411 37.5969H57.1058V37.606ZM63.0124 34.4486L62.2593 37.5969H61.6786L62.4317 34.4486H61.4881L61.6061 33.9405H64.0739L63.956 34.4486H63.0124ZM63.6384 37.606L64.5094 33.9496H66.5055L66.3876 34.4576H64.9812L64.7635 35.374H66.1698L66.0428 35.8912H64.6365L64.3552 37.0707H65.7615L65.6345 37.606H63.6384ZM67.2223 35.9638L66.8322 37.5969H66.2878L67.1588 33.9405H67.9663C68.2022 33.9405 68.3837 33.9586 68.5016 33.9858C68.6286 34.0131 68.7284 34.0675 68.801 34.1401C68.8917 34.2308 68.9462 34.3397 68.9734 34.4849C69.0006 34.621 68.9916 34.7752 68.9553 34.9476C68.8827 35.2379 68.7647 35.4738 68.5833 35.6371C68.4018 35.8005 68.175 35.9003 67.9028 35.9366L68.7284 37.5969H68.0752L67.2858 35.9638H67.2223ZM67.3675 35.501H67.4763C67.7848 35.501 67.9935 35.4648 68.1115 35.3922C68.2294 35.3196 68.3111 35.1926 68.3564 35.002C68.4018 34.8024 68.3837 34.6573 68.2929 34.5756C68.2022 34.4939 68.0117 34.4486 67.7213 34.4486H67.6124L67.3675 35.501ZM69.0823 37.606L69.9533 33.9496H71.9403L71.8224 34.4576H70.416L70.1983 35.365H71.6046L71.4776 35.8821H70.0712L69.663 37.5969H69.0823V37.606ZM73.8729 37.606L73.6914 36.6624H72.276L71.6409 37.606H71.033L73.6642 33.8044L74.4808 37.606H73.8729ZM72.6117 36.1634H73.6007L73.4374 35.3287C73.4283 35.2742 73.4192 35.2107 73.4192 35.1472C73.4101 35.0746 73.4101 35.002 73.4101 34.9204C73.3739 35.002 73.3376 35.0746 73.2922 35.1472C73.2559 35.2198 73.2196 35.2833 73.1833 35.3377L72.6117 36.1634ZM78.2552 34.8387C78.1281 34.6935 77.9739 34.5847 77.8106 34.5212C77.6473 34.4486 77.4658 34.4123 77.2571 34.4123C76.867 34.4123 76.5222 34.5393 76.2137 34.7933C75.9052 35.0474 75.7056 35.3831 75.6058 35.7914C75.5151 36.1815 75.5514 36.5082 75.7329 36.7713C75.9052 37.0253 76.1774 37.1524 76.5404 37.1524C76.749 37.1524 76.9577 37.1161 77.1664 37.0344C77.3751 36.9618 77.5838 36.8439 77.8015 36.6896L77.6382 37.361C77.4567 37.479 77.2662 37.5606 77.0666 37.6151C76.867 37.6695 76.6674 37.6967 76.4496 37.6967C76.1774 37.6967 75.9325 37.6514 75.7238 37.5606C75.5151 37.4699 75.3427 37.3338 75.2066 37.1524C75.0705 36.98 74.9889 36.7713 74.9526 36.5354C74.9163 36.2995 74.9253 36.0454 74.9979 35.7732C75.0614 35.501 75.1703 35.2561 75.3155 35.0202C75.4607 34.7843 75.6512 34.5756 75.869 34.4032C76.0867 34.2217 76.3226 34.0856 76.5767 33.9949C76.8307 33.9042 77.0847 33.8588 77.3479 33.8588C77.5565 33.8588 77.7471 33.886 77.9285 33.9496C78.1009 34.0131 78.2642 34.1038 78.4094 34.2308L78.2552 34.8387ZM78.3096 37.606L79.1806 33.9496H81.1676L81.0497 34.4576H79.6434L79.4256 35.374H80.8319L80.7049 35.8912H79.2986L79.0173 37.0707H80.4236L80.2966 37.606H78.3096Z" fill="#3D3D3C"/>
</svg>
