<svg width="90" height="90" viewBox="0 0 90 90" fill="none" xmlns="http://www.w3.org/2000/svg">
<g clip-path="url(#clip0_239_1388)">
<path d="M44.9561 -0.065918C45.2973 -0.0733955 45.2973 -0.0733955 45.6455 -0.0810242C47.4945 0.0317298 49.1415 1.09892 50.7129 1.98853C50.937 2.11396 51.1611 2.23926 51.3854 2.36442C51.8455 2.62146 52.3051 2.87923 52.7644 3.13763C53.5905 3.60207 54.4193 4.06149 55.2481 4.52096C56.4227 5.17215 57.596 5.8255 58.7697 6.47833C61.0039 7.72098 63.2395 8.96115 65.4785 10.1953C67.717 11.4292 69.9521 12.6691 72.1858 13.9115C73.1725 14.4602 74.1595 15.0084 75.1465 15.5566C76.329 16.2135 77.5115 16.8705 78.6937 17.528C79.086 17.7461 79.4783 17.9643 79.8706 18.1824C80.0636 18.2897 80.2565 18.397 80.4553 18.5075C81.5101 19.0935 82.566 19.6777 83.6231 20.2595C83.7367 20.322 83.8502 20.3845 83.9672 20.4489C84.5135 20.7497 85.06 21.0502 85.6068 21.3502C86.5866 21.8892 87.5636 22.4331 88.534 22.9889C88.7022 23.0851 88.8703 23.1813 89.0436 23.2804C89.7747 23.7478 89.7747 23.7478 90 24.082C90.0568 24.5413 90.0823 24.9578 90.0824 25.4176C90.0837 25.5492 90.0851 25.6808 90.0865 25.8165C90.0884 26.0956 90.0889 26.3747 90.0881 26.6538C90.0879 27.0757 90.0952 27.4969 90.103 27.9187C90.1173 29.7248 89.9184 30.9963 88.7572 32.4467C87.6156 33.4408 86.4417 34.0687 84.9065 34.129C84.3078 34.199 84.0543 34.3486 83.6684 34.8109C83.5004 35.0438 83.337 35.28 83.1775 35.5188C83.0894 35.6434 83.0012 35.7679 82.9104 35.8963C82.6325 36.2913 82.361 36.6902 82.0898 37.0898C81.9079 37.3526 81.7257 37.6151 81.5433 37.8774C81.1449 38.4519 80.7507 39.0291 80.3601 39.609C80.1563 39.9023 80.1563 39.9023 79.8848 40.192C79.5394 40.7501 79.5502 41.2519 79.5501 41.8888C79.547 42.0832 79.547 42.0832 79.5439 42.2815C79.5376 42.7161 79.5352 43.1506 79.5328 43.5852C79.5292 43.8968 79.5254 44.2084 79.5214 44.52C79.5094 45.5445 79.5031 46.569 79.4971 47.5935C79.4947 47.9471 79.4923 48.3007 79.4899 48.6543C79.4802 50.1271 79.4718 51.5999 79.4672 53.0727C79.4606 55.1773 79.4463 57.2814 79.4206 59.3858C79.4031 60.8684 79.3945 62.3509 79.3925 63.8335C79.391 64.7173 79.3858 65.6007 79.3712 66.4844C79.147 71.3349 79.147 71.3349 81.3154 75.4937C81.4142 75.5937 81.5131 75.6937 81.6149 75.7967C82.1433 76.3559 82.569 76.9916 83.0127 77.6184C83.1706 77.8314 83.329 78.044 83.4879 78.2563C83.8477 78.75 83.8477 78.75 84.0234 79.1016C84.2335 79.1081 84.4435 79.1147 84.66 79.1215C88.1728 79.2551 88.1728 79.2551 89.0909 80.1006C89.9023 81.0126 90.0307 81.6318 90.0419 82.8452C90.0433 82.9904 90.0447 83.1357 90.0462 83.2853C90.0486 83.5933 90.0505 83.9012 90.0519 84.2092C90.0549 84.6784 90.0626 85.1473 90.0704 85.6165C90.0722 85.9158 90.0737 86.2152 90.0748 86.5146C90.0779 86.6542 90.081 86.7937 90.0842 86.9375C90.0806 87.8661 89.9057 88.3812 89.2969 89.1211C88.3805 89.9481 87.6852 90.0258 86.489 90.0231C86.2713 90.0236 86.2713 90.0236 86.0492 90.0242C85.5587 90.0252 85.0682 90.0249 84.5777 90.0247C84.2242 90.0251 83.8707 90.0257 83.5171 90.0263C82.5423 90.0277 81.5675 90.028 80.5927 90.0281C79.5426 90.0285 78.4926 90.0298 77.4426 90.031C75.0253 90.0335 72.6079 90.0345 70.1906 90.0353C68.9965 90.0357 67.8023 90.0364 66.6081 90.037C62.5216 90.0393 58.4351 90.0412 54.3485 90.0418C54.0919 90.0418 53.8353 90.0418 53.5788 90.0419C53.3215 90.0419 53.0643 90.042 52.8071 90.042C52.2911 90.0421 51.7751 90.0421 51.2591 90.0422C51.1311 90.0422 51.0032 90.0423 50.8714 90.0423C46.7217 90.0429 42.5721 90.0457 38.4224 90.0498C34.0367 90.0541 29.6509 90.0566 25.2651 90.0568C24.7839 90.0568 24.3027 90.0568 23.8214 90.0569C23.7029 90.0569 23.5844 90.0569 23.4623 90.0569C21.5536 90.0571 19.645 90.059 17.7363 90.0616C15.8186 90.0641 13.901 90.0647 11.9833 90.0633C10.944 90.0626 9.90468 90.0628 8.86537 90.0652C7.91456 90.0675 6.96378 90.0673 6.01298 90.0651C5.66839 90.0648 5.3238 90.0653 4.97922 90.0669C4.5119 90.0688 4.04468 90.0675 3.57736 90.0654C3.44266 90.0667 3.30796 90.0681 3.16917 90.0694C2.21179 90.06 1.47542 89.8654 0.765615 89.2028C0.0615693 88.2821 -0.031383 87.7478 -0.0418805 86.608C-0.0440088 86.3901 -0.0440115 86.3901 -0.0461828 86.1678C-0.048616 85.8598 -0.050498 85.5519 -0.0518798 85.2439C-0.0548994 84.7748 -0.0626124 84.3058 -0.0703763 83.8367C-0.072157 83.5373 -0.0736538 83.2379 -0.0748395 82.9385C-0.0779171 82.799 -0.0809973 82.6594 -0.0841682 82.5156C-0.0805625 81.5865 0.0962675 81.0738 0.70313 80.332C1.4073 79.6469 2.17434 79.2755 3.17767 79.2784C3.30279 79.2866 3.42792 79.2949 3.55683 79.3034C4.99318 79.4145 4.99318 79.4145 6.27397 78.8697C6.84552 78.2199 7.24844 77.4656 7.66391 76.7106C8.10699 75.9521 8.63962 75.2578 9.1626 74.5532C9.3576 74.2867 9.55218 74.0198 9.74625 73.7526C9.82876 73.6398 9.91127 73.527 9.99628 73.4107C10.425 72.7953 10.4014 72.2577 10.4076 71.5312C10.4094 71.4018 10.4111 71.2724 10.413 71.139C10.4186 70.703 10.423 70.2669 10.4273 69.8308C10.431 69.519 10.4347 69.2071 10.4385 68.8953C10.4716 66.039 10.4896 63.1824 10.5039 60.326C10.5147 58.2165 10.5329 56.1073 10.5607 53.998C10.5796 52.5131 10.5896 51.0282 10.5933 49.5431C10.5957 48.6574 10.602 47.7722 10.6181 46.8866C10.8754 42.2775 10.8754 42.2775 8.9468 38.2764C8.75248 38.0792 8.55426 37.8858 8.35143 37.6973C7.97492 37.3344 7.69484 36.9199 7.40754 36.4849C7.32052 36.3611 7.23351 36.2372 7.14386 36.1097C7.02286 35.9368 7.02286 35.9368 6.89942 35.7605C6.3906 34.9848 6.3906 34.9848 5.80079 34.2773C5.44626 34.2248 5.09084 34.1782 4.73511 34.1345C3.04883 33.8802 1.96244 33.3186 0.878911 31.9922C-0.125588 30.5935 -0.142236 29.1767 -0.124235 27.5215C-0.120824 27.1008 -0.127827 26.6811 -0.135608 26.2604C-0.135659 25.9909 -0.135108 25.7214 -0.133891 25.4519C-0.137921 25.2651 -0.137918 25.2651 -0.142029 25.0745C-0.125348 24.3641 -0.0264952 24.1095 0.472975 23.5925C0.993166 23.2443 1.5049 22.9259 2.05857 22.6346C2.24685 22.5346 2.43514 22.4345 2.62913 22.3315C2.82741 22.2276 3.02569 22.1237 3.22999 22.0166C3.54238 21.851 3.85451 21.6849 4.16662 21.5188C4.47133 21.3566 4.77621 21.1947 5.0811 21.0329C5.7326 20.6847 6.37809 20.3272 7.02027 19.9622C8.23959 19.2704 9.46395 18.588 10.6897 17.9077C10.8909 17.796 11.0921 17.6844 11.2994 17.5693C11.61 17.3969 11.9207 17.2244 12.2313 17.0521C12.98 16.6366 13.7283 16.2207 14.4766 15.8045C14.7933 15.6284 15.1101 15.4522 15.4269 15.2761C15.7223 15.1118 16.0178 14.9474 16.3132 14.783C16.677 14.5808 17.0412 14.3793 17.4058 14.1785C17.7591 13.9817 18.1102 13.7809 18.4591 13.5764C18.627 13.4797 18.7949 13.3829 18.9679 13.2832C19.189 13.1528 19.189 13.1528 19.4146 13.0199C19.9549 12.7937 26.6325 8.64167 27.2131 8.70117C27.7972 9.13288 28.1358 10.6217 28.285 11.3379C28.1418 12.0254 21.4547 15.2256 20.918 15.6445C20.2314 16.0744 19.5213 16.4575 18.8086 16.842C18.5979 16.9572 18.3873 17.0725 18.1768 17.188C17.7345 17.4303 17.2918 17.6718 16.8487 17.9127C15.8546 18.4535 14.8636 19 13.8726 19.5466C13.5722 19.7121 13.2715 19.8771 12.9707 20.042C11.0946 21.0737 9.24282 22.1403 7.38282 23.2031C32.2102 23.2031 57.0375 23.2031 82.6172 23.2031C79.3614 21.3606 79.3614 21.3606 76.0913 19.5447C75.8777 19.4271 75.664 19.3094 75.4504 19.1918C75.0111 18.9499 74.5717 18.708 74.1323 18.4663C73.0564 17.8744 71.981 17.2814 70.9058 16.6882C70.8003 16.63 70.6948 16.5719 70.5861 16.5119C68.4617 15.3401 66.3407 14.1623 64.2204 12.983C63.2337 12.4343 62.2467 11.8861 61.2598 11.3379C60.0772 10.681 58.8947 10.024 57.7126 9.36653C57.3203 9.14839 56.928 8.93027 56.5356 8.71216C56.3427 8.60487 56.1497 8.49757 55.9509 8.38703C54.8961 7.80098 53.8403 7.21682 52.7831 6.63506C52.6128 6.54128 52.6128 6.54128 52.439 6.44561C51.8927 6.14485 51.3462 5.84435 50.7995 5.54436C49.6536 4.9139 48.5193 4.26888 47.397 3.59699C46.2407 2.95537 45.2574 2.79777 43.9453 2.98828C43.0709 3.30263 42.2869 3.75714 41.4844 4.21875C41.1925 4.38288 40.9004 4.54674 40.6082 4.71039C39.9287 5.09221 39.2509 5.47676 38.5737 5.86258C37.3742 6.54426 36.1671 7.21191 34.9585 7.8772C34.8531 7.93524 34.7476 7.99328 34.639 8.05308C34.2077 8.29051 33.7763 8.5279 33.3449 8.7652C32.537 9.20966 31.7299 9.65554 30.9231 10.1019C30.5751 10.2943 30.2272 10.4867 29.8792 10.6791C29.657 10.802 29.4348 10.925 29.2127 11.048C28.9036 11.2192 28.5943 11.3901 28.285 11.5611C28.1094 11.6582 27.9338 11.7554 27.7529 11.8555C26.2659 12.6577 26.2659 12.6577 25.6421 12.6453C25.0474 12.4513 24.7934 12.2894 24.4336 11.7773C24.3219 11.1212 24.3562 10.8363 24.7328 10.2835C25.1554 9.82346 25.5108 9.58599 26.063 9.29993C26.2461 9.20354 26.4291 9.10715 26.6177 9.00784C26.9124 8.85604 26.9124 8.85604 27.2131 8.70117C27.6308 8.48134 28.0483 8.26117 28.4656 8.04062C28.5709 7.98519 28.6762 7.92977 28.7848 7.87266C29.7662 7.35513 30.7321 6.81238 31.6956 6.26221C33.7667 5.0832 35.8528 3.93218 37.9416 2.7848C38.5996 2.42292 39.2554 2.05729 39.9099 1.68915C40.0698 1.59967 40.2298 1.5102 40.3945 1.41801C40.6851 1.25532 40.9751 1.09169 41.2644 0.926886C42.4777 0.250167 43.5531 -0.0520551 44.9561 -0.065918ZM2.63672 26.1914C2.49481 28.5038 2.49481 28.5038 3.42156 30.5193C4.25038 31.2347 4.81984 31.3148 5.87344 31.3127C6.01005 31.3131 6.14666 31.3135 6.28741 31.3139C6.75002 31.3151 7.21262 31.315 7.67523 31.3149C8.00831 31.3155 8.34139 31.3162 8.67447 31.3169C9.59357 31.3187 10.5127 31.3193 11.4318 31.3198C12.4215 31.3205 13.4113 31.3221 14.4011 31.3237C16.7932 31.3272 19.1853 31.3289 21.5774 31.3305C22.7029 31.3313 23.8284 31.3322 24.9539 31.3331C28.6935 31.3361 32.4332 31.3387 36.1728 31.3399C36.4147 31.34 36.6567 31.3401 36.8986 31.3402C37.0785 31.3402 37.0785 31.3402 37.2621 31.3403C37.87 31.3405 38.4779 31.3407 39.0858 31.3409C39.2064 31.341 39.327 31.341 39.4513 31.3411C43.3634 31.3425 47.2755 31.3466 51.1876 31.3523C55.3221 31.3583 59.4565 31.3618 63.5909 31.3624C65.8453 31.3627 68.0997 31.3643 70.3541 31.3688C72.2736 31.3726 74.1931 31.374 76.1126 31.3723C77.0925 31.3715 78.0723 31.3718 79.0522 31.3752C79.9487 31.3783 80.8451 31.3782 81.7416 31.3754C82.0665 31.375 82.3913 31.3758 82.7161 31.3779C83.1569 31.3805 83.5974 31.3788 84.0381 31.3761C84.2284 31.3788 84.2284 31.3788 84.4225 31.3815C85.3063 31.3694 85.7952 31.1256 86.4844 30.5859C86.5859 30.5134 86.6874 30.4409 86.792 30.3662C87.6346 29.1866 87.3633 27.5192 87.3633 26.1914C59.4035 26.1914 31.4438 26.1914 2.63672 26.1914ZM9.31641 34.1016C9.66446 34.6236 10.0125 35.1457 10.3711 35.6836C10.5696 36.077 10.5696 36.077 10.7721 36.4783C11.3027 37.4829 11.8494 38.4353 12.9566 38.8504C14.1307 39.1002 15.2988 39.1052 16.4945 39.0711C17.1278 39.0564 17.7543 39.0745 18.3873 39.0959C20.4057 39.1427 20.4057 39.1427 22.2077 38.3641C22.8965 37.6459 23.4026 36.8392 23.8466 35.9518C24.1839 35.3157 24.5794 34.7121 24.9609 34.1016C19.7982 34.1016 14.6356 34.1016 9.31641 34.1016ZM26.5689 36.5748C26.2931 37.0387 25.9816 37.4746 25.6675 37.9131C25.4789 38.1912 25.291 38.4697 25.1038 38.7488C24.911 39.0343 24.718 39.3197 24.5249 39.605C24.4435 39.7261 24.3621 39.8472 24.2783 39.972C24.082 40.2539 24.082 40.2539 23.9063 40.4297C23.884 40.8423 23.8732 41.25 23.8697 41.6629C23.868 41.7935 23.8662 41.9241 23.8644 42.0586C23.8587 42.4997 23.8544 42.9408 23.85 43.3818C23.8463 43.6968 23.8426 44.0118 23.8388 44.3268C23.8057 47.2148 23.7877 50.103 23.7734 52.9911C23.7626 55.1241 23.7445 57.2568 23.7167 59.3896C23.6978 60.8908 23.6878 62.392 23.6841 63.8933C23.6816 64.7887 23.6753 65.6837 23.6593 66.579C23.3998 71.3939 23.3998 71.3939 25.4936 75.528C25.6012 75.6345 25.7087 75.741 25.8196 75.8507C26.1466 76.2362 26.3759 76.5897 26.6258 77.0255C27.518 78.6289 27.518 78.6289 29.0175 79.5571C29.8661 79.7039 30.7118 79.6861 31.5699 79.6696C31.8955 79.6742 32.2212 79.6801 32.5468 79.6872C33.426 79.7022 34.3042 79.6985 35.1835 79.6903C35.9196 79.6853 36.6555 79.6898 37.3916 79.6943C39.1292 79.705 40.8662 79.7006 42.6037 79.6862C44.3917 79.6717 46.1784 79.68 47.9663 79.7001C49.5059 79.7167 51.0451 79.7202 52.5847 79.7131C53.5023 79.7089 54.4193 79.7093 55.3368 79.7218C59.2308 79.9935 59.2308 79.9935 62.6252 78.5527C63.1559 77.8699 63.49 77.1579 63.7945 76.3529C64.1165 75.6484 64.6441 75.1368 65.1702 74.5786C66.6609 72.6675 66.35 70.1121 66.2893 67.8144C66.2688 66.9539 66.2644 66.0932 66.2593 65.2325C66.2557 64.7764 66.2484 64.3204 66.2371 63.8644C66.2338 63.6594 66.2304 63.4545 66.227 63.2433C66.2226 63.0634 66.2182 62.8834 66.2136 62.6981C66.2784 62.1515 66.4185 61.9168 66.7969 61.5234C67.1375 61.4362 67.1375 61.4362 67.5 61.4465C67.6795 61.4469 67.6795 61.4469 67.8626 61.4472C68.3116 61.5477 68.4492 61.6876 68.7305 62.0508C68.8006 62.4879 68.8006 62.4879 68.8065 63.0143C68.81 63.2113 68.8134 63.4083 68.817 63.6114C68.8187 63.9303 68.8187 63.9303 68.8204 64.2556C68.8236 64.4733 68.8267 64.6911 68.83 64.9154C68.8379 65.4937 68.8436 66.0719 68.8482 66.6502C68.8534 67.2405 68.8616 67.8308 68.8695 68.4211C68.8849 69.5789 68.8955 70.7366 68.9063 71.8945C71.5166 71.8945 74.127 71.8945 76.8164 71.8945C76.8164 61.8592 76.8164 51.8238 76.8164 41.4844C74.2061 41.4844 71.5957 41.4844 68.9063 41.4844C68.8933 43.1692 68.8933 43.1692 68.8802 44.8881C68.8739 45.5986 68.8676 46.3092 68.8609 47.0198C68.8503 48.1482 68.8401 49.2766 68.8321 50.4051C68.8256 51.3146 68.8175 52.2241 68.8082 53.1336C68.8049 53.481 68.8022 53.8284 68.8002 54.1758C68.7972 54.6616 68.7921 55.1472 68.7865 55.6329C68.786 55.8495 68.7859 55.8495 68.7854 56.0705C68.7753 56.748 68.7635 71.6499 68.3789 72.2267C67.7966 72.4025 67.9724 61.4423 67.3242 61.4423C66.8456 61.0981 66.3273 64.2067 66.1947 63.6114C66.1703 63.1984 66.1755 55.8002 66.1899 55.3868C66.1917 55.2305 66.1935 55.0743 66.1954 54.9134C66.1997 54.5745 66.206 54.2357 66.2139 53.8968C66.2257 53.3575 66.2308 52.8186 66.234 52.2792C66.2435 50.7458 66.2609 49.2127 66.293 47.6797C66.3121 46.7406 66.3198 45.8019 66.3207 44.8626C66.3232 44.5075 66.3298 44.1524 66.3411 43.7974C66.4238 41.124 65.8289 39.6004 64.0741 37.577C63.7303 37.1738 63.4286 36.7467 63.1302 36.3091C63.0432 36.1853 62.9562 36.0615 62.8665 35.9339C62.7859 35.8187 62.7052 35.7034 62.6221 35.5847C62.1133 34.8091 62.1133 34.8091 61.5234 34.1016C61.1015 34.0782 60.6843 34.0662 60.2619 34.0615C60.1283 34.0594 59.9947 34.0572 59.857 34.055C59.4058 34.0481 58.9546 34.0425 58.5034 34.037C58.1812 34.0324 57.859 34.0278 57.5368 34.0232C54.5887 33.9825 51.6403 33.9597 48.692 33.9414C46.7095 33.9288 44.7274 33.911 42.7452 33.8797C41.0163 33.8525 39.2877 33.8351 37.5586 33.8298C36.6436 33.8266 35.7292 33.8187 34.8144 33.7988C33.952 33.7803 33.0907 33.7753 32.2282 33.7802C31.913 33.7797 31.5977 33.7745 31.2827 33.7639C28.7882 33.6846 27.8242 34.4412 26.5689 36.5748ZM65.0391 34.1016C65.4451 34.7396 65.8512 35.3777 66.2695 36.0352C66.4575 36.408 66.4575 36.408 66.6493 36.7884C67.138 37.7078 67.6463 38.4852 68.6702 38.8284C69.8471 39.0553 71.0186 39.0625 72.2135 39.0349C72.85 39.0234 73.4808 39.042 74.1169 39.0633C76.1143 39.1233 76.1143 39.1233 77.9103 38.3859C78.6747 37.5877 79.1359 36.6638 79.6289 35.6836C79.977 35.1615 80.325 34.6395 80.6836 34.1016C75.5209 34.1016 70.3582 34.1016 65.0391 34.1016ZM13.1836 41.4844C13.1836 51.5197 13.1836 61.5551 13.1836 71.8945C15.794 71.8945 18.4043 71.8945 21.0938 71.8945C21.0938 61.8592 21.0938 51.8238 21.0938 41.4844C18.4834 41.4844 15.8731 41.4844 13.1836 41.4844ZM11.25 76.4648C11.0767 76.7127 10.9029 76.9602 10.7282 77.2071C10.579 77.4315 10.4306 77.6565 10.2832 77.8821C10.2057 77.9984 10.1282 78.1148 10.0484 78.2347C9.66436 78.7188 9.66436 78.7188 9.49219 79.2773C14.5389 79.2773 19.5856 79.2773 24.7852 79.2773C24.5326 78.6459 24.3853 78.283 24.001 77.7729C23.9181 77.6615 23.8351 77.5502 23.7497 77.4354C23.6636 77.3218 23.5775 77.2081 23.4888 77.0911C23.3187 76.8644 23.1489 76.6376 22.9793 76.4106C22.9042 76.3113 22.8291 76.2119 22.7517 76.1095C22.5 75.7617 22.5 75.7617 22.2447 75.2041C21.7338 74.637 21.6273 74.6244 20.9003 74.5594C20.5264 74.5477 20.1522 74.5424 19.7781 74.5422C19.5796 74.5396 19.381 74.5369 19.1765 74.5341C18.7563 74.5303 18.336 74.5293 17.9158 74.5309C17.2749 74.5312 16.6354 74.5166 15.9947 74.501C15.5859 74.4992 15.1772 74.4983 14.7684 74.4983C14.4827 74.4896 14.4827 74.4896 14.1912 74.4808C12.6133 74.5094 12.0654 75.1752 11.25 76.4648ZM65.9533 77.8239C65.7422 78.2227 65.7422 78.2227 65.452 78.6041C65.1801 78.9063 65.1801 78.9063 65.2148 79.2773C70.2615 79.2773 75.3082 79.2773 80.5078 79.2773C79.9266 78.2553 79.9266 78.2553 79.287 77.2854C79.1956 77.1561 79.1043 77.0268 79.0102 76.8937C78.9171 76.763 78.824 76.6324 78.728 76.4978C78.5863 76.2968 78.5863 76.2968 78.4417 76.0917C77.8674 75.1473 77.8674 75.1473 76.971 74.6411C76.7398 74.6264 76.7398 74.6264 76.5038 74.6113C76.3288 74.6 76.1538 74.5887 75.9734 74.577C75.1648 74.5379 74.3563 74.5091 73.5471 74.4874C73.1227 74.4728 72.6985 74.4513 72.2748 74.4225C68.9551 74.2008 67.4634 74.7772 65.9533 77.8239ZM2.98829 82.0898C2.59284 82.683 2.59329 82.8853 2.59621 83.5792C2.59655 83.7662 2.59689 83.9533 2.59724 84.146C2.59939 84.3412 2.60155 84.5364 2.60376 84.7375C2.60388 84.9334 2.60399 85.1293 2.60411 85.3312C2.5642 86.2894 2.5642 86.2894 2.8125 87.1875C30.6563 87.1875 58.5 87.1875 87.1875 87.1875C87.5482 86.466 87.3958 85.5305 87.3962 84.7375C87.3984 84.5423 87.4006 84.3471 87.4028 84.146C87.4031 83.959 87.4034 83.7719 87.4038 83.5792C87.4045 83.4074 87.4052 83.2357 87.406 83.0587C87.3941 82.5736 87.3941 82.5736 87.0117 82.0898C86.5468 82.037 86.1227 82.0192 85.6572 82.0235C85.5151 82.0227 85.3729 82.0219 85.2264 82.0212C84.7449 82.0192 84.2635 82.0211 83.782 82.0229C83.4353 82.0223 83.0887 82.0214 82.7421 82.0204C81.7855 82.0182 80.829 82.0193 79.8725 82.0209C78.8425 82.0221 77.8125 82.0203 76.7824 82.0188C74.7631 82.0165 72.7437 82.017 70.7243 82.0185C69.0838 82.0197 67.4433 82.0199 65.8029 82.0193C65.6864 82.0192 65.57 82.0192 65.4501 82.0192C64.9776 82.019 64.5051 82.0188 64.0326 82.0186C59.5969 82.017 55.1613 82.0185 50.7257 82.0213C46.7818 82.0238 42.838 82.0236 38.8942 82.0211C34.4668 82.0183 30.0395 82.0172 25.6121 82.0188C25.1405 82.019 24.6688 82.0191 24.1972 82.0193C24.081 82.0193 23.9649 82.0194 23.8452 82.0194C22.0886 82.02 20.3321 82.0193 18.5755 82.018C16.5789 82.0165 14.5823 82.0169 12.5857 82.0197C11.5661 82.0211 10.5465 82.0216 9.52681 82.0199C8.59479 82.0183 7.6628 82.0192 6.73078 82.022C6.39224 82.0226 6.05369 82.0223 5.71515 82.021C5.25765 82.0194 4.80028 82.021 4.34279 82.0235C4.20901 82.0222 4.07523 82.021 3.9374 82.0197C3.53348 82.0179 3.53348 82.0179 2.98829 82.0898Z" fill="#3572EF"/>
<path d="M44.3985 41.4569C48.3285 41.328 52.2272 42.6442 55.1404 45.3076C57.8388 47.8697 59.9084 51.1738 60.1483 54.9868C60.2523 59.9031 59.2395 63.9115 55.8153 67.592C52.7453 70.6004 48.8058 71.94 44.5661 71.9383C40.5084 71.8918 36.7911 70.173 33.9258 67.3242C30.6994 63.8864 29.7207 59.643 29.8513 55.049C29.9185 53.8603 30.1879 52.8017 30.5859 51.6797C30.6584 51.4717 30.7309 51.2637 30.8056 51.0493C32.3597 47.0495 35.5032 44.2465 39.3609 42.514C40.9744 41.8489 42.6666 41.5619 44.3985 41.4569ZM35.6822 48.4497C33.1367 51.4844 32.4522 54.8533 32.6953 58.7109C33.0174 61.5589 34.7752 64.3294 36.8934 66.1864C39.7463 68.4248 42.9777 69.4468 46.582 69.082C49.8597 68.6238 52.7568 66.9856 54.8108 64.3799C57.0122 61.2635 57.8444 57.8839 57.1955 54.1008C56.3816 50.6644 54.3221 47.9109 51.3281 46.0547C46.0878 43.0317 39.8287 44.0753 35.6822 48.4497Z" fill="#3572EF"/>
<path d="M48.1641 8.61327C49.7134 9.72308 50.7984 11.1096 51.1523 13.0078C51.3334 14.9433 50.9324 16.6207 49.6932 18.1439C48.4096 19.4896 46.9114 20.1923 45.0549 20.2588C43.2612 20.2322 41.7819 19.5621 40.473 18.3465C39.2058 16.9777 38.7884 15.3861 38.8106 13.564C38.9346 11.7036 39.7649 10.4519 41.0779 9.18456C43.0493 7.55603 45.9408 7.37144 48.1641 8.61327ZM42.3853 11.9421C41.7495 12.8583 41.4943 13.6417 41.6602 14.7656C42.0509 15.9689 42.7341 16.6729 43.8355 17.2815C44.9508 17.5736 45.7939 17.4755 46.7887 16.9224C47.5517 16.3914 48.1027 15.671 48.3399 14.7656C48.4495 13.6513 48.2808 12.8786 47.6367 11.9531C46.8842 11.1387 46.1278 10.7644 45.033 10.6567C43.9653 10.689 43.0879 11.1447 42.3853 11.9421Z" fill="#3572EF"/>
<path d="M39.925 57.307H43.3862C44.468 57.307 45.4833 56.9378 46.2115 56.3129C46.6303 55.9628 46.9514 55.5103 47.1437 54.9995H39.9241C39.6793 54.9995 39.4445 54.9022 39.2714 54.7291C39.0983 54.556 39.0011 54.3213 39.0011 54.0765C39.0011 53.8317 39.0983 53.5969 39.2714 53.4238C39.4445 53.2507 39.6793 53.1535 39.9241 53.1535H47.1437C46.9514 52.6426 46.6303 52.1902 46.2115 51.8401C45.4823 51.2161 44.468 50.846 43.3862 50.846H39.9241C39.6793 50.846 39.4445 50.7487 39.2714 50.5757C39.0983 50.4026 39.0011 50.1678 39.0011 49.923C39.0011 49.6782 39.0983 49.4434 39.2714 49.2703C39.4445 49.0972 39.6793 49 39.9241 49H43.3853L43.5514 49.0018L43.616 49H50.077C50.3218 49 50.5566 49.0972 50.7297 49.2703C50.9028 49.4434 51 49.6782 51 49.923C51 50.1678 50.9028 50.4026 50.7297 50.5757C50.5566 50.7487 50.3218 50.846 50.077 50.846H47.8387C48.4493 51.4888 48.8714 52.287 49.0589 53.1535H50.077C50.3218 53.1535 50.5566 53.2507 50.7297 53.4238C50.9028 53.5969 51 53.8317 51 54.0765C51 54.3213 50.9028 54.556 50.7297 54.7291C50.5566 54.9022 50.3218 54.9995 50.077 54.9995H49.0589C48.8411 56.0397 48.2606 56.9876 47.4132 57.714C46.3241 58.6471 44.8741 59.1529 43.3853 59.1529H42.4272L48.0926 63.9894C48.2721 64.1503 48.3816 64.375 48.3976 64.6155C48.4136 64.856 48.3349 65.0933 48.1783 65.2765C48.0217 65.4598 47.7996 65.5745 47.5595 65.5961C47.3195 65.6178 47.0805 65.5447 46.8936 65.3924L39.3278 58.9342L39.3186 58.9259C39.1555 58.7851 39.0471 58.5916 39.0122 58.379C38.9772 58.1665 39.0181 57.9484 39.1275 57.7629C39.2091 57.6239 39.3256 57.5087 39.4655 57.4287C39.6054 57.3487 39.7638 57.3067 39.925 57.307Z" fill="#3572EF"/>
</g>
<defs>
<clipPath id="clip0_239_1388">
<rect width="90" height="90" fill="white"/>
</clipPath>
</defs>
</svg>
