<svg width="92" height="92" viewBox="0 0 92 92" fill="none" xmlns="http://www.w3.org/2000/svg">
<path d="M46 1C37.0999 1 28.3996 3.6392 20.9994 8.58387C13.5991 13.5285 7.83138 20.5566 4.42544 28.7792C1.0195 37.0019 0.128348 46.0499 1.86468 54.7791C3.60102 63.5082 7.88685 71.5264 14.1802 77.8198C20.4736 84.1132 28.4918 88.399 37.221 90.1353C45.9501 91.8717 54.9981 90.9805 63.2208 87.5746C71.4434 84.1686 78.4715 78.4009 83.4161 71.0006C88.3608 63.6004 91 54.9001 91 46C91 34.0653 86.2589 22.6193 77.8198 14.1802C69.3807 5.74106 57.9348 1 46 1ZM46 84.5714C38.3713 84.5714 30.9139 82.3092 24.5709 78.071C18.2278 73.8327 13.284 67.8086 10.3647 60.7606C7.44529 53.7126 6.68144 45.9572 8.16973 38.4751C9.65802 30.993 13.3316 24.1202 18.7259 18.7259C24.1202 13.3316 30.993 9.658 38.4751 8.16971C45.9572 6.68142 53.7126 7.44526 60.7607 10.3646C67.8087 13.284 73.8327 18.2278 78.071 24.5709C82.3093 30.9139 84.5714 38.3713 84.5714 46C84.5714 56.2298 80.5077 66.0406 73.2741 73.2741C66.0406 80.5076 56.2298 84.5714 46 84.5714Z" fill="#8B8B8B" stroke="white" stroke-width="2"/>
<path d="M46 74.9286C48.6628 74.9286 50.8215 72.7699 50.8215 70.1071C50.8215 67.4443 48.6628 65.2857 46 65.2857C43.3372 65.2857 41.1786 67.4443 41.1786 70.1071C41.1786 72.7699 43.3372 74.9286 46 74.9286Z" fill="#8B8B8B"/>
<path d="M49.2143 20.2857H44.3929C42.4922 20.2815 40.6094 20.6527 38.8526 21.3781C37.0958 22.1035 35.4996 23.1688 34.1556 24.5128C32.8117 25.8567 31.7464 27.4529 31.021 29.2097C30.2956 30.9665 29.9244 32.8493 29.9286 34.75V36.3571H36.3572V34.75C36.3572 32.6188 37.2038 30.5749 38.7108 29.0679C40.2178 27.5609 42.2617 26.7143 44.3929 26.7143H49.2143C51.3455 26.7143 53.3894 27.5609 54.8964 29.0679C56.4034 30.5749 57.25 32.6188 57.25 34.75C57.25 36.8812 56.4034 38.9251 54.8964 40.4321C53.3894 41.9391 51.3455 42.7857 49.2143 42.7857H42.7857V57.25H49.2143V49.2143C53.0505 49.2143 56.7295 47.6904 59.4421 44.9778C62.1547 42.2652 63.6786 38.5862 63.6786 34.75C63.6786 30.9138 62.1547 27.2348 59.4421 24.5222C56.7295 21.8096 53.0505 20.2857 49.2143 20.2857Z" fill="#8B8B8B"/>
</svg>
