<svg width="90" height="77" viewBox="0 0 90 77" fill="none" xmlns="http://www.w3.org/2000/svg">
<path fill-rule="evenodd" clip-rule="evenodd" d="M25.9344 69.1176C25.1805 69.1176 24.5711 68.5082 24.5711 67.7543C24.5711 67.0004 25.1805 66.391 25.9344 66.391H48.7434C49.4973 66.391 50.1067 67.0004 50.1067 67.7543C50.1067 68.5082 49.4973 69.1176 48.7434 69.1176H25.9344ZM67.4344 58.4536H80.9574C81.5199 58.4536 82.0277 58.684 82.3949 59.0512C82.7621 59.4184 82.9926 59.9301 82.9926 60.4887V67.0825C82.9926 67.645 82.7621 68.1528 82.3949 68.52C82.0277 68.8872 81.516 69.1177 80.9574 69.1177H67.4344C66.8719 69.1177 66.3641 68.8872 65.9969 68.52C65.6297 68.1529 65.3993 67.6411 65.3993 67.0825V60.4887C65.3993 59.9262 65.6297 59.4184 65.9969 59.0512C66.3641 58.684 66.8758 58.4536 67.4344 58.4536ZM80.2664 61.1802H68.1254V66.3911H80.2664V61.1802ZM17.2194 67.2818V72.4263C17.2194 73.5318 17.6686 74.5318 18.3952 75.2622C19.1218 75.9887 20.1257 76.438 21.2311 76.438H85.9891C87.0946 76.438 88.0946 75.9888 88.825 75.2622C89.5516 74.5356 90.0008 73.5317 90.0008 72.4263V33.2813C90.0008 32.1758 89.5516 31.1758 88.825 30.4454C88.0985 29.7188 87.0945 29.2696 85.9891 29.2696H79.3016L66.5866 7.24658C66.5749 7.22314 66.5593 7.1958 66.5476 7.17236C66.5319 7.14892 66.5202 7.12549 66.5046 7.10205L63.6023 2.07475C63.5906 2.0474 63.5749 2.02397 63.5632 2.00053C63.0124 1.0435 62.1218 0.402829 61.1296 0.13723C60.1413 -0.12839 59.0515 -0.0151111 58.0944 0.535669L2.00443 32.9147C1.04349 33.4694 0.398929 34.36 0.137229 35.3483C-0.128391 36.3366 -0.0151104 37.4303 0.53567 38.3874H0.539576L17.2196 67.2784L17.2194 67.2818ZM2.89142 37.0318L2.88752 37.0279H2.89142C2.71564 36.7232 2.68048 36.3716 2.77033 36.0513C2.85627 35.731 3.05939 35.4419 3.36017 35.2701L59.4382 2.89106C59.7429 2.71528 60.0944 2.68012 60.4186 2.76997C60.739 2.85591 61.0241 3.05903 61.1999 3.36763C61.2155 3.39107 61.2272 3.41451 61.2429 3.43795L63.5085 7.35985L25.5475 29.2778H21.2311C20.1256 29.2778 19.1256 29.7271 18.3952 30.4536C17.6686 31.1802 17.2194 32.1841 17.2194 33.2895V34.0903L5.19636 41.0317L2.89166 37.0395L2.89142 37.0318ZM6.55552 43.3756L17.2195 37.2194V40.7858L8.09842 46.0514L6.55153 43.3756H6.55552ZM9.45782 48.4029L17.2195 43.9224V61.8524L9.45782 48.4074V48.4029ZM76.1648 29.2699H42.5948L67.7708 14.7349L76.1614 29.2699H76.1648ZM66.4148 12.3829L37.1648 29.2699H30.9929L64.8719 9.70788L66.4149 12.3798L66.4148 12.3829ZM19.9498 43.6949V40.6168H87.2738V43.6949H19.9458H19.9498ZM87.2738 46.4215H19.9458V72.4255C19.9458 72.777 20.0904 73.0974 20.3247 73.3317C20.5591 73.5661 20.8794 73.7106 21.231 73.7106H85.989C86.3405 73.7106 86.6609 73.5661 86.8952 73.3317C87.1296 73.0974 87.2741 72.777 87.2741 72.4255L87.2738 46.4215ZM19.9498 37.8903V33.2809C19.9498 32.9293 20.0944 32.609 20.3287 32.3746C20.5631 32.1403 20.8834 31.9957 21.235 31.9957H85.993C86.3445 31.9957 86.6649 32.1402 86.8992 32.3746C87.1336 32.609 87.2781 32.9293 87.2781 33.2809V37.8903H19.9461H19.9498ZM25.9381 62.5423C25.1842 62.5423 24.5748 61.9329 24.5748 61.179C24.5748 60.4251 25.1842 59.8157 25.9381 59.8157H37.8011C38.555 59.8157 39.1644 60.4251 39.1644 61.179C39.1644 61.9329 38.555 62.5423 37.8011 62.5423H25.9381Z" fill="white"/>
</svg>
