<svg width="90" height="90" viewBox="0 0 90 90" fill="none" xmlns="http://www.w3.org/2000/svg">
<mask id="path-1-inside-1_239_1333" fill="white">
<path d="M47.4405 0.421208C47.6026 0.469224 47.7647 0.517241 47.9317 0.566712C48.4301 0.715054 48.9275 0.866248 49.4247 1.01825C49.5711 1.06264 49.7175 1.10702 49.8683 1.15274C50.8699 1.45662 51.8691 1.76748 52.8681 2.07967C53.1858 2.17859 53.5036 2.27746 53.8213 2.37629C54.4871 2.58344 55.1528 2.79082 55.8184 2.99839C57.5448 3.53673 59.2718 4.07346 60.9987 4.6102C61.1674 4.66266 61.3362 4.71512 61.5101 4.76918C64.1792 5.59884 66.8502 6.42149 69.5252 7.23195C69.6848 7.28031 69.8443 7.32867 70.0087 7.37849C70.6038 7.55886 71.1989 7.7392 71.794 7.91944C73.4218 8.41277 75.0466 8.91551 76.6697 9.42388C77.6612 9.73392 78.6545 10.0376 79.6486 10.3392C80.4194 10.5735 81.1895 10.8097 81.9596 11.0462C82.3414 11.163 82.7235 11.279 83.1058 11.394C83.646 11.5567 84.1852 11.7224 84.7243 11.8888C84.8846 11.9363 85.0449 11.9838 85.2101 12.0327C86.8884 12.5571 88.2627 13.2445 89.2001 14.7731C89.8401 16.0164 89.9619 17.1728 89.961 18.5594C89.9619 18.7706 89.9619 18.7706 89.9628 18.9861C89.9645 19.4494 89.9649 19.9127 89.965 20.3759C89.9656 20.6998 89.9662 21.0237 89.9668 21.3475C89.9679 22.0257 89.9682 22.704 89.9681 23.3822C89.9681 24.2482 89.9705 25.1142 89.9736 25.9803C89.9755 26.6491 89.9759 27.3179 89.9758 27.9868C89.976 28.3059 89.9768 28.625 89.9781 28.9442C89.9799 29.392 89.9794 29.8397 89.9783 30.2875C89.9793 30.4174 89.9803 30.5473 89.9813 30.6812C89.9708 32.4343 89.5686 33.838 88.3867 35.1514C87.1212 36.3709 85.6971 36.6396 83.9739 36.6223C83.8031 36.6178 83.6323 36.6134 83.4563 36.6088C83.2786 36.6064 83.101 36.604 82.918 36.6015C82.4855 36.5954 82.0533 36.5867 81.6209 36.5756C81.6246 36.7308 81.6283 36.886 81.6322 37.0459C81.6443 37.6256 81.6531 38.205 81.6598 38.7847C81.6633 39.0349 81.6682 39.2851 81.6743 39.5352C81.683 39.8962 81.6869 40.257 81.69 40.6181C81.6937 40.8349 81.6974 41.0517 81.7013 41.275C81.6031 42.0177 81.4132 42.3878 80.9133 42.9441C80.563 43.0025 80.2128 43.0609 79.8519 43.121C79.8519 52.5198 79.8519 61.9186 79.8519 71.6023C80.2022 71.6606 80.5524 71.719 80.9133 71.7792C81.6071 72.4969 81.6426 73.19 81.6382 74.1528C81.6376 74.3746 81.6371 74.5964 81.6365 74.8249C81.635 75.0567 81.6335 75.2885 81.632 75.5273C81.6311 75.7635 81.6303 75.9997 81.6296 76.2359C81.6275 76.8142 81.6246 77.3925 81.6209 77.9707C81.8297 77.9661 82.0385 77.9615 82.2536 77.9567C83.031 77.9407 83.8084 77.9305 84.5859 77.9222C84.9218 77.9177 85.2578 77.9117 85.5937 77.904C86.0777 77.8932 86.5614 77.8883 87.0455 77.8844C87.1948 77.8798 87.3441 77.8752 87.4979 77.8705C88.2335 77.8702 88.7275 77.9147 89.3199 78.3742C89.9293 79.0427 89.9567 79.5398 89.9638 80.4221C89.9655 80.5921 89.9672 80.7622 89.969 80.9374C89.9701 81.2114 89.9701 81.2114 89.9713 81.4908C89.9723 81.6797 89.9733 81.8686 89.9743 82.0632C89.976 82.4626 89.9771 82.862 89.9778 83.2614C89.9795 83.8713 89.985 84.4812 89.9906 85.0911C89.9918 85.4794 89.9927 85.8678 89.9934 86.2561C89.9967 86.529 89.9967 86.529 90 86.8074C89.9971 87.7539 89.9914 88.5047 89.4046 89.2925C88.5633 89.8221 87.8319 89.8989 86.8618 89.89C86.7146 89.8908 86.5673 89.8915 86.4156 89.8923C85.921 89.8943 85.4265 89.8924 84.9319 89.8906C84.5742 89.8912 84.2165 89.8921 83.8588 89.8931C82.8749 89.8953 81.8911 89.8942 80.9072 89.8926C79.8465 89.8914 78.7858 89.8932 77.7251 89.8947C75.767 89.8969 73.8089 89.8967 71.8508 89.8953C70.0419 89.8939 68.233 89.8936 66.4242 89.8942C66.3042 89.8943 66.1843 89.8943 66.0607 89.8943C65.5738 89.8945 65.0869 89.8947 64.6001 89.8949C60.0319 89.8965 55.4637 89.895 50.8955 89.8921C46.8362 89.8896 42.7768 89.8899 38.7175 89.8924C34.1577 89.8952 29.5979 89.8964 25.0381 89.8947C24.5521 89.8945 24.0661 89.8944 23.5801 89.8942C23.4006 89.8942 23.4006 89.8942 23.2175 89.8941C21.4097 89.8935 19.6019 89.8942 17.794 89.8955C15.7387 89.8971 13.6833 89.8966 11.6279 89.8938C10.5787 89.8924 9.52957 89.8919 8.48039 89.8936C7.5206 89.8952 6.56083 89.8943 5.60104 89.8915C5.2532 89.8909 4.90536 89.8912 4.55753 89.8925C4.0858 89.8941 3.61419 89.8925 3.14248 89.89C2.93851 89.8919 2.93851 89.8919 2.73042 89.8938C1.71165 89.883 0.97331 89.6661 0.24587 88.9387C0.0659971 88.4079 0.0448686 87.9105 0.040463 87.3528C0.0387634 87.1787 0.0370638 87.0045 0.0353127 86.825C0.0345608 86.638 0.033809 86.4509 0.0330344 86.2582C0.0320261 86.065 0.0310177 85.8718 0.0299788 85.6727C0.0283087 85.2642 0.0271519 84.8557 0.0264697 84.4472C0.0247503 83.8226 0.0192596 83.198 0.0136858 82.5733C0.0125308 82.1763 0.0116019 81.7793 0.0109217 81.3823C0.00873747 81.1956 0.0065533 81.009 0.00430293 80.8166C0.0077686 79.676 0.0922604 79.0249 0.907353 78.1841C1.47633 77.8806 1.93392 77.911 2.576 77.9189C2.69673 77.9197 2.81745 77.9204 2.94183 77.9212C3.32579 77.9242 3.70958 77.9308 4.0935 77.9376C4.35447 77.9402 4.61545 77.9427 4.87643 77.9448C5.51476 77.9507 6.15299 77.9598 6.79125 77.9707C6.78662 77.8155 6.78199 77.6603 6.77722 77.5004C6.76208 76.9208 6.75103 76.3414 6.74267 75.7616C6.73824 75.5114 6.73221 75.2613 6.72453 75.0112C6.65425 72.6646 6.65425 72.6646 7.19274 71.963C7.67577 71.6023 7.67577 71.6023 8.38338 71.6023C8.38338 62.2034 8.38338 52.8046 8.38338 43.121C8.09149 43.0626 7.7996 43.0042 7.49886 42.9441C6.97004 42.4569 6.80624 42.1722 6.71092 41.4558C6.71463 41.2306 6.71833 41.0055 6.72215 40.7736C6.72315 40.6531 6.72415 40.5326 6.72519 40.4085C6.72913 40.0263 6.738 39.6444 6.74703 39.2623C6.75058 39.0022 6.75381 38.742 6.7567 38.4818C6.76448 37.8463 6.77668 37.211 6.79125 36.5756C6.63589 36.5775 6.48052 36.5795 6.32045 36.5814C6.01271 36.5837 6.01271 36.5837 5.69874 36.586C5.49595 36.5879 5.29315 36.5898 5.08421 36.5918C3.48596 36.5481 2.47528 35.9945 1.33147 34.8902C0.188803 33.5679 0.0430381 32.0594 0.040463 30.3646C0.0395847 30.2246 0.0387063 30.0847 0.0378014 29.9405C0.0352287 29.4798 0.0340137 29.0191 0.0330344 28.5583C0.0325343 28.4 0.0320328 28.2416 0.0315174 28.0784C0.0288703 27.2398 0.027236 26.4012 0.0264697 25.5626C0.025502 24.7014 0.0212533 23.8402 0.0162123 22.979C0.0128978 22.3124 0.011996 21.6458 0.011726 20.9792C0.0111946 20.662 0.00979075 20.3448 0.00745033 20.0276C-0.0238407 15.4594 -0.0238449 15.4594 1.45135 13.7453C2.78869 12.5557 4.67823 12.0624 6.35798 11.5605C6.58988 11.4897 6.82173 11.4187 7.05353 11.3476C7.54941 11.1957 8.04562 11.0451 8.54214 10.8953C9.3423 10.6539 10.1416 10.4099 10.9409 10.1655C11.7811 9.90862 12.6213 9.65193 13.4619 9.39611C16.088 8.59682 18.7102 7.78507 21.3318 6.97084C22.0955 6.73366 22.8594 6.49689 23.6234 6.26024C23.7515 6.22054 23.8796 6.18084 24.0117 6.13994C24.2734 6.05886 24.5351 5.97778 24.7968 5.8967C26.882 5.25068 28.967 4.60393 31.0517 3.95663C32.4312 3.52836 33.8107 3.1004 35.1903 2.67263C36.0307 2.41202 36.871 2.15125 37.7113 1.89009C38.4987 1.64535 39.2863 1.40101 40.074 1.15698C40.3649 1.06675 40.6559 0.97636 40.9468 0.885811C41.346 0.761557 41.7454 0.637852 42.1448 0.51428C42.2609 0.478013 42.377 0.441745 42.4966 0.404379C44.2955 -0.150104 45.657 -0.124686 47.4405 0.421208ZM43.3515 3.86437C43.2214 3.90386 43.0913 3.94335 42.9573 3.98403C42.5249 4.11556 42.093 4.2485 41.661 4.38147C41.3567 4.47441 41.0523 4.56728 40.7479 4.66007C39.9346 4.90828 39.1217 5.15776 38.3089 5.40753C37.6357 5.61424 36.9623 5.8202 36.2889 6.02618C32.7964 7.09468 29.3059 8.16893 25.8279 9.28418C23.2237 10.119 20.6087 10.917 17.9914 11.7098C17.7821 11.7732 17.5728 11.8367 17.3572 11.902C15.2927 12.5277 13.2278 13.1514 11.1616 13.7712C10.4029 13.9989 9.64459 14.2275 8.88628 14.4563C8.53202 14.5629 8.17761 14.6691 7.82307 14.7747C7.33622 14.9198 6.84983 15.0664 6.36351 15.2133C6.22155 15.2552 6.07959 15.297 5.93333 15.3402C4.9643 15.6351 4.19027 15.8877 3.60701 16.7626C3.56987 17.2484 3.55322 17.7165 3.55281 18.2025C3.55134 18.3493 3.54987 18.496 3.54835 18.6472C3.54408 19.1332 3.54253 19.6191 3.54137 20.105C3.53978 20.4428 3.53817 20.7806 3.53653 21.1184C3.53361 21.827 3.53225 22.5356 3.53174 23.2442C3.53078 24.1514 3.52412 25.0585 3.51604 25.9657C3.51077 26.6636 3.50949 27.3615 3.50932 28.0595C3.50857 28.3939 3.50637 28.7283 3.50268 29.0627C3.49792 29.531 3.49877 29.9991 3.50098 30.4675C3.49836 30.6051 3.49574 30.7427 3.49303 30.8845C3.49476 31.0132 3.49649 31.1419 3.49827 31.2745C3.49791 31.385 3.49756 31.4956 3.49719 31.6094C3.67533 32.2043 4.02235 32.6441 4.49153 33.0376C4.99756 33.1446 5.35554 33.1804 5.86047 33.1702C5.99772 33.1716 6.13497 33.173 6.27638 33.1745C6.73808 33.178 7.19941 33.174 7.6611 33.17C7.9947 33.1709 8.32831 33.1724 8.6619 33.1742C9.57999 33.178 10.498 33.1751 11.416 33.1711C12.4056 33.168 13.3951 33.171 14.3847 33.1732C16.3238 33.1766 18.2628 33.1742 20.2019 33.1699C22.4587 33.1651 24.7155 33.1657 26.9723 33.1664C31.1199 33.1676 35.2676 33.163 39.4152 33.1559C43.2026 33.1494 46.9899 33.1473 50.7773 33.1493C51.0205 33.1494 51.2637 33.1495 51.5068 33.1496C51.6271 33.1497 51.7473 33.1497 51.8712 33.1498C52.4763 33.1501 53.0815 33.1504 53.6867 33.1507C53.8061 33.1507 53.9255 33.1508 54.0485 33.1508C57.2119 33.1523 60.3754 33.1503 63.5388 33.1473C63.9922 33.1469 64.4455 33.1465 64.8989 33.146C65.122 33.1458 65.3451 33.1456 65.5749 33.1454C67.149 33.144 68.7232 33.1442 70.2973 33.1448C72.215 33.1456 74.1326 33.1437 76.0502 33.1386C77.0291 33.136 78.008 33.1346 78.987 33.1362C79.8824 33.1376 80.7778 33.1358 81.6732 33.1314C81.9978 33.1303 82.3224 33.1305 82.6471 33.132C83.0871 33.1338 83.5269 33.1312 83.9669 33.1276C84.0941 33.1292 84.2212 33.1307 84.3522 33.1323C85.1973 33.1189 85.6264 32.928 86.2204 32.33C86.4982 31.7743 86.4249 31.1799 86.4258 30.5697C86.4267 30.4244 86.4275 30.2791 86.4285 30.1294C86.431 29.6474 86.4322 29.1654 86.4332 28.6834C86.4342 28.3489 86.4353 28.0144 86.4363 27.6799C86.4381 26.9778 86.4392 26.2758 86.4398 25.5737C86.4408 24.6742 86.445 23.7748 86.45 22.8754C86.4533 22.1841 86.4543 21.4929 86.4545 20.8016C86.4551 20.47 86.4565 20.1385 86.4588 19.8069C86.4618 19.3428 86.4615 18.8787 86.4603 18.4146C86.462 18.2777 86.4636 18.1408 86.4653 17.9998C86.4591 17.2028 86.3625 16.6875 85.8666 16.0549C85.4936 15.8295 85.4936 15.8295 85.047 15.7032C84.8732 15.6463 84.6994 15.5894 84.5203 15.5307C84.2235 15.4399 84.2235 15.4399 83.9207 15.3473C83.5876 15.2425 83.5876 15.2425 83.2478 15.1356C82.4785 14.8952 81.7071 14.6623 80.9354 14.4297C80.4162 14.2726 79.897 14.1152 79.3779 13.9577C79.24 13.9159 79.1022 13.8741 78.9603 13.8311C77.6724 13.4398 76.3871 13.0404 75.1018 12.6406C72.472 11.8228 69.8381 11.0188 67.2034 10.2172C63.8654 9.20164 60.5307 8.17651 57.1991 7.1401C55.4574 6.59832 53.7155 6.05727 51.9728 5.51845C51.3285 5.31918 50.6843 5.11952 50.0403 4.91904C49.4015 4.7202 48.7624 4.52232 48.1231 4.32512C47.8831 4.25092 47.6432 4.17637 47.4035 4.10145C47.0727 3.99818 46.7416 3.89626 46.4104 3.7944C46.2232 3.73635 46.036 3.6783 45.8431 3.61849C44.932 3.3873 44.2184 3.59554 43.3515 3.86437ZM10.3293 36.5756C10.3293 37.6264 10.3293 38.6772 10.3293 39.7599C13.5401 39.7599 16.7509 39.7599 20.0589 39.7599C20.0589 38.7091 20.0589 37.6583 20.0589 36.5756C16.8482 36.5756 13.6374 36.5756 10.3293 36.5756ZM23.597 36.5756C23.5386 38.2686 23.4802 39.9615 23.4201 41.7058C22.8894 42.5903 22.8894 42.5903 21.8279 43.121C21.8279 52.4614 21.8279 61.8019 21.8279 71.4254C22.1782 71.6005 22.5285 71.7756 22.8894 71.9561C23.4201 73.0175 23.4201 73.0175 23.597 77.9707C27.9169 77.9707 32.2369 77.9707 36.6877 77.9707C36.7461 76.161 36.8045 74.3513 36.8646 72.4868C37.7522 71.5993 38.233 71.5756 39.413 71.5738C39.546 71.5729 39.6789 71.572 39.8159 71.5711C40.2559 71.5685 40.6959 71.5673 41.1359 71.5663C41.4419 71.5653 41.748 71.5643 42.0541 71.5633C42.696 71.5614 43.338 71.5604 43.98 71.5598C44.8015 71.5588 45.6229 71.5545 46.4444 71.5495C47.0768 71.5462 47.7092 71.5453 48.3416 71.545C48.6444 71.5445 48.9472 71.5431 49.2499 71.5407C49.6742 71.5377 50.0983 71.5381 50.5226 71.5392C50.647 71.5376 50.7714 71.536 50.8995 71.5343C51.7135 71.5411 52.2719 71.7031 52.9628 72.133C53.8346 73.8767 53.2537 76.0223 53.3166 77.9707C57.1111 77.9707 60.9057 77.9707 64.8152 77.9707C64.8736 76.2194 64.932 74.4681 64.9921 72.6637C65.6997 71.7792 65.6997 71.7792 66.4073 71.4254C66.4073 62.0849 66.4073 52.7445 66.4073 43.121C66.0571 42.9459 65.7068 42.7707 65.3459 42.5903C64.2295 40.9156 64.8801 38.5873 64.8152 36.5756C61.0207 36.5756 57.2261 36.5756 53.3166 36.5756C53.2582 38.4437 53.1998 40.3118 53.1397 42.2365C52.2363 42.9592 51.9054 43.0473 50.8372 43.0357C50.697 43.0369 50.5568 43.0381 50.4123 43.0394C49.9504 43.0425 49.4886 43.0405 49.0267 43.0381C48.7048 43.0386 48.383 43.0392 48.0611 43.0401C47.3872 43.0412 46.7133 43.0397 46.0394 43.0363C45.1762 43.0323 44.3132 43.0346 43.45 43.0389C42.7856 43.0414 42.1212 43.0406 41.4568 43.0388C41.1386 43.0383 40.8203 43.0389 40.5021 43.0405C40.057 43.0423 39.6122 43.0396 39.1671 43.0357C38.9705 43.0378 38.9705 43.0378 38.77 43.04C37.8086 43.0243 37.6863 42.8938 36.8646 42.2365C36.8063 40.3684 36.7479 38.5003 36.6877 36.5756C32.3678 36.5756 28.0478 36.5756 23.597 36.5756ZM40.0489 36.5756C40.0489 37.6264 40.0489 38.6772 40.0489 39.7599C43.318 39.7599 46.5872 39.7599 49.9554 39.7599C49.9554 38.7091 49.9554 37.6583 49.9554 36.5756C46.6863 36.5756 43.4171 36.5756 40.0489 36.5756ZM68.3533 36.5756C68.3533 37.6264 68.3533 38.6772 68.3533 39.7599C71.564 39.7599 74.7748 39.7599 78.0829 39.7599C78.0829 38.7091 78.0829 37.6583 78.0829 36.5756C74.8721 36.5756 71.6613 36.5756 68.3533 36.5756ZM11.9214 43.121C11.9214 52.5198 11.9214 61.9186 11.9214 71.6023C14.0814 71.6023 16.2414 71.6023 18.4668 71.6023C18.4084 62.2034 18.3501 52.8046 18.2899 43.121C16.1883 43.121 14.0867 43.121 11.9214 43.121ZM69.9454 43.121C69.9454 52.4614 69.9454 61.8019 69.9454 71.4254C72.1054 71.4254 74.2653 71.4254 76.4908 71.4254C76.4908 62.0849 76.4908 52.7445 76.4908 43.121C74.3308 43.121 72.1708 43.121 69.9454 43.121ZM10.3293 74.9634C10.3293 75.9558 10.3293 76.9483 10.3293 77.9707C13.5401 77.9707 16.7509 77.9707 20.0589 77.9707C20.0589 76.9783 20.0589 75.9859 20.0589 74.9634C16.8482 74.9634 13.6374 74.9634 10.3293 74.9634ZM40.0489 74.9634C40.0489 75.9558 40.0489 76.9483 40.0489 77.9707C43.318 77.9707 46.5872 77.9707 49.9554 77.9707C49.9554 76.9783 49.9554 75.9859 49.9554 74.9634C46.6863 74.9634 43.4171 74.9634 40.0489 74.9634ZM68.3533 74.9634C68.3533 75.9558 68.3533 76.9483 68.3533 77.9707C71.564 77.9707 74.7748 77.9707 78.0829 77.9707C78.0829 76.9783 78.0829 75.9859 78.0829 74.9634C74.8721 74.9634 71.6613 74.9634 68.3533 74.9634ZM3.60701 81.5088C3.60701 83.085 3.60701 84.6612 3.60701 86.2852C30.9278 86.2852 58.2486 86.2852 86.3973 86.2852C86.3973 84.709 86.3973 83.1328 86.3973 81.5088C59.0765 81.5088 31.7557 81.5088 3.60701 81.5088Z"/>
</mask>
<path d="M47.4405 0.421208C47.6026 0.469224 47.7647 0.517241 47.9317 0.566712C48.4301 0.715054 48.9275 0.866248 49.4247 1.01825C49.5711 1.06264 49.7175 1.10702 49.8683 1.15274C50.8699 1.45662 51.8691 1.76748 52.8681 2.07967C53.1858 2.17859 53.5036 2.27746 53.8213 2.37629C54.4871 2.58344 55.1528 2.79082 55.8184 2.99839C57.5448 3.53673 59.2718 4.07346 60.9987 4.6102C61.1674 4.66266 61.3362 4.71512 61.5101 4.76918C64.1792 5.59884 66.8502 6.42149 69.5252 7.23195C69.6848 7.28031 69.8443 7.32867 70.0087 7.37849C70.6038 7.55886 71.1989 7.7392 71.794 7.91944C73.4218 8.41277 75.0466 8.91551 76.6697 9.42388C77.6612 9.73392 78.6545 10.0376 79.6486 10.3392C80.4194 10.5735 81.1895 10.8097 81.9596 11.0462C82.3414 11.163 82.7235 11.279 83.1058 11.394C83.646 11.5567 84.1852 11.7224 84.7243 11.8888C84.8846 11.9363 85.0449 11.9838 85.2101 12.0327C86.8884 12.5571 88.2627 13.2445 89.2001 14.7731C89.8401 16.0164 89.9619 17.1728 89.961 18.5594C89.9619 18.7706 89.9619 18.7706 89.9628 18.9861C89.9645 19.4494 89.9649 19.9127 89.965 20.3759C89.9656 20.6998 89.9662 21.0237 89.9668 21.3475C89.9679 22.0257 89.9682 22.704 89.9681 23.3822C89.9681 24.2482 89.9705 25.1142 89.9736 25.9803C89.9755 26.6491 89.9759 27.3179 89.9758 27.9868C89.976 28.3059 89.9768 28.625 89.9781 28.9442C89.9799 29.392 89.9794 29.8397 89.9783 30.2875C89.9793 30.4174 89.9803 30.5473 89.9813 30.6812C89.9708 32.4343 89.5686 33.838 88.3867 35.1514C87.1212 36.3709 85.6971 36.6396 83.9739 36.6223C83.8031 36.6178 83.6323 36.6134 83.4563 36.6088C83.2786 36.6064 83.101 36.604 82.918 36.6015C82.4855 36.5954 82.0533 36.5867 81.6209 36.5756C81.6246 36.7308 81.6283 36.886 81.6322 37.0459C81.6443 37.6256 81.6531 38.205 81.6598 38.7847C81.6633 39.0349 81.6682 39.2851 81.6743 39.5352C81.683 39.8962 81.6869 40.257 81.69 40.6181C81.6937 40.8349 81.6974 41.0517 81.7013 41.275C81.6031 42.0177 81.4132 42.3878 80.9133 42.9441C80.563 43.0025 80.2128 43.0609 79.8519 43.121C79.8519 52.5198 79.8519 61.9186 79.8519 71.6023C80.2022 71.6606 80.5524 71.719 80.9133 71.7792C81.6071 72.4969 81.6426 73.19 81.6382 74.1528C81.6376 74.3746 81.6371 74.5964 81.6365 74.8249C81.635 75.0567 81.6335 75.2885 81.632 75.5273C81.6311 75.7635 81.6303 75.9997 81.6296 76.2359C81.6275 76.8142 81.6246 77.3925 81.6209 77.9707C81.8297 77.9661 82.0385 77.9615 82.2536 77.9567C83.031 77.9407 83.8084 77.9305 84.5859 77.9222C84.9218 77.9177 85.2578 77.9117 85.5937 77.904C86.0777 77.8932 86.5614 77.8883 87.0455 77.8844C87.1948 77.8798 87.3441 77.8752 87.4979 77.8705C88.2335 77.8702 88.7275 77.9147 89.3199 78.3742C89.9293 79.0427 89.9567 79.5398 89.9638 80.4221C89.9655 80.5921 89.9672 80.7622 89.969 80.9374C89.9701 81.2114 89.9701 81.2114 89.9713 81.4908C89.9723 81.6797 89.9733 81.8686 89.9743 82.0632C89.976 82.4626 89.9771 82.862 89.9778 83.2614C89.9795 83.8713 89.985 84.4812 89.9906 85.0911C89.9918 85.4794 89.9927 85.8678 89.9934 86.2561C89.9967 86.529 89.9967 86.529 90 86.8074C89.9971 87.7539 89.9914 88.5047 89.4046 89.2925C88.5633 89.8221 87.8319 89.8989 86.8618 89.89C86.7146 89.8908 86.5673 89.8915 86.4156 89.8923C85.921 89.8943 85.4265 89.8924 84.9319 89.8906C84.5742 89.8912 84.2165 89.8921 83.8588 89.8931C82.8749 89.8953 81.8911 89.8942 80.9072 89.8926C79.8465 89.8914 78.7858 89.8932 77.7251 89.8947C75.767 89.8969 73.8089 89.8967 71.8508 89.8953C70.0419 89.8939 68.233 89.8936 66.4242 89.8942C66.3042 89.8943 66.1843 89.8943 66.0607 89.8943C65.5738 89.8945 65.0869 89.8947 64.6001 89.8949C60.0319 89.8965 55.4637 89.895 50.8955 89.8921C46.8362 89.8896 42.7768 89.8899 38.7175 89.8924C34.1577 89.8952 29.5979 89.8964 25.0381 89.8947C24.5521 89.8945 24.0661 89.8944 23.5801 89.8942C23.4006 89.8942 23.4006 89.8942 23.2175 89.8941C21.4097 89.8935 19.6019 89.8942 17.794 89.8955C15.7387 89.8971 13.6833 89.8966 11.6279 89.8938C10.5787 89.8924 9.52957 89.8919 8.48039 89.8936C7.5206 89.8952 6.56083 89.8943 5.60104 89.8915C5.2532 89.8909 4.90536 89.8912 4.55753 89.8925C4.0858 89.8941 3.61419 89.8925 3.14248 89.89C2.93851 89.8919 2.93851 89.8919 2.73042 89.8938C1.71165 89.883 0.97331 89.6661 0.24587 88.9387C0.0659971 88.4079 0.0448686 87.9105 0.040463 87.3528C0.0387634 87.1787 0.0370638 87.0045 0.0353127 86.825C0.0345608 86.638 0.033809 86.4509 0.0330344 86.2582C0.0320261 86.065 0.0310177 85.8718 0.0299788 85.6727C0.0283087 85.2642 0.0271519 84.8557 0.0264697 84.4472C0.0247503 83.8226 0.0192596 83.198 0.0136858 82.5733C0.0125308 82.1763 0.0116019 81.7793 0.0109217 81.3823C0.00873747 81.1956 0.0065533 81.009 0.00430293 80.8166C0.0077686 79.676 0.0922604 79.0249 0.907353 78.1841C1.47633 77.8806 1.93392 77.911 2.576 77.9189C2.69673 77.9197 2.81745 77.9204 2.94183 77.9212C3.32579 77.9242 3.70958 77.9308 4.0935 77.9376C4.35447 77.9402 4.61545 77.9427 4.87643 77.9448C5.51476 77.9507 6.15299 77.9598 6.79125 77.9707C6.78662 77.8155 6.78199 77.6603 6.77722 77.5004C6.76208 76.9208 6.75103 76.3414 6.74267 75.7616C6.73824 75.5114 6.73221 75.2613 6.72453 75.0112C6.65425 72.6646 6.65425 72.6646 7.19274 71.963C7.67577 71.6023 7.67577 71.6023 8.38338 71.6023C8.38338 62.2034 8.38338 52.8046 8.38338 43.121C8.09149 43.0626 7.7996 43.0042 7.49886 42.9441C6.97004 42.4569 6.80624 42.1722 6.71092 41.4558C6.71463 41.2306 6.71833 41.0055 6.72215 40.7736C6.72315 40.6531 6.72415 40.5326 6.72519 40.4085C6.72913 40.0263 6.738 39.6444 6.74703 39.2623C6.75058 39.0022 6.75381 38.742 6.7567 38.4818C6.76448 37.8463 6.77668 37.211 6.79125 36.5756C6.63589 36.5775 6.48052 36.5795 6.32045 36.5814C6.01271 36.5837 6.01271 36.5837 5.69874 36.586C5.49595 36.5879 5.29315 36.5898 5.08421 36.5918C3.48596 36.5481 2.47528 35.9945 1.33147 34.8902C0.188803 33.5679 0.0430381 32.0594 0.040463 30.3646C0.0395847 30.2246 0.0387063 30.0847 0.0378014 29.9405C0.0352287 29.4798 0.0340137 29.0191 0.0330344 28.5583C0.0325343 28.4 0.0320328 28.2416 0.0315174 28.0784C0.0288703 27.2398 0.027236 26.4012 0.0264697 25.5626C0.025502 24.7014 0.0212533 23.8402 0.0162123 22.979C0.0128978 22.3124 0.011996 21.6458 0.011726 20.9792C0.0111946 20.662 0.00979075 20.3448 0.00745033 20.0276C-0.0238407 15.4594 -0.0238449 15.4594 1.45135 13.7453C2.78869 12.5557 4.67823 12.0624 6.35798 11.5605C6.58988 11.4897 6.82173 11.4187 7.05353 11.3476C7.54941 11.1957 8.04562 11.0451 8.54214 10.8953C9.3423 10.6539 10.1416 10.4099 10.9409 10.1655C11.7811 9.90862 12.6213 9.65193 13.4619 9.39611C16.088 8.59682 18.7102 7.78507 21.3318 6.97084C22.0955 6.73366 22.8594 6.49689 23.6234 6.26024C23.7515 6.22054 23.8796 6.18084 24.0117 6.13994C24.2734 6.05886 24.5351 5.97778 24.7968 5.8967C26.882 5.25068 28.967 4.60393 31.0517 3.95663C32.4312 3.52836 33.8107 3.1004 35.1903 2.67263C36.0307 2.41202 36.871 2.15125 37.7113 1.89009C38.4987 1.64535 39.2863 1.40101 40.074 1.15698C40.3649 1.06675 40.6559 0.97636 40.9468 0.885811C41.346 0.761557 41.7454 0.637852 42.1448 0.51428C42.2609 0.478013 42.377 0.441745 42.4966 0.404379C44.2955 -0.150104 45.657 -0.124686 47.4405 0.421208ZM43.3515 3.86437C43.2214 3.90386 43.0913 3.94335 42.9573 3.98403C42.5249 4.11556 42.093 4.2485 41.661 4.38147C41.3567 4.47441 41.0523 4.56728 40.7479 4.66007C39.9346 4.90828 39.1217 5.15776 38.3089 5.40753C37.6357 5.61424 36.9623 5.8202 36.2889 6.02618C32.7964 7.09468 29.3059 8.16893 25.8279 9.28418C23.2237 10.119 20.6087 10.917 17.9914 11.7098C17.7821 11.7732 17.5728 11.8367 17.3572 11.902C15.2927 12.5277 13.2278 13.1514 11.1616 13.7712C10.4029 13.9989 9.64459 14.2275 8.88628 14.4563C8.53202 14.5629 8.17761 14.6691 7.82307 14.7747C7.33622 14.9198 6.84983 15.0664 6.36351 15.2133C6.22155 15.2552 6.07959 15.297 5.93333 15.3402C4.9643 15.6351 4.19027 15.8877 3.60701 16.7626C3.56987 17.2484 3.55322 17.7165 3.55281 18.2025C3.55134 18.3493 3.54987 18.496 3.54835 18.6472C3.54408 19.1332 3.54253 19.6191 3.54137 20.105C3.53978 20.4428 3.53817 20.7806 3.53653 21.1184C3.53361 21.827 3.53225 22.5356 3.53174 23.2442C3.53078 24.1514 3.52412 25.0585 3.51604 25.9657C3.51077 26.6636 3.50949 27.3615 3.50932 28.0595C3.50857 28.3939 3.50637 28.7283 3.50268 29.0627C3.49792 29.531 3.49877 29.9991 3.50098 30.4675C3.49836 30.6051 3.49574 30.7427 3.49303 30.8845C3.49476 31.0132 3.49649 31.1419 3.49827 31.2745C3.49791 31.385 3.49756 31.4956 3.49719 31.6094C3.67533 32.2043 4.02235 32.6441 4.49153 33.0376C4.99756 33.1446 5.35554 33.1804 5.86047 33.1702C5.99772 33.1716 6.13497 33.173 6.27638 33.1745C6.73808 33.178 7.19941 33.174 7.6611 33.17C7.9947 33.1709 8.32831 33.1724 8.6619 33.1742C9.57999 33.178 10.498 33.1751 11.416 33.1711C12.4056 33.168 13.3951 33.171 14.3847 33.1732C16.3238 33.1766 18.2628 33.1742 20.2019 33.1699C22.4587 33.1651 24.7155 33.1657 26.9723 33.1664C31.1199 33.1676 35.2676 33.163 39.4152 33.1559C43.2026 33.1494 46.9899 33.1473 50.7773 33.1493C51.0205 33.1494 51.2637 33.1495 51.5068 33.1496C51.6271 33.1497 51.7473 33.1497 51.8712 33.1498C52.4763 33.1501 53.0815 33.1504 53.6867 33.1507C53.8061 33.1507 53.9255 33.1508 54.0485 33.1508C57.2119 33.1523 60.3754 33.1503 63.5388 33.1473C63.9922 33.1469 64.4455 33.1465 64.8989 33.146C65.122 33.1458 65.3451 33.1456 65.5749 33.1454C67.149 33.144 68.7232 33.1442 70.2973 33.1448C72.215 33.1456 74.1326 33.1437 76.0502 33.1386C77.0291 33.136 78.008 33.1346 78.987 33.1362C79.8824 33.1376 80.7778 33.1358 81.6732 33.1314C81.9978 33.1303 82.3224 33.1305 82.6471 33.132C83.0871 33.1338 83.5269 33.1312 83.9669 33.1276C84.0941 33.1292 84.2212 33.1307 84.3522 33.1323C85.1973 33.1189 85.6264 32.928 86.2204 32.33C86.4982 31.7743 86.4249 31.1799 86.4258 30.5697C86.4267 30.4244 86.4275 30.2791 86.4285 30.1294C86.431 29.6474 86.4322 29.1654 86.4332 28.6834C86.4342 28.3489 86.4353 28.0144 86.4363 27.6799C86.4381 26.9778 86.4392 26.2758 86.4398 25.5737C86.4408 24.6742 86.445 23.7748 86.45 22.8754C86.4533 22.1841 86.4543 21.4929 86.4545 20.8016C86.4551 20.47 86.4565 20.1385 86.4588 19.8069C86.4618 19.3428 86.4615 18.8787 86.4603 18.4146C86.462 18.2777 86.4636 18.1408 86.4653 17.9998C86.4591 17.2028 86.3625 16.6875 85.8666 16.0549C85.4936 15.8295 85.4936 15.8295 85.047 15.7032C84.8732 15.6463 84.6994 15.5894 84.5203 15.5307C84.2235 15.4399 84.2235 15.4399 83.9207 15.3473C83.5876 15.2425 83.5876 15.2425 83.2478 15.1356C82.4785 14.8952 81.7071 14.6623 80.9354 14.4297C80.4162 14.2726 79.897 14.1152 79.3779 13.9577C79.24 13.9159 79.1022 13.8741 78.9603 13.8311C77.6724 13.4398 76.3871 13.0404 75.1018 12.6406C72.472 11.8228 69.8381 11.0188 67.2034 10.2172C63.8654 9.20164 60.5307 8.17651 57.1991 7.1401C55.4574 6.59832 53.7155 6.05727 51.9728 5.51845C51.3285 5.31918 50.6843 5.11952 50.0403 4.91904C49.4015 4.7202 48.7624 4.52232 48.1231 4.32512C47.8831 4.25092 47.6432 4.17637 47.4035 4.10145C47.0727 3.99818 46.7416 3.89626 46.4104 3.7944C46.2232 3.73635 46.036 3.6783 45.8431 3.61849C44.932 3.3873 44.2184 3.59554 43.3515 3.86437ZM10.3293 36.5756C10.3293 37.6264 10.3293 38.6772 10.3293 39.7599C13.5401 39.7599 16.7509 39.7599 20.0589 39.7599C20.0589 38.7091 20.0589 37.6583 20.0589 36.5756C16.8482 36.5756 13.6374 36.5756 10.3293 36.5756ZM23.597 36.5756C23.5386 38.2686 23.4802 39.9615 23.4201 41.7058C22.8894 42.5903 22.8894 42.5903 21.8279 43.121C21.8279 52.4614 21.8279 61.8019 21.8279 71.4254C22.1782 71.6005 22.5285 71.7756 22.8894 71.9561C23.4201 73.0175 23.4201 73.0175 23.597 77.9707C27.9169 77.9707 32.2369 77.9707 36.6877 77.9707C36.7461 76.161 36.8045 74.3513 36.8646 72.4868C37.7522 71.5993 38.233 71.5756 39.413 71.5738C39.546 71.5729 39.6789 71.572 39.8159 71.5711C40.2559 71.5685 40.6959 71.5673 41.1359 71.5663C41.4419 71.5653 41.748 71.5643 42.0541 71.5633C42.696 71.5614 43.338 71.5604 43.98 71.5598C44.8015 71.5588 45.6229 71.5545 46.4444 71.5495C47.0768 71.5462 47.7092 71.5453 48.3416 71.545C48.6444 71.5445 48.9472 71.5431 49.2499 71.5407C49.6742 71.5377 50.0983 71.5381 50.5226 71.5392C50.647 71.5376 50.7714 71.536 50.8995 71.5343C51.7135 71.5411 52.2719 71.7031 52.9628 72.133C53.8346 73.8767 53.2537 76.0223 53.3166 77.9707C57.1111 77.9707 60.9057 77.9707 64.8152 77.9707C64.8736 76.2194 64.932 74.4681 64.9921 72.6637C65.6997 71.7792 65.6997 71.7792 66.4073 71.4254C66.4073 62.0849 66.4073 52.7445 66.4073 43.121C66.0571 42.9459 65.7068 42.7707 65.3459 42.5903C64.2295 40.9156 64.8801 38.5873 64.8152 36.5756C61.0207 36.5756 57.2261 36.5756 53.3166 36.5756C53.2582 38.4437 53.1998 40.3118 53.1397 42.2365C52.2363 42.9592 51.9054 43.0473 50.8372 43.0357C50.697 43.0369 50.5568 43.0381 50.4123 43.0394C49.9504 43.0425 49.4886 43.0405 49.0267 43.0381C48.7048 43.0386 48.383 43.0392 48.0611 43.0401C47.3872 43.0412 46.7133 43.0397 46.0394 43.0363C45.1762 43.0323 44.3132 43.0346 43.45 43.0389C42.7856 43.0414 42.1212 43.0406 41.4568 43.0388C41.1386 43.0383 40.8203 43.0389 40.5021 43.0405C40.057 43.0423 39.6122 43.0396 39.1671 43.0357C38.9705 43.0378 38.9705 43.0378 38.77 43.04C37.8086 43.0243 37.6863 42.8938 36.8646 42.2365C36.8063 40.3684 36.7479 38.5003 36.6877 36.5756C32.3678 36.5756 28.0478 36.5756 23.597 36.5756ZM40.0489 36.5756C40.0489 37.6264 40.0489 38.6772 40.0489 39.7599C43.318 39.7599 46.5872 39.7599 49.9554 39.7599C49.9554 38.7091 49.9554 37.6583 49.9554 36.5756C46.6863 36.5756 43.4171 36.5756 40.0489 36.5756ZM68.3533 36.5756C68.3533 37.6264 68.3533 38.6772 68.3533 39.7599C71.564 39.7599 74.7748 39.7599 78.0829 39.7599C78.0829 38.7091 78.0829 37.6583 78.0829 36.5756C74.8721 36.5756 71.6613 36.5756 68.3533 36.5756ZM11.9214 43.121C11.9214 52.5198 11.9214 61.9186 11.9214 71.6023C14.0814 71.6023 16.2414 71.6023 18.4668 71.6023C18.4084 62.2034 18.3501 52.8046 18.2899 43.121C16.1883 43.121 14.0867 43.121 11.9214 43.121ZM69.9454 43.121C69.9454 52.4614 69.9454 61.8019 69.9454 71.4254C72.1054 71.4254 74.2653 71.4254 76.4908 71.4254C76.4908 62.0849 76.4908 52.7445 76.4908 43.121C74.3308 43.121 72.1708 43.121 69.9454 43.121ZM10.3293 74.9634C10.3293 75.9558 10.3293 76.9483 10.3293 77.9707C13.5401 77.9707 16.7509 77.9707 20.0589 77.9707C20.0589 76.9783 20.0589 75.9859 20.0589 74.9634C16.8482 74.9634 13.6374 74.9634 10.3293 74.9634ZM40.0489 74.9634C40.0489 75.9558 40.0489 76.9483 40.0489 77.9707C43.318 77.9707 46.5872 77.9707 49.9554 77.9707C49.9554 76.9783 49.9554 75.9859 49.9554 74.9634C46.6863 74.9634 43.4171 74.9634 40.0489 74.9634ZM68.3533 74.9634C68.3533 75.9558 68.3533 76.9483 68.3533 77.9707C71.564 77.9707 74.7748 77.9707 78.0829 77.9707C78.0829 76.9783 78.0829 75.9859 78.0829 74.9634C74.8721 74.9634 71.6613 74.9634 68.3533 74.9634ZM3.60701 81.5088C3.60701 83.085 3.60701 84.6612 3.60701 86.2852C30.9278 86.2852 58.2486 86.2852 86.3973 86.2852C86.3973 84.709 86.3973 83.1328 86.3973 81.5088C59.0765 81.5088 31.7557 81.5088 3.60701 81.5088Z" fill="#3572EF" stroke="white" stroke-width="1.2" mask="url(#path-1-inside-1_239_1333)"/>
<path d="M38.2816 57.5097H43.0773C44.5762 57.5097 45.9829 56.9982 46.9919 56.1324C47.5722 55.6473 48.0171 55.0204 48.2836 54.3126H38.2803C37.9412 54.3126 37.6159 54.1779 37.376 53.938C37.1362 53.6982 37.0015 53.3729 37.0015 53.0337C37.0015 52.6946 37.1362 52.3693 37.376 52.1294C37.6159 51.8896 37.9412 51.7549 38.2803 51.7549H48.2836C48.0171 51.0471 47.5722 50.4202 46.9919 49.9351C45.9816 49.0705 44.5762 48.5577 43.0773 48.5577H38.2803C37.9412 48.5577 37.6159 48.423 37.376 48.1832C37.1362 47.9433 37.0015 47.618 37.0015 47.2789C37.0015 46.9397 37.1362 46.6144 37.376 46.3746C37.6159 46.1347 37.9412 46 38.2803 46H43.0761L43.3063 46.0026L43.3958 46H52.3478C52.687 46 53.0122 46.1347 53.2521 46.3746C53.4919 46.6144 53.6267 46.9397 53.6267 47.2789C53.6267 47.618 53.4919 47.9433 53.2521 48.1832C53.0122 48.423 52.687 48.5577 52.3478 48.5577H49.2466C50.0925 49.4483 50.6773 50.5543 50.9372 51.7549H52.3478C52.687 51.7549 53.0122 51.8896 53.2521 52.1294C53.4919 52.3693 53.6267 52.6946 53.6267 53.0337C53.6267 53.3729 53.4919 53.6982 53.2521 53.938C53.0122 54.1779 52.687 54.3126 52.3478 54.3126H50.9372C50.6354 55.7539 49.831 57.0673 48.657 58.0737C47.1479 59.3666 45.1389 60.0675 43.0761 60.0675H41.7486L49.5982 66.7687C49.847 66.9916 49.9987 67.3029 50.0209 67.6361C50.0431 67.9694 49.934 68.2981 49.717 68.552C49.5 68.8059 49.1924 68.9648 48.8597 68.9948C48.5271 69.0248 48.1959 68.9235 47.937 68.7126L37.4542 59.7644L37.4414 59.7529C37.2155 59.5578 37.0652 59.2897 37.0169 58.9952C36.9685 58.7007 37.025 58.3985 37.1767 58.1415C37.2897 57.9489 37.4511 57.7892 37.645 57.6784C37.8388 57.5676 38.0583 57.5094 38.2816 57.5097Z" fill="#3572EF"/>
<path d="M53.6704 13.5783C55.1679 14.8044 55.1679 14.8044 55.4394 15.3474C55.504 16.1356 55.5347 16.5759 55.174 17.2822C54.6615 17.7051 54.3319 17.7862 53.6876 17.8682C52.8597 17.7695 52.2065 17.1358 51.5545 16.6534C49.1168 14.8549 46.6397 14.0284 43.5759 14.4076C41.3641 14.777 39.4484 15.632 37.8044 17.1827C37.1557 17.763 36.671 17.838 35.8032 17.824C35.1627 17.5455 34.9554 17.3483 34.5649 16.7626C34.4808 15.8542 34.5777 15.3807 35.0956 14.6397C40.0137 9.7128 48.2108 9.43998 53.6704 13.5783Z" fill="#3572EF"/>
<path d="M49.2485 17.9719C50.1656 18.596 50.7863 19.0617 51.1937 20.1237C51.1925 20.8021 50.9782 21.3687 50.5525 21.8927C49.9104 22.1631 49.3878 22.2309 48.7171 22.0696C48.1901 21.7832 47.7058 21.4657 47.2162 21.1195C46.2255 20.478 45.0863 20.5715 43.9407 20.6544C43.2089 20.8824 42.6697 21.1999 42.0611 21.6495C41.5643 22.0138 41.2156 22.2465 40.5796 22.2465C39.4368 21.8592 39.4368 21.8592 38.9875 21.1851C38.8372 20.499 38.8258 19.8661 39.1899 19.2509C41.6703 16.5412 46.2019 16.1098 49.2485 17.9719Z" fill="#3572EF"/>
<path d="M45.7098 23.308C46.2069 23.6253 46.5075 23.842 46.7712 24.3694C46.861 25.1476 46.8168 25.5267 46.4284 26.2158C45.7947 26.746 45.4804 26.8187 44.676 26.761C44.0425 26.6084 43.7752 26.3095 43.41 25.7846C43.1793 25.107 43.1962 24.8192 43.4543 24.1482C44.0225 23.2553 44.7119 23.1446 45.7098 23.308Z" fill="#3572EF"/>
</svg>
