<svg width="90" height="90" viewBox="0 0 90 90" fill="none" xmlns="http://www.w3.org/2000/svg">
<g clip-path="url(#clip0_239_1339)">
<path d="M15.3063 4.96524L15.3069 4.9652C17.3972 4.79412 20.0717 4.79412 23.7974 4.79412H23.8235H27.3547C27.9241 4.79412 28.4703 4.56791 28.8729 4.16526C29.2756 3.76261 29.5018 3.2165 29.5018 2.64706C29.5018 2.07762 29.2756 1.53151 28.8729 1.12886C28.4703 0.726208 27.9241 0.5 27.3547 0.5H23.7071C20.094 0.5 17.2482 0.500385 14.9599 0.6889L14.9588 0.68899C12.6139 0.876996 10.6696 1.27607 8.89842 2.17685C6.00445 3.65154 3.65154 6.00445 2.17685 8.89842L15.3063 4.96524ZM15.3063 4.96524C13.232 5.1372 11.91 5.46328 10.8488 6.00248L10.8483 6.00273M15.3063 4.96524L10.8483 6.00273M10.8483 6.00273C8.762 7.06578 7.06578 8.762 6.00273 10.8483L6.00248 10.8488M10.8483 6.00273L6.00248 10.8488M6.00248 10.8488C5.46334 11.9099 5.13721 13.2265 4.96523 15.3064L4.9652 15.3069M6.00248 10.8488L4.9652 15.3069M4.9652 15.3069C4.79412 17.3972 4.79412 20.0717 4.79412 23.7974V23.8235V27.3547C4.79412 27.9241 4.56791 28.4703 4.16526 28.8729C3.76261 29.2756 3.2165 29.5018 2.64706 29.5018C2.07762 29.5018 1.53151 29.2756 1.12886 28.8729C0.726208 28.4703 0.5 27.9241 0.5 27.3547V23.7071C0.5 20.094 0.500385 17.2482 0.688901 14.9599L0.688989 14.9588M4.9652 15.3069L0.688989 14.9588M0.688989 14.9588C0.876984 12.6141 1.27602 10.6699 2.17668 8.89876L0.688989 14.9588ZM74.6936 4.96523L74.6931 4.9652C72.6028 4.79412 69.9283 4.79412 66.2026 4.79412H66.1765H62.6453C62.0759 4.79412 61.5297 4.56791 61.1271 4.16526C60.7244 3.76261 60.4982 3.2165 60.4982 2.64706C60.4982 2.07762 60.7244 1.53151 61.1271 1.12886C61.5297 0.726208 62.0759 0.5 62.6453 0.5H66.2929C69.906 0.5 72.7517 0.500385 75.0401 0.688901L75.0412 0.688989C77.3859 0.876984 79.3301 1.27602 81.1012 2.17668C83.9954 3.65135 86.3484 6.00433 87.8231 8.89842C88.7239 10.6696 89.123 12.6139 89.311 14.9588L89.3111 14.9599C89.4996 17.2482 89.5 20.094 89.5 23.7071V27.3547C89.5 27.9241 89.2738 28.4703 88.8711 28.8729C88.4685 29.2756 87.9224 29.5018 87.3529 29.5018C86.7835 29.5018 86.2374 29.2756 85.8347 28.8729C85.4321 28.4703 85.2059 27.9241 85.2059 27.3547V23.8235V23.7972C85.2059 20.0715 85.2059 17.3972 85.0348 15.3069L85.0348 15.3063C84.8628 13.232 84.5367 11.91 83.9975 10.8488L83.9973 10.8483C82.9342 8.762 81.238 7.06578 79.1517 6.00273L79.1512 6.00248C78.0901 5.46334 76.7735 5.13721 74.6936 4.96523ZM4.9652 74.6931L4.96524 74.6937C5.1372 76.768 5.46328 78.09 6.00248 79.1512L6.00273 79.1517C7.06578 81.238 8.762 82.9342 10.8483 83.9973L10.8488 83.9975C11.9099 84.5367 13.2265 84.8628 15.3064 85.0348L15.307 85.0348C17.4026 85.2059 20.0717 85.2059 23.7977 85.2059H23.8235H27.3547C27.9241 85.2059 28.4703 85.4321 28.8729 85.8347C29.2756 86.2374 29.5018 86.7835 29.5018 87.3529C29.5018 87.9224 29.2756 88.4685 28.8729 88.8711C28.4703 89.2738 27.9241 89.5 27.3547 89.5H23.7071C20.094 89.5 17.2482 89.4996 14.9599 89.3111L14.9588 89.311C12.6139 89.123 10.6696 88.7239 8.89842 87.8231C6.00433 86.3484 3.65135 83.9954 2.17668 81.1012C1.27603 79.3301 0.876982 77.3859 0.68899 75.0412L0.6889 75.0401C0.500385 72.7517 0.5 69.906 0.5 66.2929V62.6453C0.5 62.0759 0.726208 61.5297 1.12886 61.1271C1.53151 60.7244 2.07762 60.4982 2.64706 60.4982C3.2165 60.4982 3.76261 60.7244 4.16526 61.1271C4.56791 61.5297 4.79412 62.0759 4.79412 62.6453V66.1765V66.2026C4.79412 69.9283 4.79412 72.6028 4.9652 74.6931ZM89.3111 75.04L89.311 75.0412C89.123 77.3861 88.7239 79.3304 87.8231 81.1016C86.3485 83.9955 83.9955 86.3485 81.1016 87.8231C79.3304 88.7239 77.3861 89.123 75.0412 89.311L75.04 89.3111C72.757 89.4996 69.9061 89.5 66.2929 89.5H62.6453C62.0759 89.5 61.5297 89.2738 61.1271 88.8711C60.7244 88.4685 60.4982 87.9224 60.4982 87.3529C60.4982 86.7835 60.7244 86.2374 61.1271 85.8347C61.5297 85.4321 62.0759 85.2059 62.6453 85.2059H66.1765H66.2028C69.9285 85.2059 72.6028 85.2059 74.6931 85.0348L74.6937 85.0348C76.768 84.8628 78.09 84.5367 79.1512 83.9975L79.1517 83.9973C81.238 82.9342 82.9342 81.238 83.9973 79.1517L83.9975 79.1512C84.5367 78.0901 84.8628 76.7735 85.0348 74.6936L85.0348 74.693C85.2059 72.5974 85.2059 69.9283 85.2059 66.2023V66.1765V62.6453C85.2059 62.0759 85.4321 61.5297 85.8347 61.1271C86.2374 60.7244 86.7835 60.4982 87.3529 60.4982C87.9224 60.4982 88.4685 60.7244 88.8711 61.1271C89.2738 61.5297 89.5 62.0759 89.5 62.6453V66.2929C89.5 69.9061 89.4996 72.757 89.3111 75.04Z" fill="#3572EF" stroke="white"/>
<path d="M22.8262 23H29.3262V29.5H22.8262V23Z" fill="#3572EF" stroke="#3572EF"/>
<path d="M34.0756 18.75V18.25H33.5756H18.5756H18.0756V18.75V33.75V34.25H18.5756H33.5756H34.0756V33.75V18.75ZM36.8255 15.5V37H15.3256V15.5H36.8255ZM22.8256 66.9999V60.4999H29.3256V66.9999H22.8256Z" fill="#3572EF" stroke="#3572EF"/>
<path d="M18.5756 55.7499H18.0756V56.2499V71.2499V71.7499H18.5756H33.5756H34.0756V71.2499V56.2499V55.7499H33.5756H18.5756ZM36.8256 52.9999V74.4999H15.3256V52.9999H36.8256ZM60.3255 23H66.8255V29.5H60.3255V23Z" fill="#3572EF" stroke="#3572EF"/>
<path d="M71.5755 18.75V18.25H71.0755H56.0755H55.5755V18.75V33.75V34.25H56.0755H71.0755H71.5755V33.75V18.75ZM44.8255 19.25H45.3255V18.75V15.5H48.0755V22H44.8255H44.3255V22.5V29.5H41.5755V19.25H44.8255ZM45.3255 37V30.5H48.0755V37H45.3255ZM37.8256 44.4999V41.7499H41.0755H41.5755V41.2499V38H44.3255V44.9999V45.4999H44.8255H48.5755H49.0755V44.9999V41.7499H66.8255V44.4999H52.3255H51.8255V44.9999V48.2499H41.5755V44.9999V44.4999H41.0755H37.8256ZM36.8256 45.4999V48.2499H22.8256V44.9999V44.4999H22.3256H18.5756H18.0756V44.9999V48.2499H15.3256V41.7499H25.5756V44.9999V45.4999H26.0756H36.8256ZM71.0755 52.9999H74.3255V55.7499H67.8255V49.2499H70.5755V52.4999V52.9999H71.0755ZM64.0755 60.4999H74.3255V63.2499H67.3255H66.8255V63.7499V66.9999H64.0755V60.4999ZM63.0755 59.4999H60.3255V56.7499H63.0755V59.4999ZM56.5755 60.4999H59.3255V66.9999H49.0755V64.2499H56.0755H56.5755V63.7499V60.4999ZM59.3255 55.7499H56.5755V49.2499H63.0755V51.9999H59.8255H59.3255V52.4999V55.7499ZM49.0755 56.2499V55.7499H48.5755H41.5755V52.9999H51.8255V59.4999H49.0755V56.2499ZM52.8255 37V15.5H74.3255V37H52.8255ZM74.3255 48.2499H71.5755V41.7499H74.3255V48.2499Z" fill="#3572EF" stroke="#3572EF"/>
<path d="M44.8263 71.75H59.3263V74.5H41.5764V60.5H44.3263V71.25V71.75H44.8263ZM71.5763 71.25V68H74.3263V74.5H64.0763V71.75H71.0763H71.5763V71.25Z" fill="#3572EF" stroke="#3572EF"/>
</g>
<defs>
<clipPath id="clip0_239_1339">
<rect width="90" height="90" fill="white"/>
</clipPath>
</defs>
</svg>
