<svg width="90" height="79" viewBox="0 0 90 79" fill="none" xmlns="http://www.w3.org/2000/svg">
<path d="M22.0033 0.0436777C22.5224 0.0412183 23.0413 0.0333619 23.5603 0.0253793C23.8869 0.0240737 24.2135 0.0227681 24.5499 0.0214229C25.0006 0.0178732 25.0006 0.0178732 25.4603 0.0142519C26.2126 0.104508 26.2126 0.104508 26.9722 0.864139C26.9722 2.53533 26.9722 4.20652 26.9722 5.92835C38.8377 5.92835 50.7031 5.92835 62.9281 5.92835C62.9281 4.25716 62.9281 2.58597 62.9281 0.864139C63.6878 0.104508 63.6878 0.104508 64.436 0.0102336C64.7348 0.0109884 65.0337 0.0117433 65.3415 0.0125209C65.667 0.0126841 65.9924 0.0128473 66.3277 0.0130155C66.497 0.0151167 66.6662 0.0172179 66.8407 0.0193828C67.3575 0.0253585 67.8741 0.0245884 68.391 0.0229065C70.9295 0.0369104 70.9295 0.0369104 71.7905 0.610929C72.0239 1.31122 72.0736 1.72071 72.0684 2.44176C72.0676 2.64495 72.0668 2.84813 72.066 3.05748C72.0638 3.2685 72.0617 3.47952 72.0595 3.69693C72.0584 3.91089 72.0573 4.12485 72.0561 4.34529C72.0531 4.87298 72.0486 5.40067 72.0437 5.92835C72.3082 5.92413 72.3082 5.92413 72.578 5.91983C74.2467 5.89437 75.9154 5.87514 77.5843 5.86275C78.4421 5.85617 79.2997 5.84725 80.1575 5.83284C81.1456 5.81743 82.1335 5.81029 83.1217 5.80471C83.4269 5.79818 83.7322 5.79164 84.0467 5.78491C85.8461 5.78431 87.1379 5.9558 88.5024 7.1944C89.6283 8.63782 89.8066 9.74029 89.8108 11.5217C89.8123 11.7328 89.8138 11.944 89.8153 12.1616C89.8199 12.8719 89.8226 13.5821 89.8253 14.2924C89.8282 14.8006 89.8311 15.3089 89.8341 15.8171C89.8433 17.4884 89.8497 19.1598 89.8555 20.8312C89.8565 21.1155 89.8575 21.3997 89.8585 21.6926C89.8677 24.3733 89.8757 27.054 89.8811 29.7347C89.8881 33.1644 89.9009 36.5939 89.9217 40.0236C89.9358 42.4346 89.9432 44.8457 89.9455 47.2568C89.9471 48.697 89.9517 50.1371 89.9636 51.5773C89.9747 52.9327 89.9773 54.2878 89.9736 55.6431C89.9737 56.14 89.9768 56.6369 89.9832 57.1338C90.0346 61.3566 90.0346 61.3566 88.9672 62.6059C88.6514 62.8824 88.3279 63.1503 87.996 63.4071C87.7334 63.6733 87.4743 63.9429 87.2191 64.2162C86.9572 64.4796 86.6946 64.7423 86.4314 65.0045C86.2137 65.2229 86.2137 65.2229 85.9915 65.4457C85.5192 65.9191 85.046 66.3916 84.5727 66.8641C84.2415 67.1955 83.9103 67.5269 83.5791 67.8584C82.8889 68.549 82.1983 69.2391 81.5073 69.9289C80.6206 70.8141 79.7351 71.7004 78.8499 72.5871C78.1681 73.2699 77.4857 73.952 76.803 74.634C76.4761 74.9608 76.1492 75.2878 75.8226 75.615C75.3681 76.0701 74.9128 76.5245 74.4573 76.9786C74.3222 77.1142 74.1871 77.2498 74.0479 77.3895C73.1398 78.2924 72.7102 78.6311 71.4376 78.6331C71.2024 78.634 70.9671 78.635 70.7247 78.636C70.4645 78.6358 70.2043 78.6356 69.9362 78.6353C69.6612 78.6361 69.3861 78.6368 69.1027 78.6376C68.1747 78.6398 67.2467 78.6402 66.3187 78.6406C65.6558 78.6417 64.9929 78.643 64.3301 78.6444C62.5246 78.6478 60.7191 78.6494 58.9136 78.6505C57.7863 78.6512 56.659 78.6522 55.5316 78.6534C52.4107 78.6565 49.2898 78.6591 46.1688 78.6599C45.8691 78.66 45.8691 78.66 45.5632 78.6601C45.3629 78.6601 45.1626 78.6602 44.9562 78.6603C44.5502 78.6604 44.1442 78.6605 43.7383 78.6606C43.4362 78.6607 43.4362 78.6607 43.1281 78.6608C39.867 78.6618 36.6059 78.6662 33.3448 78.6721C29.997 78.6781 26.6493 78.6812 23.3015 78.6815C21.4217 78.6818 19.542 78.6832 17.6622 78.6878C15.8935 78.6921 14.1249 78.6925 12.3563 78.6903C11.7071 78.6901 11.0579 78.6912 10.4087 78.6937C9.52235 78.6969 8.63611 78.6955 7.74974 78.6928C7.49293 78.6949 7.23612 78.6969 6.97153 78.699C4.72299 78.6833 3.04007 78.2162 1.39797 76.5741C0.518041 75.3231 0.101482 74.185 0.0979329 72.6654C0.0968041 72.4406 0.0956765 72.2158 0.0945135 71.9841C0.0945602 71.7382 0.0946064 71.4923 0.0946545 71.2389C0.0937235 70.9769 0.0927932 70.7148 0.091834 70.4448C0.0890384 69.5638 0.0880653 68.6829 0.087101 67.802C0.0855148 67.1715 0.0838318 66.541 0.0820589 65.9105C0.0771903 64.0166 0.0745065 62.1228 0.0722529 60.2289C0.0711424 59.3367 0.069783 58.4445 0.0684568 57.5524C0.0641499 54.5861 0.0604795 51.6198 0.058645 48.6535C0.0581614 47.884 0.0576758 47.1146 0.0571806 46.3451C0.0569969 46.0582 0.0569972 46.0582 0.0568097 45.7656C0.0547078 42.6674 0.0482913 39.5693 0.0400684 36.4711C0.0316923 33.2893 0.0271342 30.1075 0.0263252 26.9257C0.0257772 25.1396 0.0235657 23.3536 0.0170929 21.5675C0.0110182 19.8874 0.0101218 18.2073 0.012727 16.5271C0.0128526 15.9106 0.0112461 15.2941 0.00777567 14.6776C0.00330119 13.8356 0.00508266 12.9938 0.00841704 12.1517C0.00563951 11.9081 0.00286169 11.6644 0 11.4134C0.0146057 9.88447 0.271887 8.72292 1.14476 7.44761C2.31451 6.33636 3.25247 5.86373 4.86354 5.87086C5.15243 5.8709 5.44131 5.87093 5.73895 5.87097C6.20466 5.87489 6.20466 5.87489 6.67979 5.87889C6.99871 5.87961 7.31763 5.88033 7.64622 5.88107C8.49211 5.88342 9.33793 5.88797 10.1838 5.89358C11.0477 5.89877 11.9117 5.90107 12.7756 5.90362C14.4693 5.90921 16.163 5.91768 17.8567 5.92835C17.8508 5.61109 17.8449 5.29382 17.8389 4.96694C17.8341 4.54888 17.8295 4.13082 17.825 3.71276C17.8208 3.50386 17.8165 3.29496 17.8121 3.07973C17.8105 2.87736 17.8089 2.67499 17.8072 2.46649C17.8046 2.28084 17.8019 2.0952 17.7992 1.90393C17.8659 1.28449 18.0354 0.885398 18.3631 0.357718C19.4321 -0.176799 20.8273 0.0470582 22.0033 0.0436777ZM20.642 2.88982C20.642 5.73085 20.642 8.57187 20.642 11.499C21.8118 11.499 22.9816 11.499 24.1869 11.499C24.1869 8.65796 24.1869 5.81694 24.1869 2.88982C23.0171 2.88982 21.8473 2.88982 20.642 2.88982ZM65.7135 2.88982C65.7135 5.73085 65.7135 8.57187 65.7135 11.499C66.8833 11.499 68.0531 11.499 69.2584 11.499C69.2584 8.65796 69.2584 5.81694 69.2584 2.88982C68.0886 2.88982 66.9187 2.88982 65.7135 2.88982ZM2.91724 9.97972C2.91724 14.0741 2.91724 18.1685 2.91724 22.387C30.659 22.387 58.4007 22.387 86.9831 22.387C86.9831 18.2926 86.9831 14.1982 86.9831 9.97972C85.927 8.69854 85.927 8.69854 85.0457 8.56142C84.8056 8.56423 84.5656 8.56704 84.3182 8.56994C84.0445 8.57003 83.7709 8.57013 83.4889 8.57023C83.1964 8.57676 82.9038 8.5833 82.6024 8.59003C82.3007 8.59182 81.999 8.59361 81.6881 8.59546C80.7257 8.60254 79.7636 8.61843 78.8013 8.63454C78.1483 8.64089 77.4953 8.64667 76.8424 8.65185C75.2427 8.6658 73.6432 8.68698 72.0437 8.71367C72.0313 9.01265 72.0189 9.31164 72.0061 9.61969C71.9871 10.014 71.968 10.4083 71.9488 10.8027C71.9409 10.9995 71.9331 11.1963 71.925 11.3991C71.9152 11.59 71.9054 11.781 71.8954 11.9777C71.8874 12.1527 71.8794 12.3278 71.8712 12.5081C71.7905 13.0182 71.7905 13.0182 71.2841 14.0311C68.6102 14.0311 65.9363 14.0311 63.1813 14.0311C63.0978 12.2763 63.0142 10.5216 62.9281 8.71367C51.0627 8.71367 39.1972 8.71367 26.9722 8.71367C26.8887 10.4684 26.8051 12.2232 26.719 14.0311C25.5742 14.0485 24.4298 14.0636 23.285 14.0728C22.8954 14.0766 22.5059 14.0818 22.1164 14.0884C21.5569 14.0976 20.9977 14.1019 20.4382 14.1053C20.1763 14.1112 20.1763 14.1112 19.9091 14.1172C19.4176 14.1173 19.4176 14.1173 18.6163 14.0311C18.1063 13.2661 18.0419 13.0672 18.005 12.2003C17.9903 11.8955 17.9903 11.8955 17.9754 11.5845C17.9675 11.3735 17.9597 11.1625 17.9516 10.9451C17.9369 10.6241 17.9369 10.6241 17.9219 10.2967C17.8981 9.76913 17.8771 9.24141 17.8567 8.71367C15.9326 8.68156 14.0086 8.65939 12.0843 8.64412C11.4297 8.63775 10.7752 8.62911 10.1207 8.61816C9.17974 8.6028 8.23903 8.59562 7.29798 8.59003C7.00542 8.58349 6.71287 8.57696 6.41145 8.57023C6.00097 8.57008 6.00097 8.57008 5.58219 8.56994C5.3421 8.56713 5.102 8.56431 4.85463 8.56142C3.97339 8.69854 3.97339 8.69854 2.91724 9.97972ZM2.91724 25.1724C2.89635 33.0739 2.87546 40.9755 2.85393 49.1166C2.84471 51.6121 2.83549 54.1077 2.82599 56.6788C2.8226 58.9146 2.8226 58.9146 2.82057 61.1503C2.81962 62.1466 2.81582 63.1429 2.8103 64.1392C2.80336 65.4103 2.80128 66.6813 2.80271 67.9524C2.80241 68.4187 2.8004 68.8851 2.79649 69.3514C2.79144 69.982 2.79267 70.6122 2.79544 71.2428C2.79101 71.5157 2.79101 71.5157 2.7865 71.7942C2.80287 73.1843 3.1219 73.9574 3.93008 75.0548C5.22276 76.0087 6.56076 75.9195 8.10254 75.9058C8.36958 75.9065 8.63661 75.9071 8.91174 75.9078C9.80637 75.909 10.7009 75.9048 11.5955 75.9007C12.2369 75.9005 12.8782 75.9006 13.5196 75.901C14.9003 75.9012 16.2809 75.8991 17.6616 75.8948C19.6578 75.8886 21.6541 75.8866 23.6503 75.8857C26.8892 75.884 30.1281 75.879 33.367 75.8718C36.513 75.8648 39.6589 75.8594 42.8048 75.8562C43.0958 75.8559 43.0958 75.8559 43.3926 75.8556C44.3658 75.8546 45.339 75.8536 46.3121 75.8527C54.3829 75.8448 62.4537 75.8314 70.5245 75.8145C70.5267 75.5984 70.5267 75.5984 70.529 75.378C70.5452 73.8703 70.5666 72.3627 70.5909 70.855C70.5993 70.2934 70.6064 69.7318 70.6122 69.1701C70.6207 68.3598 70.634 67.5497 70.6481 66.7394C70.6497 66.4909 70.6513 66.2423 70.653 65.9862C70.6925 64.111 70.9407 62.4419 72.0754 60.9067C75.9491 58.0435 83.8356 59.4227 86.9831 59.3558C86.9831 48.0752 86.9831 36.7947 86.9831 25.1724C59.2414 25.1724 31.4996 25.1724 2.91724 25.1724ZM73.8162 62.9007C73.1354 63.9684 73.2446 65.17 73.2603 66.3952C73.261 66.607 73.2617 66.8188 73.2625 67.037C73.2653 67.7103 73.2717 68.3836 73.2781 69.0569C73.2807 69.5147 73.283 69.9725 73.285 70.4303C73.2906 71.5498 73.2993 72.6693 73.3098 73.7888C74.7548 72.5867 76.0885 71.3002 77.4155 69.9698C77.6322 69.7534 77.8489 69.537 78.0721 69.314C78.5268 68.8595 78.9811 68.4047 79.4351 67.9497C80.1337 67.2497 80.8336 66.5512 81.5337 65.8527C81.9757 65.4105 82.4177 64.9682 82.8596 64.5258C83.07 64.3159 83.2805 64.106 83.4973 63.8897C83.6893 63.6969 83.8813 63.5041 84.0791 63.3055C84.2492 63.1352 84.4192 62.9649 84.5945 62.7894C84.986 62.4526 84.986 62.4526 84.9575 62.1411C83.615 62.1223 82.2725 62.1085 80.9299 62.0994C80.4736 62.0956 80.0173 62.0904 79.561 62.0838C78.9035 62.0745 78.2462 62.0703 77.5886 62.0669C77.386 62.063 77.1834 62.0591 76.9746 62.055C75.7444 62.0547 74.8579 62.1732 73.8162 62.9007Z" fill="#3572EF"/>
<path d="M55.0785 37.8329C56.7021 38.7938 56.7021 38.7938 57.1042 39.3522C56.9991 40.2588 56.6189 40.6912 55.9842 41.3231C55.7985 41.5099 55.6128 41.6966 55.4214 41.889C55.2164 42.0914 55.0113 42.2937 54.8 42.5022C54.5851 42.7172 54.3702 42.9323 54.1488 43.1538C53.5595 43.7426 52.9686 44.3297 52.3769 44.9161C51.7588 45.5294 51.1429 46.1449 50.5267 46.7602C49.3597 47.9248 48.1908 49.0875 47.0212 50.2494C45.6897 51.5725 44.3604 52.8977 43.0312 54.223C40.2971 56.9492 37.5602 59.6727 34.8216 62.3943C33.9808 61.9943 33.3833 61.6147 32.796 60.8751C32.8822 59.9691 33.2857 59.5316 33.9159 58.9041C34.1016 58.7174 34.2873 58.5306 34.4787 58.3382C34.6838 58.1359 34.8888 57.9335 35.1001 57.725C35.4225 57.4025 35.4225 57.4025 35.7514 57.0735C36.3406 56.4847 36.9315 55.8976 37.5232 55.3112C38.1413 54.6978 38.7573 54.0823 39.3734 53.467C40.5404 52.3024 41.7093 51.1398 42.8789 49.9778C44.2104 48.6548 45.5398 47.3296 46.869 46.0042C49.6031 43.278 52.3399 40.5546 55.0785 37.8329Z" fill="#3572EF"/>
<path d="M56.5474 53.3549C57.7036 54.2482 58.4191 55.4509 58.8767 56.8237C59.0568 58.9992 58.7866 60.5903 57.4049 62.331C56.1402 63.7068 54.8326 64.0635 53.0054 64.1826C51.1619 64.1417 49.7667 63.4423 48.4951 62.1411C47.4117 60.596 47.0473 59.2086 47.229 57.3301C47.5826 55.6561 48.508 54.4168 49.7611 53.2788C51.8529 51.9663 54.4451 52.1734 56.5474 53.3549ZM50.1568 57.0294C49.9271 57.9226 49.9996 58.7394 50.2675 59.609C50.9839 60.5243 51.6622 61.1041 52.7996 61.3815C54.0354 61.33 54.703 60.9729 55.585 60.1154C56.2243 59.2326 56.2015 58.3942 56.0914 57.3301C55.6829 56.5569 55.324 56.0037 54.6354 55.4627C52.5381 54.8801 51.4742 55.3684 50.1568 57.0294Z" fill="#3572EF"/>
<path d="M40.6455 37.3265C41.9345 38.6699 42.5998 39.9865 42.7503 41.8526C42.685 43.763 41.9121 45.1433 40.6129 46.5182C39.2822 47.7267 37.8341 47.8641 36.1045 47.81C34.5643 47.6079 33.3323 47.0658 32.3103 45.8773C31.1098 44.1293 30.864 42.721 31.0235 40.6182C31.5421 38.8898 32.5413 37.5393 34.0779 36.5985C36.2596 35.763 38.7263 35.8892 40.6455 37.3265ZM34.8217 39.6054C34.1154 40.4232 33.8354 40.9389 33.6822 42.0109C33.8544 43.216 34.3018 44.0079 35.2648 44.7645C36.3142 45.056 37.3362 45.2113 38.3112 44.6745C39.0273 44.1042 39.6561 43.5374 39.8859 42.6439C39.8662 41.4055 39.8298 40.8701 39.0629 39.8902C37.5374 38.7114 36.4826 38.5885 34.8217 39.6054Z" fill="#3572EF"/>
</svg>
