<svg width="80" height="90" viewBox="0 0 80 90" fill="none" xmlns="http://www.w3.org/2000/svg">
<path fill-rule="evenodd" clip-rule="evenodd" d="M75.8004 75.1289V83.875C75.8004 85.5586 75.1129 87.0898 74.0035 88.1953C72.8941 89.3047 71.3668 89.9922 69.6832 89.9922L6.1172 89.9961C4.4336 89.9961 2.9024 89.3086 1.7969 88.1992C0.6875 87.0898 0 85.5625 0 83.8789V36.3009C0 34.4845 0.69141 32.8165 1.8281 31.5548C2.50388 30.8048 3.3359 30.1954 4.2734 29.7853L2.3086 26.9962C1.46094 25.797 1.1836 24.3595 1.41798 23.0157C1.65236 21.668 2.39845 20.4063 3.60158 19.5587L29.9256 1.01572C29.9725 0.976657 30.0232 0.9415 30.074 0.914159C31.2576 0.113379 32.6599 -0.148341 33.9724 0.0782193C35.2927 0.308689 36.5271 1.02353 37.3708 2.17982C37.4099 2.22669 37.445 2.27748 37.4763 2.32826L56.3983 29.1913H63.996C65.5116 29.1913 66.8905 29.8084 67.8866 30.8085C68.8827 31.8045 69.5038 33.1835 69.5038 34.6991V40.6874H69.6835C71.3671 40.6874 72.8983 41.3749 74.0038 42.4843C75.1132 43.5937 75.8007 45.121 75.8007 46.8046V55.5507C76.664 55.66 77.4374 56.0585 78.0234 56.6405C78.7148 57.3319 79.1445 58.2889 79.1445 59.3397V71.3357C79.1445 72.3865 78.7148 73.3435 78.0234 74.0349C77.4374 74.6208 76.664 75.0192 75.8007 75.1247L75.8004 75.1289ZM61.5194 60.8129C60.2694 60.8129 59.1366 61.3207 58.3202 62.1371C57.4999 62.9574 56.996 64.0863 56.996 65.3363C56.996 66.5863 57.5038 67.7191 58.3202 68.5355C59.1405 69.3558 60.2694 69.8597 61.5194 69.8597C62.7694 69.8597 63.9022 69.3519 64.7186 68.5355C65.5389 67.7152 66.0428 66.5863 66.0428 65.3363C66.0428 64.0863 65.535 62.9535 64.7186 62.1371C63.8983 61.3168 62.7694 60.8129 61.5194 60.8129ZM62.7928 64.0668C62.4686 63.7426 62.0194 63.5395 61.5194 63.5395C61.0233 63.5395 60.5741 63.7387 60.246 64.0668C59.9218 64.391 59.7187 64.8402 59.7187 65.3402C59.7187 65.8363 59.9179 66.2855 60.246 66.6136C60.5702 66.9378 61.0194 67.141 61.5194 67.141C62.0155 67.141 62.4647 66.9417 62.7928 66.6136C63.117 66.2894 63.3201 65.8402 63.3201 65.3402C63.3201 64.8441 63.1209 64.3949 62.7928 64.0668ZM73.0778 83.8758V75.157H61.5228C58.8197 75.157 56.3666 74.0515 54.5853 72.2742C52.808 70.4969 51.7025 68.0398 51.7025 65.3367C51.7025 62.6336 52.8041 60.1805 54.5892 58.3992C56.3626 56.6258 58.8158 55.5164 61.5228 55.5164H73.0778V46.7976C73.0778 45.8679 72.695 45.0203 72.0817 44.4031C71.4684 43.7898 70.6208 43.407 69.6872 43.407L7.10921 43.4148C5.45691 43.4148 3.93341 42.8445 2.72641 41.8953V83.8793C2.72641 84.809 3.10922 85.6566 3.7225 86.2738C4.33578 86.8871 5.1834 87.2699 6.117 87.2699H69.683C70.6127 87.2699 71.4603 86.8871 72.0775 86.2738C72.6908 85.6606 73.0736 84.8129 73.0736 83.8793L73.0778 83.8758ZM11.9488 40.6848L5.8902 32.0871C5.09333 32.3176 4.3902 32.7746 3.8472 33.3762C3.14798 34.1536 2.7222 35.177 2.7222 36.302C2.7222 37.5051 3.21439 38.6028 4.0113 39.3958C4.80818 40.1927 5.9019 40.6849 7.1051 40.6849L11.9488 40.6848ZM4.5347 25.4308L15.2807 40.6848H50.4567L26.5347 6.73181L5.1637 21.7868C4.57776 22.2009 4.21448 22.8141 4.1012 23.4743C3.98792 24.1384 4.12064 24.8449 4.5347 25.4308ZM31.5577 3.19281L28.7608 5.16551L53.7808 40.6855H61.1675L54.6284 31.4043C54.5932 31.3613 54.562 31.3145 54.5307 31.2676L35.1987 3.82659C34.7847 3.24065 34.1714 2.87737 33.5112 2.76409C32.8472 2.65081 32.1401 2.78362 31.5542 3.19768L31.5577 3.19281ZM58.3197 31.9158L64.4955 40.6853H66.7767V34.697C66.7767 33.9353 66.4642 33.24 65.9603 32.7361C65.4564 32.2322 64.7611 31.9197 63.9994 31.9197H58.3197L58.3197 31.9158ZM25.3667 20.1348C24.8433 19.3926 24.0659 18.9317 23.23 18.7871C22.4019 18.6426 21.5152 18.8145 20.7769 19.3379L15.9683 22.7246C15.2261 23.248 14.7652 24.0254 14.6206 24.8613C14.4761 25.6894 14.6479 26.5761 15.1714 27.3144L21.6402 36.498C22.1636 37.2402 22.941 37.7011 23.7769 37.8457C24.605 37.9902 25.4917 37.8184 26.23 37.2949L31.0386 33.9082C31.7808 33.3848 32.2417 32.6074 32.3863 31.7715C32.5308 30.9434 32.3589 30.0606 31.8355 29.3184L25.3628 20.1309L25.3667 20.1348ZM29.562 30.8188L23.1401 21.7016C23.0503 21.5766 22.9174 21.4985 22.7729 21.4711C22.6245 21.4438 22.4682 21.475 22.3432 21.5649L17.5346 24.9516C17.4096 25.0414 17.3315 25.1743 17.3041 25.3188C17.2768 25.4672 17.3081 25.6235 17.3979 25.7485L23.8667 34.9321C23.9565 35.0571 24.0894 35.1352 24.2339 35.1625C24.3823 35.1899 24.5386 35.1586 24.6636 35.0688L29.4058 31.729C29.437 31.7017 29.4722 31.6782 29.5112 31.6548C29.6167 31.5649 29.6831 31.4438 29.7066 31.3149C29.73 31.1821 29.7105 31.0415 29.6362 30.9204C29.6089 30.8852 29.5855 30.8501 29.562 30.8149L29.562 30.8188ZM75.324 58.2528H61.519C59.5659 58.2528 57.7963 59.0536 56.5151 60.3348C55.226 61.6239 54.4253 63.4012 54.4253 65.3465C54.4253 67.2879 55.2222 69.0692 56.5112 70.3543C57.7964 71.6395 59.5698 72.4402 61.519 72.4402H75.324C75.6248 72.4402 75.8982 72.3152 76.0935 72.1199C76.2928 71.9207 76.4138 71.6472 76.4138 71.3504V59.3544C76.4138 59.0536 76.2888 58.7802 76.0935 58.5809C75.8943 58.3817 75.6209 58.2606 75.324 58.2606V58.2528Z" fill="white"/>
</svg>
