<svg width="92" height="75" viewBox="0 0 92 75" fill="none" xmlns="http://www.w3.org/2000/svg">
<path d="M40.2148 26.5688C40.2189 28.3611 39.9803 30.0995 39.5305 31.7509H88.7308V26.2944C88.7308 25.2292 88.2928 24.2596 87.5878 23.5547C86.8828 22.8497 85.9133 22.4117 84.8481 22.4117H39.7771C40.0629 23.7514 40.2148 25.1431 40.2148 26.5688ZM40.2148 26.5688C40.2148 26.569 40.2148 26.5691 40.2148 26.5693H40.0148L40.2148 26.5688ZM13.0388 72.5169C14.1874 73.6698 15.7777 74.382 17.5252 74.382H84.8485C86.5964 74.382 88.1866 73.6652 89.3349 72.5169C90.4876 71.3642 91.2 69.774 91.2 68.0263V26.2904C91.2 24.5426 90.4833 22.9526 89.3351 21.8043C88.1865 20.6512 86.5961 19.9389 84.8485 19.9389H39.0735C38.0824 17.1632 36.4891 14.6726 34.4405 12.6324C31.145 9.34088 26.6905 7.20743 21.7398 6.89914V3.27305H25.6394C26.321 3.27305 26.8759 2.71812 26.8759 2.03653C26.8759 1.35492 26.321 0.8 25.6394 0.8H15.3756C14.694 0.8 14.1391 1.35492 14.1391 2.03653C14.1391 2.71812 14.694 3.27305 15.3756 3.27305H19.2752V6.89899C14.3247 7.20323 9.87003 9.33686 6.57424 12.6326C3.00565 16.2009 0.8 21.125 0.8 26.5701C0.8 32.0108 3.00563 36.939 6.57424 40.5077C7.92647 41.8599 9.47168 43.0154 11.1695 43.9299L11.1737 68.0263C11.1737 69.7779 11.886 71.3682 13.0388 72.5169ZM13.0388 72.5169C13.0389 72.517 13.039 72.5171 13.0391 72.5172L13.1803 72.3755L13.0386 72.5166C13.0387 72.5167 13.0388 72.5168 13.0388 72.5169ZM8.32107 14.3781L8.32116 14.378C11.4371 11.258 15.7487 9.3302 20.5082 9.3302C25.2721 9.3302 29.5795 11.2579 32.6996 14.3781C35.8196 17.4984 37.7475 21.8101 37.7475 26.5695C37.7475 31.3291 35.8198 35.6364 32.6996 38.7566C29.5793 41.8766 25.2676 43.8045 20.5082 43.8045C15.7486 43.8045 11.4412 41.8768 8.32107 38.7566L8.32098 38.7565C5.20105 35.6405 3.27321 31.329 3.27321 26.5695C3.27321 21.8055 5.20091 17.4982 8.32107 14.3781ZM13.6425 68.0263V45.0476C15.7813 45.8414 18.0976 46.2778 20.512 46.2778C23.1178 46.2778 25.6058 45.7703 27.8827 44.852H88.7356V68.0263C88.7356 69.0915 88.2976 70.0611 87.5926 70.7661C86.8876 71.4711 85.9181 71.909 84.8528 71.909H17.5252C16.46 71.909 15.4904 71.471 14.7854 70.7661L14.644 70.9075L14.7854 70.766C14.0804 70.0611 13.6425 69.0915 13.6425 68.0263ZM79.48 51.6186H64.3766C63.6908 51.6186 63.1401 52.1735 63.1401 52.8509V61.6634C63.1401 62.345 63.695 62.9 64.3766 62.9L79.4799 62.9042C80.1616 62.9042 80.7165 62.3493 80.7165 61.6677V52.8551C80.7165 52.1735 80.1616 51.6186 79.48 51.6186ZM65.6131 60.4312V54.0917H78.2435V60.4312H65.6131ZM38.6802 34.2201H88.7345V42.3788L32.2793 42.3789C33.0473 41.8073 33.7714 41.1813 34.4493 40.5034C36.2389 38.7138 37.6816 36.5856 38.6802 34.2201ZM20.1896 12.827C19.508 12.827 18.953 13.382 18.953 14.0636L18.9531 26.5697C18.9531 27.2513 19.508 27.8063 20.1896 27.8063H27.1279C27.8095 27.8063 28.3645 27.2513 28.3645 26.5697C28.3645 25.8881 27.8095 25.3332 27.1279 25.3332H21.4261V14.0636C21.4261 13.382 20.8712 12.827 20.1896 12.827Z" fill="#3572EF" stroke="#3572EF" stroke-width="0.4"/>
</svg>
