<svg width="123" height="39" viewBox="0 0 123 39" fill="none" xmlns="http://www.w3.org/2000/svg">
<g clip-path="url(#clip0_1235_11)">
<path d="M122.47 11.36C121.35 8.17 118.31 5.88 114.75 5.88H114.67C112.35 5.88 110.26 6.85 108.77 8.4C107.28 6.85 105.19 5.88 102.87 5.88H102.8C100.76 5.88 98.89 6.63 97.46 7.86V7.24C97.41 6.61 96.9 6.12 96.26 6.12H90.78C90.11 6.12 89.57 6.66 89.57 7.33V37.07C89.57 37.74 90.11 38.28 90.78 38.28H96.26C96.87 38.28 97.38 37.82 97.45 37.24V15.89C97.45 15.81 97.45 15.75 97.46 15.68C97.55 14.73 98.25 13.94 99.35 13.85H100.36C100.82 13.89 101.21 14.05 101.51 14.3C101.99 14.68 102.25 15.26 102.25 15.9L102.27 37.14C102.27 37.81 102.81 38.36 103.48 38.36H108.96C109.61 38.36 110.13 37.85 110.16 37.21V15.88C110.16 15.18 110.48 14.54 111.05 14.17C111.33 13.99 111.67 13.87 112.06 13.83H113.07C114.26 13.93 114.97 14.83 114.97 15.88L114.99 37.1C114.99 37.77 115.53 38.31 116.2 38.31H121.68C122.32 38.31 122.85 37.81 122.89 37.18V13.91C122.86 12.6 122.69 11.99 122.47 11.36ZM85.39 6.2H82.26V1.12C82.26 1.11 82.26 1.11 82.26 1.1C82.26 0.5 81.77 0 81.15 0C81.08 0 81.01 0.01 80.94 0.02C77.47 0.97 78.16 5.78 71.82 6.19H71.21C71.12 6.19 71.03 6.2 70.94 6.22C70.41 6.35 70 6.83 70 7.41V12.89C70 13.56 70.54 14.1 71.21 14.1H74.51L74.5 37.32C74.5 37.98 75.04 38.52 75.7 38.52H81.12C81.78 38.52 82.32 37.98 82.32 37.32V14.1H85.39C86.05 14.1 86.6 13.55 86.6 12.89V7.41C86.6 6.74 86.06 6.2 85.39 6.2Z" fill="#00BAF2"/>
<path d="M65.69 6.20043H60.21C59.55 6.20043 59 6.74043 59 7.41043V18.7404C58.99 19.4404 58.42 20.0004 57.72 20.0004H55.43C54.72 20.0004 54.14 19.4304 54.14 18.7204L54.12 7.41043C54.12 6.74043 53.58 6.20043 52.91 6.20043H47.43C46.76 6.20043 46.22 6.74043 46.22 7.41043V19.8204C46.22 24.5304 49.58 27.9004 54.3 27.9004C54.3 27.9004 57.84 27.9004 57.95 27.9204C58.59 27.9904 59.08 28.5304 59.08 29.1904C59.08 29.8404 58.6 30.3804 57.96 30.4604C57.93 30.4604 57.9 30.4704 57.87 30.4804L49.86 30.5104C49.19 30.5104 48.65 31.0504 48.65 31.7204V37.1904C48.65 37.8604 49.19 38.4004 49.86 38.4004H58.81C63.53 38.4004 66.89 35.0404 66.89 30.3304V7.41043C66.9 6.74043 66.36 6.20043 65.69 6.20043ZM34.53 6.23043H26.93C26.26 6.23043 25.71 6.74043 25.71 7.36043V9.49043C25.71 9.50043 25.71 9.52043 25.71 9.53043C25.71 9.55043 25.71 9.56043 25.71 9.58043V12.5004C25.71 13.1604 26.29 13.7104 27 13.7104H34.24C34.81 13.8004 35.26 14.2204 35.33 14.8704V15.5804C35.27 16.2004 34.82 16.6504 34.27 16.7004H30.69C25.92 16.7004 22.53 19.8704 22.53 24.3104V30.6804C22.53 35.1004 25.45 38.2404 30.18 38.2404H40.11C41.89 38.2404 43.34 36.8904 43.34 35.2304V14.4504C43.34 9.41043 40.74 6.23043 34.53 6.23043ZM35.4 29.0904V29.9504C35.4 30.0204 35.39 30.0904 35.38 30.1504C35.37 30.2104 35.35 30.2704 35.33 30.3304C35.16 30.8104 34.68 31.1604 34.11 31.1604H31.83C31.12 31.1604 30.54 30.6204 30.54 29.9504V28.9204C30.54 28.9104 30.54 28.8904 30.54 28.8804V26.1304V25.2704V25.2604C30.54 24.6004 31.12 24.0604 31.83 24.0604H34.11C34.82 24.0604 35.4 24.6004 35.4 25.2704V29.0904ZM13.16 6.19043H1.19C0.53 6.19043 0 6.73043 0 7.38043V12.7504C0 12.7604 0 12.7704 0 12.7804C0 12.8104 0 12.8304 0 12.8504V37.1404C0 37.8004 0.49 38.3404 1.11 38.3504H6.69C7.36 38.3504 7.9 37.8104 7.9 37.1404L7.92 28.8204H13.16C17.54 28.8204 20.6 25.7804 20.6 21.3704V13.6504C20.6 9.25043 17.54 6.19043 13.16 6.19043ZM12.68 16.2304V19.6104C12.68 20.3204 12.11 20.9004 11.4 20.9004H7.93V14.1304H11.4C12.11 14.1304 12.68 14.7004 12.68 15.4104V16.2304Z" fill="#20336B"/>
</g>
<defs>
<clipPath id="clip0_1235_11">
<rect width="122.88" height="38.52" fill="white"/>
</clipPath>
</defs>
</svg>
