<svg width="512" height="512" viewBox="0 0 512 512" fill="none" xmlns="http://www.w3.org/2000/svg">
<g clip-path="url(#clip0_1235_15)">
<path d="M505.1 314.825C537.586 177.25 452.395 39.3882 314.819 6.90227C177.244 -25.5836 39.3825 59.6081 6.89661 197.183C-25.5893 334.758 59.6024 472.62 197.178 505.106C334.753 537.592 472.615 452.4 505.1 314.825Z" fill="#5F259F"/>
<path d="M372.164 189.203C372.164 179.195 363.588 170.61 353.58 170.61H319.257L240.619 80.5264C233.465 71.9494 222.027 69.0874 210.589 71.9494L183.419 80.5264C179.127 81.9564 177.696 87.6804 180.557 90.5334L266.357 172.041H136.236C131.943 172.041 129.082 174.902 129.082 179.195V193.487C129.082 203.503 137.667 212.079 147.674 212.079H167.689V280.718C167.689 332.194 194.859 362.217 240.62 362.217C254.912 362.217 266.359 360.786 280.65 355.071V400.824C280.65 413.694 290.666 423.71 303.535 423.71H323.55C327.843 423.71 332.127 419.417 332.127 415.124V210.648H365.02C369.312 210.648 372.165 207.787 372.165 203.503V189.203H372.164ZM280.65 312.17C272.074 316.462 260.635 317.893 252.059 317.893C229.173 317.893 217.735 306.455 217.735 280.717V212.078H280.65V312.17Z" fill="white"/>
</g>
<defs>
<clipPath id="clip0_1235_15">
<rect width="512" height="512" fill="white"/>
</clipPath>
</defs>
</svg>
