<svg width="32" height="33" viewBox="0 0 32 33" fill="none" xmlns="http://www.w3.org/2000/svg">
<g clip-path="url(#clip0_1016_7067)">
<path d="M0 1.91406C0 1.64885 0.105357 1.39449 0.292893 1.20696C0.48043 1.01942 0.734784 0.914063 1 0.914062H7C7.26522 0.914063 7.51957 1.01942 7.70711 1.20696C7.89464 1.39449 8 1.64885 8 1.91406C8 2.17928 7.89464 2.43363 7.70711 2.62117C7.51957 2.80871 7.26522 2.91406 7 2.91406H2V7.91406C2 8.17928 1.89464 8.43363 1.70711 8.62117C1.51957 8.80871 1.26522 8.91406 1 8.91406C0.734784 8.91406 0.48043 8.80871 0.292893 8.62117C0.105357 8.43363 0 8.17928 0 7.91406V1.91406ZM24 1.91406C24 1.64885 24.1054 1.39449 24.2929 1.20696C24.4804 1.01942 24.7348 0.914063 25 0.914062H31C31.2652 0.914063 31.5196 1.01942 31.7071 1.20696C31.8946 1.39449 32 1.64885 32 1.91406V7.91406C32 8.17928 31.8946 8.43363 31.7071 8.62117C31.5196 8.80871 31.2652 8.91406 31 8.91406C30.7348 8.91406 30.4804 8.80871 30.2929 8.62117C30.1054 8.43363 30 8.17928 30 7.91406V2.91406H25C24.7348 2.91406 24.4804 2.80871 24.2929 2.62117C24.1054 2.43363 24 2.17928 24 1.91406ZM1 24.9141C1.26522 24.9141 1.51957 25.0194 1.70711 25.207C1.89464 25.3945 2 25.6488 2 25.9141V30.9141H7C7.26522 30.9141 7.51957 31.0194 7.70711 31.207C7.89464 31.3945 8 31.6488 8 31.9141C8 32.1793 7.89464 32.4336 7.70711 32.6212C7.51957 32.8087 7.26522 32.9141 7 32.9141H1C0.734784 32.9141 0.48043 32.8087 0.292893 32.6212C0.105357 32.4336 0 32.1793 0 31.9141V25.9141C0 25.6488 0.105357 25.3945 0.292893 25.207C0.48043 25.0194 0.734784 24.9141 1 24.9141ZM31 24.9141C31.2652 24.9141 31.5196 25.0194 31.7071 25.207C31.8946 25.3945 32 25.6488 32 25.9141V31.9141C32 32.1793 31.8946 32.4336 31.7071 32.6212C31.5196 32.8087 31.2652 32.9141 31 32.9141H25C24.7348 32.9141 24.4804 32.8087 24.2929 32.6212C24.1054 32.4336 24 32.1793 24 31.9141C24 31.6488 24.1054 31.3945 24.2929 31.207C24.4804 31.0194 24.7348 30.9141 25 30.9141H30V25.9141C30 25.6488 30.1054 25.3945 30.2929 25.207C30.4804 25.0194 30.7348 24.9141 31 24.9141Z" fill="#3572EF"/>
<path d="M8.43799 9.41406H10.1046V11.0807H8.43799V9.41406Z" fill="#3572EF" stroke="#3572EF"/>
<path d="M12.4379 7.58064V7.08064H11.9379H6.60457H6.10457V7.58064V12.914V13.414H6.60457H11.9379H12.4379V12.914V7.58064ZM12.7712 6.74731V13.7473H5.77124V6.74731H12.7712ZM8.4379 24.4139V22.7473H10.1046V24.4139H8.4379Z" fill="#3572EF" stroke="#3572EF"/>
<path d="M6.60457 20.414H6.10457V20.914V26.2474V26.7474H6.60457H11.9379H12.4379V26.2474V20.914V20.414H11.9379H6.60457ZM12.7712 20.0807V27.0807H5.77124V20.0807H12.7712ZM21.7712 9.41406H23.4379V11.0807H21.7712V9.41406Z" fill="#3572EF" stroke="#3572EF"/>
<path d="M25.7712 7.58064V7.08064H25.2712H19.9379H19.4379V7.58064V12.914V13.414H19.9379H25.2712H25.7712V12.914V7.58064ZM15.9379 8.08064H16.4379V7.58064V6.74731H16.7712V8.41398H15.9379H15.4379V8.91398V11.0806H15.1046V8.08064H15.9379ZM12.7712 17.414V17.7473H8.4379V16.914V16.414H7.9379H6.60457H6.10457V16.914V17.7473H5.77124V16.0806H8.77123V16.914V17.414H9.27123H12.7712ZM17.7712 16.914V16.0806H23.4379V16.414H18.6045H18.1045V16.914V17.7473H15.1046V16.914V16.414H14.6046H13.7712V16.0806H14.6046H15.1046V15.5806V14.7473H15.4379V16.914V17.414H15.9379H17.2712H17.7712V16.914ZM16.4379 12.0806H16.7712V13.7473H16.4379V12.0806ZM25.2712 20.0806H26.1045V20.4139H24.4379V18.7473H24.7712V19.5806V20.0806H25.2712ZM23.1045 22.7473H26.1045V23.0806H23.9379H23.4379V23.5806V24.4139H23.1045V22.7473ZM22.1045 21.7473H21.7712V21.4139H22.1045V21.7473ZM20.7712 22.7473V24.4139H17.7712V24.0806H19.9379H20.4379V23.5806V22.7473H20.7712ZM20.7712 20.4139H20.4379V18.7473H22.1045V19.0806H21.2712H20.7712V19.5806V20.4139ZM17.7712 20.9139V20.4139H17.2712H15.1046V20.0806H18.1045V21.7473H17.7712V20.9139ZM19.1045 13.7473V6.74731H26.1045V13.7473H19.1045ZM26.1045 17.7473H25.7712V16.0806H26.1045V17.7473Z" fill="#3572EF" stroke="#3572EF"/>
<path d="M15.9381 26.7473H20.7714V27.0806H15.1047V22.7473H15.4381V26.2473V26.7473H15.9381ZM25.7714 26.2473V25.414H26.1047V27.0806H23.1047V26.7473H25.2714H25.7714V26.2473Z" fill="#3572EF" stroke="#3572EF"/>
</g>
<defs>
<clipPath id="clip0_1016_7067">
<rect width="32" height="32" fill="white" transform="translate(0 0.914062)"/>
</clipPath>
</defs>
</svg>
