<svg width="20" height="20" viewBox="0 0 20 20" fill="none" xmlns="http://www.w3.org/2000/svg">
<path d="M10.028 15.23C10.2493 15.23 10.436 15.154 10.588 15.002C10.74 14.85 10.816 14.6633 10.816 14.442C10.816 14.2207 10.7393 14.034 10.586 13.882C10.434 13.73 10.2473 13.654 10.026 13.654C9.80467 13.654 9.618 13.7303 9.466 13.883C9.314 14.0357 9.23833 14.2223 9.239 14.443C9.239 14.6643 9.315 14.851 9.467 15.003C9.62033 15.155 9.80733 15.231 10.028 15.231M9.511 11.919H10.477C10.5023 11.4843 10.584 11.131 10.722 10.859C10.86 10.5877 11.1437 10.241 11.573 9.819C12.0197 9.373 12.3517 8.97333 12.569 8.62C12.7863 8.26667 12.8953 7.858 12.896 7.394C12.896 6.606 12.6193 5.978 12.066 5.51C11.512 5.042 10.8567 4.808 10.1 4.808C9.38067 4.808 8.77 5.00333 8.268 5.394C7.766 5.78533 7.39833 6.23467 7.165 6.742L8.085 7.123C8.245 6.759 8.474 6.43733 8.772 6.158C9.07 5.878 9.5 5.738 10.062 5.738C10.71 5.738 11.1833 5.916 11.482 6.272C11.7813 6.628 11.931 7.01933 11.931 7.446C11.931 7.79267 11.8373 8.102 11.65 8.374C11.4633 8.64667 11.22 8.92067 10.92 9.196C10.34 9.73067 9.96 10.184 9.78 10.556C9.6 10.928 9.51033 11.3823 9.511 11.919ZM10.003 19C8.759 19 7.589 18.764 6.493 18.292C5.39767 17.8193 4.44467 17.178 3.634 16.368C2.82333 15.558 2.18167 14.606 1.709 13.512C1.23633 12.418 1 11.2483 1 10.003C1 8.75767 1.23633 7.58767 1.709 6.493C2.181 5.39767 2.82133 4.44467 3.63 3.634C4.43867 2.82333 5.391 2.18167 6.487 1.709C7.583 1.23633 8.753 1 9.997 1C11.241 1 12.411 1.23633 13.507 1.709C14.6023 2.181 15.5553 2.82167 16.366 3.631C17.1767 4.44033 17.8183 5.39267 18.291 6.488C18.7637 7.58333 19 8.753 19 9.997C19 11.241 18.764 12.411 18.292 13.507C17.82 14.603 17.1787 15.556 16.368 16.366C15.5573 17.176 14.6053 17.8177 13.512 18.291C12.4187 18.7643 11.249 19.0007 10.003 19ZM10 18C12.2333 18 14.125 17.225 15.675 15.675C17.225 14.125 18 12.2333 18 10C18 7.76667 17.225 5.875 15.675 4.325C14.125 2.775 12.2333 2 10 2C7.76667 2 5.875 2.775 4.325 4.325C2.775 5.875 2 7.76667 2 10C2 12.2333 2.775 14.125 4.325 15.675C5.875 17.225 7.76667 18 10 18Z" fill="#8B8B8B"/>
<path d="M10.028 15.23C10.2493 15.23 10.436 15.154 10.588 15.002C10.74 14.85 10.816 14.6633 10.816 14.442C10.816 14.2207 10.7393 14.034 10.586 13.882C10.434 13.73 10.2473 13.654 10.026 13.654C9.80467 13.654 9.618 13.7303 9.466 13.883C9.314 14.0357 9.23833 14.2223 9.239 14.443C9.239 14.6643 9.315 14.851 9.467 15.003C9.62033 15.155 9.80733 15.231 10.028 15.231M9.511 11.919H10.477C10.5023 11.4843 10.584 11.131 10.722 10.859C10.86 10.5877 11.1437 10.241 11.573 9.819C12.0197 9.373 12.3517 8.97333 12.569 8.62C12.7863 8.26667 12.8953 7.858 12.896 7.394C12.896 6.606 12.6193 5.978 12.066 5.51C11.512 5.042 10.8567 4.808 10.1 4.808C9.38067 4.808 8.77 5.00333 8.268 5.394C7.766 5.78533 7.39833 6.23467 7.165 6.742L8.085 7.123C8.245 6.759 8.474 6.43733 8.772 6.158C9.07 5.878 9.5 5.738 10.062 5.738C10.71 5.738 11.1833 5.916 11.482 6.272C11.7813 6.628 11.931 7.01933 11.931 7.446C11.931 7.79267 11.8373 8.102 11.65 8.374C11.4633 8.64667 11.22 8.92067 10.92 9.196C10.34 9.73067 9.96 10.184 9.78 10.556C9.6 10.928 9.51033 11.3823 9.511 11.919ZM10.003 19C8.759 19 7.589 18.764 6.493 18.292C5.39767 17.8193 4.44467 17.178 3.634 16.368C2.82333 15.558 2.18167 14.606 1.709 13.512C1.23633 12.418 1 11.2483 1 10.003C1 8.75767 1.23633 7.58767 1.709 6.493C2.181 5.39767 2.82133 4.44467 3.63 3.634C4.43867 2.82333 5.391 2.18167 6.487 1.709C7.583 1.23633 8.753 1 9.997 1C11.241 1 12.411 1.23633 13.507 1.709C14.6023 2.181 15.5553 2.82167 16.366 3.631C17.1767 4.44033 17.8183 5.39267 18.291 6.488C18.7637 7.58333 19 8.753 19 9.997C19 11.241 18.764 12.411 18.292 13.507C17.82 14.603 17.1787 15.556 16.368 16.366C15.5573 17.176 14.6053 17.8177 13.512 18.291C12.4187 18.7643 11.249 19.0007 10.003 19ZM10 18C12.2333 18 14.125 17.225 15.675 15.675C17.225 14.125 18 12.2333 18 10C18 7.76667 17.225 5.875 15.675 4.325C14.125 2.775 12.2333 2 10 2C7.76667 2 5.875 2.775 4.325 4.325C2.775 5.875 2 7.76667 2 10C2 12.2333 2.775 14.125 4.325 15.675C5.875 17.225 7.76667 18 10 18Z" stroke="#8B8B8B" stroke-width="0.6"/>
</svg>
