<svg width="32" height="33" viewBox="0 0 32 33" fill="none" xmlns="http://www.w3.org/2000/svg">
<rect width="32" height="32.6507" rx="12" fill="#387F39"/>
<path d="M21.4562 24.4656C22.0824 24.3211 22.7161 23.9117 22.7161 23.1414C22.7161 22.8284 22.6278 22.6121 22.5237 22.4272C22.4594 22.3231 22.4676 22.2426 22.5638 22.2026C23.0691 21.978 23.4865 21.5288 23.4865 20.8787C23.4865 20.5175 23.3903 20.1885 23.2057 19.956C23.1174 19.8355 23.1335 19.7393 23.2776 19.6513C23.6549 19.4425 23.8959 18.9768 23.8959 18.4472C23.8959 18.0781 23.7754 17.669 23.5505 17.4684C23.4306 17.3561 23.4546 17.276 23.5909 17.1637C23.8555 16.9631 24 16.5779 24 16.1205C24 15.3341 23.3903 14.7 22.5878 14.7H19.7232C19.0008 14.7 18.5112 14.3231 18.5112 13.7291C18.5112 12.6219 19.8838 10.6317 19.8838 9.19553C19.8838 8.44918 19.3942 8 18.7601 8C18.1826 8 17.8857 8.40125 17.5728 9.011C16.3769 11.3699 14.7562 13.2717 13.5285 14.9007C12.4853 16.2968 11.9718 17.4684 11.9478 19.3942C11.9077 22.3553 14.3067 24.6097 18.0781 24.6419L19.1936 24.6501C20.2446 24.658 21.0149 24.5779 21.4566 24.4653M8 19.4503C8 21.8575 9.4927 23.8716 11.5065 23.8716H12.9427C11.4904 22.8127 10.8245 21.2077 10.8563 19.3702C10.8803 17.3321 11.6749 15.8795 12.3812 14.9969H11.2014C9.39616 14.9969 8 16.9552 8 19.4503Z" fill="white"/>
</svg>
