<svg width="32" height="33" viewBox="0 0 32 33" fill="none" xmlns="http://www.w3.org/2000/svg">
<rect width="32" height="32.6507" rx="12" fill="#F43E31"/>
<path d="M10.5438 8.18502C9.91758 8.3295 9.28386 8.73897 9.28386 9.50928C9.28386 9.8222 9.37219 10.0386 9.47627 10.2235C9.54063 10.3275 9.53242 10.408 9.43621 10.448C8.93089 10.6726 8.51354 11.1218 8.51354 11.772C8.51354 12.1332 8.60975 12.4622 8.79428 12.6946C8.88261 12.8151 8.86652 12.9113 8.72239 12.9993C8.3451 13.2082 8.10408 13.6738 8.10408 14.2034C8.10408 14.5725 8.22459 14.9816 8.44952 15.1822C8.56935 15.2945 8.54538 15.3746 8.40912 15.4869C8.14448 15.6876 8 16.0727 8 16.5301C8 17.3165 8.60975 17.9506 9.41225 17.9506H12.2768C12.9992 17.9506 13.4888 18.3275 13.4888 18.9215C13.4888 20.0287 12.1162 22.0189 12.1162 23.4551C12.1162 24.2015 12.6058 24.6506 13.2399 24.6506C13.8174 24.6506 14.1143 24.2494 14.4272 23.6396C15.6231 21.2808 17.2438 19.3789 18.4715 17.75C19.5147 16.3538 20.0282 15.1822 20.0522 13.2564C20.0923 10.2953 17.6933 8.04089 13.9219 8.00871L12.8064 8.00049C11.7554 7.99261 10.9851 8.07273 10.5434 8.18536M24 13.2003C24 10.7931 22.5073 8.77902 20.4935 8.77902H19.0573C20.5096 9.83795 21.1755 11.4429 21.1437 13.2804C21.1197 15.3185 20.3251 16.7711 19.6188 17.6538H20.7986C22.6038 17.6538 24 15.6954 24 13.2003Z" fill="white"/>
</svg>
