<svg width="32" height="12" viewBox="0 0 32 12" fill="none" xmlns="http://www.w3.org/2000/svg">
<path d="M0.256687 9.97099H0.496217L0.271895 10.9025C0.237677 11.0394 0.245281 11.1458 0.290906 11.2143C0.33653 11.2827 0.420176 11.3169 0.545643 11.3169C0.667309 11.3169 0.769965 11.2827 0.849808 11.2143C0.929651 11.1458 0.98288 11.0394 1.0171 10.9025L1.24142 9.97099H1.48475L1.25663 10.9253C1.2072 11.1306 1.11975 11.2865 0.990484 11.3892C0.865016 11.4918 0.697726 11.545 0.492415 11.545C0.287104 11.545 0.146428 11.4956 0.0703864 11.393C-0.00565467 11.2903 -0.0208628 11.1344 0.0285639 10.9291L0.256687 9.97099ZM1.45053 11.5032L1.83074 9.91016L2.55313 10.8455C2.57214 10.8721 2.59115 10.8987 2.61016 10.9291C2.62917 10.9595 2.64818 10.9937 2.67099 11.0318L2.92573 9.97099H3.15005L2.76985 11.5602L2.03225 10.6059L1.97522 10.5261C1.95621 10.4957 1.941 10.4691 1.92959 10.4348L1.67485 11.4994H1.45053V11.5032ZM3.13104 11.5032L3.49604 9.97099H3.73937L3.37437 11.5032H3.13104ZM3.72036 11.5032L4.08536 9.97099H4.91801L4.86858 10.1839H4.27926L4.18801 10.5641H4.77733L4.7241 10.7808H4.13478L3.96369 11.4994H3.72036V11.5032ZM4.82296 11.5032L5.18795 9.97099H5.43128L5.06629 11.5032H4.82296ZM5.41227 11.5032L5.77727 9.97099H6.60992L6.56049 10.1839H5.97118L5.87993 10.5679H6.46925L6.41602 10.7846H5.8267L5.70883 11.2789H6.29815L6.24493 11.5032H5.41227ZM6.52628 11.5032L6.89127 9.97099H7.21825C7.43117 9.97099 7.57945 9.9824 7.65929 10.0052C7.73913 10.028 7.80757 10.0622 7.8608 10.1155C7.92924 10.1839 7.97486 10.2714 7.99387 10.374C8.01288 10.4805 8.00528 10.6021 7.97486 10.7352C7.94064 10.8721 7.89121 10.9899 7.82278 11.0964C7.75434 11.2029 7.66689 11.2865 7.56424 11.3549C7.4882 11.4082 7.40455 11.4424 7.3133 11.4652C7.22586 11.488 7.09278 11.4994 6.91789 11.4994H6.52628V11.5032ZM6.82284 11.2751H7.02815C7.13841 11.2751 7.22585 11.2675 7.28669 11.2523C7.34752 11.2371 7.40075 11.2105 7.45018 11.1762C7.51861 11.1268 7.57564 11.066 7.62127 10.9899C7.66689 10.9177 7.70111 10.8303 7.72392 10.7314C7.74674 10.6325 7.75434 10.5489 7.74293 10.4767C7.73153 10.4044 7.70491 10.3398 7.65929 10.2904C7.62507 10.2523 7.58325 10.2295 7.52622 10.2143C7.46919 10.1991 7.38174 10.1915 7.25627 10.1915H7.08138L6.82284 11.2751ZM9.09266 10.815L8.92918 11.5032H8.70105L9.06605 9.97099H9.43485C9.54511 9.97099 9.62115 9.97859 9.67058 9.99C9.72 10.0014 9.75802 10.0204 9.78844 10.0508C9.82646 10.0851 9.85308 10.1345 9.86448 10.1953C9.87589 10.2561 9.87209 10.3208 9.85688 10.393C9.83787 10.4653 9.81125 10.5337 9.76943 10.5945C9.72761 10.6554 9.67818 10.7048 9.62495 10.739C9.57933 10.7656 9.5299 10.7884 9.47667 10.7998C9.42344 10.8112 9.3398 10.8188 9.23334 10.8188H9.09266V10.815ZM9.1573 10.6097H9.21813C9.3512 10.6097 9.44626 10.5945 9.49949 10.5641C9.55271 10.5337 9.58693 10.4805 9.60594 10.4044C9.62495 10.3246 9.61355 10.2637 9.57553 10.2333C9.5337 10.1991 9.45006 10.1839 9.32459 10.1839H9.26376L9.1573 10.6097ZM10.6819 11.5032L10.6059 11.1078H10.0128L9.74662 11.5032H9.49188L10.5945 9.91016L10.9367 11.5032H10.6819ZM10.1572 10.8987H10.5717L10.5032 10.5489C10.4994 10.5261 10.4956 10.4995 10.4956 10.4729C10.4918 10.4424 10.4918 10.412 10.4918 10.3778C10.4766 10.412 10.4614 10.4424 10.4424 10.4729C10.4272 10.5033 10.412 10.5299 10.3968 10.5527L10.1572 10.8987ZM11.2865 11.5032L11.4537 10.8036L11.1496 9.97479H11.4043L11.5944 10.4957C11.5982 10.5109 11.602 10.5261 11.6096 10.5489C11.6172 10.5717 11.621 10.5945 11.6286 10.6173L11.6743 10.5489C11.6895 10.5261 11.7047 10.5071 11.7199 10.4881L12.1647 9.97479H12.4081L11.6971 10.7998L11.5298 11.4994H11.2865V11.5032ZM13.6019 10.7466C13.6019 10.7352 13.6057 10.701 13.6133 10.6478C13.6171 10.6021 13.6209 10.5679 13.6247 10.5375C13.6095 10.5717 13.5943 10.6059 13.5753 10.644C13.5563 10.6782 13.5335 10.7162 13.5069 10.7504L12.9213 11.5679L12.7312 10.7352C12.7236 10.701 12.716 10.6668 12.7122 10.6363C12.7084 10.6059 12.7046 10.5717 12.7046 10.5413C12.697 10.5717 12.6856 10.6059 12.6742 10.644C12.6628 10.6782 12.6476 10.7162 12.6286 10.7542L12.2864 11.507H12.0621L12.7959 9.91016L13.005 10.8759C13.0088 10.8911 13.0126 10.9177 13.0164 10.9519C13.0202 10.9861 13.0278 11.0318 13.0354 11.085C13.062 11.0394 13.0962 10.9861 13.1419 10.9177C13.1533 10.8987 13.1647 10.8873 13.1685 10.8759L13.83 9.91016L13.8072 11.507H13.5829L13.6019 10.7466ZM14.0049 11.5032L14.3699 9.97099H15.2026L15.1531 10.1839H14.5638L14.4726 10.5679H15.0619L15.0087 10.7846H14.4193L14.3015 11.2789H14.8908L14.8376 11.5032H14.0049ZM15.1151 11.5032L15.4953 9.91016L16.2177 10.8455C16.2367 10.8721 16.2557 10.8987 16.2747 10.9291C16.2938 10.9595 16.3128 10.9937 16.3356 11.0318L16.5903 9.97099H16.8146L16.4344 11.5602L15.6968 10.6059L15.6398 10.5261C15.6208 10.4957 15.6056 10.4691 15.5942 10.4348L15.3394 11.4994H15.1151V11.5032ZM17.5903 10.1801L17.2747 11.4994H17.0314L17.3469 10.1801H16.9515L17.0009 9.96719H18.0351L17.9857 10.1801H17.5903ZM17.845 11.1953L18.0617 11.104C18.0655 11.1724 18.0845 11.2257 18.1263 11.2599C18.1682 11.2941 18.2252 11.3131 18.3012 11.3131C18.3735 11.3131 18.4343 11.2941 18.4875 11.2523C18.5408 11.2105 18.575 11.1572 18.5902 11.0888C18.613 10.9975 18.5598 10.9177 18.4305 10.8493C18.4115 10.8379 18.4001 10.8303 18.3887 10.8265C18.2442 10.7428 18.153 10.6706 18.1149 10.6021C18.0769 10.5337 18.0693 10.4538 18.0921 10.3588C18.1225 10.2333 18.1872 10.1345 18.2898 10.0546C18.3925 9.97859 18.5066 9.93677 18.6434 9.93677C18.7537 9.93677 18.8411 9.95958 18.9058 10.0014C18.9704 10.0432 19.0046 10.1079 19.016 10.1877L18.8031 10.2866C18.7841 10.2371 18.7613 10.2029 18.7309 10.1801C18.7005 10.1573 18.6624 10.1459 18.6168 10.1459C18.5522 10.1459 18.4951 10.1649 18.4495 10.1991C18.4039 10.2333 18.3735 10.279 18.3583 10.3398C18.3355 10.431 18.4001 10.5185 18.5484 10.5983C18.5598 10.6059 18.5674 10.6097 18.575 10.6135C18.7043 10.682 18.7917 10.7504 18.8297 10.8188C18.8677 10.8873 18.8754 10.9671 18.8525 11.0698C18.8183 11.2143 18.7461 11.3283 18.6358 11.4158C18.5256 11.4994 18.3963 11.545 18.2442 11.545C18.1187 11.545 18.0199 11.5146 17.9515 11.4538C17.8754 11.393 17.8412 11.3055 17.845 11.1953ZM19.6358 11.5032L20.0008 9.97099H20.2441L19.8791 11.5032H19.6358ZM20.2289 11.5032L20.6091 9.91016L21.3315 10.8455C21.3505 10.8721 21.3695 10.8987 21.3885 10.9291C21.4075 10.9595 21.4265 10.9937 21.4493 11.0318L21.7041 9.97099H21.9284L21.5482 11.5602L20.8106 10.6059L20.7536 10.5261C20.7346 10.4957 20.7194 10.4691 20.7079 10.4348L20.4532 11.4994H20.2289V11.5032ZM22.704 10.1801L22.3885 11.4994H22.1451L22.4607 10.1801H22.0653L22.1147 9.96719H23.1489L23.0994 10.1801H22.704ZM22.9664 11.5032L23.3314 9.97099H24.1678L24.1184 10.1839H23.5291L23.4378 10.5679H24.0271L23.9739 10.7846H23.3846L23.2667 11.2789H23.856L23.8028 11.5032H22.9664ZM24.4682 10.815L24.3047 11.4994H24.0766L24.4416 9.96719H24.7799C24.8788 9.96719 24.9548 9.97479 25.0043 9.9862C25.0575 9.9976 25.0993 10.0204 25.1297 10.0508C25.1678 10.0889 25.1906 10.1345 25.202 10.1953C25.2134 10.2523 25.2096 10.317 25.1944 10.3892C25.164 10.5109 25.1145 10.6097 25.0385 10.6782C24.9624 10.7466 24.8674 10.7884 24.7533 10.8036L25.0993 11.4994H24.8256L24.4948 10.815H24.4682ZM24.529 10.6211H24.5746C24.7039 10.6211 24.7914 10.6059 24.8408 10.5755C24.8902 10.5451 24.9244 10.4919 24.9434 10.412C24.9624 10.3284 24.9548 10.2675 24.9168 10.2333C24.8788 10.1991 24.799 10.1801 24.6773 10.1801H24.6317L24.529 10.6211ZM25.2476 11.5032L25.6126 9.97099H26.4452L26.3958 10.1839H25.8065L25.7153 10.5641H26.3046L26.2513 10.7808H25.662L25.4909 11.4994H25.2476V11.5032ZM27.2551 11.5032L27.179 11.1078H26.5859L26.3198 11.5032H26.065L27.1676 9.91016L27.5098 11.5032H27.2551ZM26.7266 10.8987H27.141L27.0726 10.5489C27.0688 10.5261 27.065 10.4995 27.065 10.4729C27.0612 10.4424 27.0612 10.412 27.0612 10.3778C27.046 10.412 27.0308 10.4424 27.0118 10.4729C26.9965 10.5033 26.9813 10.5299 26.9661 10.5527L26.7266 10.8987ZM29.0915 10.3436C29.0382 10.2828 28.9736 10.2371 28.9052 10.2105C28.8367 10.1801 28.7607 10.1649 28.6733 10.1649C28.5098 10.1649 28.3653 10.2181 28.236 10.3246C28.1067 10.431 28.0231 10.5717 27.9813 10.7428C27.9433 10.9063 27.9585 11.0432 28.0345 11.1534C28.1067 11.2599 28.2208 11.3131 28.3729 11.3131C28.4603 11.3131 28.5478 11.2979 28.6352 11.2637C28.7227 11.2333 28.8101 11.1838 28.9014 11.1192L28.8329 11.4006C28.7569 11.45 28.6771 11.4842 28.5934 11.507C28.5098 11.5298 28.4261 11.5412 28.3349 11.5412C28.2208 11.5412 28.1182 11.5222 28.0307 11.4842C27.9433 11.4462 27.871 11.3892 27.814 11.3131C27.757 11.2409 27.7227 11.1534 27.7075 11.0546C27.6923 10.9557 27.6961 10.8493 27.7265 10.7352C27.7532 10.6211 27.7988 10.5185 27.8596 10.4196C27.9204 10.3208 28.0003 10.2333 28.0915 10.1611C28.1828 10.0851 28.2816 10.028 28.3881 9.99C28.4946 9.95198 28.601 9.93297 28.7113 9.93297C28.7987 9.93297 28.8786 9.94437 28.9546 9.97099C29.0268 9.9976 29.0953 10.0356 29.1561 10.0889L29.0915 10.3436ZM29.1143 11.5032L29.4793 9.97099H30.3119L30.2625 10.1839H29.6732L29.5819 10.5679H30.1713L30.118 10.7846H29.5287L29.4109 11.2789H30.0002L29.9469 11.5032H29.1143Z" fill="#3D3D3C"/>
<path d="M24.6886 8.63643H23.0195L25.3387 0.260498H27.0078L24.6886 8.63643ZM23.8217 0.52284C23.7076 0.363153 23.5289 0.28331 23.2856 0.28331H14.115L13.6626 1.9258H22.0043L21.5177 3.67855H14.845V3.67474H13.1759L11.792 8.67445H13.4611L14.3888 5.32103H21.8903C22.126 5.32103 22.3465 5.24119 22.5518 5.0815C22.7571 4.92182 22.894 4.72411 22.9586 4.48838L23.8863 1.13497C23.9586 0.884035 23.9358 0.682526 23.8217 0.52284ZM10.8187 8.11174C10.7274 8.44252 10.4233 8.67445 10.0811 8.67445H1.47701C1.24129 8.67445 1.06639 8.5946 0.952331 8.43492C0.83827 8.27523 0.811655 8.07752 0.880092 7.8418L2.97883 0.28331H4.64793L2.77352 7.03576H9.44992L11.3243 0.28331H12.9934L10.8187 8.11174Z" fill="#70706E"/>
<path d="M29.8898 0.275635L32 4.4731L27.563 8.67057L29.8898 0.275635Z" fill="#098041"/>
<path d="M28.4071 0.275635L30.5172 4.4731L26.0764 8.67057L28.4071 0.275635Z" fill="#E97626"/>
</svg>
