<svg width="32" height="10" viewBox="0 0 32 10" fill="none" xmlns="http://www.w3.org/2000/svg">
<path d="M11.3036 9.69116L12.922 0.194151H15.5106L13.891 9.69116H11.3036ZM23.2433 0.398878C22.7306 0.206474 21.9269 0 20.9233 0C18.3654 0 16.5638 1.28808 16.5483 3.13417C16.5339 4.4988 17.8347 5.26013 18.8165 5.71436C19.8242 6.17999 20.1629 6.4768 20.158 6.89241C20.1516 7.52906 19.3534 7.81975 18.6093 7.81975C17.5733 7.81975 17.0229 7.67581 16.1727 7.32137L15.839 7.17044L15.4758 9.2964C16.0804 9.56163 17.1984 9.79119 18.3594 9.80313C21.0805 9.80313 22.847 8.52975 22.867 6.5583C22.8767 5.4779 22.1871 4.65584 20.6936 3.97796C19.7888 3.53862 19.2347 3.24546 19.2406 2.80059C19.2406 2.40583 19.7096 1.98372 20.7231 1.98372C21.5695 1.97057 22.1828 2.15516 22.6606 2.34757L22.8925 2.45716L23.2433 0.398878ZM29.9047 0.194005H27.9045C27.2849 0.194005 26.8211 0.363124 26.549 0.981574L22.7046 9.6849H25.4228C25.4228 9.6849 25.8672 8.51471 25.9677 8.25773C26.2647 8.25773 28.9054 8.2618 29.2829 8.2618C29.3603 8.59432 29.5978 9.6849 29.5978 9.6849H31.9998L29.9047 0.193714V0.194005ZM26.7311 6.3266C26.9452 5.77942 27.7625 3.67175 27.7625 3.67175C27.7473 3.69702 27.975 3.12189 28.1057 2.76532L28.2806 3.58413C28.2806 3.58413 28.7763 5.85112 28.8799 6.32645H26.7311V6.3266ZM9.10612 0.194005L6.57183 6.67056L6.30185 5.35444C5.83001 3.83723 4.3601 2.19344 2.7168 1.37051L5.03414 9.67602L7.77297 9.67297L11.8483 0.193908L9.10612 0.19386" fill="#0E4595"/>
<path d="M4.20724 0.193604H0.0330864L0 0.391199C3.24745 1.17731 5.39616 3.07705 6.28832 5.35995L5.38068 0.995677C5.22403 0.394303 4.76956 0.214803 4.20733 0.193846" fill="#F2AE14"/>
</svg>
