<svg width="30" height="23" viewBox="0 0 30 23" fill="none" xmlns="http://www.w3.org/2000/svg">
<path d="M5.00056 0.00442102C5.08285 0.00415953 5.16513 0.00379969 5.24742 0.00335165C5.47072 0.00241782 5.69399 0.00286921 5.91728 0.00357475C6.15919 0.0040907 6.4011 0.00329453 6.643 0.00267444C7.11577 0.00167274 7.58852 0.00188393 8.06129 0.00254157C8.44575 0.00305407 8.83021 0.00312103 9.21468 0.0028755C9.297 0.00282351 9.297 0.00282351 9.38098 0.00277046C9.4925 0.00269813 9.60401 0.00262479 9.71553 0.00255045C10.7592 0.00190662 11.803 0.00264514 12.8467 0.00386257C13.7408 0.00487329 14.635 0.00469741 15.5291 0.00365473C16.5694 0.00244223 17.6097 0.00196858 18.6499 0.00266217C18.761 0.00273422 18.8721 0.00280534 18.9831 0.0028755C19.0378 0.0029104 19.0924 0.0029453 19.1487 0.00298126C19.5324 0.00317599 19.9161 0.00284816 20.2998 0.00231459C20.7679 0.00167803 21.2359 0.00185625 21.7039 0.00305674C21.9424 0.00364839 22.1808 0.00388899 22.4193 0.00313611C22.6381 0.00245568 22.8569 0.00284277 23.0758 0.00403589C23.1913 0.00440317 23.3068 0.00367548 23.4222 0.00289187C24.1017 0.00857933 24.7582 0.148644 25.3634 0.467902C25.4009 0.487311 25.4384 0.506721 25.477 0.526719C26.2463 0.93942 26.8363 1.56613 27.2367 2.3377C27.263 2.38708 27.263 2.38708 27.2898 2.43746C27.3483 2.5577 27.3957 2.67868 27.4418 2.80427C27.4727 2.88798 27.4727 2.88798 27.5043 2.97338C27.742 3.74501 27.694 4.54526 27.6835 5.34422C27.6812 5.54292 27.6801 5.74163 27.679 5.94034C27.6766 6.32769 27.6728 6.71501 27.668 7.10233C27.7069 7.10984 27.7458 7.11734 27.7859 7.12507C27.8369 7.13506 27.8879 7.14504 27.9404 7.15533C27.991 7.16516 28.0416 7.175 28.0937 7.18513C28.5734 7.28912 28.919 7.55151 29.1949 7.95064C29.3552 8.22427 29.4841 8.48443 29.486 8.80617C29.4866 8.87738 29.4866 8.87738 29.4872 8.95004C29.4875 9.02791 29.4875 9.02791 29.4877 9.10735C29.4882 9.18959 29.4882 9.18959 29.4888 9.27349C29.4899 9.45529 29.4906 9.63709 29.4912 9.81889C29.4914 9.88105 29.4916 9.9432 29.4919 10.0072C29.493 10.3364 29.4938 10.6656 29.4944 10.9948C29.495 11.3342 29.4969 11.6734 29.4992 12.0128C29.5007 12.2742 29.5011 12.5357 29.5013 12.7971C29.5016 12.9222 29.5023 13.0472 29.5033 13.1722C29.5047 13.3477 29.5047 13.5232 29.5043 13.6988C29.505 13.7499 29.5057 13.801 29.5065 13.8537C29.5024 14.3548 29.3323 14.8858 28.9687 15.246C28.5565 15.5549 28.1912 15.7643 27.668 15.755C27.6685 15.7962 27.669 15.8374 27.6695 15.8799C27.6741 16.2724 27.6775 16.665 27.6797 17.0575C27.6809 17.2592 27.6824 17.4609 27.685 17.6626C27.7067 19.3954 27.7067 19.3954 27.4418 20.1096C27.4165 20.1793 27.4165 20.1793 27.3908 20.2503C27.3459 20.3618 27.2964 20.4665 27.2403 20.5727C27.2212 20.6095 27.2022 20.6464 27.1826 20.6843C26.7658 21.4545 26.1404 22.0401 25.3669 22.4425C25.3331 22.4604 25.2993 22.4784 25.2644 22.4969C24.6034 22.8223 23.9249 22.9144 23.1969 22.9095C23.1147 22.9097 23.0325 22.9101 22.9503 22.9106C22.727 22.9115 22.5037 22.911 22.2804 22.9103C22.0385 22.9098 21.7967 22.9106 21.5549 22.9112C21.0821 22.9122 20.6094 22.912 20.1366 22.9114C19.7521 22.9109 19.3676 22.9108 18.9831 22.911C18.9283 22.9111 18.8734 22.9111 18.8169 22.9111C18.7054 22.9112 18.5939 22.9113 18.4824 22.9114C17.4385 22.912 16.3947 22.9113 15.3509 22.91C14.4568 22.909 13.5626 22.9092 12.6685 22.9103C11.6283 22.9115 10.5881 22.9119 9.54794 22.9112C9.43685 22.9112 9.32576 22.9111 9.21468 22.911C9.16003 22.911 9.10538 22.911 9.04908 22.9109C8.66542 22.9107 8.28177 22.9111 7.89812 22.9116C7.43003 22.9122 6.96195 22.9121 6.49386 22.9109C6.25539 22.9103 6.01693 22.91 5.77846 22.9108C5.55955 22.9115 5.34066 22.9111 5.12175 22.9099C5.00636 22.9095 4.89097 22.9102 4.77558 22.911C3.67941 22.9019 2.69833 22.5447 1.87957 21.8062C1.84086 21.7728 1.80215 21.7393 1.76227 21.7048C1.07589 21.0724 0.578294 20.1037 0.51167 19.1689C0.507461 19.001 0.506667 18.8335 0.507164 18.6655C0.506908 18.6015 0.506652 18.5375 0.506388 18.4715C0.505674 18.2578 0.505764 18.0441 0.505858 17.8304C0.50558 17.6768 0.505137 17.5232 0.504707 17.3696C0.503769 16.9961 0.503456 16.6227 0.503393 16.2493C0.503339 15.9455 0.503106 15.6417 0.502749 15.3379C0.501753 14.4752 0.50123 13.6124 0.501315 12.7497C0.50132 12.7033 0.501324 12.6568 0.501329 12.609C0.501334 12.5625 0.501338 12.516 0.501343 12.4681C0.501389 11.7149 0.500307 10.9618 0.498712 10.2087C0.497084 9.43409 0.496306 8.65946 0.496404 7.88483C0.496441 7.45048 0.496135 7.01613 0.494913 6.58178C0.493879 6.21185 0.493641 5.84193 0.494405 5.47199C0.494772 5.28358 0.494664 5.09519 0.4938 4.90678C0.487984 3.5503 0.650663 2.43703 1.5968 1.39043C1.64995 1.3304 1.64995 1.3304 1.70417 1.26915C1.98958 0.964511 2.31075 0.749623 2.67132 0.542128C2.71543 0.515884 2.75953 0.489639 2.80497 0.4626C3.48493 0.0877646 4.2364 -0.000772915 5.00056 0.00442102ZM2.67132 2.57805C2.14305 3.27826 2.04029 4.02632 2.04167 4.87625C2.04154 4.93483 2.04141 4.9934 2.04128 5.05375C2.04093 5.24897 2.04097 5.44418 2.04102 5.6394C2.04085 5.7798 2.04066 5.92021 2.04044 6.06061C2.03999 6.4018 2.03982 6.74299 2.03979 7.08418C2.03976 7.36172 2.03964 7.63927 2.03946 7.91681C2.03897 8.70498 2.0387 9.49315 2.03875 10.2813C2.03875 10.3237 2.03875 10.3662 2.03875 10.4099C2.03876 10.4524 2.03876 10.4948 2.03876 10.5386C2.03878 11.2267 2.03824 11.9148 2.03744 12.6029C2.03663 13.3107 2.03624 14.0184 2.03629 14.7262C2.03631 15.1231 2.03616 15.5199 2.03555 15.9168C2.03497 16.2902 2.03499 16.6636 2.0354 17.037C2.03546 17.1737 2.03533 17.3103 2.03499 17.447C2.02356 19.1014 2.02356 19.1014 2.84452 20.502C3.54349 21.1538 4.33668 21.3147 5.26765 21.312C5.34692 21.3122 5.42619 21.3124 5.50545 21.3127C5.72223 21.3132 5.939 21.3131 6.15577 21.3129C6.38997 21.3127 6.62417 21.3132 6.85837 21.3137C7.3168 21.3144 7.77523 21.3145 8.23367 21.3144C8.60641 21.3143 8.97916 21.3144 9.3519 21.3146C9.43155 21.3147 9.43155 21.3147 9.51281 21.3147C9.6207 21.3148 9.72858 21.3148 9.83646 21.3149C10.8477 21.3155 11.8589 21.3154 12.8702 21.3151C13.7945 21.3148 14.7189 21.3154 15.6433 21.3165C16.5932 21.3176 17.5431 21.318 18.4931 21.3178C19.0261 21.3177 19.559 21.3179 20.092 21.3187C20.5458 21.3193 20.9996 21.3194 21.4534 21.3187C21.6847 21.3184 21.916 21.3183 22.1474 21.319C22.3595 21.3196 22.5717 21.3194 22.7838 21.3187C22.8961 21.3184 23.0084 21.319 23.1207 21.3197C23.9655 21.3146 24.6873 21.1046 25.3139 20.5161C25.9232 19.8563 26.122 19.0833 26.1066 18.2016C26.1062 18.1311 26.1059 18.0606 26.1056 17.988C26.1043 17.7656 26.1015 17.5432 26.0986 17.3208C26.0973 17.1689 26.0964 17.0169 26.0955 16.865C26.093 16.495 26.0893 16.125 26.0845 15.755C26.0393 15.7549 25.994 15.7548 25.9474 15.7546C24.8437 15.7513 23.74 15.747 22.6362 15.7417C22.1025 15.7392 21.5687 15.7369 21.0349 15.7354C20.5693 15.7341 20.1037 15.7322 19.6381 15.7296C19.3919 15.7283 19.1457 15.7272 18.8995 15.7269C18.667 15.7265 18.4346 15.7254 18.2021 15.7237C18.1175 15.7232 18.0329 15.723 17.9483 15.7231C16.6305 15.7241 15.4988 15.4101 14.5217 14.4936C13.6228 13.5595 13.3318 12.388 13.3478 11.1227C13.3816 9.99055 13.9074 8.95597 14.7172 8.17685C15.706 7.34724 16.8228 7.1522 18.072 7.14728C18.1595 7.14673 18.2471 7.14617 18.3346 7.14558C18.5712 7.14406 18.8078 7.14287 19.0444 7.14173C19.292 7.14049 19.5396 7.13895 19.7873 7.13743C20.2557 7.13462 20.7242 7.13207 21.1927 7.12963C21.7262 7.12683 22.2597 7.12373 22.7933 7.1206C23.8903 7.11417 24.9874 7.10813 26.0845 7.10233C26.0898 6.69474 26.0938 6.28715 26.0962 5.87953C26.0974 5.69017 26.0991 5.50085 26.1015 5.3115C26.1043 5.0929 26.1056 4.87434 26.1066 4.65573C26.1077 4.58902 26.1089 4.5223 26.1101 4.45356C26.1103 3.76643 25.944 3.17867 25.5189 2.63461C25.4841 2.58802 25.4492 2.54144 25.4133 2.49344C25.0249 2.03738 24.4621 1.73827 23.8789 1.61664C23.7684 1.61143 23.6577 1.60934 23.547 1.60921C23.4446 1.60889 23.4446 1.60889 23.3402 1.60855C23.2643 1.6086 23.1885 1.60865 23.1126 1.6087C23.0321 1.60856 22.9516 1.60839 22.8711 1.60819C22.6496 1.60774 22.4281 1.60764 22.2066 1.60759C21.9678 1.60749 21.729 1.60706 21.4903 1.60668C20.9679 1.60591 20.4456 1.60557 19.9233 1.60532C19.5972 1.60517 19.271 1.60493 18.9449 1.60467C18.0418 1.60398 17.1388 1.6034 16.2357 1.60321C16.1779 1.6032 16.1201 1.60318 16.0606 1.60317C16.0026 1.60316 15.9447 1.60315 15.885 1.60313C15.7676 1.60311 15.6502 1.60308 15.5327 1.60306C15.4745 1.60305 15.4163 1.60303 15.3562 1.60302C14.4128 1.6028 13.4693 1.60181 12.5258 1.60049C11.5571 1.59915 10.5884 1.59845 9.61969 1.59838C9.07582 1.59833 8.53195 1.598 7.98808 1.59698C7.52489 1.59611 7.06171 1.59582 6.59852 1.59628C6.36227 1.59651 6.12603 1.59645 5.88979 1.59566C5.67328 1.59494 5.45679 1.59501 5.24028 1.59569C5.12534 1.59585 5.0104 1.59519 4.89546 1.59448C3.98403 1.59939 3.29673 1.91003 2.67132 2.57805ZM15.7917 9.36447C15.7557 9.39276 15.7197 9.42105 15.6826 9.45019C15.2782 9.80608 14.9378 10.4643 14.8869 11.0045C14.8342 11.8528 14.9548 12.6284 15.5152 13.2956C16.0515 13.8551 16.6684 14.1663 17.4537 14.1973C17.6856 14.2019 17.9173 14.2013 18.1492 14.1999C18.2538 14.2001 18.3584 14.2004 18.463 14.2008C18.7448 14.2016 19.0265 14.201 19.3083 14.2C19.6038 14.1993 19.8993 14.1996 20.1948 14.1998C20.6902 14.2 21.1857 14.1992 21.6811 14.1979C22.2541 14.1964 22.8271 14.1963 23.4002 14.197C23.9521 14.1976 24.5039 14.1972 25.0558 14.1964C25.2906 14.1961 25.5253 14.1961 25.76 14.1964C26.0359 14.1966 26.3117 14.1961 26.5875 14.1948C26.6889 14.1945 26.7902 14.1945 26.8915 14.1948C27.0295 14.1951 27.1675 14.1944 27.3054 14.1934C27.3458 14.1938 27.3862 14.1941 27.4278 14.1945C27.5888 14.1924 27.6981 14.1901 27.832 14.0959C27.9796 13.8727 27.9595 13.638 27.9598 13.3813C27.9601 13.3354 27.9604 13.2895 27.9607 13.2422C27.9615 13.0903 27.9619 12.9384 27.9622 12.7864C27.9625 12.6808 27.9629 12.5752 27.9632 12.4696C27.9638 12.2482 27.9641 12.0268 27.9643 11.8053C27.9646 11.5216 27.966 11.238 27.9676 10.9543C27.9687 10.7362 27.9689 10.518 27.969 10.2999C27.9692 10.1953 27.9697 10.0908 27.9704 9.98619C27.9714 9.83985 27.9713 9.69354 27.9709 9.5472C27.9717 9.48249 27.9717 9.48249 27.9725 9.41648C27.9703 9.13855 27.9247 8.94257 27.7245 8.74239C27.588 8.73636 27.4531 8.73403 27.3165 8.73406C27.2733 8.73386 27.2301 8.73365 27.1855 8.73343C27.0396 8.73281 26.8936 8.73259 26.7477 8.73238C26.6435 8.73202 26.5393 8.73165 26.4351 8.73125C26.151 8.73026 25.8669 8.72967 25.5828 8.7292C25.4052 8.72891 25.2277 8.72857 25.0501 8.72821C24.4944 8.72713 23.9387 8.72633 23.3829 8.72586C22.7419 8.72531 22.1008 8.72382 21.4597 8.72153C20.9642 8.71982 20.4686 8.71899 19.9731 8.7188C19.6772 8.71867 19.3813 8.71817 19.0854 8.71674C18.8066 8.71542 18.5278 8.71519 18.2489 8.71576C18.147 8.71579 18.045 8.71544 17.9431 8.71466C17.1053 8.70861 16.4612 8.8186 15.7917 9.36447Z" fill="#3572EF"/>
<path d="M18.5063 10.3823C18.8088 10.6269 18.9526 10.8944 19.0082 11.2766C19.0351 11.6407 18.9354 11.921 18.7573 12.2345C18.451 12.5171 18.1255 12.6615 17.7075 12.6763C17.2906 12.656 17.0146 12.5338 16.732 12.2274C16.4973 11.9258 16.444 11.6369 16.4525 11.2605C16.4988 10.8904 16.7001 10.6207 16.9794 10.3823C17.482 10.0391 17.9862 10.107 18.5063 10.3823Z" fill="#3572EF"/>
</svg>
